<svg xmlns="http://www.w3.org/2000/svg" viewBox="0 0 326 93.62"><defs><style>.cls-1{fill:none;stroke:#b9b9c1;stroke-miterlimit:10;stroke-width:1.1px;}.cls-2{fill:#fff;}.cls-3{fill:#fde67c;}.cls-4{fill:#fec1ae;}.cls-5{fill:#26466d;}.cls-6{fill:#2f2f30;}.cls-7{fill:#767677;}</style></defs><g id="レイヤー_2" data-name="レイヤー 2"><g id="レイヤー_1-2" data-name="レイヤー 1"><path class="cls-1" d="M.06.55C1.92.76,326,.55,326,.55"/><path class="cls-1" d="M.06,77.12c1.86.21,325.94,0,325.94,0"/><path class="cls-2" d="M19.4,22.91a.26.26,0,0,0,.17-.09c.11-.46-1.22-.29-.8-1.22a1,1,0,0,1,.88-.26C18,20,17.57,22.29,19.4,22.91Z"/><path class="cls-2" d="M20.25,17.26c-.8.44-1.84.67-2.39,1.43a.15.15,0,0,1-.09.07c1.28.78,2.87,2.81,4.32,1.4.36-.23,1-.46,1.06-.93C22.48,18.24,21.19,17.93,20.25,17.26Z"/><path class="cls-2" d="M22.17,20.49a2,2,0,0,1-.91.51,11,11,0,0,1,0,1.72.17.17,0,1,1-.33.05,12.49,12.49,0,0,0,0-1.73,9.75,9.75,0,0,1-3.25-1.95,12.08,12.08,0,0,0-.13,4.28c2.6,1.42,3.86,1.43,5.81-1C23.21,21.07,24.05,19,22.17,20.49ZM19.9,21.73c-.25,0-1-.22-.84.26.19.24.58.22.77.47.38.54-.37,1-.8.67-2-.95-1.14-3.73.89-2C20.13,21.21,20.16,21.71,19.9,21.73Z"/><path class="cls-2" d="M11.75,17a3.42,3.42,0,0,1,1.44,0,1,1,0,0,1,.44.4,3.2,3.2,0,0,1,1.94.65c0-2.24-.14-.66-2.63-1.65-1.9-.63-3-.75-3.4.36A10.16,10.16,0,0,1,11.75,17Z"/><path class="cls-2" d="M12,15.84a15,15,0,0,0,3,.67h0a3.88,3.88,0,0,0,.83-.07c.44-1.94-1.06-2.34-2.67-2.44-.82-.18-1.77-.5-2.49.12C9.18,16.24,10.34,15.37,12,15.84Z"/><path class="cls-2" d="M18.14,14.48a9.79,9.79,0,0,1-.1-1.07c-.67-1.11-1.29-2.33-.81-3.42a1.51,1.51,0,0,0-1.1.95,1.72,1.72,0,0,1,0,.78,33.22,33.22,0,0,0,2,4,3.14,3.14,0,0,0,1.22.07,3.7,3.7,0,0,1-.69-.82A.51.51,0,0,1,18.14,14.48Z"/><path class="cls-2" d="M18.49,14.17l-.1-.17a1.53,1.53,0,0,0,.06.25A.3.3,0,0,1,18.49,14.17Z"/><path class="cls-3" d="M23,8.09C21.64,7.32,19.16,8,18,9a3.09,3.09,0,0,0-.54.55l.08,0c1.34-.44,2.86-1.74,4.27-.92a15.72,15.72,0,0,1,1.47,4.83c.19.82.3,1.38-.66,1.67s-1.91.69-2.91.94a2.85,2.85,0,0,0,.67.27c.93.22,1.6-.72,2.37-1.11s1.5-.48,2.19-.84C26.1,12.73,24.47,9.21,23,8.09Z"/><path class="cls-3" d="M19.3,12c-.09.09,0,.26,0,.38C19.64,12.33,19.59,12,19.3,12Z"/><path class="cls-3" d="M18.45,14.25c.11.34.31.5.7.3,0-.25-.27-.55-.1-.78s.22-.31.36-.45.46-.2.63-.29c.91-.41.59,1.1,1.48.68.51-.52-1.9-3.21-2.65-3.13-.29.26-.27.72-.47,1a20.89,20.89,0,0,0,0,2.41l.1.17A.3.3,0,0,0,18.45,14.25Zm.65-2.54a.52.52,0,1,1,.2,1C18.91,12.67,18.78,11.89,19.1,11.71Z"/><path class="cls-3" d="M21.66,8.92c-.95-.64-2.08.09-3.15.54a5.87,5.87,0,0,1-1.28.53c-.48,1.09.14,2.31.81,3.42-.1-2,.25-4.58,2.37-2.2.53.55,2.52,2.58,1,2.86-.89.25-.59-.31-1-.77a1.42,1.42,0,0,0-1.06.68c0,.26.31.63.06.84a1.71,1.71,0,0,1-.76.12,3.7,3.7,0,0,0,.69.82A7.65,7.65,0,0,0,21.58,15a3.36,3.36,0,0,0,1.54-.58A20,20,0,0,0,21.66,8.92Z"/><path class="cls-4" d="M9.52,18.81c.33.6-.09,1.36,0,2a11.88,11.88,0,0,0,5.44.44,7.55,7.55,0,0,0,.62-2.67c0-.2,0-.37,0-.53a3.2,3.2,0,0,0-1.94-.65c.27.4.33,1-.18,1.11,1.28.88-.29,1.87-1.3,1.87-1.29.08-1.36-1.53-1-2.42.11-.22-.05-.65.25-.73,0-.11.15-.18.35-.23a10.16,10.16,0,0,0-2.21-.24A4.86,4.86,0,0,0,9.52,18.81Z"/><path class="cls-4" d="M11.58,17.45c-.15.83-.8,2.64.59,2.63.51,0,1.94-.53,1.23-1.15-.74-.42-.56-.46.1-.79C13.5,17,12.31,17.23,11.58,17.45Zm.34.82c-.38-.21.15-.64.45-.51S12.18,18.33,11.92,18.27Zm.59,1c-.41,0-.34-.63.05-.5S12.88,19.33,12.51,19.31Z"/><path class="cls-4" d="M15.88,18.69c-.24,1.3-.05,3.28-1.91,3,0,.14-.17.14-.28.11-.93-.21-4.09-.05-4.49-.83a14.09,14.09,0,0,0,0-2.25c-.2,0-.13-.29-.14-.44.06-.49.11-1,.19-1.48-1.34.13-2.24.86-1.82,3,0,.94.26,4.81,1.86,3.84a12,12,0,0,0,4,.83c2.15.4,2.15-2.45,2.79-3.86a2.33,2.33,0,0,0-.2-2.2A2.44,2.44,0,0,1,15.88,18.69Z"/><path class="cls-5" d="M9.18,18.72A14.09,14.09,0,0,1,9.2,21c.4.78,3.56.62,4.49.83.11,0,.25,0,.28-.11,1.86.28,1.67-1.7,1.91-3a2.44,2.44,0,0,0,0-.27,4,4,0,0,1,0-1.19,3.4,3.4,0,0,0,.26-1.58c0-1.41-.69-1.53-1.92-1.84-1.15,0-2.32-.72-3.43-.19-.37-.34-.53.6-.72.81a5.46,5.46,0,0,0-.85,2.37c-.08.49-.13,1-.19,1.48C9.05,18.43,9,18.68,9.18,18.72Zm1.46-4.6c.72-.62,1.67-.3,2.49-.12,1.61.1,3.11.5,2.67,2.44a3.88,3.88,0,0,1-.83.07h0a15,15,0,0,1-3-.67C10.34,15.37,9.18,16.24,10.64,14.12Zm2.3,2.31c2.49,1,2.68-.59,2.63,1.65,0,.16,0,.33,0,.53a7.55,7.55,0,0,1-.62,2.67,11.88,11.88,0,0,1-5.44-.44c-.07-.67.35-1.43,0-2a4.86,4.86,0,0,1,0-2C9.89,15.68,11,15.8,12.94,16.43Z"/><path class="cls-5" d="M13.19,17a3.42,3.42,0,0,0-1.44,0c-.2,0-.35.12-.35.23-.3.08-.14.51-.25.73-.36.89-.29,2.5,1,2.42,1,0,2.58-1,1.3-1.87.51-.14.45-.71.18-1.11A1,1,0,0,0,13.19,17Zm.21,1.9c.71.62-.72,1.15-1.23,1.15-1.39,0-.74-1.8-.59-2.63.73-.22,1.92-.45,1.92.69C12.84,18.47,12.66,18.51,13.4,18.93Z"/><path class="cls-5" d="M12.37,17.76c-.3-.13-.83.3-.45.51C12.18,18.33,12.72,18,12.37,17.76Z"/><path class="cls-5" d="M12.56,18.81c-.39-.13-.46.51-.05.5S13,18.8,12.56,18.81Z"/><path class="cls-5" d="M20.28,16.9c-.91.3-2.74,1.14-2.88,2A15,15,0,0,0,17.06,21c0,.22-.29.86.06.88a14.55,14.55,0,0,0,.15,1.62c.7.47,3,1.57,3.72,1.13,1.14-.66,2.89-1.45,2.7-3C24,18.62,22.76,18.26,20.28,16.9Zm3.08,5.5c-1.95,2.4-3.21,2.39-5.81,1a12.08,12.08,0,0,1,.13-4.28A9.75,9.75,0,0,0,20.93,21a12.49,12.49,0,0,1,0,1.73.17.17,0,1,0,.33-.05,11,11,0,0,0,0-1.72,2,2,0,0,0,.91-.51C24.05,19,23.21,21.07,23.36,22.4Zm-1.27-2.24c-1.45,1.41-3-.62-4.32-1.4a.15.15,0,0,0,.09-.07c.55-.76,1.59-1,2.39-1.43.94.67,2.23,1,2.9,2C23.11,19.7,22.45,19.93,22.09,20.16Z"/><path class="cls-5" d="M19.92,21.15c-2-1.75-2.87,1-.89,2,.43.3,1.18-.13.8-.67-.19-.25-.58-.23-.77-.47-.13-.48.59-.3.84-.26S20.13,21.21,19.92,21.15Zm-1.15.45c-.42.93.91.76.8,1.22a.26.26,0,0,1-.17.09c-1.83-.62-1.37-2.94.25-1.57A1,1,0,0,0,18.77,21.6Z"/><path class="cls-5" d="M23.3,13.44a15.72,15.72,0,0,0-1.47-4.83c-1.41-.82-2.93.48-4.27.92l-.08,0c-.78.29-1.92.73-1.63,1.74-.28.58.44,1.27.59,1.86a10,10,0,0,0,.7,1.48c-.12.21.16.41.23.6a1.87,1.87,0,0,0,2.36.81c1-.25,2.09-.8,2.91-.94S23.49,14.26,23.3,13.44Zm-4,2.32a3.14,3.14,0,0,1-1.22-.07,33.22,33.22,0,0,1-2-4,1.72,1.72,0,0,0,0-.78,1.51,1.51,0,0,1,1.1-.95,5.87,5.87,0,0,0,1.28-.53c1.07-.45,2.2-1.18,3.15-.54a20,20,0,0,1,1.46,5.54,3.36,3.36,0,0,1-1.54.58A7.65,7.65,0,0,1,19.32,15.76Z"/><path class="cls-5" d="M18.63,14.94a1.71,1.71,0,0,0,.76-.12c.25-.21,0-.58-.06-.84a1.42,1.42,0,0,1,1.06-.68c.41.46.11,1,1,.77,1.54-.28-.45-2.31-1-2.86-2.12-2.38-2.47.24-2.37,2.2a9.79,9.79,0,0,0,.1,1.07A.51.51,0,0,0,18.63,14.94Zm-.23-3.35c.2-.29.18-.75.47-1,.75-.08,3.16,2.61,2.65,3.13-.89.42-.57-1.09-1.48-.68-.17.09-.44.19-.63.29s-.19.35-.36.45.07.53.1.78c-.39.2-.59,0-.7-.3a1.53,1.53,0,0,1-.06-.25A20.89,20.89,0,0,1,18.4,11.59Z"/><path class="cls-5" d="M19.3,12.68a.52.52,0,1,0-.2-1C18.78,11.89,18.91,12.67,19.3,12.68Zm0-.71c.29,0,.34.36,0,.38C19.29,12.23,19.21,12.06,19.3,12Z"/><path class="cls-2" d="M15.76,45.93c-.61.1-1.46-.37-1.9-.24-.53,2,2.53,2.05,3,.43.41-.71.79,1.36,2.19.38C20.8,43.47,17,46,15.76,45.93Z"/><path class="cls-2" d="M13.24,45.26a.22.22,0,0,1,0-.1l-.07.07Z"/><path class="cls-2" d="M13.45,36.72a.69.69,0,0,1,0-.13v0Z"/><path class="cls-2" d="M20.92,43.66C19,42.19,20.45,39.9,22.3,41.1,22.14,39.64,21.23,38.84,20,38c-.14-.33-1.74-.22-1-.76a1.94,1.94,0,0,0,.11-.63c-.09-.19-.15-.56.1-.64a9.38,9.38,0,0,0,.16-1.31c-.17-.22-.35-.89.06-.95a4.08,4.08,0,0,0-.37-1.86c-.34.28-.68-.48-.38-.69a.83.83,0,0,0-.39-.51c-.15.3-.52.13-.65-.09A1.21,1.21,0,0,0,16.46,32a.21.21,0,0,1-.32.11,4.61,4.61,0,0,0,.05,1.74c0,.28.42,1.09,0,1.15a9.18,9.18,0,0,0,.44,1.88c.91,1.55-1.57,1.1-2.45,1.24-.42-.08-.49-.58-.58-1-.07.5-.86.94-1.09.26-.89-.73-2.61-5.31-.69-5.12-.17-.36-.33-.84-.69-.82-.55.08-.86.71-1,1.2-.06.18.2.27,0,.45a5.38,5.38,0,0,0,.53,2.75.22.22,0,0,1-.1.23c.12,1.11,1.18,1.75,1.1,2.94-.14.86-.94,1.48-1.09,2.35.27.13.09.49,0,.66a2.28,2.28,0,0,0,.26,1.43c.39-.58,1.25-.85,2.33-.2a1.13,1.13,0,0,1,.26,1.71,1.38,1.38,0,0,1,.4,0c.27,0,1,0,.73.42a3.55,3.55,0,0,0,2.09,0c-.39-.46.39-.48.68-.38a16.86,16.86,0,0,0,3.64-1.19.33.33,0,0,1,.07-.13Zm-7.15-.8c-.36.43-1.35.22-.9-.35-.35-.32.24-.59.51-.64C14.06,41.56,14.54,42.75,13.77,42.86Zm3.92.47c-.47,0-.85-.55-1.18-.87-.17.26-.29.78-.63.86-.55-.18.28-.85.33-1.2s.29-.49.48-.23a2.16,2.16,0,0,0,1,1.06A.21.21,0,0,1,17.69,43.33Zm-.09-6.44c-.08-.39-.65-.86-.12-1.21-.25-.81-.44-4.64,1.15-3C19.13,33.48,19.36,38.5,17.6,36.89Zm1.67,3.83c.21-.21,1-.32.89.17.1.24-.09.42-.31.51C19.28,41.72,18.29,41.14,19.27,40.72Z"/><path class="cls-4" d="M20.92,43.66H21c.14-.21.49-.32.69-.45,1.26-1.06.11-.91.65-1.82,0-.1,0-.2,0-.3C20.45,39.9,19,42.19,20.92,43.66Z"/><path class="cls-4" d="M22.86,41.56a2.06,2.06,0,0,1-.69,1.77.52.52,0,0,1-.06.13,1.59,1.59,0,0,0,.79-1.86Z"/><path class="cls-4" d="M10.88,44.3a2.69,2.69,0,0,1-.3-.37,1.76,1.76,0,0,0,1.24,1.89,1.49,1.49,0,0,0,.92-.26A4,4,0,0,1,10.88,44.3Z"/><path class="cls-4" d="M13.12,43.22c-1.08-.65-1.94-.38-2.33.2a3.73,3.73,0,0,0,2.35,1.81l.07-.07c0-.12,0-.19.17-.23A1.13,1.13,0,0,0,13.12,43.22Z"/><path class="cls-4" d="M13,33.75v0Z"/><path class="cls-4" d="M12.48,37.35c.23.68,1,.24,1.09-.26l-.06-.23a.84.84,0,0,1-.06-.14l0-.08v0c-.23-.59-.13-1.39-.39-2-.68.52-.43-1.63-.71-2-.25.17-.38-.06-.51-.36C9.87,32,11.59,36.62,12.48,37.35Z"/><path class="cls-4" d="M18.63,32.65c-1.59-1.61-1.4,2.22-1.15,3-.53.35,0,.82.12,1.21C19.36,38.5,19.13,33.48,18.63,32.65Z"/><path class="cls-5" d="M22.86,41.56a1.28,1.28,0,0,0-.11-.24,4.52,4.52,0,0,0-3.31-4c.28-1.95,1-4.38-.27-6.1-.21-1.43-2.08-1.38-2.84-.43-1.16-1.09-.55,6.07.05,6.62-1.48.31-2.59.52-2.58-1.38-.3-.69-.15-1.88-.85-2.33h0v0c-.09-.5-.33-2.77-1.1-2.32-.86-1.15-2.2.34-2.15,1.36a6.53,6.53,0,0,0,.37,2.69c0,.42.3,2.11.77,2.15a.89.89,0,0,1,.14.24c.55.94.06,1.7-.47,2.51a3.61,3.61,0,0,0,.08,3.57,2.69,2.69,0,0,0,.3.37,4,4,0,0,0,1.86,1.26,2.7,2.7,0,0,0,.67.12,1.66,1.66,0,0,0,1.62,2,2.58,2.58,0,0,0,2.1-1.13,1.49,1.49,0,0,0,1.41.55c1.37-.2,1.29-1.55,1.36-2.37.55-.49,1.9-.61,2.21-1.31a.52.52,0,0,0,.06-.13A2.06,2.06,0,0,0,22.86,41.56ZM19,46.5c-1.4,1-1.78-1.09-2.19-.38-.46,1.62-3.52,1.59-3-.43.44-.13,1.29.34,1.9.24C17,46,20.8,43.47,19,46.5ZM17.28,45c-.29-.1-1.07-.08-.68.38a3.55,3.55,0,0,1-2.09,0c.27-.45-.46-.42-.73-.42a1.38,1.38,0,0,0-.4,0c-.12,0-.2.11-.17.23a.22.22,0,0,0,0,.1l-.1,0a3.73,3.73,0,0,1-2.35-1.81A2.28,2.28,0,0,1,10.53,42c.13-.17.31-.53,0-.66.15-.87.95-1.49,1.09-2.35.08-1.19-1-1.83-1.1-2.94a.22.22,0,0,0,.1-.23,5.38,5.38,0,0,1-.53-2.75c.19-.18-.07-.27,0-.45.12-.49.43-1.12,1-1.2.36,0,.52.46.69.82s.26.53.51.36c.28.38,0,2.53.71,2,.26.6.16,1.4.39,2a.69.69,0,0,0,0,.13.84.84,0,0,0,.06.14l.06.23c.09.4.16.9.58,1,.88-.14,3.36.31,2.45-1.24A9.18,9.18,0,0,1,16.16,35c.45-.06.06-.87,0-1.15a4.61,4.61,0,0,1-.05-1.74.21.21,0,0,0,.32-.11,1.21,1.21,0,0,1,1.23-1.36c.13.22.5.39.65.09a.83.83,0,0,1,.39.51c-.3.21,0,1,.38.69a4.08,4.08,0,0,1,.37,1.86c-.41.06-.23.73-.06.95A9.38,9.38,0,0,1,19.26,36c-.25.08-.19.45-.1.64a1.94,1.94,0,0,1-.11.63c-.75.54.85.43,1,.76,1.19.81,2.1,1.61,2.26,3.07,0,.1,0,.2,0,.3-.54.91.61.76-.65,1.82-.2.13-.55.24-.69.45a.33.33,0,0,0-.07.13A16.86,16.86,0,0,1,17.28,45Z"/><path class="cls-5" d="M20.16,40.89c.12-.49-.68-.38-.89-.17-1,.42,0,1,.58.68C20.07,41.31,20.26,41.13,20.16,40.89Z"/><path class="cls-5" d="M13.38,41.87c-.27.05-.86.32-.51.64-.45.57.54.78.9.35C14.54,42.75,14.06,41.56,13.38,41.87Z"/><path class="cls-5" d="M17.72,43a2.16,2.16,0,0,1-1-1.06c-.19-.26-.46,0-.48.23s-.88,1-.33,1.2c.34-.08.46-.6.63-.86.33.32.71.83,1.18.87A.21.21,0,0,0,17.72,43Z"/><path class="cls-2" d="M16.08,60.15c.59-.08,1.86,0,3-.06.78-.22,1.61-.51,2.42-.77h0c-.18-.82-1.49-.88-2.21-.91a28.11,28.11,0,0,0-3.92-.16A2.33,2.33,0,0,0,16.08,60.15Z"/><path class="cls-2" d="M21.88,58.13c-.13.11-.41,0-.4-.14a3.6,3.6,0,0,0-1.29-.32,10.78,10.78,0,0,0-2.84-.1.15.15,0,0,1-.27,0,6,6,0,0,0-1.53,0l-.16,0V58a31.33,31.33,0,0,1,4.07.18c.72,0,2.3.25,2.31,1.11l1-.27A1.89,1.89,0,0,0,21.88,58.13Z"/><path class="cls-2" d="M8,54.38c-.18-.15-.36-.49-.56-.17-.47,1,1,.42,1.53.51s.39-.11.33-.46A1.65,1.65,0,0,1,8,54.38Z"/><path class="cls-2" d="M15.5,55.65c1-.14.52-1.38-.18-1.41a.53.53,0,0,0-.28.31,3.09,3.09,0,0,1,.3,1A.91.91,0,0,0,15.5,55.65Z"/><path class="cls-2" d="M18.25,60.31l-1.47.12A4.57,4.57,0,0,0,18.25,60.31Z"/><path class="cls-2" d="M10.47,56.32c.42-.76-.43-.64-.91-.82-.52.91-1.6.61-2.4,1,0,.59.72.62,1.15.61C9,57,10.07,57.05,10.47,56.32Z"/><path class="cls-2" d="M12.61,53.35a1.32,1.32,0,0,0-.36-.47c-.39,0-.62-.61-1.07-.6-.26-.05-.49.52-.63.13-.35,0-.59.33-.74.6a.36.36,0,0,1-.19.61h0c0,.4-.13.9.17,1.16a.11.11,0,0,1-.07.13c0,.1.11.22,0,.29.09.24.73.12,1,.37a.82.82,0,0,1,.12.2C11.11,54.52,11.66,53.51,12.61,53.35Z"/><path class="cls-2" d="M9.58,62.92a.14.14,0,1,1,.27,0,.7.7,0,0,0,.37.29,17.09,17.09,0,0,1,.23-3.06,18.61,18.61,0,0,1,.2-3.65,2.36,2.36,0,0,1-.73.6,1.87,1.87,0,0,1-.66,2.39,3.68,3.68,0,0,0-.38.77c0,.12-.13.3-.27.19a2.17,2.17,0,0,0-.15.4.14.14,0,0,1,.07.21,1.21,1.21,0,0,0,.55,1.56c.13.1.49.09.43.32-.23.22-.68-.18-.9-.33a1.9,1.9,0,0,0,2,2.11,3.41,3.41,0,0,1-.41-1.25C9.87,63.38,9.62,63.2,9.58,62.92Z"/><path class="cls-3" d="M21.53,59.32c-.81.26-1.64.55-2.42.77C20.31,60,21.4,59.87,21.53,59.32Z"/><path class="cls-3" d="M10.45,60.18a17.09,17.09,0,0,0-.23,3.06,2.09,2.09,0,0,0,.83.1,61.28,61.28,0,0,0,10.18-.75,3.93,3.93,0,0,0,.56-.24c-.05-.13.09-.2.19-.27s.19-.4.38-.4c0-.14.14-.31.25-.14a2,2,0,0,0,.11-.2c-.3-.22.48-.74.41-.25A3.44,3.44,0,0,0,24.46,60c.55-.91-1.12-.33-1.53-.66-.06-.12-.12-.26-.19-.38l-1,.27a.85.85,0,0,1-.08.39c-.57.78-1.65.65-2.53.65a7.6,7.6,0,0,0-.91,0,4.57,4.57,0,0,1-1.47.12c-1.4.1-2.89.12-3.35-.54-.57-.21-.31-1.12-.42-1.6a16.44,16.44,0,0,1-.09-2.63c-.38,0-.36-.83-.08-.95,0-.11,0-.27,0-.41a4,4,0,0,0-.27-.95c-.95.16-1.5,1.17-1.81,2.42a.77.77,0,0,1-.15.76A18.61,18.61,0,0,0,10.45,60.18Zm.65-5c.13-.21.39-.15.59-.12s.17.28.15.43-.34.25-.56.2S11,55.34,11.1,55.16Z"/><path class="cls-3" d="M14.93,55.52a3.57,3.57,0,0,0-1,0c-1.19-.17-.75,1.24-.71,2,.71-.11,1.43-.2,2.16-.26,0-.47,0-.93,0-1.38C15.2,55.83,15.08,55.64,14.93,55.52Z"/><path class="cls-3" d="M14.48,57.57c-.27.11-.9,0-.86.32s-.24,0-.35,0a7,7,0,0,1,0,1c.2.07,0,.31.06.46s0,.24.14.25a.13.13,0,0,1,.2.17c0,.26.39.27.59.29.1-.13.37,0,.46.06a11.1,11.1,0,0,0,1.29,0h0a2.33,2.33,0,0,1-.68-1.91,13.5,13.5,0,0,0-1.44.15c-.35-.29.39-.41,1.43-.44v-.38C15.08,57.67,14.47,57.87,14.48,57.57Z"/><path class="cls-3" d="M22.18,62.28c-1.53,1.37-4.46.75-6.44,1.18-.9,0-4.1.49-5.5,0a3.41,3.41,0,0,0,.41,1.25,12.66,12.66,0,0,0,1.39,0C14.85,64.46,21.44,65.74,22.18,62.28Z"/><path class="cls-3" d="M13,55.39a9.22,9.22,0,0,1,1.61-.18c.34-.05.54.16.76.33a3.09,3.09,0,0,0-.3-1c-.07.15-.12.29-.6.3s-1,0-1.43.1C12.87,55,12.85,55.38,13,55.39Z"/><path class="cls-3" d="M13.12,54.61a4.6,4.6,0,0,0,1.65-.1.67.67,0,0,1,.1-.23,1.53,1.53,0,0,0-.28-.29,3.11,3.11,0,0,0-1.65-.65A2.56,2.56,0,0,1,13.12,54.61Z"/><path class="cls-3" d="M23,58.89a1,1,0,0,0,1.08.32c1.87,0-.3,2.14-1.12,2.17A6,6,0,0,0,22.24,63c-1.82,2.79-6,1.68-8.86,2-.83,0-1.69,0-2.53,0a3.92,3.92,0,0,0,.27.33c2.1,1.83,5,.86,7.45.93,3.18-.3,6.82-1.47,7.12-5.19C26.13,58.71,24.84,58.49,23,58.89Z"/><path class="cls-5" d="M11.28,55.67c.22,0,.47,0,.56-.2s.07-.4-.15-.43-.46-.09-.59.12S11,55.66,11.28,55.67Z"/><path class="cls-5" d="M13.38,65.05c2.87-.35,7,.76,8.86-2A6,6,0,0,1,23,61.38c.82,0,3-2.14,1.12-2.17A1,1,0,0,1,23,58.89a3.68,3.68,0,0,0-1-1,15.82,15.82,0,0,0-6.68-.66c-.73.06-1.45.15-2.16.26,0-.77-.48-2.18.71-2a3.57,3.57,0,0,1,1,0c.15.12.27.31.45.36a.29.29,0,0,0,.1,0c1.21-.06.94-1.73,0-1.95a.64.64,0,0,0-.58.32.67.67,0,0,0-.1.23,4.6,4.6,0,0,1-1.65.1,2.56,2.56,0,0,0-.18-1.27.36.36,0,0,1,0-.1c0-.1-.09-.21-.2-.21-.17-.2-.33-.5-.62-.54-.41-.32-.89-.69-1.4-.32-.57-.2-1,.42-1.2.88s0,.94-.4,1c-1.07.55-1.25-.8-1.86,0a.61.61,0,0,0,.44,1,5.41,5.41,0,0,1,1.79,0A1.41,1.41,0,0,1,8.41,56c-.79,0-2.26.25-1.13,1.19.82.6,3-.69,2.54,1-.2,0-.24.23-.13.35a1.05,1.05,0,0,1-.63.79,7.79,7.79,0,0,0-.39.76c-.84.47-.5,2.1-.26,2.88s.19,1.37,1,1.81a5,5,0,0,0,1.42.27C11.69,65.09,12.55,65,13.38,65.05ZM9,54.72c-.48-.09-2,.46-1.53-.51.2-.32.38,0,.56.17a1.65,1.65,0,0,0,1.3-.12C9.39,54.61,9.4,54.75,9,54.72Zm5.44.13c.48,0,.53-.15.6-.3a.53.53,0,0,1,.28-.31c.7,0,1.14,1.27.18,1.41a.91.91,0,0,1-.16-.11c-.22-.17-.42-.38-.76-.33a9.22,9.22,0,0,0-1.61.18c-.12,0-.1-.44,0-.44C13.44,54.88,14,54.93,14.44,54.85ZM8.31,57.07c-.43,0-1.19,0-1.15-.61.8-.35,1.88-.05,2.4-1,.48.18,1.33.06.91.82S9,57,8.31,57.07Zm2.34,7.68a1.9,1.9,0,0,1-2-2.11c.22.15.67.55.9.33.06-.23-.3-.22-.43-.32a1.21,1.21,0,0,1-.55-1.56.14.14,0,0,0-.07-.21,2.17,2.17,0,0,1,.15-.4c.14.11.25-.07.27-.19a3.68,3.68,0,0,1,.38-.77,1.87,1.87,0,0,0,.66-2.39,2.36,2.36,0,0,0,.73-.6.77.77,0,0,0,.15-.76.82.82,0,0,0-.12-.2c-.24-.25-.88-.13-1-.37.12-.07,0-.19,0-.29a.11.11,0,0,0,.07-.13c-.3-.26-.19-.76-.17-1.16h0A.36.36,0,0,0,9.81,53c.15-.27.39-.64.74-.6.14.39.37-.18.63-.13.45,0,.68.57,1.07.6a1.32,1.32,0,0,1,.36.47,4,4,0,0,1,.27.95c0,.14,0,.3,0,.41-.28.12-.3.9.08.95A16.44,16.44,0,0,0,13,58.29c.11.48-.15,1.39.42,1.6.46.66,2,.64,3.35.54l1.47-.12a7.6,7.6,0,0,1,.91,0c.88,0,2,.13,2.53-.65a.85.85,0,0,0,.08-.39c0-.86-1.59-1.1-2.31-1.11A31.33,31.33,0,0,0,15.39,58c-1,0-1.78.15-1.43.44a13.5,13.5,0,0,1,1.44-.15,28.11,28.11,0,0,1,3.92.16c.72,0,2,.09,2.21.91h0c-.13.55-1.22.72-2.42.77s-2.44,0-3,.06h0a11.1,11.1,0,0,1-1.29,0c-.09-.1-.36-.19-.46-.06-.2,0-.6,0-.59-.29a.13.13,0,0,0-.2-.17c-.12,0-.14-.15-.14-.25s.14-.39-.06-.46a7,7,0,0,0,0-1c.11,0,.26.27.35,0s.59-.21.86-.32c0,.3.6.1.91,0l.16,0a6,6,0,0,1,1.53,0,.15.15,0,0,0,.27,0,10.78,10.78,0,0,1,2.84.1,3.6,3.6,0,0,1,1.29.32c0,.19.27.25.4.14a1.89,1.89,0,0,1,.86.84c.07.12.13.26.19.38.41.33,2.08-.25,1.53.66a3.44,3.44,0,0,1-1.33,1.08c.07-.49-.71,0-.41.25a2,2,0,0,1-.11.2c-.11-.17-.26,0-.25.14-.19,0-.32.23-.38.4s-.24.14-.19.27a3.93,3.93,0,0,1-.56.24,61.28,61.28,0,0,1-10.18.75,2.09,2.09,0,0,1-.83-.1A.7.7,0,0,1,9.85,63a.14.14,0,0,0-.27,0c0,.28.29.46.66.58,1.4.45,4.6,0,5.5,0,2-.43,4.91.19,6.44-1.18-.74,3.46-7.33,2.18-10.14,2.49A12.66,12.66,0,0,1,10.65,64.75Z"/><path class="cls-6" d="M40.27,22.36h0a.1.1,0,0,1-.09-.08h0l0-.84A4.22,4.22,0,0,1,38,22c-2.17,0-3.5-1.2-3.5-3.58,0-3.75,3.2-5.13,5.7-5.22.49,0,1.34,0,1.64,0a.15.15,0,0,1,.13.12c.08.36.27,1.51.33,1.82,0,.12-.06.2-.13.2a.09.09,0,0,1-.06,0c-.3-.32-1.46-1.6-1.52-1.6a4.64,4.64,0,0,0-4.23,4.16c0,.31,0,.61,0,.87,0,2.12.95,2.76,2,2.76a3.34,3.34,0,0,0,2-.68l.15-2.08H39a.1.1,0,0,1-.11-.1v-.23c0-.06.06-.12.12-.12l2.8-.08a.12.12,0,0,1,.11.12l-.27,3.84a.13.13,0,0,1-.12.14Z"/><path class="cls-6" d="M49.29,22.22a2.72,2.72,0,0,1-2.71-3,3.65,3.65,0,0,1,3.69-3.87h.06a2.72,2.72,0,0,1,2.71,3,3.66,3.66,0,0,1-3.71,3.84ZM51.49,18c0-1-.14-2.17-1.09-2.17-1.13,0-2.27,1-2.27,3.61,0,1,.15,2.31,1.11,2.32S51.49,21,51.49,18Z"/><path class="cls-6" d="M60,22.22a2.72,2.72,0,0,1-2.71-3A3.66,3.66,0,0,1,61,15.39h.06a2.72,2.72,0,0,1,2.71,3,3.65,3.65,0,0,1-3.7,3.84ZM62.22,18c0-1-.14-2.17-1.08-2.17-1.13,0-2.28,1-2.28,3.61,0,1,.15,2.31,1.12,2.32S62.22,21,62.22,18Z"/><path class="cls-6" d="M72,20.72a3.45,3.45,0,0,1-1.7.45A2.11,2.11,0,0,1,68,19a3.65,3.65,0,0,1,3.81-3.66,2.72,2.72,0,0,1,1.07.21V15.4a.11.11,0,0,1,.09-.09h0l1.25.18a.11.11,0,0,1,.09.09v0c-.24,1.54-.68,3.93-1.06,5.74C72.62,24.21,69.72,24.87,68,25h0c-.07,0-.13-.09-.13-.15s0-.09.1-.1c1.33-.33,3.6-1.49,4-3.57Zm.78-4.65a1.44,1.44,0,0,0-.92-.27c-1.94,0-2.35,2-2.35,3,0,1.83,1,1.83,1.12,1.83a2,2,0,0,0,1.56-1C72.39,18.43,72.6,17.14,72.75,16.07Z"/><path class="cls-6" d="M79.9,22.28a.22.22,0,0,1-.17,0c-.88,0-1.1-.68-1.1-1.51,0-.21,0-.4,0-.61.1-1.22.7-6.06.83-7.68a.18.18,0,0,1,.12-.14l1.27-.25h0a.07.07,0,0,1,.07.07,78.47,78.47,0,0,0-.93,8,1.89,1.89,0,0,0,.06.64h1a.06.06,0,0,1,.06.05s0,0,0,0Z"/><path class="cls-6" d="M90.93,21.74a.18.18,0,0,1-.1.14,6.8,6.8,0,0,1-2.25.36c-1.23,0-3.43-.56-3.43-3.07a3.73,3.73,0,0,1,3.9-3.78,2.18,2.18,0,0,1,2.38,2.35A3.5,3.5,0,0,1,91.19,19a.13.13,0,0,1-.11.09h0l-1.34-.37h-3c0,.09,0,.18,0,.25v.12c0,1.82,1.07,2.73,2.11,2.73A4.56,4.56,0,0,0,91.1,21h0a.06.06,0,0,1,0,.06Zm-1.14-3.55a8.51,8.51,0,0,0,.07-1c0-1.32-.72-1.37-.86-1.37-1,0-1.88,1-2.16,2.32Z"/><path class="cls-6" d="M108.86,21.14,107.24,21a.12.12,0,0,1-.11-.12l0-.18h-4.34v.18a.15.15,0,0,1-.1.15l-1.42.56h0a.1.1,0,0,1-.08-.09l-.33-7.09v0s0-.06.08-.06h0l1.5.65a.17.17,0,0,1,.12.17v.09h5.17l.09-.74c0-.05,0-.08.06-.08l0,0,1.55,1a.19.19,0,0,1,.09.15v0L109,21a.1.1,0,0,1-.1.11Zm-1.16-5.5h-5.1l.19,4.64h4.4Z"/><path class="cls-6" d="M122.22,21.74a.2.2,0,0,1-.18-.21l0-.25H116.3a.24.24,0,0,1-.21-.25.23.23,0,0,1,.21-.24h5.78l.37-5.27h-5.73a.22.22,0,0,1-.21-.24.23.23,0,0,1,.21-.24h5.76l0-.37a.18.18,0,0,1,.18-.16h0l1.29.35a.23.23,0,0,1,.15.21l-.45,6.67a.18.18,0,0,1-.2.18Z"/><path class="cls-6" d="M137.52,22.51a39.4,39.4,0,0,0-6-1.58c-.1,0-.16-.06-.16-.15s0-.05,0-.06l.47-1.1a.21.21,0,0,1,.18-.12,22.72,22.72,0,0,1,5.62,2.75.15.15,0,0,1,.09.12.13.13,0,0,1-.14.14Zm-.72-3.69c-2.08-.6-3-.87-4.64-1.2a.17.17,0,0,1-.13-.17.15.15,0,0,1,0-.06l.41-.92c0-.07.07-.16.19-.16A26.76,26.76,0,0,1,137,18.5a.15.15,0,0,1,.08.14c0,.14-.09.18-.2.18ZM133,13.25a.32.32,0,0,1,.21-.14,25.26,25.26,0,0,1,4.05,2.61.16.16,0,0,1,.06.13.16.16,0,0,1-.16.17H137c-2.11-.86-3-1.22-4.56-1.72-.06,0-.14,0-.14-.14l0-.06Z"/><path class="cls-6" d="M151.25,22.19a.08.08,0,0,1-.07-.07v0c0-.38.18-1.36.33-2.58h-4.38a.07.07,0,0,1-.08-.07v0l.13-.63a.29.29,0,0,1,.11-.19c1.71-2.11,3.24-3.63,4.54-5.55A.19.19,0,0,1,152,13l1.53.21a.13.13,0,0,1,.11.14L153,18.82h1.1c.08,0,.12,0,.12.1v.51s0,.09-.12.09h-1.16L152.65,22a.13.13,0,0,1-.12.11Zm.34-3.35c0-.38.54-4.11.63-5.05-1.24,1.7-2.76,3.5-4.16,5.09h.39Z"/><path class="cls-6" d="M160,21.46a.93.93,0,0,1-.94.93,1,1,0,1,1,0-1.9h0a.93.93,0,0,1,.92.94Z"/><path class="cls-6" d="M171.25,14.67c0,1.18-.71,1.67-2.29,2.25,1.89.79,2.31,1.71,2.31,2.46,0,1.56-1.46,2.86-3.65,2.86s-3.2-1.24-3.2-2.2c0-1.59,1.53-2.38,2.47-2.78-1.31-.7-1.69-1.19-1.69-2,0-1.49,1.49-2.33,3.28-2.33,2.17,0,2.77,1,2.77,1.7ZM165.94,20a1.56,1.56,0,0,0,1.65,1.75,1.94,1.94,0,0,0,2.14-1.82c0-.74-.33-1.5-2.3-2.31A2.76,2.76,0,0,0,165.94,20Zm3.87-5.3c0-1-.85-1.25-1.51-1.25-1.13,0-1.75.68-1.75,1.4,0,.93.85,1.34,1.68,1.75C169.13,16.19,169.81,15.63,169.81,14.68Z"/><path class="cls-6" d="M184.81,22.63l0,0,0,0a6.93,6.93,0,0,1-1.86-4.71,6.37,6.37,0,0,1,1.89-4.41h0l.32.3s0,0,0,0a0,0,0,0,1,0,0,6,6,0,0,0-1.48,4,7,7,0,0,0,1.54,4.32.05.05,0,0,1,0,.06Z"/><path class="cls-6" d="M189.61,21a.08.08,0,0,1-.09-.06l-.1-.31s0,0,0,0a.09.09,0,0,1,0-.07c2.11-1.7,3.52-2.81,3.52-4.27,0-.88-.45-1.3-1.09-1.3s-1.26.59-1.82,1.12H190a.11.11,0,0,1,0-.06l.13-.78a.21.21,0,0,1,.06-.1,3.47,3.47,0,0,1,2-.51c1.14,0,2.15.48,2.15,1.63,0,1.75-2.67,3.39-4.18,4.41l2-.08,1.59-.24h0a.06.06,0,0,1,.06.06h0l-.1.54s0,.06-.08.06Z"/><path class="cls-6" d="M199.67,21.22c-1.22,0-2.15-1.1-2.15-2.83,0-2.27,1.45-3.75,2.82-3.75s2.12,1.19,2.13,2.83C202.47,19.48,201.25,21.22,199.67,21.22Zm1.69-4.15c0-1.17-.32-2.05-1-2.05-1,0-1.75,1.94-1.75,3.64,0,1.23.4,2.18,1.11,2.18C200.72,20.84,201.36,18.83,201.36,17.07Z"/><path class="cls-6" d="M205.7,21a.09.09,0,0,1-.1-.06l-.09-.31s0,0,0,0a.09.09,0,0,1,0-.07c2.1-1.7,3.52-2.81,3.52-4.27,0-.88-.45-1.3-1.09-1.3s-1.26.59-1.82,1.12h-.06a.11.11,0,0,1,0-.06l.12-.78a.23.23,0,0,1,.07-.1,3.45,3.45,0,0,1,2-.51c1.13,0,2.14.48,2.14,1.63,0,1.75-2.66,3.39-4.17,4.41l2-.08,1.59-.24h0a.06.06,0,0,1,.06.06h0l-.1.54s0,.06-.08.06Z"/><path class="cls-6" d="M213.69,21a.08.08,0,0,1-.09-.06l-.1-.31s0,0,0,0a.09.09,0,0,1,0-.07c2.11-1.7,3.52-2.81,3.52-4.27,0-.88-.45-1.3-1.09-1.3s-1.26.59-1.82,1.12h-.06a.11.11,0,0,1,0-.06l.13-.78a.21.21,0,0,1,.06-.1,3.47,3.47,0,0,1,2-.51c1.14,0,2.15.48,2.15,1.63,0,1.75-2.67,3.39-4.18,4.41l2-.08,1.59-.24h0a.06.06,0,0,1,.06.06h0l-.1.54s0,.06-.08.06Z"/><path class="cls-6" d="M223.86,15.64a3.85,3.85,0,0,1-2.32,1.92s-.12,0-.12-.1a.12.12,0,0,1,0-.08c.1-.1.23-.18.34-.28a3.76,3.76,0,0,0,1.22-3v-.38c0-.05,0-.1.08-.1s1.2.24,1.24.26.07.06.07.12a6.47,6.47,0,0,1-.41,1.34h3.65l.41-1.07c0-.06.05-.09.11-.09a.11.11,0,0,1,.09.07l.47,1.2a.43.43,0,0,1,0,.05.16.16,0,0,1,0,.08.11.11,0,0,1-.11.06Zm2.56,3.79-.08,2.26s0,.07-.06.07h0l-1-.16c-.06,0-.08,0-.08-.08l0-2.09h-3.37a.14.14,0,0,1-.15-.15.15.15,0,0,1,.15-.15h1l.12-2.05a.1.1,0,0,1,.1-.08l1,.1a.07.07,0,0,1,.07.06h1.13l0-1.43a.07.07,0,0,1,.07-.07h0l1,.27a.1.1,0,0,1,.08.11l0,1.12h.81l.42-1.08a.1.1,0,0,1,.09-.08.12.12,0,0,1,.11.07l.45,1.19a.19.19,0,0,1,0,.07.14.14,0,0,1,0,.06.13.13,0,0,1-.12.07h-1.77l-.06,1.67h2.08l.42-1.08A.12.12,0,0,1,229,18a.11.11,0,0,1,.09.08l.45,1.19a.09.09,0,0,1,0,.06.09.09,0,0,1,0,.07.11.11,0,0,1-.11.06Zm-1.13-2h-1.14L224,19.13h1.23Z"/><path class="cls-6" d="M233.13,19.88s0,0,0,0a.05.05,0,0,1,0,0,2.91,2.91,0,0,0,1.63,1A1.89,1.89,0,0,0,236.66,19c0-.6-.3-1.26-.89-1.28h-1.2a.09.09,0,0,1-.09-.08l0-.22h0s0-.08.06-.08h.89a1.21,1.21,0,0,0,1.22-1.2A1,1,0,0,0,235.5,15c-.77,0-1.34.65-1.81,1.14h-.06a.08.08,0,0,1,0-.06l.13-.81c0-.22,1-.6,1.9-.6,1.54,0,2.15.76,2.15,1.43s-.44,1-1.09,1.29a1.67,1.67,0,0,1,1.11,1.53c0,.73-.52,2.39-3,2.39-.72,0-1.79-.55-1.79-.81Z"/><path class="cls-6" d="M246.52,18.86H244a5.35,5.35,0,0,1-1.12,2,4.69,4.69,0,0,1-1.24.92.09.09,0,0,1-.07-.05.18.18,0,0,1,0-.09.11.11,0,0,1,0-.05c1.12-1,1.66-2.07,1.66-5.15,0-.63,0-1.29-.06-2a.07.07,0,0,1,.08-.07h0c1.34.3,1.51.35,1.51.43h0s0,0,0,.07h1.84v-.45s0-.07,0-.07h0l1.09.42a.15.15,0,0,1,.08.11h0v.2l-.13,4.43a8,8,0,0,1-.1,1.13c-.1.54-.46,1.06-.74,1.07A19.57,19.57,0,0,1,245,21a.08.08,0,0,1-.06-.09,0,0,0,0,1,0,0l0-.08a.08.08,0,0,1,.08-.06h0l.12.06a.94.94,0,0,0,.39.08c.71,0,.87-.72.91-1.32Zm0-1.91h-2.1a11.15,11.15,0,0,1-.37,1.61h2.45Zm0-1.77H244.7c0,.5-.11,1-.19,1.47h2Z"/><path class="cls-6" d="M255.73,18.44a11.9,11.9,0,0,1-1.94,1.06c-.33.16-.66.31-1,.45s-.52.21-.79.3l-.07,0c-.08,0-.13-.16-.41-1v0s.06-.05.1-.05l.39-.05.54-.08A4.17,4.17,0,0,0,253,19v0l.06-1.5H252a.15.15,0,0,1-.14-.15.14.14,0,0,1,.14-.15h1.14l0-1.5a.06.06,0,0,1,.05-.06h0l.85.42a.13.13,0,0,1,.07.12l0,1h.41l.21-.58c0-.08.08-.09.11-.09s.06,0,.1.09l.25.69a.14.14,0,0,1,0,.06.08.08,0,0,1,0,.06.12.12,0,0,1-.12.07h-1l-.06,1.34a15.73,15.73,0,0,0,1.58-.43h.05l0,0Zm-3.92-2.81a.14.14,0,0,1-.14-.15.14.14,0,0,1,.14-.14h3.05l.32-.85a.12.12,0,0,1,.11-.08s.06,0,.09.08l.37,1a.13.13,0,0,1,0,.06.2.2,0,0,1,0,.07.17.17,0,0,1-.13.05Zm7,3a.08.08,0,0,1-.08-.09v-.11h-1.48c.46.13.5.14.5.21v0a4.05,4.05,0,0,1-2.69,2.87h0a.11.11,0,0,1-.09-.05,0,0,0,0,1,0,0,.08.08,0,0,1,0-.08,3.88,3.88,0,0,0,1.61-2.86h-.71a.07.07,0,0,1-.07-.07h0l.11-4.42s0-.06.08-.06h0l.93.18a.1.1,0,0,1,.09.11v0h1.64v-.2a.08.08,0,0,1,.08-.07h0l1,.22a.12.12,0,0,1,.09.11v4.14a.08.08,0,0,1-.09.09Zm-.1-1.43h-1.81l0,.94h1.85Zm0-1.34H257L257,17h1.79Zm0-1.13v-.14h-1.67l0,1h1.72Zm1.74,6.72a18.93,18.93,0,0,1-1.92-.33c-.58-.1-.68-.3-.68-.66v-.1l.06-1.68a.06.06,0,0,1,.06-.06h0l.93.26a.14.14,0,0,1,.08.12l-.18,1.54v.05c0,.21.23.23.49.23a3.6,3.6,0,0,0,1.32-.77.25.25,0,0,1,.11,0h0a.1.1,0,0,1,.05.08v0l-.29,1.26a.11.11,0,0,1-.08.07Z"/><path class="cls-6" d="M265.76,21.68l-.88-.12a.1.1,0,0,1-.08-.1l.08-2.5a8.87,8.87,0,0,1-.94.55c-.13,0-.28.14-.41.18h0a.09.09,0,0,1-.09-.1.17.17,0,0,1,.06-.11c.19-.17.4-.3.59-.48a6.93,6.93,0,0,0,.84-.87l0-1.3a.07.07,0,0,1,.07-.06h0l.64.15c.18-.33.32-.68.47-1h-2.37a.15.15,0,0,1-.15-.15.14.14,0,0,1,.15-.15h2.47a12.32,12.32,0,0,0,.35-1.2c0-.09,0-.2.07-.3a.07.07,0,0,1,.07-.05,5.88,5.88,0,0,1,1.23.73v0a5.68,5.68,0,0,1-.27.63l-.08.17h2.64l.41-1.08a.12.12,0,0,1,.1-.08.1.1,0,0,1,.1.08l.46,1.18a.2.2,0,0,1,0,.07.13.13,0,0,1-.14.13h-3.73A9.53,9.53,0,0,1,266,18l-.15,3.6a.07.07,0,0,1-.07.08Zm1.09-.64a.15.15,0,0,1-.14-.15.15.15,0,0,1,.14-.14h1.52l.08-2.06h-1.11a.14.14,0,0,1-.14-.15.14.14,0,0,1,.14-.14h1.13l0-1.19s0-.08.06-.08h0l1,.18a.09.09,0,0,1,.07.09l-.05,1h.65l.33-.85a.11.11,0,0,1,.1-.08.1.1,0,0,1,.1.08l.36,1a.13.13,0,0,1,0,.06.13.13,0,0,1-.13.12h-1.43l-.11,2.06h1.39l.41-1.08a.14.14,0,0,1,.1-.08.15.15,0,0,1,.11.08l.45,1.19a.14.14,0,0,1,0,.07.13.13,0,0,1-.14.11Z"/><path class="cls-6" d="M275.47,22.29v0s0,0,0,0A7,7,0,0,0,277,17.91a6.06,6.06,0,0,0-1.49-4s0,0,0,0a.06.06,0,0,1,0,0l.33-.3h.06a6.31,6.31,0,0,1,1.86,4.4,6.9,6.9,0,0,1-1.9,4.74l0,0Z"/><path class="cls-6" d="M34.33,63.65a.14.14,0,0,1-.12-.13l.21-4.47A7.72,7.72,0,0,1,32,60c-.11,0-.17-.06-.17-.14a.19.19,0,0,1,.08-.13c.19-.17.43-.3.64-.47a6.09,6.09,0,0,0,2.52-3.76l.08-.67c0-.06,0-.1.09-.1s1.74.56,1.76.56a.15.15,0,0,1,.07.15,6.48,6.48,0,0,1-2.41,3.37l-.13.09,1.31.23a.11.11,0,0,1,.1.13l-.27,4.37a.11.11,0,0,1-.12.1Zm3.56-2.72s0-.08.08-.08,1.49.45,1.52.47.08.06.08.1a5.8,5.8,0,0,1-.64,1.31,4.07,4.07,0,0,1-2.81,1.69.14.14,0,0,1-.14-.13c0-.05,0-.08.44-.4a3.25,3.25,0,0,0,1.44-2.63Zm4.1-.18-.2,3.17a.12.12,0,0,1-.12.11l-1.46-.14c-.06,0-.1-.07-.1-.13l.15-3H37.14a.21.21,0,0,1-.21-.21.2.2,0,0,1,.21-.21h3.13l.08-1.44a.12.12,0,0,1,0-.09h-.63V59a.13.13,0,0,1-.12.14l-1.37.28h0c-.06,0-.09,0-.09-.1l0-4.63s0-.07.09-.07h0l1.39.51a.17.17,0,0,1,.1.17v.06h2.89l0-.43s0-.07.09-.07h0l1.43.53a.14.14,0,0,1,.11.15l-.18,3.49a.13.13,0,0,1-.12.12H42.64a.12.12,0,0,1-.11-.12l0-.25h-2L42,59c.09,0,.11.06.11.14L42,60.33h2l.59-1.51a.14.14,0,0,1,.13-.12c.08,0,.12,0,.15.12l.63,1.66a.15.15,0,0,1,0,.18.17.17,0,0,1-.16.09Zm.71-5H39.81l-.05,2.63h2.8Zm2.23,8.81s-.06,0-.11,0a3.29,3.29,0,0,1-1.47-1.12A2.07,2.07,0,0,1,43,62.22a1.62,1.62,0,0,1,0-.3s0-.24,0-.25a.12.12,0,0,1,.11-.07.1.1,0,0,1,.1.07c.45.75.69,1,2.91,1.5.12,0,.12.12.12.12a.19.19,0,0,1,0,.08Z"/><path class="cls-6" d="M54.77,55.63l.82.61a.1.1,0,0,1,0,.08,5.63,5.63,0,0,1-2,1.51l1.32,0a17.89,17.89,0,0,0,2.76-.17c-.2-.24-.41-.48-.6-.74s-.24-.27-.35-.42,0,0,0-.06a.07.07,0,0,1,0-.07l1.61-.4h0c.08,0,.11,0,.14.11a35.16,35.16,0,0,1,1.05,3.63.12.12,0,0,1-.12.13c-.06,0-.1-.06-.13-.09-.49-.57-1-1.2-1.43-1.8a19.28,19.28,0,0,1-6.37,1.22c-.08,0-.09,0-.11-.09-.06-.32-.13-.94-.15-1.25,0-.14,0-.17.12-.17s.57.06.69.06l.32,0A13.25,13.25,0,0,0,54,55.93l.18-.3H50.74a.21.21,0,0,1,0-.41h3.7L54,53v0a.09.09,0,0,1,.09-.09h1.29a.13.13,0,0,1,.12.12l.21,2.21h3.13l.58-1.52a.14.14,0,0,1,.15-.11c.07,0,.1,0,.13.11l.65,1.67a.15.15,0,0,1,0,.09.21.21,0,0,1-.2.17Zm2,7.3H54.07L54,64.54c0,.08-.08.12-.14.14L52.58,65h0c-.06,0-.09,0-.09-.1l.41-5.59A.07.07,0,0,1,53,59.2h0l1.2.65h2.7c0-.15,0-.3,0-.46a.07.07,0,0,1,.08-.08h0l1.31.5a.19.19,0,0,1,.1.16c0,.08,0,.15,0,.23L58.25,63a10.4,10.4,0,0,1-.1,1.37c-.08.38-.44,1.27-.91,1.3a20.33,20.33,0,0,1-2.32-.95.12.12,0,0,1,0-.11c0-.07.06-.18.15-.18h0l.14.06a1.11,1.11,0,0,0,.49.12c.74,0,1-.69,1.09-1.61Zm-2.61-1.42-.07,1h2.72c0-.33,0-.68.06-1Zm2.73-1.25H54.28l-.08.85h2.7Z"/><path class="cls-6" d="M67.15,63.91a.2.2,0,0,1-.21-.2.2.2,0,0,1,.21-.21h2.66l.12-4.26H66a.2.2,0,0,1-.2-.21.21.21,0,0,1,.2-.2h4l.1-3.14a.1.1,0,0,1,.09-.09h0l1.54.34a.16.16,0,0,1,.1.15l-.12,2.74h2.65l.59-1.52a.19.19,0,0,1,.14-.1.18.18,0,0,1,.15.1L75.85,59a.15.15,0,0,1,0,.18.24.24,0,0,1-.17.07h-4l-.17,4.26h1.95L74,62a.18.18,0,0,1,.15-.1.16.16,0,0,1,.13.1L75,63.65a.13.13,0,0,1,0,.08.18.18,0,0,1-.2.18Z"/><path class="cls-6" d="M81.38,62.48a.11.11,0,0,1-.06-.09.32.32,0,0,1,0-.09,24.08,24.08,0,0,0,1.76-2.89l.63-1.15-.37.09c-.23,0-1.4.42-1.64.48h0a.24.24,0,0,1-.23-.25.22.22,0,0,1,.14-.21,22.53,22.53,0,0,1,2.47-.74l1-2.09a.11.11,0,0,1,.09,0l.08,0,1,.86a.22.22,0,0,1,.06.14.54.54,0,0,1,0,.1c0,.06-.54.86-.54.86a2.3,2.3,0,0,1,2,1,2.44,2.44,0,0,1,.41,1.43c0,3.24-3.5,4.4-3.72,4.4a.18.18,0,0,1-.18-.2.35.35,0,0,1,.1-.2,6.66,6.66,0,0,0,1.43-1.43,4.83,4.83,0,0,0,1-2.66,1.57,1.57,0,0,0-1.4-1.75l-1.13,2c-1.07,1.89-1.72,2.83-1.72,2.83a.18.18,0,0,1-.12,0,.22.22,0,0,1-.11,0Zm10.57-5a17,17,0,0,0,1.54,5,.15.15,0,0,1,0,.06.12.12,0,0,1-.12.12c-.21,0-2.89-2.46-3.06-4.7v0a.18.18,0,0,1,.12-.16l1.19-.56c-.45-.36-.75-.57-.9-.69a.16.16,0,0,1,0-.28l.62-.4a.29.29,0,0,1,.19-.06.19.19,0,0,1,.18.09s.15.21.43.69a8.33,8.33,0,0,1,.7,1.43s0,.11-.1.11a.2.2,0,0,1-.11-.06,5.55,5.55,0,0,0-.63-.53Zm1.46-.75c-.69-.56-1.08-.86-1.28-1a.26.26,0,0,1-.09-.14s0-.07.09-.13l.62-.42a.23.23,0,0,1,.15-.07c.09,0,.09,0,.54.74a8.33,8.33,0,0,1,.8,1.46.32.32,0,0,1,0,.09s0,0-.06,0a.25.25,0,0,1-.11-.05Z"/><path class="cls-6" d="M109.11,65.13a.15.15,0,0,1-.15.09,29.25,29.25,0,0,1-8.41-2.38l0,0a6.4,6.4,0,0,1-1.79,1.25.13.13,0,0,1-.14-.12s0-.08,0-.11c.15-.19.35-.39.51-.58a6.81,6.81,0,0,0,.59-.82c-.33-.19-.39-.25-.39-.34a.15.15,0,0,1,.14-.17l.46.15a6.54,6.54,0,0,0,.83-3H98.27a.2.2,0,0,1,0-.4h2.51v-.39a.12.12,0,0,1,.12-.12c.12,0,1.54.38,1.67.42s.09.06.09.12a6.18,6.18,0,0,1-.48,1.62.24.24,0,0,1,.12,0h1.79V58.82h-.66c-.32,0-.41,0-.41-.2a.2.2,0,0,1,.2-.19h.87v-1s0-.07.09-.07h0l1.21.33a.18.18,0,0,1,.12.15v.59h1.13l.1-1.22a.09.09,0,0,1,.09-.08h0l1.18.42a.18.18,0,0,1,.1.16l-.06.72h.52l.28-.77a.18.18,0,0,1,.14-.11.15.15,0,0,1,.13.11l.35.9a.25.25,0,0,1,0,.09c0,.05,0,.08,0,.09a.16.16,0,0,1-.15.08h-1.28L108,60.28v0h1.29l.44-1.12a.15.15,0,0,1,.13-.1.16.16,0,0,1,.13.1l.48,1.27a.28.28,0,0,1,0,.09c0,.09-.06.15-.18.15h-2.18c.31.52,1,1.76,1.17,2.24a4.07,4.07,0,0,1,.44-.18l0,0c.08,0,.16.05.16.12v0ZM98.93,55.24a9.61,9.61,0,0,1,1.46-.91,14.79,14.79,0,0,1,1.31,2.49c0,.07-.08.12-.15.12l-.09,0-1.3-.86c-.31-.2-.93-.54-1.2-.75A.15.15,0,0,1,98.93,55.24Zm3.37,5.45a.19.19,0,0,1-.19-.18,1.56,1.56,0,0,0-.06.15,7.35,7.35,0,0,1-1,1.64l-.08.09.18.06,1.52.39a.15.15,0,0,1,0-.06c0-.05,0-.08,0-.09a6.79,6.79,0,0,0,1.61-2ZM105.48,57c0,.07-.11.1-.18.1a18.16,18.16,0,0,1-2.22-.25c-.79-.24-.79-.59-.79-2.31a.11.11,0,0,1,.12-.1h0l1.1.25a.13.13,0,0,1,.09.09h.87l.2-1.05h-2.15a.18.18,0,0,1-.18-.2.17.17,0,0,1,.18-.18h2.23l.06-.31s0-.09.09-.09h0l1,.41a.18.18,0,0,1,.09.13v0l-.35,1.89c0,.06,0,.1-.11.1h0l-1-.12a.14.14,0,0,1-.11-.12h0l0-.11h-.81v0a7.72,7.72,0,0,0-.06.83c0,.21,0,.45.64.45a1.48,1.48,0,0,0,1.12-.56l.25-.33a.12.12,0,0,1,.09,0,.09.09,0,0,1,.09.1v0Zm-.78,3.66.84.54s0,0,0,.07a5.61,5.61,0,0,1-2.72,1.58,17.63,17.63,0,0,0,3.94.52,6.5,6.5,0,0,0,2-.33c-1.07-.73-1.7-1.18-2.14-1.42-.1-.08-.25-.14-.36-.23a.09.09,0,0,1,0-.06l0-.06c.08-.06.57-.37,1-.61Zm1.94-1.87h-1.1l0,1.48h1Zm3-1.72c0,.09-.09.11-.17.11a10.94,10.94,0,0,1-2.21-.26c-.78-.24-.8-.57-.8-2.12a1,1,0,0,0,0-.18v0a.08.08,0,0,1,.09-.08h0l1.11.27a.18.18,0,0,1,.08,0h.9l.2-1h-2.19a.2.2,0,0,1-.19-.2.19.19,0,0,1,.19-.18h2.25l0-.15c0-.05,0-.09.09-.09h0l1,.39a.17.17,0,0,1,.09.14v0l-.35,1.9h0a.07.07,0,0,1,.08.07v0Zm0-1.34-1-.13c-.07,0-.11-.05-.11-.11v0l0-.25h-.81c0,.3-.06.6-.06.9s.12.47.66.47.92-.4,1.31-.85Z"/><path class="cls-6" d="M115.58,63.52s-.06-.06-.06-.11a.23.23,0,0,1,0-.07l4.63-7.56a.12.12,0,0,1,.12-.06.14.14,0,0,1,.09,0l.81.87a.22.22,0,0,1,0,.14s0,.06,0,.07l-2.44,3.86a2.78,2.78,0,0,1,1.66-.67,1,1,0,0,1,.25,0,1.91,1.91,0,0,1,1.51,1.14c.56,1,1,1.36,1.53,1.36.67,0,1.3-.75,2-1.57a.17.17,0,0,1,.12,0,.17.17,0,0,1,.17.16c0,.17-1.57,2.94-2.89,2.94a.86.86,0,0,1-.27-.05c-1.54-.51-1.51-2.72-2.29-3.13a1,1,0,0,0-.45-.1c-1,0-2.11,1.38-2.4,1.76l-.27.36L116.71,64a.18.18,0,0,1-.12,0,.11.11,0,0,1-.08,0Z"/><path class="cls-6" d="M135.4,57.61l-2.73,5.68a.12.12,0,0,1-.12.06h-.07l-1.06-.41a.15.15,0,0,1-.07-.12s0-.05,0-.06l2.37-5.14H131.8a.21.21,0,0,1-.2-.2.21.21,0,0,1,.2-.22h2.11l1.13-2.5a.06.06,0,0,1,.07-.06h.08l1.07.8c.06,0,.09.08.09.12s0,.05,0,.08l-.74,1.55h1.5l.53-1.37c0-.11.12-.12.15-.12s.09,0,.12.12l.63,1.56s0,.05,0,.08-.09.16-.2.16Zm2,4a.28.28,0,0,1,.11,0c.15,0,.2.17.2.2a2.82,2.82,0,0,0,2.83,2.33c.19,0,.21.1.21.2a.17.17,0,0,1-.15.19l-.65,0c-2.91,0-3.28-2.09-3.28-2.14a.35.35,0,0,1,.1-.28Zm1.63-1a.11.11,0,0,1-.13-.11s0-.09.1-.15a6.78,6.78,0,0,0,.63-.62h-2.29a.21.21,0,0,1-.19-.21c0-.12.09-.24.19-.24H140c.36-.38.48-.48.54-.48a.2.2,0,0,1,.15.07l.47.73a.22.22,0,0,1,0,.13c0,.08-.06.14-.16.17l-2,.71Zm.9-5a.26.26,0,0,1,.18-.06c.17,0,.25.12.62.78a8,8,0,0,1,.71,1.43.11.11,0,0,1-.11.11.15.15,0,0,1-.1-.06c-.5-.43-.6-.52-1.91-1.53a.16.16,0,0,1-.06-.13.14.14,0,0,1,.06-.14Zm2.07.87c-.68-.56-1.09-.86-1.28-1a.26.26,0,0,1-.09-.14s0-.07.09-.13l.61-.43a.29.29,0,0,1,.15-.06.18.18,0,0,1,.14.09s0,.06.41.65a10.2,10.2,0,0,1,.8,1.48.08.08,0,0,1,0,.07s0,0-.06,0-.05,0-.1-.05Z"/><path class="cls-6" d="M153.32,64.65a.18.18,0,0,1-.2-.17.14.14,0,0,1,0-.09c1.43-1,2.33-2,2.33-3.36A2.21,2.21,0,0,0,153,58.65l-.57,0C152,62.24,150.14,63,149.33,63a1.42,1.42,0,0,1-1.46-1.54c0-1.84,2.68-2.76,3.22-2.91v-.4c0-.41,0-.77,0-1.19h-2.61a.23.23,0,0,1-.21-.21.24.24,0,0,1,.21-.23H151c-.05-.44-.11-.9-.2-1.55v0a.13.13,0,0,1,.12-.12h0c.55.18,1.1.37,1.64.53.1,0,.1.09.1.17,0,.42,0,.7,0,1h1.07l.58-1.47c0-.11.1-.13.15-.13s.09,0,.13.11l.63,1.67a.15.15,0,0,1,0,.18.18.18,0,0,1-.16.08h-2.43c0,.43-.06.8-.12,1.29.3,0,.59,0,.86,0,2.64,0,3.67,1.44,3.67,2.78,0,2-2.42,3.35-3.7,3.71Zm-4.55-2.85c0,.56.18.78.68.78.74,0,1.61-1.28,1.61-3.46C151,59.15,148.77,60,148.77,61.8Zm7.91-5.3c.07-.07.13-.12.18-.12a4.1,4.1,0,0,1,.74.77,12.31,12.31,0,0,1,1.2,1.59.1.1,0,0,1-.1.11.39.39,0,0,1-.14-.05c-.19-.09-1.1-.54-1.6-.72-.91-.33-1.23-.42-1.23-.42a.15.15,0,0,1-.09-.12.23.23,0,0,1,0-.11Z"/><path class="cls-6" d="M170.68,57.12a9.58,9.58,0,0,1-.18,2.26,3.19,3.19,0,0,1,.41,1.52c0,2.5-3.43,3.9-3.58,3.9a.14.14,0,0,1-.15-.15.26.26,0,0,1,.1-.2,4.69,4.69,0,0,0,2.08-3.19v0a2.8,2.8,0,0,1-1.54.58,1.7,1.7,0,0,1-1.71-1.71,1.91,1.91,0,0,1,2.09-1.86,3.71,3.71,0,0,1,1.13.19c0-.39-.05-.83-.11-1.29h-5.31a.22.22,0,0,1-.2-.23.23.23,0,0,1,.2-.22h5.27c-.09-.71-.23-1.43-.38-2.16h0c0-.06,0-.11.09-.11h0l1.64.45c.11,0,.11.11.11.17,0,.68,0,1.2,0,1.66h1.81l.6-1.52c0-.06.06-.08.09-.08s.06,0,.08.08l.68,1.77a.25.25,0,0,1,0,.08.11.11,0,0,1-.13.12Zm-1.29,2.5a.85.85,0,0,0-.9-.95,1.66,1.66,0,0,0-1.42,1.64,1,1,0,0,0,1,1C168.76,61.33,169.39,60.39,169.39,59.62Z"/><path class="cls-6" d="M186.77,57.12a10.14,10.14,0,0,1-.18,2.26A3.19,3.19,0,0,1,187,60.9c0,2.5-3.44,3.9-3.59,3.9a.14.14,0,0,1-.15-.15.24.24,0,0,1,.11-.2,4.69,4.69,0,0,0,2.08-3.19v0a2.84,2.84,0,0,1-1.54.58,1.7,1.7,0,0,1-1.72-1.71,1.92,1.92,0,0,1,2.1-1.86,3.76,3.76,0,0,1,1.13.19c0-.39,0-.83-.11-1.29H180a.22.22,0,0,1-.2-.23.23.23,0,0,1,.2-.22h5.26c-.09-.71-.22-1.43-.37-2.16h0c0-.06,0-.11.09-.11h0l1.64.45c.11,0,.11.11.11.17,0,.68,0,1.2,0,1.66h1.81l.6-1.52c0-.06.06-.08.09-.08s.06,0,.08.08l.67,1.77a.13.13,0,0,1,0,.08c0,.07,0,.12-.14.12Zm-1.3,2.5a.85.85,0,0,0-.9-.95,1.65,1.65,0,0,0-1.41,1.64,1,1,0,0,0,1,1C184.84,61.33,185.47,60.39,185.47,59.62Z"/><path class="cls-6" d="M203,57.33a3.27,3.27,0,0,1,2.05,3c0,3.34-4.83,4.32-5,4.32a.22.22,0,0,1-.19-.21c0-.08,0-.15.16-.2,2.27-1,3.45-2.39,3.45-4.11a2.59,2.59,0,0,0-1.25-2.29,22.89,22.89,0,0,1-3,3.18c.18.4.34.74.48,1a.32.32,0,0,1,0,.09.18.18,0,0,1-.17.18,3.84,3.84,0,0,1-.85-.86,4.75,4.75,0,0,1-2.2.86,1.64,1.64,0,0,1-1.66-1.61,3.76,3.76,0,0,1,2.12-2.88,13.69,13.69,0,0,1-.28-1.79c0-.08,0-.15.12-.15h0l1.3.34a.2.2,0,0,1,.1.19c0,.28,0,.57,0,.84a7.57,7.57,0,0,1,2.5-.44,2.88,2.88,0,0,1,.41,0c.27-.45.49-.92.72-1.39a.16.16,0,0,1,.15-.09.11.11,0,0,1,.09,0l1.13,1a.12.12,0,0,1,0,.09.11.11,0,0,1,0,.09l-.52.66Zm-5.75,1.25A3.88,3.88,0,0,0,196,60.93c0,.51.24.92.72.92s1.34-.8,1.61-1.06A10,10,0,0,1,197.29,58.58Zm3.12-1.19a4.69,4.69,0,0,0-2,.47,10.89,10.89,0,0,0,.56,2.25,19.33,19.33,0,0,0,1.94-2.69A3.75,3.75,0,0,0,200.41,57.39Z"/><path class="cls-6" d="M214,62.61l-.06,2a.12.12,0,0,1-.1.09h0l-1.28-.27a.15.15,0,0,1-.1-.15l0-1.68h-2.22a.2.2,0,0,1-.21-.21.21.21,0,0,1,.21-.21h2.23l0-1.29h-.89v.19s-.07.12-.12.14l-1.23.25h0a.08.08,0,0,1-.08-.09l.05-4.29a.08.08,0,0,1,.09-.07h0l1.25.46a.15.15,0,0,1,.11.12h.92l0-1.15h-2.23a.21.21,0,0,1-.2-.22.2.2,0,0,1,.2-.19h2.23l.06-1.79a.08.08,0,0,1,.09-.08h0l1.34.48a.15.15,0,0,1,.1.15l0,1.24h1l.45-1.19a.19.19,0,0,1,.15-.12.16.16,0,0,1,.14.12l.51,1.34a.38.38,0,0,1,0,.1.18.18,0,0,1-.2.16h-2.09l0,1.15H215v-.36s.05-.07.09-.07h0l1.18.48a.17.17,0,0,1,.1.17l-.15,3.25a.13.13,0,0,1-.13.12h0l.43,1.14a.13.13,0,0,1,0,.08.14.14,0,0,1,0,.1.19.19,0,0,1-.17.09Zm-1.46-3.22h-.9l0,1.12h.89Zm0-1.37h-.92v1h.91Zm3.09,3.18-.72,0a.13.13,0,0,1-.12-.12V60.9h-.77l0,1.29h1.26Zm-.75-1.81h-.8l0,1.12h.79ZM215,58h-.82l0,1h.8Zm8,5.84-.93-1A23,23,0,0,1,217.41,64a.2.2,0,0,1-.2-.15c0-.06-.23-.91-.23-1v0c0-.07.08-.12.15-.12h.46a6.21,6.21,0,0,0,1.34-3c0-.12,0-.29.07-.42h-2.2a.19.19,0,0,1-.19-.21.2.2,0,0,1,.19-.22h5.64l.57-1.5a.19.19,0,0,1,.15-.12.16.16,0,0,1,.13.1l.65,1.68a.19.19,0,0,1,0,.1.13.13,0,0,1,0,.08.2.2,0,0,1-.18.09h-4.34l1.28.55a.13.13,0,0,1,.08.12,7,7,0,0,1-2.09,2.67,27.89,27.89,0,0,0,3-.27l-.68-.71c-.15-.17-.33-.33-.48-.51a.16.16,0,0,1,0-.09s0,0,0,0l1.43-.43.05,0c.27,0,1.59,3.52,1.59,3.69a.1.1,0,0,1-.06.09s0,0-.06,0a.08.08,0,0,1-.06,0Zm-5.39-7a.2.2,0,0,1-.21-.21.2.2,0,0,1,.21-.19h3.53l.57-1.53a.14.14,0,0,1,.15-.1c.07,0,.1,0,.13.1l.65,1.68a.15.15,0,0,1,0,.09.21.21,0,0,1-.2.16Z"/><path class="cls-6" d="M231.26,64.06a.13.13,0,0,1-.12-.12c0-.63,0-1.25,0-1.88A16.82,16.82,0,0,1,228,63.35c-.15,0-.49-1.28-.49-1.29a.1.1,0,0,1,.07-.11l1-.15,0-5.57a.06.06,0,0,1,0,0h-.83a.2.2,0,0,1-.21-.21.19.19,0,0,1,.21-.19H232l.58-1.49a.15.15,0,0,1,.13-.11.18.18,0,0,1,.14.11l.63,1.64a.23.23,0,0,1,0,.07.2.2,0,0,1-.19.18h-1.79l1,.32a.17.17,0,0,1,.11.15v.68c-.05,2.2-.11,4.38-.11,6.58a.13.13,0,0,1-.12.12Zm-.06-7.88h-2.51l1.1.61a.22.22,0,0,1,.1.18v.84h1.31Zm0,3.42c0-.46,0-.93,0-1.4h-1.31v1.4Zm0,.39h-1.3v1.65c.41-.07.8-.14,1.21-.23l.09,0Zm8.52,1.87a5.38,5.38,0,0,0,.22-1.13c0-.16,0-.36,0-.51s0-.09.11-.09,1.33.39,1.43.44.08.06.08.1a5.44,5.44,0,0,1-1.33,2.52c.05,0,.08.09.12.12a1.49,1.49,0,0,0,1.14.42l.67,0s.1,0,.1.06a5.52,5.52,0,0,1-1.17,1.07,13.25,13.25,0,0,1-1.4-1.19,6.74,6.74,0,0,1-2.2.91.11.11,0,0,1-.12-.11.11.11,0,0,1,.06-.1c.23-.19.48-.34.71-.5a4.92,4.92,0,0,0,1-.94A9.75,9.75,0,0,1,238,59.24h-5.18a.21.21,0,0,1,0-.42h1.61c-.15-.38-.29-.77-.44-1.16a3,3,0,0,1-.24-.6.08.08,0,0,1,.08-.09H235a.11.11,0,0,1,.11.12v0a16.36,16.36,0,0,1-.18,1.67h.91c.12-.44.29-.86.41-1.31.05-.18.12-.59.17-.72s0-.08.07-.08a4.62,4.62,0,0,1,1.12.77.14.14,0,0,1-.05.09,13.84,13.84,0,0,1-1,1.25H238a18.94,18.94,0,0,1-.1-2v-.39c0-1.14,0-1.32.15-1.35s1.67-.22,1.76-.22l-.53-.36-.33-.22s0,0,0,0a.06.06,0,0,1,.05-.07l1.26-.73h.06A9.69,9.69,0,0,1,241.51,56a.06.06,0,0,1-.06.07s0,0,0,0a.29.29,0,0,1-.1,0c-.13-.09-.25-.23-.39-.33s-.54-.42-.82-.62l-.23-.15v0a25.92,25.92,0,0,0-.54,3.84h.77l.58-1.51a.17.17,0,0,1,.15-.12.15.15,0,0,1,.14.12l.63,1.66a.15.15,0,0,1,0,.18.18.18,0,0,1-.17.09H239.3v.2a8.09,8.09,0,0,0,.36,2.56Zm-3.31,2a.13.13,0,0,1-.12-.12v-.18h-1.42a.23.23,0,0,1-.11.14l-1.14.25h0a.11.11,0,0,1-.11-.1v-4c0-.06,0-.07.07-.07h0l1.17.42a.15.15,0,0,1,.11.15v0h1.55l0-.55a.08.08,0,0,1,.09-.07h0l1.15.49a.19.19,0,0,1,.1.17l-.15,3.36a.13.13,0,0,1-.12.12Zm-2.71-7.3a.21.21,0,0,1,0-.42H235l-.48-1.75v0s0-.06.07-.06h1.36a.14.14,0,0,1,.14.12l.22,1.74h.15l.47-1.19c0-.06.06-.1.13-.1s.14,0,.15.1l.5,1.34a.23.23,0,0,1,0,.11.13.13,0,0,1,0,.08.2.2,0,0,1-.18.09l-1.42,0Zm2.72,4.2h-1.53l0,.91h1.51ZM236.35,62h-1.49v1.09h1.43Z"/><path class="cls-6" d="M254.84,58.52a9.45,9.45,0,0,1-3.76,6.13.25.25,0,0,1-.14,0,.15.15,0,0,1-.16-.15.21.21,0,0,1,0-.12,10.58,10.58,0,0,0,2.39-5.9h-2.87l.27,2.57a.45.45,0,0,1,0,.11.23.23,0,0,1-.11.07l-1.08.14h0c-.1,0-.17-.06-.17-.12l-.35-2.77H246.5a.23.23,0,0,1-.21-.23.21.21,0,0,1,.21-.22h2.32l-.27-2.23c0-.12.07-.14.12-.14h0l1.21.2a.2.2,0,0,1,.18.18l.19,2h3c.06-.76.09-1.58.09-2.5,0-.11.05-.17.14-.17l1.62.36a.13.13,0,0,1,.09.14,20.49,20.49,0,0,1-.27,2.17h1.13l.57-1.48c0-.1.09-.12.12-.12a.15.15,0,0,1,.15.12l.64,1.67a.32.32,0,0,1,0,.09c0,.09-.11.17-.22.17Z"/><path class="cls-6" d="M263.7,60a.13.13,0,0,1-.13-.12l-.11-.58v0a.09.09,0,0,1,.09-.09l7.66-.09a.14.14,0,0,1,.15.12l.11.66a.11.11,0,0,1-.11.12Z"/><path class="cls-6" d="M285.75,63.38c.06,0,.1.08.1.15,0,.27-1.2.76-2.75.76-4.08,0-4.17-2.73-4.17-4a27.85,27.85,0,0,1,.48-4.16c0-.07,0-.1.09-.1h.07l1.43.59a.15.15,0,0,1,.09.12.28.28,0,0,1,0,.09,13.39,13.39,0,0,0-.54,2.11h3.84l.57-1.48a.15.15,0,0,1,.15-.12s.09,0,.12.12l.63,1.68s0,0,0,.07-.2.2-.2.2h-5.19c0,.3-.06.58-.06.85a3.52,3.52,0,0,0,.54,2.1c.65.86,2.18,1.16,3.43,1.16a5.53,5.53,0,0,0,1.33-.14Zm0-7.77a.32.32,0,0,1,.18-.06c.16,0,.24.12.61.79a7.63,7.63,0,0,1,.71,1.43.1.1,0,0,1-.1.1.15.15,0,0,1-.11-.06c-.5-.42-.6-.51-1.91-1.52a.18.18,0,0,1-.06-.14.13.13,0,0,1,.06-.13Zm2.06.88c-.68-.56-1.08-.86-1.28-1s-.09-.1-.09-.13,0-.08.09-.14l.62-.42a.21.21,0,0,1,.15-.06.15.15,0,0,1,.13.09s0,.06.41.65a9.29,9.29,0,0,1,.8,1.47.09.09,0,0,1-.09.09.21.21,0,0,1-.11,0Z"/><path class="cls-6" d="M301,63.56a33.71,33.71,0,0,0-2.61-2.21A13.7,13.7,0,0,1,294,64.19l-.09,0c-.09,0-.14-.06-.17-.15V64a.18.18,0,0,1,.06-.14,16,16,0,0,0,5.75-6.7h-4.75a.23.23,0,0,1-.22-.22.22.22,0,0,1,.22-.23h4.92c.1-.21.16-.41.25-.65a.15.15,0,0,1,.14-.1l.1,0,1.42.89a.14.14,0,0,1,.05.1,18.24,18.24,0,0,1-2.25,3.27,26,26,0,0,1,2.95,4.16.2.2,0,0,1-.19.19.13.13,0,0,1-.12-.06Z"/><path class="cls-6" d="M34.39,43.5c-.08,0-.11-.06-.11-.14l.21-4.49a6.17,6.17,0,0,1-2.42,1,.14.14,0,0,1-.14-.14.14.14,0,0,1,.08-.13c.19-.17.45-.31.66-.47a6.24,6.24,0,0,0,2.5-3.77l.07-.67c0-.06,0-.11.11-.11h0c.16,0,1.56.5,1.73.57a.1.1,0,0,1,.07.11,5.81,5.81,0,0,1-2.41,3.4l-.15.11,1.33.21a.14.14,0,0,1,.12.13l-.27,4.37c0,.08-.06.11-.14.11Zm3.31-7.32a.21.21,0,0,1-.2-.21.2.2,0,0,1,.2-.21h3l-.52-2.44v0a.1.1,0,0,1,.09-.09h1.43a.11.11,0,0,1,.12.12l.23,2.44h1.85l.59-1.51a.15.15,0,0,1,.14-.12.17.17,0,0,1,.15.12l.63,1.66a.15.15,0,0,1,0,.18.18.18,0,0,1-.17.09Zm5,8a.12.12,0,0,1-.11-.12l0-.22h-2.2v.22c0,.06,0,.14-.1.15L39,44.47h0a.1.1,0,0,1-.09-.09l-.15-3.85c0-.06,0-.08.06-.08h0l1.32.36a.2.2,0,0,1,.11.16v.16h2.44l0-.62a.1.1,0,0,1,.09-.09h0l1.26.46c.06,0,.11.1.11.16l-.17,3a.13.13,0,0,1-.12.12ZM39.3,37.91a.21.21,0,0,1-.22-.21.21.21,0,0,1,.22-.21h3.34l.45-1.18c0-.06.07-.12.15-.12a.15.15,0,0,1,.14.12l.51,1.33a.41.41,0,0,1,0,.12c0,.07,0,.15-.19.15Zm0,1.84a.22.22,0,1,1,0-.43h3.34l.45-1.17c0-.06.07-.12.15-.12a.15.15,0,0,1,.14.12l.51,1.33a.41.41,0,0,1,0,.12c0,.07,0,.15-.19.15Zm3.4,1.79H40.3l.06,1.88h2.23Z"/><path class="cls-6" d="M49.34,44.11c-.08,0-.12,0-.12-.09a.07.07,0,0,1,0-.07,6.27,6.27,0,0,0,1.87-2.68c.06-.18.13-.56.18-.68a.06.06,0,0,1,.06-.05,4.71,4.71,0,0,1,1.23.61.06.06,0,0,1,0,0A5.92,5.92,0,0,1,49.34,44.11ZM54,43.89l-1.27-.27a.16.16,0,0,1-.12-.16l.08-3.53h-.88l0,.13a.15.15,0,0,1-.12.14l-1.18.24h0a.11.11,0,0,1-.09-.09l-.15-3.24A.11.11,0,0,1,50.3,37h0l1.22.32a.14.14,0,0,1,.12.15v0h1l0-1.23H50.17a.21.21,0,0,1-.2-.2.19.19,0,0,1,.2-.19h2.56l0-2.17a.09.09,0,0,1,.08-.08h0l1.34.45a.21.21,0,0,1,.12.17l-.05,1.63h.92l.56-1.43a.14.14,0,0,1,.12-.11c.06,0,.1.05.13.11L56.63,36a.15.15,0,0,1,0,.18.19.19,0,0,1-.17.08H54.28l-.05,1.23H55l0-.37c0-.06,0-.08.08-.08h0l1.18.38c.07,0,.12.06.12.15l-.15,2.56a.13.13,0,0,1-.12.12l-1.21,0a.12.12,0,0,1-.12-.12l0-.22h-.7l0,1.2,1.12-.44h0a.16.16,0,0,1,.11.05c.12.2,1,2.32,1,2.45a.08.08,0,0,1-.09.09.11.11,0,0,1-.09,0c-.44-.39-.86-.82-1.3-1.23a8.65,8.65,0,0,1-.75-.66l-.06,2.42a.12.12,0,0,1-.11.11Zm-1.27-6h-1l.06,1.64h.89Zm2.31,0h-.76l0,1.64h.69Zm4.54,4.92a.15.15,0,0,1,0,.08A5.27,5.27,0,0,1,56,44.49c-.09,0-.17,0-.17-.12s.05-.08.08-.11.3-.18.44-.27a5.71,5.71,0,0,0,1.68-1.55c.09-.13.17-.31.27-.44a.08.08,0,0,1,.08,0,.08.08,0,0,1,.06,0Zm1.87-1a.13.13,0,0,1-.12-.12v-.14H58.54v.11a.12.12,0,0,1-.12.12H57.18a.13.13,0,0,1-.12-.12l.17-5.42a.09.09,0,0,1,.1-.1h0l1.19.22.59-1.92H57a.19.19,0,0,1-.21-.2.2.2,0,0,1,.21-.2h4.7l.55-1.46a.19.19,0,0,1,.14-.1.16.16,0,0,1,.13.1l.62,1.6a.17.17,0,0,1-.16.26H59.82l.6.19q.09,0,.09.09a.09.09,0,0,1,0,.05l-.59,1.74h1.31v-.31a.09.09,0,0,1,.09-.09h0l1.32.27a.13.13,0,0,1,.11.13V37c0,1.56,0,3.11,0,4.68a.14.14,0,0,1-.13.12ZM58.61,40l-.06,1.22h2.73c0-.41,0-.82,0-1.22Zm.06-1.54,0,1.16h2.63c0-.38,0-.77,0-1.16Zm.08-1.5-.06,1.12h2.56c0-.37,0-.75,0-1.12Zm3.07,5.1a.08.08,0,0,1,.06,0,.29.29,0,0,1,.11,0,26.36,26.36,0,0,1,1.74,2.43c0,.09-.1.13-.13.13h-.08c-.6-.27-1.2-.59-1.8-.86-.27-.12-.95-.38-1.15-.5a.07.07,0,0,1,0-.07s0,0,0,0Z"/><path class="cls-6" d="M72.42,44.2A3.61,3.61,0,0,1,71.17,44c-1.34-.46-1.7-1.64-1.7-3a21.56,21.56,0,0,1,1-5.83c0-.07.08-.15.2-.15s1,.33,1.19.39a.21.21,0,0,1,.15.19.3.3,0,0,1,0,.12A16.68,16.68,0,0,0,70.84,41c0,1.73,1,2.35,2,2.35a4,4,0,0,0,2.72-1.61.24.24,0,0,1,.17-.09.2.2,0,0,1,.16.06.19.19,0,0,1,.07.15A4.13,4.13,0,0,1,72.42,44.2Z"/><path class="cls-6" d="M89.09,43.92a.16.16,0,0,1-.18.16c-.46,0-4.72-.34-4.72-3.58A4.2,4.2,0,0,1,87,36.73H81.39a.21.21,0,0,1-.22-.21.24.24,0,0,1,.22-.24h6.79a4.86,4.86,0,0,0,1.21-.56l.09,0a.2.2,0,0,1,.18.14l.28.87v.06c0,.06,0,.11-.12.12-.4.06-1,.08-1.35.18a3.56,3.56,0,0,0-2.64,3.4c0,1.52,1,2.76,3.09,3.27.09,0,.17.08.17.17Z"/><path class="cls-6" d="M96.57,43.8a.12.12,0,0,1-.12-.12l.21-4.48a7.65,7.65,0,0,1-2.38,1,.14.14,0,0,1-.16-.14.16.16,0,0,1,.06-.13c.2-.17.45-.3.66-.47a6.09,6.09,0,0,0,2.52-3.76l.07-.67c0-.06,0-.1.09-.1a16.46,16.46,0,0,1,1.75.56.16.16,0,0,1,.09.15A6.55,6.55,0,0,1,97,39l-.14.1,1.31.2a.15.15,0,0,1,.11.15L98,43.83a.11.11,0,0,1-.12.1Zm3.69-.3a.21.21,0,0,1-.21-.22.2.2,0,0,1,.21-.19h2.11l.12-3.25H99.34a.2.2,0,0,1-.19-.21.2.2,0,0,1,.19-.2h3.17l.09-2.18a.09.09,0,0,1,.07-.09h-.59c-.43,0-2.07,0-2.07-.31a.13.13,0,0,1,.1-.13c.23-.06.45-.07.68-.12a8.19,8.19,0,0,0,4.29-1.88s0,0,.08,0a7.24,7.24,0,0,1,.87,1.45,5.33,5.33,0,0,1-3.31,1l1.4.28a.15.15,0,0,1,.1.14l-.09,1.85h1.67l.58-1.48a.14.14,0,0,1,.13-.12.19.19,0,0,1,.15.11l.62,1.64a.15.15,0,0,1,0,.18.19.19,0,0,1-.17.08h-3L104,43.09h1.22l.56-1.49a.19.19,0,0,1,.15-.11.15.15,0,0,1,.13.11l.64,1.64a.56.56,0,0,1,0,.07.23.23,0,0,1,0,.11.17.17,0,0,1-.16.08Z"/><path class="cls-6" d="M120.68,38.51l-.54,2a.2.2,0,0,1-.15.12h0l-1.19-.12a.12.12,0,0,1-.11-.12v0l.47-1.88h-2.67a8.18,8.18,0,0,0-.21,1.81c0,2.51,2,2.81,4.62,3a.18.18,0,0,1,.17.18.17.17,0,0,1-.17.17,14.23,14.23,0,0,1-1.94.21c-3.4,0-4.18-1.79-4.18-3.66a9.77,9.77,0,0,1,.07-1.07l.08-.6h-2.49a.22.22,0,0,1-.19-.23.23.23,0,0,1,.19-.23H115c.13-.66.31-1.85.45-2.55a.13.13,0,0,1,.12-.13,0,0,0,0,1,0,0c.09.06,1.36.75,1.36.75a.2.2,0,0,1,.07.15s0,0,0,.06l-.45,1.7h2.69l.64-2.62a.1.1,0,0,1,.1-.09.06.06,0,0,1,0,0l1.16.74a.24.24,0,0,1,.1.19v0L120.8,38h1l.59-1.5a.16.16,0,0,1,.15-.11s.09,0,.13.11l.65,1.69a.38.38,0,0,1,0,.1.18.18,0,0,1-.2.18Z"/><path class="cls-6" d="M131.94,44.49h0a.17.17,0,0,1-.18-.17.25.25,0,0,1,.13-.21c2.34-.8,3.54-1.52,3.56-3.08,0-.89-.37-1.72-2.08-1.74a4.13,4.13,0,0,0-2.7,1.24l-.09.13c0,.05-.06.08-.1.08l-.06,0-1.1-.25a.08.08,0,0,1-.06-.08.23.23,0,0,1,0-.07l1.89-4s.06-.06.1-.06h.08l1.22.64a.12.12,0,0,1,.07.12.19.19,0,0,1,0,.1l-1.25,2.15a4.79,4.79,0,0,1,2.47-.63c2.21,0,3.18,1.4,3.18,2.23,0,2.21-2.5,3.16-4.75,3.52Zm3.16-7.94c-.1,0-1.31-.4-2.13-.63l-1.7-.45a.18.18,0,0,1-.17-.18.32.32,0,0,1,0-.09l.89-.89a.28.28,0,0,1,.21-.1.34.34,0,0,1,.18.07l1.36,1,1.49,1a.18.18,0,0,1,.1.15.11.11,0,0,1,0,.06c0,.06-.09.07-.17.07Z"/><path class="cls-6" d="M155.76,42.65a.14.14,0,0,1,.13.15.19.19,0,0,1-.1.17,6.09,6.09,0,0,1-2.74.81c-1.87,0-2.26-1.38-2.26-2.93a18.28,18.28,0,0,1,.24-2.62l-3.72,2L147,43.46c0,.07,0,.1-.09.1h0l-1.27-.29a.17.17,0,0,1-.12-.17l.17-1.92-.45.24a7.09,7.09,0,0,0-1.38,1.2l-.16.21a.15.15,0,0,1-.08.05c-.06,0-.13-.08-.22-.17l-.39-.42a.25.25,0,0,1-.06-.13.15.15,0,0,1,.1-.14c1.18-.68,1.78-1,2.7-1.55l.27-3.13h-2.35a.2.2,0,0,1-.21-.2.21.21,0,0,1,.21-.22h2.38l.16-2q0-.09.09-.09h0l1.26.47a.19.19,0,0,1,.11.18l-.12,1.45h.28l.58-1.33a.16.16,0,0,1,.15-.1.14.14,0,0,1,.13.1l.64,1.48a.44.44,0,0,1,0,.1.18.18,0,0,1-.19.17h-1.64l-.2,2.23c1.4-.77,2.77-1.5,3.78-2l.18-.92c0-.07,0-.12.09-.12l.09,0,1.45.74a.14.14,0,0,1,.09.14.08.08,0,0,1,0,.06,11.79,11.79,0,0,0-.81,3.64c0,.69.15,1.93,1.55,1.93a8.09,8.09,0,0,0,1.94-.38Z"/><path class="cls-6" d="M163.75,38.57a4.79,4.79,0,0,1,1.4-.18c2.65,0,3.52,1.67,3.52,2.65,0,2-1.9,3.22-4.19,3.22-1.35,0-2.27-.63-2.27-1.41s.8-1.37,1.79-1.37a1.85,1.85,0,0,1,2.1,1.77,2.52,2.52,0,0,0,1.12-2.18,2,2,0,0,0-2.31-1.94,5.57,5.57,0,0,0-2.8.84l-.79.68a.44.44,0,0,1-.22.07.24.24,0,0,1-.12,0l-.44-.24a.13.13,0,0,1-.08-.13.19.19,0,0,1,.07-.14l4.65-4.59H162a.22.22,0,1,1,0-.44h3.55l.57-.57a.2.2,0,0,1,.12-.06.14.14,0,0,1,.09,0l1.07.79a.1.1,0,0,1,.06.1.15.15,0,0,1-.06.12Zm1.74,4.94a1.55,1.55,0,0,0-1.44-1.41.77.77,0,0,0-.84.69c0,.6.58.93,1.32.93a3.17,3.17,0,0,0,1-.15Z"/><path class="cls-6" d="M176.3,43.39c-.06,0-.12-.08-.12-.14l.21-4.47a7.58,7.58,0,0,1-2.38,1c-.11,0-.17-.06-.17-.14a.19.19,0,0,1,.08-.13c.19-.17.43-.31.64-.47a6.09,6.09,0,0,0,2.52-3.77l.07-.66c0-.06,0-.1.1-.1s1.74.55,1.76.55a.15.15,0,0,1,.07.15,6.45,6.45,0,0,1-2.41,3.38l-.13.09,1.31.22a.12.12,0,0,1,.1.14l-.27,4.37a.12.12,0,0,1-.12.1Zm3.56-2.73s0-.07.08-.07,1.49.45,1.52.47.08.06.08.1a5.8,5.8,0,0,1-.64,1.31,4.07,4.07,0,0,1-2.81,1.69A.15.15,0,0,1,178,44s0-.07.44-.39A3.27,3.27,0,0,0,179.83,41Zm4.1-.18-.2,3.18a.12.12,0,0,1-.12.11l-1.46-.14c-.06,0-.1-.07-.1-.13l.15-3h-3.12a.2.2,0,0,1-.21-.21.21.21,0,0,1,.21-.21h3.13l.08-1.43a.12.12,0,0,1,0-.09h-.63v.23a.12.12,0,0,1-.12.13l-1.37.29h0c-.06,0-.09,0-.09-.11l0-4.62s0-.07.09-.07h0l1.39.51a.16.16,0,0,1,.1.16v.06h2.89l0-.42s0-.07.09-.07h0l1.43.52a.15.15,0,0,1,.11.15l-.18,3.5a.13.13,0,0,1-.12.12l-1.46,0a.12.12,0,0,1-.11-.12l0-.24h-2l1.43.23c.09,0,.11.06.11.13L184,40.06h2l.59-1.5a.14.14,0,0,1,.13-.12c.08,0,.12,0,.15.12l.63,1.65a.15.15,0,0,1,0,.18.17.17,0,0,1-.16.09Zm.71-5h-2.89l-.05,2.64h2.8Zm2.23,8.81s-.06,0-.11,0a3.23,3.23,0,0,1-1.47-1.11A2.07,2.07,0,0,1,185,42a1.56,1.56,0,0,1,0-.3s0-.24,0-.26a.12.12,0,0,1,.1-.06.11.11,0,0,1,.11.06c.45.76.69,1,2.91,1.51.12,0,.12.12.12.12a.11.11,0,0,1,0,.07Z"/><path class="cls-6" d="M196.74,35.36l.82.62a.1.1,0,0,1,0,.08,5.54,5.54,0,0,1-2,1.5l1.32,0a19,19,0,0,0,2.76-.16c-.2-.24-.41-.48-.6-.74s-.24-.27-.35-.42a.15.15,0,0,1,0-.06.09.09,0,0,1,0-.08l1.61-.39h0c.08,0,.11,0,.14.11a34.46,34.46,0,0,1,1.05,3.63.12.12,0,0,1-.12.13c-.06,0-.1-.06-.13-.09-.49-.57-.95-1.2-1.44-1.81a18.86,18.86,0,0,1-6.36,1.22c-.08,0-.09,0-.11-.09-.06-.31-.13-.93-.15-1.25,0-.13,0-.16.12-.16s.57.06.69.06l.32,0A15.38,15.38,0,0,0,196,35.67l.18-.31h-3.46a.2.2,0,0,1-.2-.21.2.2,0,0,1,.2-.19h3.7l-.47-2.22v0a.11.11,0,0,1,.1-.09h1.29a.13.13,0,0,1,.12.12l.21,2.22h3.13l.58-1.52a.14.14,0,0,1,.15-.11c.07,0,.1.05.13.11l.65,1.67a.28.28,0,0,1,0,.09.2.2,0,0,1-.19.16Zm2,7.31H196l-.12,1.61c0,.07-.08.12-.14.13l-1.24.29h0c-.06,0-.09-.05-.09-.11l.41-5.58a.07.07,0,0,1,.07-.08.06.06,0,0,1,.05,0l1.2.65h2.7c0-.15,0-.3,0-.47a.07.07,0,0,1,.08-.07h0l1.31.5a.19.19,0,0,1,.1.16c0,.08,0,.15,0,.23l-.17,2.74a10.4,10.4,0,0,1-.1,1.37c-.08.37-.44,1.26-.91,1.29a17.24,17.24,0,0,1-2.32-1s0-.06,0-.1.06-.18.15-.18h0l.13.06a1.35,1.35,0,0,0,.5.12c.74,0,1-.69,1.09-1.61Zm-2.61-1.42-.07,1h2.72c0-.34.05-.68.06-1ZM198.87,40h-2.62l-.08.85h2.7Z"/><path class="cls-6" d="M209.12,43.65a.21.21,0,0,1-.22-.2.21.21,0,0,1,.22-.21h2.66L211.9,39H208a.21.21,0,0,1,0-.41h4l.1-3.15a.11.11,0,0,1,.09-.09h0l1.54.35a.16.16,0,0,1,.1.15l-.12,2.74h2.65l.59-1.52A.19.19,0,0,1,217,37a.18.18,0,0,1,.15.1l.63,1.67a.15.15,0,0,1,0,.18.21.21,0,0,1-.17.08h-4l-.17,4.26h2l.57-1.52a.19.19,0,0,1,.15-.11.15.15,0,0,1,.13.11l.65,1.67a.12.12,0,0,1,0,.07.18.18,0,0,1-.2.19Z"/><path class="cls-6" d="M226.82,42.35l-.06,2a.11.11,0,0,1-.1.09h0l-1.28-.27c-.07,0-.1-.09-.1-.15l0-1.67h-2.22a.21.21,0,0,1,0-.42h2.23l0-1.3h-.89v.2c0,.05-.07.12-.12.14l-1.23.25h0a.08.08,0,0,1-.08-.09l.05-4.29a.09.09,0,0,1,.09-.08h0l1.25.47a.15.15,0,0,1,.11.12h.92l0-1.16h-2.23A.2.2,0,0,1,223,36a.2.2,0,0,1,.2-.19h2.23l.06-1.8a.08.08,0,0,1,.09-.07h0l1.34.48a.15.15,0,0,1,.1.15l0,1.24h1l.45-1.19a.19.19,0,0,1,.15-.12.14.14,0,0,1,.13.12l.52,1.34a.38.38,0,0,1,0,.1c0,.08-.08.15-.2.15H227l0,1.16h.83V37s0-.07.09-.07h0l1.18.48a.16.16,0,0,1,.1.16l-.15,3.25a.13.13,0,0,1-.13.13h0l.43,1.14a.13.13,0,0,1,0,.08.14.14,0,0,1,0,.1.19.19,0,0,1-.17.09Zm-1.46-3.22h-.9l0,1.11h.89Zm0-1.37h-.92v1h.91Zm3.09,3.18-.72,0a.13.13,0,0,1-.12-.12v-.17h-.77l0,1.3h1.26Zm-.75-1.81h-.8l-.05,1.11h.79Zm.06-1.37H227l0,1h.8Zm8,5.84-.93-1a22.89,22.89,0,0,1-4.66,1.22.2.2,0,0,1-.19-.15c0-.06-.23-.92-.23-1v0c0-.07.08-.12.15-.12h.46a6.21,6.21,0,0,0,1.34-3c0-.13,0-.29.07-.43h-2.2a.19.19,0,0,1-.19-.21.19.19,0,0,1,.19-.21h5.63l.58-1.5a.19.19,0,0,1,.15-.12.16.16,0,0,1,.13.1l.65,1.67a.45.45,0,0,1,0,.11s0,0,0,.07a.2.2,0,0,1-.18.09h-4.34l1.28.56a.13.13,0,0,1,.08.12,7,7,0,0,1-2.09,2.67,27.89,27.89,0,0,0,3-.27l-.68-.71c-.15-.17-.33-.33-.48-.51a.16.16,0,0,1,0-.09s0-.05,0-.05l1.43-.44h0c.27,0,1.59,3.52,1.59,3.69a.1.1,0,0,1-.06.09h-.12Zm-5.39-7a.21.21,0,1,1,0-.41h3.52l.58-1.52a.14.14,0,0,1,.15-.1c.07,0,.1,0,.13.1l.65,1.67a.28.28,0,0,1,0,.09.19.19,0,0,1-.19.17Z"/><path class="cls-6" d="M244.05,43.8a.13.13,0,0,1-.12-.12c0-.64,0-1.25,0-1.89a16.22,16.22,0,0,1-3.18,1.3c-.15,0-.49-1.28-.49-1.3s0-.09.07-.1l1-.15,0-5.57a.06.06,0,0,1,0,0h-.83a.2.2,0,0,1-.21-.21.2.2,0,0,1,.21-.2h4.3l.58-1.49a.16.16,0,0,1,.13-.1.19.19,0,0,1,.14.1l.63,1.65a.23.23,0,0,1,0,.07.2.2,0,0,1-.19.18h-1.79l1,.32a.16.16,0,0,1,.11.15v.68c-.05,2.19-.11,4.38-.11,6.58a.13.13,0,0,1-.12.12ZM244,35.92h-2.51l1.1.6a.22.22,0,0,1,.1.18v.85H244Zm0,3.42c0-.47,0-.93,0-1.4h-1.31v1.4Zm0,.39h-1.3v1.64c.41-.06.8-.13,1.21-.22l.09,0Zm8.52,1.87a5.38,5.38,0,0,0,.22-1.13c0-.17,0-.36,0-.51s.05-.09.11-.09,1.32.39,1.43.43.08.06.08.11A5.38,5.38,0,0,1,253,42.92l.12.12a1.45,1.45,0,0,0,1.14.42H255s.1,0,.1.06a5.52,5.52,0,0,1-1.17,1.07,13.25,13.25,0,0,1-1.4-1.19,6.65,6.65,0,0,1-2.2.9c-.07,0-.12,0-.12-.1a.13.13,0,0,1,.06-.11c.23-.18.48-.33.71-.49a5.21,5.21,0,0,0,1-.94A9.75,9.75,0,0,1,250.8,39h-5.18a.21.21,0,0,1-.2-.21.2.2,0,0,1,.2-.21h1.61c-.15-.38-.29-.77-.44-1.16a3,3,0,0,1-.24-.6.09.09,0,0,1,.08-.1l1.2,0a.11.11,0,0,1,.11.12v0a16.36,16.36,0,0,1-.18,1.67h.91c.12-.44.29-.86.41-1.31,0-.18.12-.59.17-.73a.08.08,0,0,1,.07-.07,4.62,4.62,0,0,1,1.12.77.14.14,0,0,1-.05.09,13.84,13.84,0,0,1-1,1.25h1.37a19.08,19.08,0,0,1-.1-2v-.39c0-1.15,0-1.33.15-1.36s1.67-.21,1.76-.21l-.53-.36a3.88,3.88,0,0,1-.33-.23.05.05,0,0,1,0,0,.08.08,0,0,1,.05-.08l1.26-.72H253a9.69,9.69,0,0,1,1.26,2.56.06.06,0,0,1-.06.07s0,0-.06,0l-.09,0c-.13-.09-.25-.23-.39-.33a9.94,9.94,0,0,0-.83-.62l-.22-.15v0a25.92,25.92,0,0,0-.54,3.84h.76l.59-1.51a.17.17,0,0,1,.15-.12.15.15,0,0,1,.14.12l.63,1.66a.15.15,0,0,1,0,.18.18.18,0,0,1-.17.09h-2.12v.19a8,8,0,0,0,.36,2.56Zm-3.31,2a.13.13,0,0,1-.12-.12v-.18h-1.42a.23.23,0,0,1-.11.14l-1.14.25h0a.11.11,0,0,1-.11-.1l0-4c0-.06,0-.07.08-.07h0l1.17.42a.15.15,0,0,1,.11.15v0h1.55l0-.54a.08.08,0,0,1,.09-.07h0l1.15.49a.18.18,0,0,1,.1.17l-.15,3.35a.13.13,0,0,1-.12.13Zm-2.71-7.3a.21.21,0,0,1-.2-.21.2.2,0,0,1,.2-.21h1.26l-.48-1.75v-.05s0-.06.07-.06h1.36a.13.13,0,0,1,.13.12l.23,1.75h.15l.47-1.19c0-.06.06-.1.13-.1s.14,0,.15.1l.5,1.34a.23.23,0,0,1,0,.11s0,0,0,.07a.21.21,0,0,1-.18.09h-3.79Zm2.72,4.2h-1.53l0,.9h1.51Zm-.06,1.31h-1.49v1.08h1.43Z"/><path class="cls-6" d="M267.63,38.26a9.43,9.43,0,0,1-3.76,6.12.3.3,0,0,1-.14,0,.15.15,0,0,1-.16-.15.17.17,0,0,1,0-.12,10.58,10.58,0,0,0,2.39-5.9h-2.87l.27,2.57a.45.45,0,0,1,0,.11.23.23,0,0,1-.11.07l-1.08.14h0A.15.15,0,0,1,262,41l-.35-2.77h-2.36a.23.23,0,0,1-.21-.23.22.22,0,0,1,.21-.23h2.32l-.27-2.22c0-.12.07-.14.12-.14h0l1.21.2a.2.2,0,0,1,.18.18l.19,2h3c.06-.75.09-1.58.09-2.5,0-.1.05-.16.14-.16l1.62.36c.05,0,.09,0,.09.14a20.48,20.48,0,0,1-.27,2.16h1.13l.57-1.47c0-.11.09-.12.12-.12a.14.14,0,0,1,.15.12l.64,1.67a.32.32,0,0,1,0,.09c0,.09-.11.17-.22.17Z"/><path class="cls-6" d="M276.49,39.76a.15.15,0,0,1-.14-.12l-.1-.59v0a.1.1,0,0,1,.09-.09l7.66-.09a.14.14,0,0,1,.15.12l.11.67a.12.12,0,0,1-.11.12Z"/><path class="cls-6" d="M298.54,43.12c.06,0,.1.07.1.15,0,.27-1.2.75-2.75.75-4.08,0-4.17-2.72-4.17-4a27.85,27.85,0,0,1,.48-4.16c0-.07,0-.1.09-.1h.07l1.43.59a.14.14,0,0,1,.09.12.28.28,0,0,1,0,.09,13.12,13.12,0,0,0-.54,2.11h3.84l.57-1.48a.15.15,0,0,1,.15-.12s.09,0,.12.12l.63,1.67s0,.05,0,.08-.2.19-.2.19h-5.19c0,.31-.06.59-.06.86a3.52,3.52,0,0,0,.54,2.1c.65.85,2.18,1.15,3.43,1.15a5.53,5.53,0,0,0,1.33-.13Zm0-7.77a.26.26,0,0,1,.18-.06c.16,0,.24.12.61.78a8,8,0,0,1,.71,1.43s0,.11-.1.11a.15.15,0,0,1-.11-.06c-.5-.42-.6-.51-1.91-1.52a.18.18,0,0,1-.06-.14.13.13,0,0,1,.06-.13Zm2.06.87c-.68-.55-1.09-.86-1.28-1a.26.26,0,0,1-.09-.14s0-.07.09-.13l.62-.42a.21.21,0,0,1,.15-.06.15.15,0,0,1,.13.09s0,.06.41.64a9.73,9.73,0,0,1,.8,1.48.09.09,0,0,1-.09.09.25.25,0,0,1-.11-.05Z"/><path class="cls-6" d="M313.75,43.3a33.71,33.71,0,0,0-2.61-2.21,13.87,13.87,0,0,1-4.39,2.84l-.09,0c-.09,0-.14-.06-.17-.15v-.06a.18.18,0,0,1,.06-.14,16,16,0,0,0,5.75-6.7h-4.75a.23.23,0,0,1-.22-.23.22.22,0,0,1,.22-.22h4.92c.1-.21.16-.41.26-.65a.13.13,0,0,1,.13-.1l.11,0,1.41.88a.16.16,0,0,1,.05.11A18.64,18.64,0,0,1,312.18,40a26.06,26.06,0,0,1,2.95,4.15.21.21,0,0,1-.19.2.16.16,0,0,1-.12-.06Z"/><path class="cls-7" d="M13.65,88.92l2.64-2.64.23.23-2.63,2.64,2.63,2.64-.23.23-2.64-2.64L11,92l-.23-.23,2.64-2.65-2.64-2.64.24-.23ZM12,89.15a.61.61,0,0,1-.6.6.6.6,0,0,1,0-1.2A.61.61,0,0,1,12,89.15Zm1.67-1.68a.6.6,0,1,1,0-1.2.6.6,0,0,1,0,1.2Zm0,3.36a.6.6,0,0,1,0,1.2.6.6,0,1,1,0-1.2Zm1.68-1.68a.61.61,0,0,1,.6-.6.6.6,0,0,1,0,1.2A.61.61,0,0,1,15.33,89.15Z"/><path class="cls-7" d="M22,90.72a4.09,4.09,0,0,0,3,1.58,2.24,2.24,0,0,0-.36.51,4.21,4.21,0,0,1-3.26-2.09h-.07c-.41.8-1.29,1.53-3.11,2.07a2.11,2.11,0,0,0-.36-.47,4.77,4.77,0,0,0,2.79-1.6H18V90.2h3a2.58,2.58,0,0,0,.16-.76H18.87V89H21.1v-.71H18.74v-.51H21.1v-.66h.59v.66h2.47v-.92H18.65v1h-.58V86.28h3.05V85.5h.59v.78h3.05v1.53h-.6v.43H21.69V89h2.36v.49H21.68a4,4,0,0,1-.13.76h3.39v.52Z"/><path class="cls-7" d="M30.51,87a7,7,0,0,0,2.8,1.71,2,2,0,0,0-.4.47,7.26,7.26,0,0,1-3-2.16v1.68h-.57V87.05a7.46,7.46,0,0,1-3,2.22,2.07,2.07,0,0,0-.38-.46A7,7,0,0,0,28.67,87H26.11V86.5h3.2v-1h.57v1h3.27V87Zm1.32,5.06h1.34v.54H26.08v-.54h1.34V89h4.41ZM28,89.48V90h3.24v-.56Zm3.24,1H28v.59h3.24ZM28,92.09h3.24v-.58H28Z"/><path class="cls-7" d="M37.57,89.17c-.13.21-.27.43-.43.65h4.34v.51H39.81a3.24,3.24,0,0,1-.92,1.23,20.64,20.64,0,0,1,2.35.75l-.36.48A23.39,23.39,0,0,0,38.29,92a9.26,9.26,0,0,1-3.67.85,1.62,1.62,0,0,0-.23-.52,10.68,10.68,0,0,0,3.07-.54c-.47-.11-1-.22-1.44-.31l-.16.22-.56-.19c.24-.31.52-.71.81-1.13H34.27v-.51h2.19c.2-.3.38-.58.54-.85l.57.15V87.66a7.63,7.63,0,0,1-3,1.82,2.09,2.09,0,0,0-.36-.47,7.35,7.35,0,0,0,2.71-1.39H34.36v-.49h3.21v-.8c-.85.07-1.73.11-2.53.12a2,2,0,0,0-.13-.46,33.75,33.75,0,0,0,5.22-.48l.44.42a18.92,18.92,0,0,1-2.43.36v.84h3.23v.49H38.84a7.31,7.31,0,0,0,2.7,1.31,1.92,1.92,0,0,0-.37.49,7.59,7.59,0,0,1-3-1.76v1.56h-.57Zm-.77,1.16c-.15.23-.3.45-.46.66.62.11,1.24.25,1.84.39a2.79,2.79,0,0,0,1-1Z"/><path class="cls-7" d="M45.57,87.31H42.42v-.49h3.15Zm-.32,5H43.31v.37h-.53V90h2.47ZM42.79,87.9h2.48v.47H42.79Zm0,1.06h2.48v.48H42.79Zm2.48-2.71H42.83v-.48h2.44Zm-2,4.27v1.34h1.4V90.52Zm5.61,1.63c.25,0,.3-.25.33-1.24a1.51,1.51,0,0,0,.55.25c-.07,1.16-.22,1.55-.84,1.55h-1c-.65,0-.83-.2-.83-1V89.39l-1.54.24-.09-.56,1.63-.25v-2.1L45.81,87a2.28,2.28,0,0,0-.19-.51,15.67,15.67,0,0,0,3.27-.86l.5.46a11.58,11.58,0,0,1-1.71.53v2.15l2-.31.1.56-2.08.32v2.45c0,.33,0,.4.32.4Z"/><path class="cls-7" d="M57,92.11c.29,0,.34-.17.37-1.2a1.72,1.72,0,0,0,.55.25c-.06,1.2-.24,1.52-.87,1.52H55.88c-.7,0-.88-.2-.88-.85V89.48H53.49c-.16,1.56-.61,2.73-2.42,3.36a1.51,1.51,0,0,0-.38-.5,2.83,2.83,0,0,0,2.19-2.86H50.81v-.57H54v-1.6H52.34a5.47,5.47,0,0,1-.69,1.22,2.92,2.92,0,0,0-.52-.28,6.79,6.79,0,0,0,1.14-2.56l.6.12q-.12.45-.3.93H54V85.5h.59v1.24H57.2v.57H54.58v1.6h3.2v.57H55.6v2.35c0,.24,0,.28.36.28Z"/><path class="cls-7" d="M63.06,88.13c1.36-.26,2.77-.55,3.1-.63a1.54,1.54,0,0,0,.43-.14l.47.37a2.49,2.49,0,0,0-.2.32,11.5,11.5,0,0,1-1.64,2.32L64.67,90a7.78,7.78,0,0,0,1.42-1.9l-3,.61v2.38c0,.55.21.73,1.17.73a12,12,0,0,0,2.48-.24l0,.69a17.57,17.57,0,0,1-2.51.17c-1.49,0-1.77-.4-1.77-1.18V88.89l-1.84.37-.12-.67c.36,0,1.12-.18,2-.34V86.89a4.53,4.53,0,0,0,0-.74h.76a4.52,4.52,0,0,0-.06.74Zm3.33-1a10.14,10.14,0,0,0-.64-1.1l.42-.19c.2.29.49.78.66,1.1Zm.66-1.61a10.68,10.68,0,0,1,.67,1.09l-.43.19a7.89,7.89,0,0,0-.66-1.09Z"/><path class="cls-7" d="M74.42,87.35l-.44.48a10,10,0,0,1-1.81,1.66c0,.66,0,1.62,0,2.15,0,.28,0,.64,0,.88h-.73a7.89,7.89,0,0,0,0-.88c0-.46,0-1.2,0-1.74A13,13,0,0,1,68.83,91l-.39-.59a10.07,10.07,0,0,0,3.24-1.36A6.88,6.88,0,0,0,73.3,87.6H70c-.28,0-.74,0-1,0V87c.25,0,.7,0,1,0h1.56v-.51a5.14,5.14,0,0,0,0-.71h.73a5,5,0,0,0,0,.71V87H73.5A2,2,0,0,0,74,87Zm-1.13,2.06a20.42,20.42,0,0,1,1.92,1.16l-.41.55a13.73,13.73,0,0,0-1.93-1.24Z"/><path class="cls-7" d="M82,88.34a2.29,2.29,0,0,0-.11.23,5.34,5.34,0,0,1-1.16,2.27,5.84,5.84,0,0,1-2.87,1.68L77.35,92a5.33,5.33,0,0,0,2.81-1.47,4,4,0,0,0,1-1.76H76.87l-.78,0v-.67c.29,0,.56.05.78.05h4.21a1,1,0,0,0,.44-.07ZM76.8,86.23a5.39,5.39,0,0,0,.72,0h3.15a5.2,5.2,0,0,0,.72,0v.66l-.73,0H77.52l-.72,0Z"/><path class="cls-7" d="M82.63,92A3.79,3.79,0,0,0,84,90a14.34,14.34,0,0,0,.24-3.21,3.25,3.25,0,0,0-.05-.59h.73a5.57,5.57,0,0,0,0,.58,17.18,17.18,0,0,1-.25,3.4,4.43,4.43,0,0,1-1.42,2.19Zm3.66,0a2,2,0,0,0,.06-.45V86.78a3.52,3.52,0,0,0,0-.59H87a4,4,0,0,0,0,.59V91.4a6.14,6.14,0,0,0,2.33-2l.39.54A8.09,8.09,0,0,1,87,92.19a1.58,1.58,0,0,0-.27.18Z"/><path class="cls-7" d="M92.19,86.18c0,.15,0,.39,0,.58v2.67c0,.2,0,.46,0,.61h-.73c0-.12,0-.38,0-.62V86.76c0-.15,0-.43,0-.58Zm3.7-.05c0,.19,0,.42,0,.68v1.3c0,1.92-.25,2.55-.83,3.24a4.33,4.33,0,0,1-1.9,1.17L92.61,92a3.7,3.7,0,0,0,1.92-1.06c.57-.66.67-1.31.67-2.82V86.81a6.39,6.39,0,0,0,0-.68Z"/><path class="cls-7" d="M103.82,87.62a4.79,4.79,0,0,0,.72,0v.67l-.72,0h-.88v.28c0,2.13-.46,3.23-2.29,4l-.54-.51c1.46-.56,2.19-1.25,2.19-3.48v-.34H100v1.29c0,.3,0,.65,0,.73h-.7c0-.08,0-.42,0-.73V88.23h-.86c-.35,0-.71,0-.8,0v-.69a7.48,7.48,0,0,0,.8.05h.86v-1c0-.26,0-.51,0-.59h.71a4.65,4.65,0,0,0,0,.59v1h2.28v-1a5.46,5.46,0,0,0,0-.65H103a5.46,5.46,0,0,0,0,.65v1Z"/><path class="cls-7" d="M105.75,88.73c.24,0,.66,0,1.11,0h4.38c.4,0,.69,0,.86,0v.78c-.16,0-.49,0-.85,0h-4.39a10.87,10.87,0,0,0-1.11,0Z"/><path class="cls-7" d="M119.52,88.57c.18,0,.47,0,.64,0v.67a6.06,6.06,0,0,0-.62,0h-2.23a3.8,3.8,0,0,1-2,3.36l-.62-.44a3.18,3.18,0,0,0,2-2.92h-2.37a6.85,6.85,0,0,0-.71,0v-.67a6.6,6.6,0,0,0,.69,0h2.41V87.11c-.81.08-1.71.1-2.33.11l-.16-.59a20.28,20.28,0,0,0,2.69-.12,11.08,11.08,0,0,0,2.06-.46l.43.55-.46.12c-.39.1-1,.22-1.58.31v1.54Z"/><path class="cls-7" d="M122.79,91.76c1.84-1.61,2.69-2.78,2.69-3.79a1,1,0,0,0-1.08-1.16,1.64,1.64,0,0,0-1.21.68l-.43-.41a2.26,2.26,0,0,1,1.73-.87,1.61,1.61,0,0,1,1.7,1.74c0,1.17-.92,2.36-2.29,3.66.3,0,.66,0,1,0h1.62v.63h-3.69Z"/><path class="cls-7" d="M127.33,89.24c0-2,.71-3,1.83-3s1.82,1,1.82,3-.71,3.05-1.82,3.05S127.33,91.28,127.33,89.24Zm2.94,0c0-1.71-.45-2.43-1.11-2.43s-1.12.72-1.12,2.43.45,2.47,1.12,2.47S130.27,91,130.27,89.24Z"/><path class="cls-7" d="M131.93,91.58h1.31V87.21h-1v-.47a3.64,3.64,0,0,0,1.21-.41H134v5.25h1.18v.61h-3.22Z"/><path class="cls-7" d="M136.66,91.24a1.29,1.29,0,0,0,1,.44c.76,0,1.42-.62,1.47-2.44a1.78,1.78,0,0,1-1.35.72c-1,0-1.62-.63-1.62-1.84a1.77,1.77,0,0,1,1.68-1.91c1.13,0,2,.93,2,2.8,0,2.37-1,3.28-2.13,3.28a1.82,1.82,0,0,1-1.4-.6Zm2.44-2.6c-.08-1.21-.52-1.85-1.28-1.85-.56,0-1,.53-1,1.33s.35,1.3,1,1.3A1.54,1.54,0,0,0,139.1,88.64Z"/><path class="cls-7" d="M142.58,85.85h.53l-2.39,7.77h-.54Z"/><path class="cls-7" d="M143.89,91.58h1.31V87.21h-1v-.47a3.64,3.64,0,0,0,1.21-.41h.56v5.25h1.18v.61h-3.22Z"/><path class="cls-7" d="M148.16,91.76C150,90.15,150.85,89,150.85,88a1,1,0,0,0-1.08-1.16,1.66,1.66,0,0,0-1.22.68l-.42-.41a2.24,2.24,0,0,1,1.72-.87A1.61,1.61,0,0,1,151.56,88c0,1.17-.92,2.36-2.3,3.66.31,0,.67,0,1,0h1.63v.63h-3.69Z"/></g></g></svg>