<svg xmlns="http://www.w3.org/2000/svg" viewBox="0 0 164.41 164.41"><defs><style>.cls-1{fill:#fff;}.cls-2{fill:#ea6176;}.cls-3{fill:none;}.cls-4{fill:#595757;}</style></defs><g id="レイヤー_2" data-name="レイヤー 2"><g id="レイヤー_1-2" data-name="レイヤー 1"><circle class="cls-1" cx="82.2" cy="82.2" r="78.36"/><path class="cls-2" d="M82.2,0a82.21,82.21,0,1,0,82.21,82.2A82.3,82.3,0,0,0,82.2,0Zm3.92,117.14,16.2-16.2a1.83,1.83,0,0,0,.13-.16l.25-.25a1.71,1.71,0,0,1,2.42,0l11.31,11.3a1.71,1.71,0,0,0,2.42,0l9.92-9.91a1.74,1.74,0,0,0,0-2.43L110.9,81.63a1.73,1.73,0,0,0-2.42,0L97.8,92.32l-13-13a2.9,2.9,0,0,0-4.1,0l-13,13L56.94,81.63a1.73,1.73,0,0,0-2.42,0L36.65,99.49a1.74,1.74,0,0,0,0,2.43l9.92,9.91a1.71,1.71,0,0,0,2.42,0l11.31-11.3a1.71,1.71,0,0,1,2.42,0l10.7,10.71a2,2,0,0,0,.35.25l5.64,5.65H35.72a58.18,58.18,0,1,1,93,0Zm48.66,0h-2.92a60.75,60.75,0,1,0-99.32,0H29.63a63.16,63.16,0,1,1,105.15,0Z"/><path class="cls-3" d="M82.2,24a58.14,58.14,0,0,0-46.48,93.11h93A58.14,58.14,0,0,0,82.2,24Z"/><circle class="cls-2" cx="55.88" cy="68.81" r="9.02"/><circle class="cls-2" cx="82.22" cy="66.62" r="9.02"/><circle class="cls-2" cx="109.54" cy="68.81" r="9.02"/><path class="cls-1" d="M89.75,102.21a4,4,0,0,1-6.93,4.09,4,4,0,0,1-7.41-2.21,4.14,4.14,0,0,1,.45-1.85,4,4,0,0,1,1.27-7.85,3.84,3.84,0,0,1,1.66.36,4.17,4.17,0,0,1-.14-1.06,4,4,0,1,1,7.9,1.15,4,4,0,0,1,1.85-.45,4,4,0,0,1,1.35,7.82Zm-7-5.18a2.58,2.58,0,1,0,2.49,2.58A2.53,2.53,0,0,0,82.71,97Z"/><path class="cls-4" d="M63,52.11a1.15,1.15,0,1,1-2.29,0v-10c-.54.75-.88,1.18-1.45,1.18A1.42,1.42,0,0,1,58,41.86a2,2,0,0,1,.59-1.27,21.85,21.85,0,0,0,3.53-6.73c.07-.21.32-1.18.41-1.36a1,1,0,0,1,.93-.53c.12,0,1.27,0,1.27,1A20.13,20.13,0,0,1,63,38Zm2.29-7.8a1,1,0,0,1-1.18-1.07c0-1,.77-1.09,1.18-1.09h5.38v-2H68.13c-1.73,0-2.54-.56-2.54-2.51V35.19c0-2,.84-2.54,2.54-2.54h7.39c1.7,0,2.54.57,2.54,2.54V37.6c0,1.95-.82,2.51-2.54,2.51H72.93v2h5.29a1,1,0,0,1,1.18,1.09c0,1-.78,1.07-1.18,1.07H73.66a19.34,19.34,0,0,0,3.9,4.4c1.81,1.4,1.81,1.4,1.81,1.86a1.39,1.39,0,0,1-1.24,1.31c-.44,0-1-.36-2.25-1.68a23.45,23.45,0,0,1-2.95-3.71v5.62a1,1,0,0,1-1.09,1.18c-.93,0-1.17-.45-1.17-1.18V46.65a22,22,0,0,1-3.79,4.12C65.47,52,65.2,52,64.93,52a1.32,1.32,0,0,1-1.11-1.29,1.27,1.27,0,0,1,.72-1,17.63,17.63,0,0,0,5.4-5.33ZM75.7,35.58c0-.61-.27-.91-.88-.91h-6a.8.8,0,0,0-.91.91v1.68c0,.61.3.88.91.88h6a.77.77,0,0,0,.88-.88Z"/><path class="cls-4" d="M97.17,35.51a25.89,25.89,0,0,1,3.13,2c2.09,1.48,2.13,1.73,2.13,2.11a1.36,1.36,0,0,1-1.27,1.27,1.48,1.48,0,0,1-1-.47c-.5-.43-.55-.48-1.32-1.09-1.18.13-4.44.32-7.3.45-2.31.09-7.48.25-7.62.25-.54,0-1.29,0-1.29-1.09a.89.89,0,0,1,.82-1c.25,0,.54,0,3.35-.07.41-.57,1-1.45,1.59-2.36H83.09c-.54,0-1-.16-1-1s.68-1,1-1h8.32v-.75c0-.68.28-1,1.37-1s1.13.54,1.13,1v.75h8.34c.48,0,1,.09,1,1s-.66,1-1,1ZM87.38,49.05v3.08a1,1,0,0,1-1.16,1.18c-1,0-1.24-.52-1.24-1.18v-9c0-1.7.68-2.29,2.26-2.29H98.08c1.57,0,2.29.56,2.29,2.29v7.68a2.17,2.17,0,0,1-.77,2c-.45.3-.86.34-3,.34-1.79,0-2-.06-2.2-.2a1.13,1.13,0,0,1-.43-1,.94.94,0,0,1,1.09-1l2.06,0c.43,0,.84,0,.84-.66V49.05Zm0-4.95H98v-.74a.56.56,0,0,0-.63-.64H88c-.45,0-.61.25-.61.64ZM98,45.85H87.38V47.3H98ZM91.17,35.51c-1.16,1.66-1.27,1.84-1.64,2.31,2,0,4.79-.15,6.9-.25-.93-.65-1-.7-1-1.13a1.09,1.09,0,0,1,.56-.93Z"/><path class="cls-1" d="M36.24,132.61H40.8v7c.79,3,4.93,3,5.22,3H58.3L57.83,145H46a10,10,0,0,1-3.4-.68,5.82,5.82,0,0,1-2.34-1.92,22.07,22.07,0,0,1-3.2,3.21L36,143a18.93,18.93,0,0,0,2.52-1.75V135H36.24Zm2-8.66a26.1,26.1,0,0,1,3.46,4.12l-1.94,1.52a30.51,30.51,0,0,0-3.23-4.24Zm14.08,16.19H46v-5h2.73v-1.34H45.29V132h3.46v-1.57h-4v11.14h-2.2V128.65h3.13c-.14-.63-.35-1.49-.39-1.7H41.78v-2h6.83v-1.29H51V125h7v2h-3.6a16,16,0,0,1-.52,1.7h3.21v11.21a1.79,1.79,0,0,1-1.92,1.92H52.52ZM47.4,127c.14.6.16.72.32,1.7h4.14a8.79,8.79,0,0,0,.42-1.7Zm.49,9.87v1.63h3.79v-1.63Zm6.48,2.83c.3,0,.51-.05.51-.54v-8.66H50.83V132h3.54v1.8H50.83v1.34h2.76v4.49Z"/><path class="cls-1" d="M60.35,124.4H80.61v2.29H72.09v6.15h7.56v2.29H72.09v7.3h9.17v2.34H59.62v-2.34h3.07V130h2.48v12.44h4.44V126.69H60.35Z"/><path class="cls-1" d="M91.66,127.69v2.13H82.85v-2.13Zm-.79-3.27v2.08h-7.3v-2.08Zm0,6.64v2.09h-7.3v-2.09Zm0,3.51v2.08h-7.3v-2.08Zm3.46,3.11a19.48,19.48,0,0,1-1.8,6.76l-1.66-1.07v1.8h-7.3V138h7.3v4.64a13.1,13.1,0,0,0,1.31-5.15Zm-5.52,2.37H85.65v3.11h3.16Zm2.32-6.9a9,9,0,0,0,3.81-3.21c-.75-.26-1.17-.4-2.53-.79l.8-1.81a25.14,25.14,0,0,1,2.57.68,10.25,10.25,0,0,0,.3-1.59H92.41v-2H104c0,5.12-.17,7.65-.7,8.86a2,2,0,0,1-2.11,1.36H98.91l-.35-2.29h2.16c.91,0,1.19-.7,1.26-5.92H98.45a13.7,13.7,0,0,1-.59,2.39,12,12,0,0,1,2.44,1.28l-1,2A16,16,0,0,0,97,130.78a11.45,11.45,0,0,1-4.37,4.31Zm6.08,4.53v4.94c0,.54.18.68.44.68h1.17c.61,0,.68-.59.84-2.39l2.11.66c-.26,2.59-.66,3.83-2.11,3.83H96.9A1.68,1.68,0,0,1,95,143.72v-6Zm2,.7a21.23,21.23,0,0,0-4-2.94l1.35-1.66a17.77,17.77,0,0,1,3.91,2.92Zm3.63,6.06a28.28,28.28,0,0,0-1.76-6.76l2.06-.56a24.07,24.07,0,0,1,1.92,6.62Z"/><path class="cls-1" d="M116.06,132.56h-6v-2.34h14.34v2.34h-6V136h7.26v2.32h-7.26v4.25a9.76,9.76,0,0,0,1.57.1h8.42L128,145h-9c-2.43,0-5.21-.56-8-4.14a13.2,13.2,0,0,1-3.37,4.61l-1.5-2.2c2.22-1.82,3.91-5.47,4.28-9.38l2.48.37a19.82,19.82,0,0,1-1,4.31,8.57,8.57,0,0,0,4.17,3.44Zm2.47-9v2.08h9.17V131h-2.41v-3h-16v3h-2.41v-5.36H116v-2.08Z"/></g></g></svg>