<svg xmlns="http://www.w3.org/2000/svg" viewBox="0 0 203.25 173.63"><defs><style>.cls-1{fill:#036eb8;}.cls-2{fill:#2ea7e0;}.cls-3{fill:#595757;}</style></defs><g id="レイヤー_2" data-name="レイヤー 2"><g id="レイヤー_1-2" data-name="レイヤー 1"><circle class="cls-1" cx="101.04" cy="54.41" r="11.19"/><rect class="cls-1" x="82.76" y="75.5" width="37.89" height="37.89" rx="3.6" transform="translate(96.57 -44.26) rotate(45)"/><circle class="cls-2" cx="134.92" cy="57.14" r="11.19"/><path class="cls-2" d="M105,101.62,133.61,73a2.12,2.12,0,0,1,3,0l22.15,22.15a2.12,2.12,0,0,1,0,3l-12.3,12.31a2.12,2.12,0,0,1-3,0l-14-14a2.13,2.13,0,0,0-3,0l-13.27,13.27a2.13,2.13,0,0,1-3,0L105,104.62A2.12,2.12,0,0,1,105,101.62Z"/><circle class="cls-2" cx="68.36" cy="57.14" r="11.19"/><path class="cls-2" d="M98.26,101.62,69.67,73a2.12,2.12,0,0,0-3,0L44.52,95.19a2.12,2.12,0,0,0,0,3l12.3,12.31a2.12,2.12,0,0,0,3,0l14-14a2.12,2.12,0,0,1,3,0l13.28,13.27a2.13,2.13,0,0,0,3,0l5.13-5.13A2.14,2.14,0,0,0,98.26,101.62Z"/><path class="cls-1" d="M.2,141.49H3.52v5.12c.58,2.19,3.59,2.19,3.8,2.19h8.93l-.34,1.67H7.32A7.16,7.16,0,0,1,4.85,150a4.15,4.15,0,0,1-1.7-1.4,16,16,0,0,1-2.33,2.33L0,149a13.9,13.9,0,0,0,1.84-1.27v-4.56H.2Zm1.43-6.3a18.52,18.52,0,0,1,2.52,3l-1.41,1.1a22.85,22.85,0,0,0-2.35-3.08ZM11.88,147H7.32v-3.63h2v-1H6.79v-1.31H9.31v-1.14H6.38V148H4.78v-9.41H7.06c-.1-.46-.25-1.09-.29-1.24H4.24v-1.45h5V135h1.71v.93H16v1.45H13.39a11.92,11.92,0,0,1-.37,1.24h2.33v8.15a1.31,1.31,0,0,1-1.4,1.4h-1.9Zm-3.56-9.6c.1.44.12.53.24,1.24h3a6.82,6.82,0,0,0,.31-1.24Zm.36,7.18v1.19h2.75v-1.19Zm4.71,2.06c.22,0,.37,0,.37-.39v-6.3H10.82v1.14h2.57v1.31H10.82v1h2v3.27Z"/><path class="cls-1" d="M17.74,135.52H32.47v1.66H26.28v4.48h5.5v1.67h-5.5v5.3H33v1.71H17.21v-1.71h2.23v-9h1.8v9h3.24V137.18H17.74Z"/><path class="cls-1" d="M43.12,137.71v1.79H39.43a41.69,41.69,0,0,1-2.83,8.73l-1.94-.77a26.66,26.66,0,0,0,2.84-8H34.87v-1.79h3a20.66,20.66,0,0,0,.26-2.13l2,.07c-.16,1.07-.21,1.43-.33,2.06Zm3.18,6.82A12.78,12.78,0,0,1,49.75,147l-1.12,1.74a9.13,9.13,0,0,0-2.45-2.13v.53c0,2.17-1.72,3-3.45,3-2.61,0-3.9-1.42-3.9-3.07,0-1.42,1.11-3.25,4-3.25a7.23,7.23,0,0,1,1.55.15l-.08-3.47h1.88Zm-1.84,1.14a4.27,4.27,0,0,0-1.6-.29c-1.48,0-2.28.7-2.28,1.6,0,.31.1,1.5,2.15,1.5,1.36,0,1.73-.63,1.73-1.77Zm4.24-4.93A24,24,0,0,0,44,138.51l.78-1.6a24.86,24.86,0,0,1,4.75,2.15Z"/><path class="cls-1" d="M59.12,134.94a12.71,12.71,0,0,1-.63,1.78h8.66v1.69H57.73c-.41.76-.6,1.05-.85,1.46h8.5v9.56a1.32,1.32,0,0,1-1.31,1.47H61.13l-.36-1.65h2.52c.31,0,.36-.17.36-.46v-1.5H56.11V151H54.38V143a17.33,17.33,0,0,1-2.23,1.9L51,143.39a12.89,12.89,0,0,0,4.69-5H51.13v-1.69h5.39a9.61,9.61,0,0,0,.63-1.87Zm4.53,6.57H56.11v1.42h7.54Zm0,2.89H56.11v1.48h7.54Z"/><path class="cls-1" d="M71.13,144.55a14,14,0,0,1-2.59,3.73l-.64-1.94a16.11,16.11,0,0,0,3-4.34H68.13v-1.6h3V135h1.68v5.41H75.5V142H72.91a12,12,0,0,0,2.15,3L74,146.52a12.07,12.07,0,0,1-1.19-1.92v6.31H71.13Zm-1.58-8.64a18.68,18.68,0,0,1,.76,3.38l-1.5.38a10.32,10.32,0,0,0-.68-3.47Zm6.29.22a20.59,20.59,0,0,1-1,3.56l-1.41-.43a13.51,13.51,0,0,0,.85-3.44Zm5,8.3V135h1.8v9l1.4-.31.2,1.69-1.6.34v5.15h-1.8v-4.76L75,147.41l-.27-1.67Zm-4-4.47a12.3,12.3,0,0,1,3,2.35l-1.12,1.32a11.49,11.49,0,0,0-2.86-2.41Zm.44-4.26a13.36,13.36,0,0,1,3,2.4l-1.18,1.33a13,13,0,0,0-2.91-2.52Z"/><path class="cls-1" d="M85.11,147l.54-.09V137h-.54v-1.58h5.46v.92h2V135h1.58v1.34h2v1.41h-.58a25.34,25.34,0,0,1-.38,2.76h1.35c0-.36,0-2.23-.05-2.6,0-.65-.06-2.61-.06-2.91h1.52c0,.78.07,4.64.08,5.51h3.1v1.44H98c0,.55.08,1.81.34,3.68a12.8,12.8,0,0,0,.93-2.86l1.47.44a19.37,19.37,0,0,1-1.91,4.72c.26.83.39.93.61.93s.41-.58.67-1.72l1.31.63c-.17.75-.68,3.17-2.1,3.17-.83,0-1.46-1.3-1.59-1.62a12.29,12.29,0,0,1-1.93,1.65l-1.09-1.1H91V143h4.86v6a8.44,8.44,0,0,0,1.36-1.41,30.07,30.07,0,0,1-.64-5.65H90.3v-1.44h1.26c0-.41-.19-1.94-.33-2.76h-.8V137H90v14H88.61v-3c-1.46.39-2.55.58-3.23.7Zm2-10.06v2.2h1.55V137Zm0,3.64v2.23h1.55V140.6Zm1.55,3.71H87.06v2.4c.29-.05.8-.15,1.55-.32Zm3.8-.06v1.42h2v-1.42Zm0,2.67v1.66h2v-1.66Zm.22-9.21a23.53,23.53,0,0,1,.25,2.76h1a22.4,22.4,0,0,0,.28-2.76Zm7.18-2.09a14.49,14.49,0,0,1,1.17,3.21l-1.43.57a16.34,16.34,0,0,0-1.1-3.32Z"/><path class="cls-1" d="M117.14,150.66a15.72,15.72,0,0,1-6.16-3.37v3.57h-1.72v-3.55a16.18,16.18,0,0,1-6.14,3.33l-.89-1.51a17.64,17.64,0,0,0,5.75-2.64h-5.76v-1.41h7v-1h-5.85v-1.31h5.85v-1h-6.21v-1.4h3.45A7.25,7.25,0,0,0,106,139h-3.82v-1.46h2.67c-.12-.25-.67-1.41-1-2.11l1.77-.51a13.65,13.65,0,0,1,1,2.62h1V135h1.67v2.5h1.48V135h1.66v2.5h1.11a19.52,19.52,0,0,0,.94-2.62l1.77.51a15.49,15.49,0,0,1-.94,2.11H118V139h-3.86c-.09.23-.41,1.14-.48,1.33h3.66v1.4H111v1h6v1.31h-6v1H118v1.41h-5.77a14.78,14.78,0,0,0,5.85,2.62Zm-5.24-10.33a7.19,7.19,0,0,0,.41-1.33h-4.46c.08.19.39,1.13.48,1.33Z"/><path class="cls-1" d="M118.87,149.37a16.34,16.34,0,0,0,.75-4.46l1.54.2a22.7,22.7,0,0,1-.69,4.72Zm6.68-11.9c-.56.89-1.71,2.71-3.31,4.78l1.75-.08c-.1-.29-.15-.44-.39-1l1.31-.51a19.5,19.5,0,0,1,1,3.16l-1.37.5a5.33,5.33,0,0,0-.15-.74l-1.1.11V151h-1.62v-7.17c-1.6.1-2.3.13-2.69.15l-.07-1.62a12.3,12.3,0,0,0,1.28,0c.48-.58.7-.88,1-1.34a12.63,12.63,0,0,0-2.37-2.21l.86-1.45c.4.34.45.37.54.46.44-.7,1.09-1.86,1.58-2.86l1.58.61a23.38,23.38,0,0,1-2,3.3l.75.75c.82-1.26,1.11-1.7,1.77-2.79Zm-1.26,11.37a18.7,18.7,0,0,0-.42-3.78l1.39-.29a30.58,30.58,0,0,1,.62,3.69Zm1.08-8a4.74,4.74,0,0,0,3.28-3.68H126v-1.58h8.83a20,20,0,0,1-.58,5.43,1.51,1.51,0,0,1-1.45,1.13h-2.35l-.4-1.76h2.14c.37,0,.77,0,.93-3.22h-2.67a7.58,7.58,0,0,1-4.08,5.33Zm9.12,9.73h-8.12v-7.47h8.12Zm-1.65-5.86h-4.77v4.22h4.77Z"/><path class="cls-1" d="M151.34,142.15a18,18,0,0,1-7.21-5.43,17.52,17.52,0,0,1-7.18,5.33l-1-1.68a16.12,16.12,0,0,0,7.49-5.4h1.61a15,15,0,0,0,7.32,5.4Zm-9.66-1.09v3.68a7.08,7.08,0,0,1-3.17,6.26l-1.44-1.33a6,6,0,0,0,2.89-5v-3.59Zm6.65,0v9.85h-1.79v-9.85Z"/><path class="cls-1" d="M169.06,137.49H162v.82h5.68v3.33H162v.75h6v2.08h1.14v1.44H168V148h-6v1.24a1.49,1.49,0,0,1-1.49,1.68h-3.07l-.26-1.68h2.57c.46,0,.53-.14.53-.53V148h-6.16v-1.26h6.16v-.89h-7.15v-1.31h7.15v-.85h-6.08v-1.29h6.08v-.75h-5.53v-3.33h5.53v-.82h-7v-1.41h7V135H162v1.09h7.07Zm-8.79,2h-3.81v1h3.81Zm5.63,0H162v1h3.91Zm.31,4.17H162v.85h4.22Zm0,2.16H162v.89h4.27Z"/><path class="cls-1" d="M185.17,150.66a15.72,15.72,0,0,1-6.16-3.37v3.57h-1.72v-3.55a16.18,16.18,0,0,1-6.14,3.33l-.88-1.51a17.88,17.88,0,0,0,5.75-2.64h-5.77v-1.41h7v-1h-5.85v-1.31h5.85v-1h-6.21v-1.4h3.46a9.14,9.14,0,0,0-.46-1.33h-3.83v-1.46h2.67l-1-2.11,1.77-.51a13.65,13.65,0,0,1,1,2.62h1V135h1.67v2.5h1.48V135h1.67v2.5h1.1a19.52,19.52,0,0,0,.94-2.62l1.77.51a14.25,14.25,0,0,1-.94,2.11h2.62V139h-3.86c-.09.23-.41,1.14-.48,1.33h3.66v1.4H179v1h6v1.31h-6v1h7.06v1.41H180.3a14.76,14.76,0,0,0,5.86,2.62Zm-5.24-10.33a7.19,7.19,0,0,0,.41-1.33h-4.46c.08.19.39,1.13.48,1.33Z"/><path class="cls-1" d="M202.38,135.82a22.56,22.56,0,0,1-3.78,4.05h4.65v1.55h-6.72a25.44,25.44,0,0,1-2.3,1.38h7.2v7.79H190.06V144.7a25.21,25.21,0,0,1-2.46.85l-.77-1.65a25.2,25.2,0,0,0,6.82-2.48H187.1v-1.55h6V138h-4.68v-1.51h4.68V135h1.8v1.5h3.73v1.17a22.62,22.62,0,0,0,2.24-2.67Zm-2.67,8.48h-7.88v1.63h7.88Zm0,3.06h-7.88v1.72h7.88Zm-3.62-7.49a22.11,22.11,0,0,0,2.17-1.89h-3.4v1.89Z"/><path class="cls-1" d="M74.53,160.59v1.55H68.12v-1.55ZM74,158.21v1.51H68.64v-1.51ZM74,163v1.52H68.64V163Zm0,2.55v1.52H68.64v-1.52Zm2.52,2.27a14.17,14.17,0,0,1-1.31,4.91L74,172v1.31H68.64v-5.19H74v3.37a9.43,9.43,0,0,0,1-3.74Zm-4,1.72h-2.3v2.26h2.3Zm1.68-5a6.51,6.51,0,0,0,2.77-2.33c-.54-.19-.85-.29-1.83-.58l.57-1.31a16.16,16.16,0,0,1,1.88.49,8.49,8.49,0,0,0,.22-1.16H75.08v-1.46h8.45c0,3.73-.12,5.56-.51,6.45a1.47,1.47,0,0,1-1.53,1H79.8L79.55,164h1.57c.66,0,.86-.51.91-4.31H79.46a9.06,9.06,0,0,1-.42,1.74,9.42,9.42,0,0,1,1.77.93l-.73,1.42a11.9,11.9,0,0,0-1.69-.92A8.35,8.35,0,0,1,75.21,166Zm4.42,3.3v3.59c0,.39.14.49.33.49h.85c.44,0,.49-.42.61-1.73l1.53.47c-.19,1.89-.48,2.79-1.53,2.79h-2A1.22,1.22,0,0,1,77,172.25v-4.39Zm1.47.51a15.66,15.66,0,0,0-2.93-2.15l1-1.2a13.12,13.12,0,0,1,2.84,2.12Zm2.63,4.4a20.71,20.71,0,0,0-1.27-4.91l1.49-.41a17.54,17.54,0,0,1,1.4,4.81Z"/><path class="cls-1" d="M92.27,164.13H88v-1.7H98.38v1.7H94v2.47H99.3v1.68H94v3.1a7.42,7.42,0,0,0,1.14.07h6.13l-.36,1.72H94.41a6.86,6.86,0,0,1-5.85-3,9.49,9.49,0,0,1-2.45,3.36L85,171.91a10.44,10.44,0,0,0,3.12-6.83l1.8.28a14.73,14.73,0,0,1-.7,3.13,6.27,6.27,0,0,0,3,2.5Zm1.8-6.57v1.52h6.67V163H99v-2.21H87.34V163H85.58v-3.89H92.2v-1.52Z"/><path class="cls-1" d="M104.29,161.05a14.21,14.21,0,0,1-.66,1.35l-1.45-.86a8.84,8.84,0,0,0,1.33-3.7l1.67.2c-.09.43-.16.78-.34,1.41h1.37v-1.82h1.66v1.82h3.6v1.6h-3.6v1.6h3.89v1.63h-3.89v1.43h3.45v5.46c0,1-.32,1.26-1.16,1.26h-1.53l-.3-1.71h1c.38,0,.38-.33.38-.48v-2.91h-1.82v6.29h-1.66v-6.29h-1.66v5.19h-1.67v-6.81h3.33v-1.43h-4v-1.63h4v-1.6Zm8.24-2.45h1.72v11h-1.72Zm3.14-1h1.83v14.68c0,1.06-.82,1.31-1.5,1.31h-2.5l-.31-1.83h2c.36,0,.44-.12.44-.45Z"/><path class="cls-1" d="M120.33,158.89h6.13v-1.26h1.78v1.26h6.81v1.57h-2.66v1.26h2.76v1.39h-2.76v2.62h-8v-2.62h-2.34v3.1c0,2.6-.36,5.32-1.62,7.28l-1.4-1.33c1-1.49,1.28-3.76,1.28-6Zm5.26,9.34a9.6,9.6,0,0,0,3,2.13,6.42,6.42,0,0,0,2.76-2.15h-8.88v-1.53h10.92v1.53a8,8,0,0,1-2.89,2.86,23.46,23.46,0,0,0,4.73.84l-.79,1.68a20,20,0,0,1-5.85-1.51,19.87,19.87,0,0,1-6.22,1.54l-.7-1.58a25.19,25.19,0,0,0,5-.95,8.84,8.84,0,0,1-2.44-2Zm-3.52-7.77v1.26h2.34v-1.26Zm4,0v1.26h4.68v-1.26Zm0,2.65v1.26h4.68v-1.26Z"/><path class="cls-3" d="M47.78,26.18l.85,1.67L34.32,35.09l.44.86L33,36.83,24.79,20.58l15.63-7.9.85,1.67-13.89,7,6.1,12.05Zm-3.46-4.79L39.1,24c1.78,1.17,4.06,1.28,6.78.39a5.83,5.83,0,0,0-.27,2,8.67,8.67,0,0,1-6.85-.59c-.1,1.66-1.06,3.63-3.58,6a7.24,7.24,0,0,0-1.72-.76c3-2.56,3.58-4.44,3.4-5.89l-5.05,2.55L31,26.2l5.27-2.66-1.06-2.1-2.58,1.31a10.2,10.2,0,0,1-.48,2.34A7.81,7.81,0,0,0,30.44,25a10.93,10.93,0,0,0,.35-5.18L33,19.36a.43.43,0,0,1-.31.39c0,.36.07.72.1,1.1l8-4.05.75,1.49L37,20.57,38,22.66l5.52-2.79Z"/><path class="cls-3" d="M47.65,17.72a17.59,17.59,0,0,0-2.43-3.55l1.17-1a15.59,15.59,0,0,1,2.5,3.41Zm12.2-5.82a9.47,9.47,0,0,0,1.7,1,12.51,12.51,0,0,0,1-1.75l1.62.56c0,.12-.19.21-.37.23-.25.38-.63.94-1,1.44a9.61,9.61,0,0,0,2.57.47,7,7,0,0,0-.66,1.66A12.63,12.63,0,0,1,63,15.15l1.17,3.66L60.55,20l.9,2.79c.49,1.51-.05,1.92-2.93,2.84a6.13,6.13,0,0,0-1.07-1.31c2.31-.68,2.3-.72,2.2-1l-.88-2.74-3.58,1.15L54,18.11a14.31,14.31,0,0,1-1.11,1.26,5,5,0,0,0-1.39-.83c.74,2.92,1.2,6.48-.11,9.4a7.13,7.13,0,0,0-1.7-.81,10.88,10.88,0,0,0,.46-6.42c-.58.68-1.15,1.31-1.56,1.79a.48.48,0,0,1-.14.43l-1.26-1.62c.69-.61,1.59-1.5,2.54-2.45-.15-.54-.31-1-.47-1.52l-2-6.37,6.26-2-.57-1.78,2.45-.63c0,.18,0,.32-.36.48l.42,1.31L62.71,6l.5,1.58L55.6,10v0l1.6-.34c0,.2-.09.35-.35.46a11.07,11.07,0,0,1-.07,1.14l6.62-2.13.45,1.43ZM49.48,12,51,16.79c.17.51.32,1,.48,1.62a12.16,12.16,0,0,0,1.69-2,18.25,18.25,0,0,0-1.77-.67l.71-1.15c.55.17,1.23.38,1.79.61a10.64,10.64,0,0,0,.69-1.62l-3.48,1.12-.46-1.43L55,11.89a10.89,10.89,0,0,0,.09-1.69Zm8.24,10c0,.14-.13.27-.37.33a12.21,12.21,0,0,1-2.06,3.94,8.43,8.43,0,0,0-1.6-.61A9.49,9.49,0,0,0,55.6,22ZM61.52,16l-.32-1-5.81,1.87.32,1Zm-1.2-2a11.45,11.45,0,0,1-2.17-1.57L56.53,13a12.71,12.71,0,0,1-.89,2.55Zm1.89,4.14-.33-1L56.07,19l.33,1Zm3.87,4.71a18.3,18.3,0,0,0-3.88-2.2l1.17-1.18a20.61,20.61,0,0,1,3.94,2.1Z"/><path class="cls-3" d="M74.62,11.65a2.38,2.38,0,1,1-2.8-1.88A2.39,2.39,0,0,1,74.62,11.65Z"/><path class="cls-3" d="M82.6,10.22a8.22,8.22,0,0,0-1.3-1.5,21,21,0,0,0,8-8.68l2.74,0a.5.5,0,0,1-.45.4,20.71,20.71,0,0,0,9.17,6.69A10,10,0,0,0,99.62,9,24.3,24.3,0,0,1,90.51,2,23.26,23.26,0,0,1,82.6,10.22Zm3.67-2.35,2.5,0c0,.19-.15.3-.47.39l.15,2.25c.2,3,0,6.51-4,9.27a6.84,6.84,0,0,0-1.69-1.28c3.62-2.45,3.81-5.41,3.65-7.89Zm7.28-.6h2.51c0,.16-.14.3-.47.36l.77,11.3-2,.14Z"/><path class="cls-3" d="M108.66,11.73l-.42,6.11-3.86-.26-.06.92-1.56-.1.48-7Zm1.13-8.43-.11,1.56-6.76-.46.1-1.56Zm-6.41,6.75.1-1.51,5.39.37-.1,1.51Zm.19-2.79.1-1.51,5.39.37L109,7.63ZM109.38.51,109.28,2l-5.19-.35L104.2.16ZM107,13.18,104.7,13l-.21,3,2.28.16Zm2.92-.41,9.55.65.31,0,1.16.63a.57.57,0,0,1-.25.21,9,9,0,0,1-3.45,3,21.61,21.61,0,0,0,4.26,1.24,7,7,0,0,0-1.21,1.46,18.83,18.83,0,0,1-5-1.87,25.31,25.31,0,0,1-6,1.14,6.1,6.1,0,0,0-.72-1.56,23.49,23.49,0,0,0,5.06-.68,9.81,9.81,0,0,1-2.16-2.21l1-.3-2.62-.18Zm1-.72.32-4.59a11.06,11.06,0,0,1-1.19,1,9.85,9.85,0,0,0-1-1.28,11.55,11.55,0,0,0,3.32-4l.64.27.06-.82-2.85-.19.1-1.44,2.85.2.08-1.21,2.16.29c0,.16-.14.26-.45.28l0,.76,2.79.19L117.8.37,120,.66c0,.16-.15.26-.48.28l-.05.76,2.85.19-.1,1.44-2.85-.2-.07,1.07-1.46-.1.49.16c-.07.16-.22.21-.47.19-.16.24-.39.53-.61.8l4.22.29-.08,1.27-4.12-.28-.06.82,3.63.25-.07,1.07-3.63-.25-.06.84,3.63.25-.07,1L117,10.31l-.06.88,4.65.32-.09,1.27Zm4.29-1,.06-.88L112.85,10l-.06.88Zm.14-1.93,0-.84L113,8.14l0,.84Zm.13-1.9,0-.82-2.44-.17,0,.82Zm-2.37,7.21a8.61,8.61,0,0,0,2.28,1.85A8.8,8.8,0,0,0,118,14.78Zm1.63-10.54-1-.07.46.2c-.07.14-.22.19-.48.15a7.34,7.34,0,0,1-.49.79l2.16.15a15.7,15.7,0,0,0,.82-1.53l1.29.42.07-1-2.79-.19Z"/><path class="cls-3" d="M131.35,12.16a2.38,2.38,0,1,1-1.92-2.77A2.4,2.4,0,0,1,131.35,12.16Z"/><path class="cls-3" d="M141.3,12.81a25.5,25.5,0,0,1-2.87,2,20.26,20.26,0,0,0-.31-2.13,26.32,26.32,0,0,0,7.41-7l1.88,1.4c-.13.13-.31.14-.58,0a35.91,35.91,0,0,1-3,3.32l.55.37c-.07.15-.24.21-.53.16l-4.17,13-1.82-.59Zm14.48,8.61L151.42,20a15.25,15.25,0,0,0,3.38,6.38A7.31,7.31,0,0,0,153,27.45,18.21,18.21,0,0,1,150,21l-1.84,5.71-1.86-.6,1.81-5.61a16.93,16.93,0,0,1-6.42,3.26,9.4,9.4,0,0,0-.8-1.88,15.29,15.29,0,0,0,6.69-3.09L143,17.32l.55-1.68,5.51,1.78.65-2-4.11-1.32,2.17-6.75,10.33,3.33L156,17.43,151.6,16,151,18l5.36,1.72ZM149,9.55,147.91,13l6.73,2.16,1.11-3.44Z"/><path class="cls-3" d="M172.92,26.64l-3.77,7.42c-.8,1.58-1.59,1.41-4.92-.33a6.66,6.66,0,0,0,.18-1.68c.49.27,1,.56,1.45.78,1.26.64,1.36.69,1.54.32L168,32l-7.52-3.81L159,31.1l-1.74-.88,4.64-9.17Zm5.93-4.85-.78,1.54-4.45-2.26a30.1,30.1,0,0,1,2.49,5.62l-2,.25a15.8,15.8,0,0,0-.54-1.75c-4.53-2-9.22-4.21-12.23-5.65a.4.4,0,0,1-.45.12l.26-2.24,2.47,1.23a24.5,24.5,0,0,0,2.51-1.38L161.54,15l.78-1.54,7.31,3.71.91-1.78,2.15,1.25c-.1.16-.28.19-.6.09L171.41,18Zm-17.73,5.13,7.51,3.81.59-1.17-7.51-3.81Zm9.31.26-7.51-3.81-.59,1.15,7.52,3.81Zm-1.93-8.7.1.09c-.14.1-.32.08-.55-.05-.69.35-1.58.75-2.47,1.1,2.18,1.06,4.65,2.27,7.08,3.43-.35-.8-.74-1.57-1.11-2.26l1.28-.12Z"/></g></g></svg>