<?xml version="1.0" encoding="utf-8"?>
<!-- Generator: Adobe Illustrator 26.0.3, SVG Export Plug-In . SVG Version: 6.00 Build 0)  -->
<svg version="1.1" id="レイヤー_1" xmlns="http://www.w3.org/2000/svg" xmlns:xlink="http://www.w3.org/1999/xlink" x="0px"
	 y="0px" viewBox="0 0 115.6 109" style="enable-background:new 0 0 115.6 109;" xml:space="preserve">
<style type="text/css">
	.st0{clip-path:url(#SVGID_00000023961845770547503110000011112005612456385175_);}
	.st1{clip-path:url(#SVGID_00000049904170300023228080000003073245025801561754_);}
	.st2{clip-path:url(#SVGID_00000109743592559369097130000007020570276607614655_);}
	.st3{fill:#7BD1F4;}
	.st4{fill:#FFFA60;}
	.st5{fill:#FFFFFF;}
	.st6{fill:#26466D;}
	.st7{fill:#FDE67C;}
	.st8{fill:#0080A9;}
	.st9{fill:#FFFBBD;}
	.st10{clip-path:url(#SVGID_00000151523394575480175320000005374874927385145227_);}
	.st11{fill:#FFFA9E;}
	.st12{clip-path:url(#SVGID_00000029028025082749104120000003098358942334228403_);}
	.st13{fill:#F7DCD5;}
</style>
<g>
	<g id="レイヤー_2_00000176738428500602745160000014910755848601703322_">
		<g id="レイヤー_1-2">
			<g id="アートワーク_20">
				<g>
					<defs>
						<rect id="SVGID_1_" x="-26.4" y="0" width="144.2" height="109"/>
					</defs>
					<clipPath id="SVGID_00000168110023464523988580000001858705552448218011_">
						<use xlink:href="#SVGID_1_"  style="overflow:visible;"/>
					</clipPath>
					<g style="clip-path:url(#SVGID_00000168110023464523988580000001858705552448218011_);">
						<g>
							<defs>
								<rect id="SVGID_00000045603680493662349520000014463450752692048780_" x="-26.4" y="0" width="144.2" height="109"/>
							</defs>
							<clipPath id="SVGID_00000028283066602203093740000011163862265681774522_">
								<use xlink:href="#SVGID_00000045603680493662349520000014463450752692048780_"  style="overflow:visible;"/>
							</clipPath>
							<g style="clip-path:url(#SVGID_00000028283066602203093740000011163862265681774522_);">
								<g>
									<defs>
										<path id="SVGID_00000169518446584017191520000013656451266528067729_" d="M-14,0h119.3c6.9,0,12.4,5.6,12.4,12.4v84.1
											c0,6.9-5.6,12.4-12.4,12.4H-14c-6.9,0-12.4-5.6-12.4-12.4V12.4C-26.4,5.6-20.8,0-14,0z"/>
									</defs>
									<clipPath id="SVGID_00000074410892539743794170000003096233303642834836_">
										<use xlink:href="#SVGID_00000169518446584017191520000013656451266528067729_"  style="overflow:visible;"/>
									</clipPath>
									<g style="clip-path:url(#SVGID_00000074410892539743794170000003096233303642834836_);">
										<path class="st3" d="M20.6,50.3c0.7,0.9,1.5,1.7,2.3,2.5c-0.2,0.1-0.3,0.2-0.5,0.3c-0.3,0.1-0.5,0.5-0.4,0.8c0,0,0,0,0,0
											c0.1,0.3,0.3,0.4,0.6,0.4c0.1,0,0.2,0,0.2,0c0.4-0.2,0.7-0.4,1-0.6c0.6,0.4,1.2,0.8,1.8,1.2c-0.1,1,0,2.1,0.2,3.1
											c-0.8-0.8-1.6-1.4-2.5-2c-0.2-0.2-0.5-0.2-0.8,0c-0.5-0.1-1-0.2-1.5-0.1C20.4,55.9,19.7,56,19,56
											c-0.6-0.1-1.2-0.3-1.8-0.5c-0.6-0.2-1.3-0.1-1.8,0.2c-0.2,0.2-0.4,0.5-0.5,0.8c-6.2-8.7-1.7-22.4,1.5-36.7
											c0.2-1,0.6-2,1-3c-1.5,4.9-2.3,9.9-2.2,15C15,39.7,17.6,46.6,20.6,50.3"/>
										<path class="st3" d="M54.2,61.4c4.6,0.3,8.5,0.6,8.5,0.6c11.1-3.9,8.2-15.7,7-19.5c0,0,0,0.1,0,0.2
											c-0.2,1.6-0.6,3.3-1.1,4.8c-0.3,0.8-0.6,1.6-1,2.3c-0.4,0.7-1,1.4-1.6,2c-1.2,1.2-2.5,2.2-4,2.9c-1.5,0.7-3,1.3-4.6,1.7
											c-0.8,0.2-1.6,0.4-2.4,0.5l-0.8,0.1C54,58.5,54.1,60,54.2,61.4 M59.8,59.5c0-0.4,0.3-0.6,0.6-0.6c0,0,0,0,0,0
											c2.1,0.1,4.1-0.7,5.6-2.2c2-2.4,1.5-5.9,1.5-6c-0.1-0.4,0.2-0.7,0.5-0.7c0.4-0.1,0.7,0.2,0.7,0.5c0,0.2,0.6,4.2-1.8,7
											c-1.4,1.7-3.6,2.6-6.5,2.7l0,0C60.1,60.2,59.8,59.9,59.8,59.5"/>
										<path class="st3" d="M29.6,58.3c0.1,0,0.2,0,0.3-0.1c1.8-0.9,2.4-3.7,2.9-7.6c1,1.1,2.1,2.2,3.3,3c1.5,1.1,3.2,1.9,5,2.5
											c0.8,0.3,1.5,0.5,2.3,0.7c0.2,1.2,0.2,2.3,0.1,3.5c0,0.2,0,0.5-0.1,0.7c-1.6-0.1-3.2,0-4.8,0.3c-1.5,0.5-2.9,0.9-4.2,1.2
											c-0.2-0.2-0.4-0.4-0.6-0.5c-0.9-0.7-1.8-1.3-2.8-1.8c-1-0.5-2-0.9-3.1-1.2l-0.4-0.1c0.6-0.1,1.2-0.4,1.6-0.9
											C29.3,58.2,29.5,58.3,29.6,58.3"/>
										<path class="st4" d="M84.9,102.2l0.1,0.1c-0.3,0.6-0.6,1.3-0.9,1.8c0.2-0.4,0.4-0.9,0.5-1.3
											C84.8,102.7,84.9,102.5,84.9,102.2"/>
										<path class="st4" d="M89.7,86.3c0-0.1,0-0.2,0-0.3c0.5,1.2,0.3,3.2-0.4,5.5l-0.6-0.6C89.3,89.4,89.6,87.8,89.7,86.3"/>
										<path class="st5" d="M87.5,95.2c0.3-1,0.6-2,0.9-2.9L90,94l-0.2,1.9c0,0.4,0.2,0.7,0.6,0.7h0.1c0.3,0,0.6-0.2,0.6-0.6
											l0.2-1.8c0-0.1,0.1-0.2,0.1-0.3l3-26.6c0.1,0,0.2-0.1,0.2-0.1c0.1-0.1,0.1-0.1,0.2-0.2l2.8,1l0.5-0.8
											c0,1.5,0.2,9.8-0.1,18.2c-0.6,17-2.4,19.3-3,19.6c-2.8,1.5-5.9-0.8-9.4-4C86.3,99.2,86.9,97.3,87.5,95.2L87.5,95.2"/>
										<path class="st5" d="M40.5,68c1.6,3,4.2,7,9.4,6.8c3.2-0.2,5.7-2.8,7.4-5.3c-0.9-0.8-1.7-1.8-2.3-2.8
											c-1.7-2.8-2.4-6.1-2.1-9.4h-0.3l0,0c-0.3,0-0.5-0.2-0.6-0.5c0-0.3,0.2-0.5,0.5-0.6l0,0c3.2-0.2,6.3-1,9.1-2.4
											c1.4-0.7,2.6-1.7,3.7-2.8c0.5-0.5,1-1.1,1.4-1.8c0.4-0.7,0.7-1.4,0.9-2.1c0.9-3,1.3-6.2,1.2-9.4c0-2.3-0.1-4.7-0.4-7
											c-0.5-1.9-1-3.8-1.6-5.6c-1-2-2.3-3.8-3.8-5.4c-0.2-0.3-0.2-0.7,0-0.9c0.1-0.1,0.2-0.1,0.3-0.2c-0.8-1.5-1.8-2.9-3.1-4.1
											c-0.1,0.2-0.3,0.3-0.5,0.3c-0.2,0-0.4-0.1-0.6-0.2c0,0-2.1-2.5-8.8,1.2c-9.1,5.1-13.2,12.7-15.2,20
											c-0.5,2.2-1,4.5-1.4,6.7c-0.3,2-0.5,3.9-0.7,5.7c0,0.3-0.1,0.7-0.1,1c1.1,1.4,2.3,2.5,3.8,3.5c1.5,0.9,3.1,1.7,4.7,2.2
											c1.6,0.6,3.3,1,5.1,1.3l0,0c0.3,0,0.5,0.3,0.4,0.6c0,0.3-0.3,0.5-0.6,0.5c-0.6-0.1-1.2-0.1-1.7-0.2
											C45,59.8,45,65.1,40.5,68"/>
										<path class="st6" d="M43.5,61c0-0.2,0.1-0.4,0.1-0.7c0.1-1.2,0.1-2.3-0.1-3.5c-0.8-0.2-1.6-0.4-2.3-0.7
											c-1.8-0.6-3.4-1.5-4.9-2.5c-1.2-0.8-2.3-1.9-3.3-3c-0.5,3.9-1.1,6.7-2.9,7.6c-0.1,0-0.2,0.1-0.3,0.1
											c-0.2,0-0.4-0.1-0.5-0.2L29.1,58c-0.2-0.3,0-0.7,0.3-0.9c1.5-0.7,1.9-3.9,2.4-8c-0.9-1.4-1.5-2.8-2-4.4l0,0
											c-0.1-0.3,0.1-0.6,0.4-0.6c0.3-0.1,0.6,0.1,0.6,0.4c0,0,0,0,0,0l0,0c0.3,1,0.7,2.1,1.2,3c1.1-9.9,3-24.5,17.8-32.8
											c5.4-3,8.3-2.3,9.6-1.5c0.2-1.8-1.5-4.3-2.3-5.3c-0.2-0.3-0.2-0.7,0.1-0.9c0.3-0.2,0.7-0.2,0.9,0.1
											c0.2,0.2,3.9,4.6,2.2,7.5l0,0c-0.1,0.2-0.3,0.3-0.5,0.3c-0.2,0-0.4-0.1-0.6-0.2c0,0-2.1-2.5-8.8,1.2
											c-9.1,5.1-13.2,12.7-15.2,20c-0.6,2.2-1.1,4.4-1.4,6.7c-0.3,2-0.5,3.9-0.7,5.7c0,0.3-0.1,0.7-0.1,1
											c1.1,1.4,2.3,2.5,3.8,3.5c1.5,1,3,1.7,4.7,2.3c1.6,0.6,3.3,1,5.1,1.3l0,0c0.3,0,0.5,0.3,0.4,0.6c0,0.3-0.3,0.5-0.6,0.4
											l0,0c-0.6-0.1-1.2-0.1-1.7-0.2c0.3,2.7,0.3,8-4.3,11c-0.2-0.4-0.4-0.8-0.6-1.2C41.9,65.6,43.2,63.4,43.5,61"/>
										<path class="st6" d="M57.2,69.5c-0.9-0.8-1.7-1.8-2.3-2.8c-1.7-2.8-2.4-6.1-2.1-9.4h-0.3l0,0c-0.3,0-0.5-0.2-0.6-0.5
											c0,0,0,0,0,0c0-0.3,0.2-0.5,0.5-0.6l0,0c3.2-0.2,6.3-1,9.1-2.4c1.4-0.7,2.6-1.7,3.7-2.8c0.5-0.5,1-1.2,1.4-1.8
											c0.4-0.7,0.7-1.4,0.9-2.1c0.9-3,1.3-6.2,1.2-9.4c0-2.3-0.1-4.7-0.4-7c-0.1-0.8-0.2-1.7-0.3-2.5l0,0c0-0.3,0.2-0.6,0.5-0.6
											c0.3,0,0.5,0.1,0.6,0.4c0.3,1.6,0.5,3.2,0.7,4.8c0.1,1.2,0.2,2.4,0.2,3.6c0,0.4,0,0.8,0,1.2c0,1.6-0.1,3.2-0.3,4.8
											c0,0,0,0.1,0,0.2c-0.2,1.6-0.6,3.2-1.2,4.8c-0.3,0.8-0.6,1.6-1,2.3c-0.4,0.7-1,1.4-1.6,2c-1.2,1.2-2.5,2.2-4,2.9
											c-1.5,0.7-3,1.3-4.6,1.7c-0.8,0.2-1.6,0.4-2.4,0.5l-0.8,0.1c-0.2,1.4-0.1,2.9,0.1,4.3c0.4,2.7,1.7,5.1,3.7,7
											C57.8,68.8,57.6,69.1,57.2,69.5"/>
										<path class="st4" d="M87.5,95.2L87.5,95.2c-0.5,2-1.2,3.9-2,5.7c-0.2,0.4-0.4,0.8-0.5,1.2c-0.1,0.2-0.2,0.4-0.3,0.6
											C85.6,100.5,86.6,97.9,87.5,95.2"/>
										<path class="st6" d="M88.5,86.1c0-0.4,0.4-0.6,0.7-0.6c0,0,0,0,0,0c0.3,0,0.5,0.2,0.5,0.4l0,0c0,0.1,0,0.2,0,0.3
											c-0.2,1.6-0.5,3.1-1,4.6l0.6,0.6l0.9,0.9l3-25.8c-0.7-0.8-1.2-1.8-1.6-2.8c-0.2-0.6-0.3-1.2-0.2-1.8
											c-0.2,0-0.5-0.1-0.7-0.2c-0.8-0.2-1.4-0.9-1.5-1.8c0,0,0-0.1,0-0.1c0.2-1,0.5-2,0.8-2.9c0.1-0.4,0.4-0.7,0.8-0.8v-0.1
											c0.3-1.1,0.9-2.1,1.6-2.9c0.3-0.2,0.7-0.3,1.1-0.3c0,0,0-0.1,0-0.1c0.3-0.9,0.8-1.7,1.5-2.4c0.5-0.3,1.1-0.5,1.7-0.5
											c0.1-0.5,0.5-1.3,2.2-1.9c1.1-0.4,2.6,0.7,4.3,2.1c0.5,0.4,1,0.8,1.5,1.2c0.8,0.5,1.3,1.3,1.4,2.2
											c0.3,1.8-0.9,3.7-1.6,4.7c-1.1,1.5-4.5,7.3-5.3,8.6c0,0,0,0,0,0.1s0.2,9.2-0.1,18.5c-0.6,17.1-2.4,20-3.6,20.7
											c-0.8,0.4-1.6,0.6-2.5,0.6c-2.6,0-5.3-2-8-4.4l-0.1-0.1c0.2-0.4,0.4-0.8,0.5-1.2c3.5,3.2,6.6,5.5,9.4,4
											c0.6-0.3,2.4-2.6,3-19.6C98.2,77,98,68.8,98,67.2l0,0c-0.1-0.2-0.1-0.5,0-0.7c0.2-0.3,4.2-7.1,5.5-8.9
											c0.9-1,1.4-2.3,1.4-3.7c-0.1-0.6-0.4-1.1-0.9-1.4c-0.5-0.4-1.1-0.8-1.6-1.2c-1.1-0.8-2.6-2.1-3.1-1.9
											c-1.1,0.4-1.4,0.8-1.4,0.9l0,0c1.2,0.4,2.4,1.1,3.4,1.9c0.2,0.3,0.2,0.7,0,0.9c-0.2,0.2-0.5,0.2-0.7,0.1
											c-1.4-1.1-3.9-2.4-4.7-1.7c-0.5,0.5-0.9,1.1-1.1,1.7c1.3,0.4,2.6,0.9,3.8,1.5c0.3,0.2,0.5,0.5,0.3,0.9
											C98.7,56,98.3,56.1,98,56c0,0,0,0,0,0c-1.5-0.8-3.1-1.4-4.8-1.6c-0.5,0.6-0.8,1.3-1.1,2c1.6,0.3,3.1,0.8,4.5,1.6
											c0.3,0.2,0.4,0.6,0.3,0.9c-0.2,0.3-0.6,0.4-0.9,0.3l0,0c-1.4-0.8-3.9-1.8-4.6-1.5c-0.1,0-0.1,0-0.1,0.1
											c-0.3,0.8-0.6,1.7-0.7,2.6c0,0.1,0.1,0.4,0.6,0.5c0.3,0.1,0.7,0.2,1,0.1c0.1-0.1,0.2-0.2,0.4-0.3h-0.1
											c-0.3-0.1-0.5-0.5-0.4-0.8c0.1-0.3,0.5-0.5,0.8-0.4c0,0,0,0,0,0c0.7,0.3,1.4,0.5,1.4,0.5c0.3,0.1,0.5,0.5,0.4,0.8
											c-0.1,0.3-0.3,0.4-0.6,0.4c-0.1,0-0.1,0-0.2,0h-0.1c-0.1,0.3-0.3,0.6-0.6,0.8c0,0-0.1,0.1-0.1,0.1l-0.2,0.1
											c-0.2,0.4-0.2,1,0,1.4c0.4,1.1,1.1,2,1.8,2.9c0.2,0.2,0.2,0.4,0.1,0.7c0,0.1-0.1,0.2-0.1,0.2c-0.1,0.1-0.1,0.1-0.2,0.1
											l-3,26.6c0,0.1-0.1,0.2-0.1,0.3l-0.2,1.8c0,0.3-0.3,0.6-0.6,0.6h-0.1c-0.4,0-0.6-0.4-0.6-0.7l0.2-1.9l-1.6-1.7
											c-0.3,1-0.6,1.9-0.9,2.9c-0.9,2.6-1.9,5.2-2.8,7.6c-0.2,0.4-0.4,0.9-0.5,1.3c-1.4,3.6-2.6,6.3-2.8,6.6
											c-0.1,0.2-0.3,0.4-0.6,0.4c-0.1,0-0.2,0-0.3-0.1c-0.3-0.1-0.5-0.5-0.3-0.8l0.2-0.5C81.7,107.1,87.9,92.7,88.5,86.1"/>
										<path class="st4" d="M40.3,101.7c-0.7-1.6-1.5-3.2-2.3-4.8h0.1C39.1,98.3,39.8,100,40.3,101.7"/>
										<path class="st7" d="M52.1,120.3c1-1.1,1.9-2.4,2.7-3.8c1.8-3.1,2-5.6,0.5-6.6s-3.6-0.2-5.6,1.9c-0.5-1.8-2.1-5-7-7.4
											c-0.2-0.1-0.5-0.1-0.7,0.1c-0.2-2.8-1.1-5.5-2.6-7.9c0.6-0.1,1.1-0.3,1.7-0.6c3.1-1.7,4.5-6.6,4.9-7.9c0.2,0,0.4,0,0.6,0
											c0.7,0,1.4-0.2,2-0.6l0.1-0.1c1-0.6,2.7-1.8,2.6-3.2c0-0.3-0.1-0.6-0.2-0.9c0.4-0.3,0.5-0.8,0.5-1.3c0,0,0-0.1,0-0.1
											c0-0.1-0.1-0.2-0.1-0.2c-0.2-0.2-0.4-0.4-0.7-0.5c0.2-0.4,0.3-0.9,0.2-1.3c0-0.1,0-0.1,0-0.2c0-0.1-0.2-0.2-0.3-0.3
											l-0.2-0.1c-0.2-0.1-0.5-0.1-0.7-0.1c0-0.2-0.1-0.4-0.2-0.6l0,0h0.4c4.9-0.2,10.7-6,13-8.5c0.2-0.3,0.2-0.7,0-0.9
											c-0.3-0.2-0.7-0.2-0.9,0c-1.7,1.8-7.6,7.9-12.1,8.1c-4,0.2-7.7-2-10.9-6.6v-0.1c-0.2-1.1-0.5-2.2-1-3.2
											c-0.2-0.4-0.4-0.8-0.6-1.2c0.4-0.4,0.7-1.1,1.2-1.2c0.4,0,0.8,0.8,1.3,2c0.2,0.4,0.4,0.8,0.6,1.2c1.6,3,4.2,7,9.4,6.8
											c3.2-0.2,5.7-2.8,7.4-5.3c0.3-0.4,0.5-0.7,0.7-1.1c1-1.7,1.6-3.1,1.8-3.1c0.8,0,1.3,1.5,2.2,2.3c0.7,0.6,1.4,1.1,2.2,1.4
											l-4.1,50.3c-2.2,0.3-4.9,0.6-7.9,0.9"/>
										<path class="st4" d="M39,83.4c0-0.6,0-1.2-0.1-1.8c0.1-0.1,0.2-0.3,0.3-0.4c0.5-1,0.8-2.1,0.8-3.2c0-0.3,0-0.5,0-0.8v-0.4
											c0-0.1,0-0.3,0-0.4c0-0.3-0.1-0.6-0.3-0.9c-0.2-0.3-0.4-0.6-0.7-0.7c-0.1-0.1-0.3-0.1-0.4-0.2c0-0.2,0.1-0.4,0.1-0.7
											c0.1-0.4,0.1-0.8,0.2-1.2c2.5,3.1,5.2,5,8.2,5.5c-0.6,0.4-1.2,0.8-1.6,1.4c-0.3,0.4-0.6,0.7-1,0.9
											c-0.2-0.3-0.3-0.6-0.4-0.8c-0.2-0.5-0.6-0.9-1.2-1c-0.6-0.1-1.2,0.1-1.6,0.5c-0.6,0.6-0.1,2.8,0.3,4.4
											c-1.1,0.4-2.1,1-3,1.8c0-0.1,0.1-0.2,0.1-0.3C38.9,84.6,39,84,39,83.4"/>
										<path class="st7" d="M68.1,70.1c2,0.4,5.8,1.4,8.1,3.1c3.2,2.4,9.4,9.4,13.6,12.7c0,0,0,0.1,0,0.2
											c-0.1-0.3-0.5-0.5-0.8-0.4c-0.3,0.1-0.4,0.3-0.5,0.6c-0.7,6.4-6.8,20.9-8.1,23.7L70.9,92c-0.1-0.8-0.2-1.7-0.4-2.6
											c-0.6-3.5-1-7.7-0.8-8.3c0.1-0.3-0.1-0.7-0.4-0.8c-0.3-0.1-0.7,0.1-0.8,0.4c0,0,0,0,0,0c-0.4,1.2,0.5,7.1,0.8,8.9
											c1,6.4,0.9,11.9-2.8,25.5c-0.1,0.3,0.1,0.7,0.4,0.8l-0.7,2.6c-0.6,0.1-1.5,0.3-2.8,0.5L68.1,70.1z"/>
										<path class="st6" d="M66.4,115c3.7-13.6,3.9-19,2.8-25.5c-0.3-1.8-1.2-7.7-0.8-8.9c0.1-0.3,0.5-0.5,0.8-0.4c0,0,0,0,0,0
											c0.3,0.1,0.5,0.5,0.4,0.8c-0.2,0.6,0.2,4.8,0.8,8.3c0.1,0.9,0.3,1.7,0.4,2.6c0.6,5.6,0.1,11.4-3.2,23.4
											c-0.1,0.3-0.3,0.5-0.6,0.5h-0.2l0,0C66.5,115.8,66.3,115.4,66.4,115"/>
										<path class="st8" d="M29.5,125.2c0,1.8-0.2,3.6-0.5,5.3c-0.2,1.4-4.6,4.8-6.6,9.9c-1.9,5.1-2.8,10.4-2.8,15.8
											c0,0-0.1,55.2,0.9,65.8c1.5,16.8-7,57.8-7.5,59.1c3.8,1.9,9.5,2.5,14.8,2.5h1.3c2.7,0,5.3-0.2,7.5-0.5L38,283
											c1.7-0.1,3.4-0.5,5-1.1c0.2-0.2,5.8-115.6,5.8-115.6l1.6,116.8c0.5-0.6,2.2-0.8,4.7-0.8h1.7c2,0.1,4.4,0.2,6.8,0.3
											l1.3,0.1c5.9,0.2,12.2,0.1,16-1.7c0.4-0.2-3.2-42.6-6.4-81.1c-2-24.5,0.4-43.7-2.1-54.1c-1.2-4.8-5.5-12.6-5.6-13.8
											c-0.8-5.5-0.8-12.9-0.1-13.9l-0.5,0.1c-0.6,0.1-1.5,0.3-2.8,0.5l4.8-48.8v-0.3l-4-0.8v0.2L60,119.4
											c-2.2,0.3-4.9,0.6-7.9,0.9c-0.5,0.5-1.1,0.9-1.8,1.1c0,0.2-0.1,0.4-0.2,0.7c-1.2,1.8-3,3.2-5.2,3.7
											c-1.5,0.3-4.6,0.6-6.6,0.8l-1.5,0.2c-0.2,0-0.4,0-0.6,0C34,126.5,31.7,126,29.5,125.2 M51,126.6c0,1.2-1,2.2-2.3,2.2
											c-1.2,0-2.2-1-2.2-2.3c0-1.2,1-2.2,2.3-2.2c0,0,0,0,0,0C50.1,124.4,51,125.4,51,126.6 M48.7,130.6c1.2,0,2.2,1,2.2,2.3
											c0,1.2-1,2.2-2.3,2.2c-1.2,0-2.2-1-2.2-2.3C46.5,131.6,47.5,130.6,48.7,130.6C48.7,130.6,48.7,130.6,48.7,130.6
											 M65.7,132.6c-3.2,1.7-6.6,2.8-10.1,3.3c-2.1,0.3-4.3,0.5-6.4,0.5c-6.6-0.1-13.2-1.5-19.2-4.4c-0.3-0.2-0.4-0.6-0.3-0.9
											s0.6-0.4,0.9-0.3c19.9,9.1,34.3,0.7,34.5,0.6c0.3-0.2,0.7-0.1,0.9,0.2C66.1,132.1,66,132.5,65.7,132.6
											C65.7,132.7,65.7,132.7,65.7,132.6"/>
										<path class="st4" d="M5.1,80l0.3-0.5c0.1,0.1,0.1,0.3,0.2,0.4C5.4,79.9,5.3,79.9,5.1,80"/>
										<path class="st7" d="M0,87.8c1.3-1.4,2.4-2.9,3.3-4.5c0.1,0.6,0.4,1.1,0.7,1.6c0.7,0.9,1.5,1.6,2.4,2.2
											c0.2,0.1,0.4,0.2,0.6,0.3c-0.1,0.3-0.1,0.6-0.1,0.9c-0.3,0.2-0.5,0.4-0.7,0.6c-0.2,0.3-0.4,0.6-0.4,1
											C2.3,87.2,0,87.8,0,87.8"/>
										<path class="st5" d="M49.4,78.4c-0.1-0.1-0.2-0.3-0.4-0.3C49.2,78.1,49.4,78.3,49.4,78.4L49.4,78.4L49.4,78.4"/>
										<path class="st5" d="M50.8,79.6c0,0.1,0,0.1,0,0.2c0,0,0,0,0-0.1c-0.1-0.2-0.2-0.3-0.3-0.4C50.7,79.3,50.8,79.5,50.8,79.6
											"/>
										<path class="st5" d="M51.6,81.8c0,0.1,0,0.1,0,0.2C51.6,82,51.6,81.9,51.6,81.8c0,0-0.1-0.1-0.1-0.2
											C51.5,81.7,51.6,81.8,51.6,81.8"/>
										<path class="st5" d="M45.6,86.9c0.8,0.3,1.7,0.2,2.4-0.2l0.1-0.1c0.6-0.4,2.2-1.4,2.1-2.2c0-0.1,0-0.2,0-0.3l-1.2,0.7
											c-0.1,0-0.2,0.1-0.2,0.1c-0.2,0-0.4-0.1-0.4-0.3c-0.1-0.2-0.1-0.6,0.2-0.7l1.4-0.8L50,83c0.3-0.2,0.5-0.5,0.6-0.8
											c-0.2-0.1-0.4-0.1-0.6-0.1L48.5,83c-0.1,0.1-0.2,0.1-0.3,0.1c-0.2,0-0.3-0.1-0.4-0.2c-0.1-0.2-0.1-0.6,0.2-0.7
											c0,0,0,0,0,0l1.5-0.9c0.3-0.3,0.4-0.7,0.5-1.1c-0.2,0-0.4,0-0.7,0.1l-1.4,1.2c-0.1,0.1-0.2,0.1-0.3,0.1
											c-0.2,0-0.3-0.1-0.4-0.2c-0.2-0.2-0.1-0.5,0.1-0.7c0,0,0,0,0,0l1.4-1.1c0.1-0.2,0.1-0.4,0-0.4c-0.1-0.1-0.2-0.1-0.4-0.1
											c-0.7,0.3-1.4,0.7-1.9,1.3c-0.2,0.3-1.3,1.4-1.8,1.4s-1-0.7-1.4-1.6c-0.1-0.2-0.2-0.3-0.4-0.4c-0.2,0-0.4,0-0.6,0.2
											c0,1.4,0.3,2.7,0.7,4c0.1,0.1,0.1,0.1,0.2,0.2C43.5,85.4,44.5,86.3,45.6,86.9 M45,84.2c-0.1,0-0.1,0.1-0.2,0.1
											c-0.2,0-0.4-0.2-0.3-0.4c0-0.1,0.1-0.2,0.1-0.3c0.3-0.2,0-1-0.1-1.4c-0.1-0.1-0.1-0.4,0-0.5c0.1-0.1,0.4-0.1,0.5,0
											c0,0.1,0.1,0.1,0.1,0.2C45.2,82.2,45.9,83.6,45,84.2"/>
										<path class="st8" d="M45,84.2c-0.1,0-0.1,0.1-0.2,0.1c-0.2,0-0.4-0.2-0.3-0.4c0-0.1,0.1-0.2,0.1-0.3c0.3-0.2,0-1-0.1-1.4
											c-0.1-0.2-0.1-0.4,0.1-0.5s0.4-0.1,0.5,0.1c0,0,0,0.1,0.1,0.1C45.2,82.2,45.9,83.6,45,84.2"/>
										<path class="st3" d="M40.5,94.8c-0.6,0.3-1.2,0.5-1.8,0.6c-0.9-1.3-2-2.5-3.2-3.5c-0.1-0.1-0.1-0.1-0.2-0.1
											c0-0.1,0-0.1-0.1-0.2l-1-1.6l0.7-0.4c1.4-0.6,2.4-1.2,2.5-1.2c0.1,0,0.1-0.1,0.1-0.1c1.7-1.8,3.7-3.3,4.3-3.3
											c0.7,1.3,1.7,2.3,2.9,3C44.3,89.3,43,93.5,40.5,94.8"/>
										<path class="st9" d="M41.8,84.8"/>
										<path class="st3" d="M12.3,105.3l-0.5,1l9.5,7.7l0,0l0.5,0.5c1.5,1.2,3.1,2.3,4.8,3.2c0.3-0.2,0.5-0.5,0.7-0.7
											c1.2-1.5,2.8-2.7,4.6-3.5c1.2-0.5,2.5-0.8,3.8-0.9l-0.6-0.4c-0.3-0.2-0.4-0.6-0.2-0.9c0,0,0,0,0,0
											c0.2-0.3,0.6-0.4,0.9-0.2c0,0,0,0,0,0l2.2,1.4c0.2,0,0.5,0,0.7,0l0.5-0.1h0.2c0-0.2,0-0.4,0.1-0.5
											c0.2-0.3,0.6-0.3,0.9-0.1l0.4,0.3c3-0.6,3.8-0.6,4.3-0.2c0.8,0.7,0.9,1.8,0.2,2.6c1.8-0.7,3.4-0.7,4.2,0.3
											c0.2,0.2,0.4,0.5,0.5,0.8c0.1,0,0.2,0.1,0.3,0.1c0.3,0.1,0.5,0.4,0.6,0.8c0.1,0.4,0.1,0.8,0,1.2c0.4,0.1,0.7,0.3,1,0.6
											c0.1,0.1,0.1,0.1,0.1,0.2c0.6-0.8,1.2-1.7,1.7-2.6c1.6-2.8,1.6-4.4,0.9-4.9s-2.7,0-4.7,2.6c-0.2,0.2-0.5,0.3-0.7,0.2
											c-0.3-0.1-0.4-0.3-0.4-0.6c0-0.2-0.1-4.6-6.5-7.7c-0.1,0-0.1-0.1-0.2-0.1v0.1c0,0.3-0.3,0.6-0.6,0.6l0,0
											c-0.4,0-0.6-0.3-0.6-0.7c0-0.6,0-1.2-0.1-1.7l0.4,0.6c0-1.5-0.3-3.1-0.8-4.5C39.5,97,36,93.4,36,93.4l0.3,1.1
											c-0.4-0.4-0.7-0.8-1-1c-0.1,1.7-0.8,3.4-1.9,4.8c-1.5,1.7-3.8,2.6-6.7,2.6h-0.1c-2.4-0.1-4.8-0.9-6.7-2.3
											c0,0.2,0.1,0.3,0.1,0.5c0.1,0.3-0.1,0.6-0.5,0.7c0,0,0,0,0,0c-0.3,0.1-0.6-0.1-0.7-0.5c0,0,0,0,0,0
											c-0.4-2.5-3.3-4.6-4.3-5.3c-1.3,1.2-3,1.8-4.8,1.6c-0.4,2.7,1.2,7.4,3.6,9c1,0.8,2.3,0.7,3.3-0.1c0.3-0.2,0.6-0.1,0.8,0.1
											c0.2,0.3,0.1,0.6-0.1,0.8l0,0c-0.7,0.5-1.5,0.8-2.4,0.8c-0.8,0-1.6-0.3-2.3-0.8L12.3,105.3 M35.5,104.3
											c0.1-0.9,1-1.5,1.8-1.4c0.9,0.1,1.5,1,1.4,1.8l0,0c-0.1,0.8-0.8,1.4-1.6,1.4h-0.3C36,106,35.4,105.2,35.5,104.3
											 M32.6,100.5c0.1-0.9,1-1.5,1.8-1.4c0,0,0,0,0,0c0.9,0.1,1.5,0.9,1.4,1.8c-0.1,0.4-0.3,0.8-0.6,1.1
											c-0.3,0.2-0.6,0.3-1,0.3c-0.1,0-0.2,0-0.2,0C33.1,102.2,32.5,101.4,32.6,100.5C32.6,100.5,32.6,100.5,32.6,100.5
											 M23.8,108c0-0.4,0.2-0.7,0.6-0.7c2.7-0.2,5.2,0.9,7,2.8c0.2,0.3,0.2,0.7-0.1,0.9c-0.1,0.1-0.3,0.1-0.4,0.1
											c-0.2,0-0.4-0.1-0.5-0.2c-2.2-2.7-5.8-2.4-5.8-2.4C24.1,108.6,23.8,108.3,23.8,108"/>
										<path class="st3" d="M37.5,105.1c-0.1,0.1-0.3,0.1-0.5,0.1c-0.4,0-0.6-0.4-0.6-0.7c0-0.2,0.1-0.3,0.3-0.4
											c0.1-0.1,0.2-0.1,0.4-0.1h0.1c0.3,0.1,0.6,0.4,0.5,0.7c0,0,0,0,0,0C37.8,104.8,37.7,105,37.5,105.1"/>
										<path class="st3" d="M34.9,100.9c0,0.2-0.1,0.3-0.3,0.4c-0.1,0.1-0.3,0.1-0.5,0.1c-0.4-0.1-0.6-0.4-0.6-0.7c0,0,0,0,0,0
											c0-0.2,0.1-0.3,0.3-0.4c0.1-0.1,0.2-0.1,0.4-0.1h0.1C34.7,100.2,34.9,100.5,34.9,100.9"/>
										<path class="st9" d="M19.5,97.5L19.5,97.5l-0.1-0.1L19.5,97.5L19.5,97.5"/>
										<path class="st7" d="M15.3,93.1l0.4-0.3l0.8,0.2c1.1,0.3,2.2,0.4,3.3,0.5c2.2,0.1,4.4,0,6.6-0.5c2.1-0.4,4.2-1.2,6.2-2.1
											l0.5-0.3l0.9,1.5c0.1,1.9-0.5,3.7-1.7,5.2c-1.3,1.4-3.2,2.1-5.8,2.2c-2.3,0-4.5-0.8-6.2-2.2c-0.3-0.2-0.7-0.1-0.9,0.1
											l-0.1-0.1C18.3,95.7,17,94.2,15.3,93.1"/>
										<path class="st5" d="M16.6,93.4c0.3,0,0.5,0.3,0.4,0.6c0,0.1-0.1,0.2-0.2,0.3c-0.3-0.2-0.5-0.4-0.8-0.6
											C16.2,93.4,16.4,93.3,16.6,93.4"/>
										<path class="st5" d="M18,94.7c0,0.2,0,0.4-0.2,0.5c-0.2-0.3-0.5-0.5-0.7-0.7c0.1-0.1,0.2-0.2,0.3-0.2
											C17.7,94.2,18,94.4,18,94.7"/>
										<path class="st5" d="M20.3,95.5c0.1-0.2,0.3-0.2,0.4-0.2c0,0,0,0,0,0c0.2,0.1,0.2,0.3,0.2,0.4c0,0,0,0,0,0
											c-0.1,0.2-0.3,0.2-0.4,0.1C20.3,95.8,20.2,95.7,20.3,95.5"/>
										<path class="st5" d="M19.8,94.7c0.3,0.1,0.4,0.4,0.2,0.7c-0.1,0.3-0.4,0.4-0.7,0.2l0,0c-0.3-0.1-0.4-0.4-0.2-0.7
											C19.2,94.7,19.5,94.6,19.8,94.7"/>
										<path class="st5" d="M20.7,95c-0.3,0-0.5-0.3-0.4-0.6c0-0.3,0.3-0.5,0.6-0.4c0.3,0,0.5,0.3,0.4,0.6
											C21.2,94.8,20.9,95,20.7,95"/>
										<path class="st5" d="M21.2,95.5c-0.1-0.3,0.1-0.5,0.4-0.6s0.5,0.1,0.6,0.4s-0.1,0.5-0.4,0.6c0,0,0,0,0,0
											C21.5,96,21.3,95.8,21.2,95.5"/>
										<path class="st5" d="M20.9,96.2c0.2-0.1,0.6,0,0.7,0.2c0.1,0.2,0.1,0.5-0.2,0.7c0,0,0,0,0,0c-0.2,0.1-0.6,0-0.7-0.2
											C20.5,96.6,20.6,96.3,20.9,96.2L20.9,96.2"/>
										<path class="st5" d="M20.2,96.1c0.2,0.2,0.2,0.5,0,0.7c-0.2,0.2-0.5,0.2-0.7,0c-0.2-0.2-0.2-0.5,0-0.7
											C19.6,95.9,20,95.9,20.2,96.1"/>
										<path class="st5" d="M26.2,93.6c-0.2,0.1-0.5,0.1-0.7-0.2c0,0,0,0,0,0c0-0.1-0.1-0.2-0.1-0.2l1-0.2l0,0
											C26.5,93.2,26.4,93.5,26.2,93.6"/>
										<path class="st5" d="M24.3,93.4L24.3,93.4l0.8-0.1c0,0,0,0.1-0.1,0.1C24.8,93.6,24.5,93.6,24.3,93.4
											C24.3,93.4,24.3,93.4,24.3,93.4"/>
										<path class="st5" d="M24.9,96c0.2,0.1,0.2,0.3,0.1,0.4c-0.1,0.2-0.3,0.2-0.4,0.1c-0.2-0.1-0.2-0.3-0.1-0.4
											C24.6,96,24.8,95.9,24.9,96"/>
										<path class="st5" d="M24,95.3c0.3,0.1,0.4,0.4,0.3,0.7c0,0,0,0,0,0c-0.1,0.3-0.4,0.4-0.7,0.2c-0.3-0.1-0.4-0.4-0.2-0.7
											l0,0C23.4,95.3,23.7,95.2,24,95.3"/>
										<path class="st5" d="M25.5,95.2c0,0.3-0.3,0.5-0.6,0.4c-0.3,0-0.5-0.2-0.5-0.5c0-0.3,0.2-0.5,0.5-0.5c0.1,0,0.1,0,0.2,0
											C25.3,94.7,25.5,94.9,25.5,95.2"/>
										<path class="st5" d="M25.4,96.1c0-0.3,0.1-0.5,0.4-0.6c0.3,0,0.5,0.1,0.6,0.4c0,0.3-0.1,0.5-0.4,0.6
											C25.7,96.6,25.5,96.4,25.4,96.1C25.4,96.1,25.4,96.1,25.4,96.1"/>
										<path class="st5" d="M25.1,96.8c0.2-0.1,0.6-0.1,0.7,0.2c0,0,0,0,0,0c0.1,0.3,0,0.6-0.2,0.7c-0.2,0.1-0.6,0-0.7-0.2
											C24.8,97.3,24.8,97,25.1,96.8C25.1,96.8,25.1,96.8,25.1,96.8"/>
										<path class="st5" d="M24.4,96.7c0.2,0.2,0.2,0.5,0,0.7c-0.2,0.2-0.5,0.2-0.7,0s-0.2-0.5,0-0.7c0,0,0,0,0,0
											C23.8,96.5,24.2,96.5,24.4,96.7"/>
										<path class="st5" d="M24.4,98.7c0.3,0,0.5,0.3,0.4,0.6c0,0,0,0.1,0,0.1c-0.3-0.1-0.7-0.2-1-0.2
											C23.9,98.8,24.1,98.7,24.4,98.7"/>
										<path class="st5" d="M29.7,92.5c0.2,0.1,0.2,0.3,0.2,0.4c-0.1,0.2-0.3,0.2-0.4,0.2c0,0,0,0,0,0c-0.2-0.1-0.2-0.3-0.2-0.4
											c0,0,0,0,0,0C29.4,92.5,29.6,92.4,29.7,92.5"/>
										<path class="st5" d="M28.3,92.8c-0.1,0-0.2-0.1-0.2-0.2l1-0.3c0,0.1,0,0.2,0,0.2C29,92.8,28.7,92.9,28.3,92.8
											C28.4,92.8,28.4,92.8,28.3,92.8"/>
										<path class="st5" d="M29.7,92.2h-0.1l0.6-0.2C30.1,92.1,29.9,92.2,29.7,92.2"/>
										<path class="st5" d="M30.2,92.7c-0.1-0.3,0.1-0.5,0.4-0.6c0,0,0,0,0,0c0.3,0,0.5,0.1,0.6,0.4c0,0.3-0.1,0.5-0.4,0.6
											C30.6,93.1,30.3,93,30.2,92.7"/>
										<path class="st5" d="M30.4,94.3c-0.3,0.1-0.6,0-0.7-0.2c-0.1-0.2,0-0.6,0.2-0.7c0,0,0,0,0,0c0.2-0.1,0.6,0,0.7,0.2
											C30.7,93.8,30.7,94.1,30.4,94.3C30.4,94.3,30.4,94.3,30.4,94.3"/>
										<path class="st5" d="M29.2,94c-0.2,0.2-0.5,0.2-0.7,0c-0.2-0.2-0.2-0.5,0-0.7c0,0,0,0,0,0c0.2-0.2,0.5-0.2,0.7,0
											C29.4,93.5,29.4,93.8,29.2,94C29.2,94,29.2,94,29.2,94"/>
										<path class="st5" d="M28.7,96.8c0.1-0.2,0.3-0.2,0.4-0.1c0.2,0.1,0.2,0.3,0.2,0.4c-0.1,0.2-0.3,0.2-0.4,0.2
											C28.7,97.1,28.6,96.9,28.7,96.8C28.7,96.8,28.7,96.8,28.7,96.8"/>
										<path class="st5" d="M28.2,95.9c0.3,0.1,0.4,0.4,0.2,0.7c-0.1,0.3-0.4,0.4-0.7,0.2c-0.3-0.1-0.4-0.4-0.2-0.7
											C27.6,95.9,27.9,95.8,28.2,95.9"/>
										<path class="st5" d="M29.2,95.2c0.3,0,0.5,0.3,0.4,0.6c0,0.3-0.3,0.5-0.6,0.4c0,0,0,0,0,0c-0.3-0.1-0.4-0.4-0.3-0.6
											C28.8,95.4,29,95.3,29.2,95.2"/>
										<path class="st5" d="M29.6,96.8c0-0.3,0.1-0.5,0.4-0.6c0.3,0,0.5,0.1,0.6,0.4c0,0.3-0.1,0.5-0.4,0.6
											C29.9,97.2,29.6,97.1,29.6,96.8C29.6,96.8,29.6,96.8,29.6,96.8"/>
										<path class="st5" d="M29.3,97.4c0.3-0.1,0.6,0,0.7,0.2c0.1,0.2,0,0.6-0.2,0.7c0,0,0,0,0,0c-0.2,0.1-0.5,0.1-0.7-0.2
											c0,0,0,0,0,0C29,97.9,29,97.6,29.3,97.4C29.3,97.4,29.3,97.4,29.3,97.4"/>
										<path class="st5" d="M28.6,97.3c0.2,0.2,0.2,0.5,0,0.7c-0.2,0.2-0.5,0.2-0.7,0s-0.2-0.5,0-0.7c0,0,0,0,0,0
											C28.1,97.2,28.4,97.1,28.6,97.3C28.6,97.3,28.6,97.3,28.6,97.3"/>
										<path class="st5" d="M28.6,99.3c-0.1,0-0.2,0-0.3,0.1C28.3,99.3,28.4,99.3,28.6,99.3L28.6,99.3"/>
										<path class="st5" d="M33.5,93.3c0.1-0.2,0.3-0.2,0.4-0.2c0,0,0,0,0,0c0,0,0,0,0.1,0c0,0.2,0,0.3-0.1,0.5
											c-0.1,0-0.2,0-0.3,0C33.5,93.6,33.4,93.4,33.5,93.3"/>
										<path class="st5" d="M32.6,93.4c-0.3-0.1-0.4-0.4-0.3-0.7c0,0,0,0,0,0c0.1-0.3,0.4-0.4,0.7-0.2c0.3,0.1,0.4,0.4,0.2,0.7
											C33.1,93.4,32.8,93.5,32.6,93.4"/>
										<path class="st5" d="M33.5,92.2c0-0.2,0.2-0.4,0.4-0.4l0.2,0.3c0,0.1,0,0.4,0,0.7h-0.1C33.6,92.8,33.4,92.5,33.5,92.2"/>
										<path class="st5" d="M32.7,94.6c-0.2-0.2-0.2-0.5,0-0.7c0.2-0.2,0.5-0.2,0.7,0c0.2,0.2,0.2,0.5,0,0.7
											C33.2,94.8,32.9,94.8,32.7,94.6"/>
										<path class="st5" d="M32.4,96.6c0.2,0.1,0.3,0.2,0.3,0.4c-0.1,0.1-0.2,0.2-0.3,0.4l-0.2,0.2c-0.1,0-0.2,0-0.2,0
											c-0.3-0.1-0.4-0.4-0.2-0.7C31.8,96.6,32.1,96.5,32.4,96.6"/>
										<path class="st5" d="M33.3,95.9c-0.1,0.3-0.3,0.5-0.4,0.8c-0.1-0.1-0.1-0.2-0.1-0.3C32.9,96.1,33.1,95.9,33.3,95.9"/>
										<path class="st5" d="M8.6,95.1c-0.3,3.3,0.7,6.6,2.8,9.2l-0.8,1.4l-1.4-0.6c-0.3-0.2-0.7,0-0.9,0.3
											c-0.2,0.3,0,0.7,0.3,0.9c0,0,0.1,0,0.1,0l2.2,1l9.5,7.7l0.6,0.5h0c3.1,2.3,5,3.5,5.7,3.5l0,0c0.5,0,0.9-0.4,1.6-1.2
											c1.1-1.4,2.5-2.5,4.1-3.2c1.7-0.7,3.6-1,5.5-0.8c0.4,0,0.8,0,1.2,0l0.5-0.1c3.3-0.8,4.4-0.9,4.7-0.8
											c0.1,0.2,0.2,0.4,0.2,0.6c-0.1,0.3-0.5,0.7-1.1,0.9c-1.8,0.6-3.5,1-5.3,1.3c-0.3,0-0.5,0.2-0.5,0.5c0,0.3,0.1,0.5,0.3,0.7
											c2.1,1.2,3.4,1.8,3.9,1.7l3.9-0.7h0.1c1.2-0.6,2.6-0.9,3.9-0.9c0.1,0.6-0.2,0.7-0.3,0.8l0,0h-0.1c-1.3,0.8-3.5,2-4,2.2
											s-2.7,0.7-4,0.9c-0.3,0.1-0.6,0.4-0.5,0.7c0,0,0,0,0,0c0.1,0.3,0.3,0.5,0.6,0.5h0.1c0.3-0.1,3.5-0.7,4.2-1
											s3.3-1.8,4.1-2.2c0.3,0,0.6,0.1,0.9,0.1c-0.5,0.4-1.2,0.8-1.8,1l0,0c0,0-0.1,0-0.1,0.1c-0.9,0.6-1.8,1.1-2.8,1.6
											c-0.6,0.2-3,0.8-3.9,1c-0.3,0.1-0.6,0.4-0.5,0.7c0.1,0.3,0.3,0.5,0.7,0.5h0.2c0.3-0.1,3.3-0.8,4.1-1
											c0.9-0.4,1.8-1,2.7-1.5v0.1c-1,1.5-2.5,2.6-4.3,3c-1.4,0.3-4.6,0.6-6.4,0.8c-0.7,0.1-1.2,0.1-1.6,0.2
											c-2.9,0.3-10.1-2.5-10.1-2.6c-7.1-2.8-25.3-11.4-24-17.4c1-4.2,2.3-8.4,3.9-12.4c0.4,0.9,1.1,1.6,2,2"/>
										<path class="st5" d="M39,76.5c0,0.1,0,0.2,0,0.3v0.4c0,0.2,0,0.5-0.1,0.7c-0.1,0.6-0.2,1.2-0.4,1.8
											c-0.2-0.9-0.2-1.8-0.2-2.7c0-0.5,0.1-1,0.1-1.5l0,0C38.8,75.7,39,76.1,39,76.5"/>
										<path class="st5" d="M8.6,64.9c0.2-0.5,0.5-1,0.8-1.4c-1.5,1.3-2.7,2.9-3.5,4.7c-0.4,1-0.7,2-0.9,3c-0.2,1-0.2,2,0,3.1
											c0.1,1,0.3,2.1,0.6,3.1c0.2,0.5,0.3,1,0.5,1.5c0.1,0.2,0.2,0.5,0.3,0.7s0.1,0.2,0.2,0.3l0.1,0.1C7,80,7.1,80.3,7,80.5
											c-0.1,0.2-0.2,0.3-0.4,0.3c0,0-0.1,0-0.2,0c-0.4-0.1-0.8,0-1.2,0.2c-0.4,0.2-0.7,0.5-0.8,0.8c-0.3,0.8-0.2,1.7,0.4,2.4
											c0.6,0.8,1.3,1.4,2.1,1.9c0.3,0.2,0.6,0.3,0.9,0.4c0.2,0,0.4,0,0.6,0.1h0.1c0.1-0.5,0.3-0.9,0.7-1.2
											c0.2-0.1,0.5-0.2,0.7-0.1c0.2,0.1,0.4,0.2,0.6,0.3c0.2-0.2,0.4-0.3,0.6-0.4c0.5-0.1,1,0,1.3,0.3c0.2-1.7,1.5-3,3.2-3.4
											c2.1-0.5,4.1,0.8,4.6,2.9c0,0.1,0.1,0.3,0.1,0.4c0.2,1.1,0,2.1-0.5,3.1C19.1,89.4,18.1,90,17,90l0,0
											c0.1,0.2,0.2,0.4,0.2,0.6c0,0.1,0.1,0.4-0.5,1.2h0.2c1,0.2,2,0.4,3.1,0.4c4.2,0.2,8.4-0.7,12.2-2.5
											c1.9-0.8,3.5-2.1,4.7-3.7c0.6-0.8,0.9-1.7,0.9-2.7c0-1-0.1-2.1-0.4-3.1c-0.2-1.1-0.3-2.2-0.3-3.3c0.1-1.1,0.2-2.2,0.5-3.3
											c0.2-1,0.2-2,0.1-3c-0.1-1-0.4-2-0.8-2.9c-0.8-1.9-2.2-3.5-3.8-4.8c-0.8-0.6-1.7-1.2-2.6-1.7c-0.9-0.5-1.9-0.9-2.9-1.2
											h-0.1c0.2,0.4,0.3,0.8,0.3,1.3c0.1,0.9-0.1,1.8-0.7,2.6c-0.1,0.5-0.3,0.9-0.6,1.3c-0.8,1.1-2.4,1.5-3.8,1.8
											c-1.2,0.4-2.5,0.4-3.7,0c-0.3-0.1-0.6-0.3-0.9-0.5c-0.1,0-0.2-0.1-0.3-0.1c-0.2-0.1-0.4-0.1-0.7,0
											c-0.3,0.1-0.5,0.3-0.7,0.5c-1.8,1.5-4.4,1.6-6.3,0.2c-0.3-0.2-0.6-0.6-0.7-1c0-0.1,0-0.2,0-0.2l-0.1,0.1
											C8.8,66.2,8.5,65.4,8.6,64.9"/>
										<path class="st5" d="M14,89.5c0.1,0.1,0.1,0.1,0.2,0.1c-0.1,0.1-0.3,0.2-0.4,0.2c-0.1-0.3-0.2-0.5-0.2-0.8
											C13.7,89.2,13.8,89.3,14,89.5"/>
										<path class="st6" d="M24.1,80.3c-0.2,0.1-0.5,0-0.7-0.2c0,0,0,0,0,0c-0.1-0.2-0.1-0.4,0-0.5c0.2-0.4,0.5-0.6,0.8-0.8
											c0.3-0.2,0.7-0.2,1,0c0.3,0.2,0.6,0.4,0.7,0.8c0.1,0.3-0.1,0.6-0.4,0.6c-0.3,0.1-0.6-0.1-0.6-0.4c0-0.1-0.1-0.1-0.1-0.2
											c0,0-0.1,0-0.2,0c-0.1,0-0.2,0.1-0.3,0.2C24.3,80.1,24.2,80.2,24.1,80.3"/>
										<g>
											<g>
												<defs>
													<rect id="SVGID_00000097491406240654623990000010809469579708821415_" x="29" y="80.1" width="7.9" height="7.9"/>
												</defs>
												<clipPath id="SVGID_00000029015356623568967650000000713903572342431398_">
													<use xlink:href="#SVGID_00000097491406240654623990000010809469579708821415_"  style="overflow:visible;"/>
												</clipPath>
												<g style="clip-path:url(#SVGID_00000029015356623568967650000000713903572342431398_);">
													<path class="st11" d="M33.5,88c-0.5,0-1.1-0.1-1.6-0.2c-0.5,0-0.9,0.1-1.3-0.3c-0.4-0.4-0.7-0.9-1-1.4
														c-0.3-0.5-0.5-1-0.6-1.6c-0.2-2,1.1-3.9,3.2-4.3c2.1-0.5,4.1,0.8,4.6,2.9c0,0.1,0.1,0.3,0.1,0.4c0.2,1.1,0,2.1-0.5,3.1
														C35.6,87.4,34.6,87.9,33.5,88"/>
												</g>
											</g>
										</g>
										<path class="st5" d="M15.6,82.1c2.1-0.5,4.1,0.8,4.6,2.9c0,0.1,0.1,0.3,0.1,0.4c0.2,1.1,0,2.1-0.5,3.1
											C19.1,89.4,18.1,90,17,90l0,0c-0.2-0.3-0.4-0.6-0.8-0.7c-0.5-0.2-1.1-0.2-1.5,0.1l-0.4,0.2c-0.1,0-0.2-0.1-0.2-0.1
											c-0.2-0.1-0.3-0.3-0.5-0.5c0-0.2-0.1-0.4-0.1-0.6c-0.1-1.1-0.4-2.1-1.1-3h0C12.6,83.8,13.9,82.4,15.6,82.1"/>
										<g>
											<g>
												<defs>
													<rect id="SVGID_00000091713450640123671710000010618960231381328553_" x="12.4" y="82.1" width="7.9" height="7.9"/>
												</defs>
												<clipPath id="SVGID_00000039110319619771700110000000160411351381420192_">
													<use xlink:href="#SVGID_00000091713450640123671710000010618960231381328553_"  style="overflow:visible;"/>
												</clipPath>
												<g style="clip-path:url(#SVGID_00000039110319619771700110000000160411351381420192_);">
													<path class="st11" d="M15.6,82.1c2.1-0.5,4.1,0.8,4.6,2.9c0,0.1,0.1,0.3,0.1,0.4c0.2,1.1,0,2.1-0.5,3.1
														C19.1,89.4,18.1,90,17,90l0,0c-0.2-0.3-0.4-0.6-0.8-0.7c-0.5-0.2-1.1-0.2-1.5,0.1l-0.4,0.2c-0.1,0-0.2-0.1-0.2-0.1
														c-0.2-0.1-0.3-0.3-0.5-0.5c0-0.2-0.1-0.4-0.1-0.6c-0.1-1.1-0.4-2.1-1.1-3h0C12.6,83.8,13.9,82.4,15.6,82.1"/>
												</g>
											</g>
										</g>
										<path class="st6" d="M17.1,78c1.2,0.5,1.2,2.9-0.1,3.2C14.6,81.6,15.8,77.2,17.1,78"/>
										<path class="st6" d="M30.3,76.5c1.3,0.3,1.6,2.8,0.4,3.2C28.3,80.4,28.8,75.9,30.3,76.5"/>
										<path class="st8" d="M34.5,99.2c-0.9-0.1-1.7,0.5-1.8,1.4c-0.1,0.9,0.5,1.7,1.4,1.8c0.1,0,0.2,0,0.2,0
											c0.8,0,1.5-0.6,1.6-1.4C36,100.1,35.4,99.3,34.5,99.2 M34.3,100.2c0.4,0,0.6,0.4,0.6,0.7c0,0,0,0,0,0
											c0,0.2-0.1,0.3-0.3,0.4c-0.1,0.1-0.3,0.1-0.5,0.1c-0.4-0.1-0.6-0.4-0.6-0.7c0,0,0,0,0,0c0-0.2,0.1-0.3,0.3-0.4
											C34,100.2,34.1,100.1,34.3,100.2L34.3,100.2"/>
										<path class="st8" d="M38.7,104.8c0.1-0.9-0.5-1.7-1.4-1.8c-0.9-0.1-1.7,0.5-1.8,1.4c0,0,0,0,0,0c-0.1,0.9,0.5,1.7,1.4,1.8
											c0.1,0,0.2,0,0.2,0c0.4,0,0.7-0.1,1-0.3C38.5,105.6,38.7,105.2,38.7,104.8 M37.8,104.7c0,0.2-0.1,0.3-0.2,0.4
											c-0.1,0.1-0.3,0.1-0.5,0.1c-0.4,0-0.6-0.4-0.6-0.7c0-0.2,0.1-0.3,0.3-0.4c0.1-0.1,0.2-0.1,0.4-0.1h0.1
											C37.6,104,37.8,104.3,37.8,104.7C37.8,104.7,37.8,104.7,37.8,104.7"/>
										<path class="st6" d="M31.2,111c-0.1,0.1-0.3,0.1-0.4,0.1c-0.2,0-0.4-0.1-0.5-0.2c-2.2-2.7-5.8-2.4-5.8-2.4
											c-0.4,0-0.7-0.2-0.7-0.6c0-0.4,0.2-0.7,0.6-0.7c2.7-0.2,5.2,0.8,7,2.8C31.6,110.4,31.5,110.8,31.2,111"/>
										<path class="st7" d="M15.4,55.7c-0.2,0.2-0.4,0.5-0.5,0.8c-0.2,0.5-0.4,1-0.9,1.3c-1,0.5-2.1-0.7-3.1-0.4
											c-0.8,0.2-1.1,1.3-1.1,2.2s0.1,1.5,0.1,2.3c0,0.5-0.1,1.1-0.4,1.5l-0.1,0.1c-0.3,0.4-0.6,0.9-0.8,1.4
											c-0.2,0.6,0.2,1.3,0.8,1.2L9.6,66c0,0.1,0,0.2,0,0.2c0.1,0.4,0.3,0.8,0.7,1c1.9,1.4,4.5,1.3,6.3-0.2
											c0.2-0.2,0.4-0.4,0.7-0.5c0.2-0.1,0.4-0.1,0.7,0c-0.1,0-0.1-0.1-0.1-0.1c-0.2-0.3-0.2-0.7,0.1-0.9c0.6-0.5,1-1.2,1-1.9
											c0.1-1.5-1-3.2-3-5.1c-0.2-0.2-0.3-0.6,0-0.9c0,0,0,0,0,0c0.3-0.2,0.7-0.2,0.9,0c2.3,2.2,3.5,4.2,3.4,6.1
											c-0.1,1.1-0.7,2.1-1.5,2.8c-0.1,0.1-0.2,0.1-0.4,0.1l0,0c0.3,0.1,0.6,0.3,0.9,0.5c1.2,0.4,2.5,0.4,3.7,0
											c1.4-0.3,2.9-0.7,3.8-1.8c0.3-0.4,0.5-0.8,0.6-1.3c-0.1,0.2-0.2,0.3-0.4,0.5c-0.1,0.1-0.3,0.2-0.5,0.2
											c-0.4,0-0.6-0.3-0.6-0.7c0-0.2,0.1-0.3,0.2-0.4c0.5-0.6,0.7-1.3,0.6-2.1c-0.2-1.5-1.5-3-3.8-4.5c-0.3-0.2-0.4-0.6-0.2-0.9
											c0-0.1,0.1-0.1,0.1-0.1c-0.5-0.1-1-0.2-1.5-0.1c-0.7,0.1-1.4,0.2-2.1,0.2c-0.6-0.1-1.2-0.3-1.8-0.5
											C16.6,55.2,15.9,55.3,15.4,55.7 M12.9,59.4c1,1,1.5,2.6,1.2,4c-0.6,2.1-3.3,3.1-3.4,3.1c-0.3,0.1-0.7-0.1-0.8-0.4
											c-0.1-0.3,0.1-0.7,0.4-0.8c0,0,2.2-0.8,2.6-2.3c0.2-1-0.2-2.1-1-2.8c-0.2-0.3-0.2-0.7,0.1-0.9
											C12.3,59.1,12.7,59.1,12.9,59.4L12.9,59.4"/>
										<path class="st6" d="M17.7,66.3c-0.2-0.3-0.2-0.7,0.1-0.9c0,0,0,0,0,0c0.6-0.5,1-1.2,1-1.9c0.1-1.5-1-3.2-3-5.1
											c-0.3-0.2-0.3-0.7-0.1-0.9c0.2-0.3,0.7-0.3,0.9-0.1c2.3,2.2,3.5,4.2,3.4,6.1c-0.1,1.1-0.6,2.2-1.5,2.9
											c-0.1,0.1-0.2,0.1-0.4,0.1l0,0c-0.1,0-0.2-0.1-0.3-0.1C17.8,66.4,17.8,66.4,17.7,66.3"/>
										<path class="st6" d="M14,63.5c-0.6,2.1-3.3,3.1-3.4,3.1c-0.1,0-0.1,0-0.2,0c-0.4,0-0.6-0.3-0.7-0.6c0-0.3,0.2-0.5,0.4-0.6
											c0,0,2.2-0.8,2.6-2.3c0.2-1-0.2-2.1-1-2.8c-0.2-0.3-0.2-0.7,0.1-0.9c0.3-0.2,0.7-0.2,0.9,0.1C13.9,60.5,14.4,62,14,63.5"
											/>
										<path class="st5" d="M23.8,87.2L23.8,87.2c-0.3-0.1-0.6-0.3-0.8-0.6c-0.3-0.3-0.5-0.6-0.6-0.9c-0.2-0.4-0.3-0.7-0.5-1.1
											l-0.1-0.4c1,0.1,2.1,0.1,3.1-0.1c0.6-0.1,1.3-0.3,1.9-0.5c0.4-0.1,0.8-0.2,1.1-0.4c-0.1,0.5-0.2,1-0.3,1.4
											c-0.1,0.3-0.2,0.7-0.3,1c-0.1,0.3-0.2,0.6-0.4,0.9l0,0c-0.1,0.2-0.1,0.4,0,0.6c-0.4,0.4-0.8,0.7-1.3,0.9
											c-0.5,0.1-1.1,0-1.5-0.2v-0.1C24,87.5,23.9,87.2,23.8,87.2"/>
										<path class="st6" d="M22.2,87.3c-0.3-0.3-0.6-0.7-0.9-1.1c-0.2-0.4-0.4-0.8-0.6-1.2c-0.2-0.4-0.3-0.9-0.4-1.3l0,0
											c0-0.1,0-0.2,0-0.2c0.1-0.3,0.3-0.5,0.6-0.4c0,0,0,0,0,0c1.2,0.3,2.4,0.3,3.6,0.1c0.6-0.1,1.2-0.2,1.8-0.4
											c0.6-0.2,1.2-0.4,1.7-0.6l0,0c0.1,0,0.2,0,0.2,0c0.2,0,0.4,0.2,0.4,0.5c-0.1,0.8-0.2,1.5-0.4,2.3
											c-0.1,0.4-0.2,0.8-0.3,1.1c-0.1,0.4-0.2,0.7-0.4,1.1l0,0c-0.2,0.2-0.4,0.2-0.6,0.1c0,0,0,0,0,0l0,0
											c-0.1-0.2-0.1-0.4,0-0.6l0,0c0.2-0.3,0.3-0.6,0.4-0.9c0.1-0.3,0.2-0.7,0.3-1c0.1-0.5,0.2-1,0.3-1.4
											c-0.4,0.2-0.8,0.3-1.1,0.4c-0.6,0.2-1.3,0.4-1.9,0.5c-1,0.2-2.1,0.2-3.1,0.1l0.1,0.4c0.1,0.4,0.3,0.7,0.5,1.1
											c0.2,0.3,0.4,0.6,0.6,0.9c0.2,0.3,0.5,0.5,0.8,0.6l0,0c0.2,0.1,0.3,0.3,0.3,0.5c0,0,0,0.1,0,0.1c-0.1,0.2-0.3,0.3-0.5,0.2
											c-0.5-0.1-0.9-0.4-1.3-0.7"/>
										<path class="st5" d="M11.8,86.3c-0.1-0.1-0.2-0.2-0.4-0.1c-0.1,0-0.2,0.2-0.2,0.4l0.5,1.8c0.1,0.3-0.1,0.6-0.4,0.6
											c0,0,0,0,0,0h-0.1c-0.2,0-0.4-0.2-0.5-0.4l-0.5-1.8c-0.1-0.2-0.3-0.4-0.5-0.5c-0.2,0.4-0.3,0.8-0.3,1.2l0.7,1.6
											c0.1,0.3,0,0.6-0.3,0.7c-0.1,0-0.1,0-0.2,0c-0.2,0-0.4-0.1-0.5-0.3l-0.7-1.6c-0.1-0.1-0.3-0.3-0.5-0.3
											c-0.1,0.3-0.1,0.7,0,1c0,0,0,0.1,0,0.2L8.6,90c0.1,0.3,0,0.6-0.2,0.7c0,0,0,0,0,0c-0.1,0-0.1,0-0.2,0
											c-0.2,0-0.4-0.1-0.5-0.3l-0.6-1.2l-0.2,0.2c-0.5,0.6,0.2,2.3,0.4,3l0.1,0.2c0.3,0.8,1,1.4,1.8,1.6h0.1
											c1.7,0.3,3.4-0.3,4.6-1.5c0.1-0.1,0.2-0.1,0.3-0.2c0.7-0.5,1.3-1.2,1.8-1.9c0-0.2-0.2-0.4-0.4-0.5
											c-0.2-0.1-0.4-0.1-0.5,0.1c-0.8,0.5-1.5,0.9-2,0.4c-0.4-0.7-0.6-1.4-0.6-2.2c-0.1-0.8-0.3-1.5-0.7-2.2 M12.5,90.5
											c0.2-0.1,0.4,0,0.5,0.2c0,0.1,0,0.3-0.1,0.4c-0.3,0.2-1,0.7-0.9,1c0.1,0.2,0,0.4-0.2,0.4c0,0,0,0,0,0h-0.1
											c-0.2,0-0.3-0.1-0.3-0.2C10.9,91.3,12.3,90.5,12.5,90.5"/>
										<path class="st5" d="M7.3,86.8C7.3,86.7,7.3,86.7,7.3,86.8c0.2-0.2,0.2-0.2,0.3-0.2C7.5,86.6,7.4,86.6,7.3,86.8L7.3,86.8"
											/>
										<path class="st6" d="M6.2,88.8c-0.2,0.3-0.4,0.6-0.4,1c0,0.5,0,1,0.1,1.4c-1.9,4.5-3.4,9.2-4.5,14
											c-0.7,3.5,3.3,7.8,11.9,12.7c4.2,2.3,8.5,4.3,12.9,6.1c0.1,0,1.5,0.6,3.4,1.2c2.2,0.8,4.5,1.3,6.8,1.5c0.2,0,0.4,0,0.6,0
											l1.5-0.2c2-0.2,5.1-0.5,6.6-0.8c2.1-0.5,4-1.9,5.1-3.7c0.1-0.2,0.2-0.4,0.2-0.7c0.7-0.2,1.3-0.6,1.8-1.1
											c1-1.1,1.9-2.4,2.7-3.8c1.8-3.1,2-5.6,0.5-6.6s-3.6-0.2-5.6,1.9c-0.5-1.8-2.1-5-7-7.4c-0.2-0.1-0.5-0.1-0.7,0.1
											c-0.2-2.8-1.1-5.5-2.6-7.9c0.6-0.1,1.1-0.3,1.7-0.6c3.1-1.7,4.5-6.5,4.9-7.9c0.2,0,0.4,0,0.6,0c0.7,0,1.4-0.2,2-0.6
											l0.1-0.1c1-0.6,2.7-1.8,2.6-3.2c0-0.3-0.1-0.6-0.2-0.9c0.4-0.3,0.5-0.8,0.5-1.3c0,0,0,0,0-0.1c0-0.1-0.1-0.2-0.1-0.3
											c-0.2-0.2-0.4-0.4-0.7-0.5c0.2-0.4,0.3-0.9,0.2-1.3c0,0,0,0,0-0.1c-0.1-0.2-0.2-0.3-0.3-0.4l-0.2-0.1
											c-0.2-0.1-0.5-0.1-0.7-0.1c0-0.2-0.1-0.4-0.2-0.6l-0.1-0.1c-0.1-0.1-0.2-0.3-0.4-0.3c0.2,0.1,0.4,0.2,0.4,0.4h0.4
											c4.9-0.2,10.7-6,13-8.5c0.2-0.3,0.2-0.7,0-0.9c-0.3-0.2-0.7-0.2-0.9,0c-1.7,1.8-7.6,7.9-12.1,8.1c-4,0.2-7.7-2-10.9-6.6
											v-0.1c-0.2-1.1-0.5-2.2-1-3.2c-0.2-0.4-0.4-0.8-0.6-1.2c-0.8-1.3-1.7-2.5-2.9-3.5c-0.2-0.2-0.4-0.4-0.7-0.5
											c-0.9-0.7-1.8-1.3-2.8-1.8c-1-0.5-2-0.9-3.1-1.2L27.6,59c-0.2,0-0.3,0.1-0.5,0.1c-0.5,0-0.9-0.4-1.1-1.2
											c-0.8-0.8-1.6-1.4-2.5-2c-0.2-0.2-0.5-0.2-0.8,0c-0.1,0-0.1,0.1-0.1,0.1c-0.2,0.3-0.1,0.7,0.2,0.9c0,0,0,0,0,0
											c2.3,1.5,3.6,3.1,3.8,4.5c0.1,0.7-0.1,1.5-0.6,2.1c-0.2,0.3-0.2,0.7,0,0.9c0.1,0.1,0.3,0.2,0.5,0.2c0.2,0,0.3-0.1,0.5-0.2
											c0.1-0.1,0.3-0.3,0.4-0.5c0.5-0.8,0.7-1.7,0.6-2.6c-0.1-0.4-0.2-0.9-0.3-1.3h0.1c1,0.3,2,0.7,2.9,1.2
											c0.9,0.5,1.8,1.1,2.6,1.7c1.6,1.3,2.9,2.9,3.8,4.8c0.4,0.9,0.7,1.9,0.8,2.9c0.1,1,0.1,2-0.1,3c-0.2,1.1-0.3,2.2-0.4,3.3
											c0,1.1,0.1,2.2,0.3,3.3c0.2,1,0.3,2,0.4,3.1c0,0.9-0.3,1.8-0.9,2.6c-1.3,1.6-2.9,2.9-4.8,3.8c-3.8,1.8-8,2.7-12.2,2.5
											c-1-0.1-2.1-0.2-3.1-0.4h-0.2c0.6-0.7,0.5-1,0.5-1.2c0-0.2-0.1-0.4-0.2-0.6c-0.2-0.3-0.4-0.6-0.8-0.7
											c-0.5-0.2-1.1-0.2-1.5,0.1l-0.4,0.2l-0.4,0.2c-0.1-0.3-0.2-0.6-0.2-0.9c0-0.2-0.1-0.4-0.1-0.6c-0.1-1.1-0.4-2.1-1.1-3h0
											c-0.4-0.3-0.9-0.4-1.3-0.3c-0.2,0.1-0.4,0.2-0.6,0.4c-0.2-0.2-0.4-0.3-0.6-0.3c-0.3-0.1-0.5,0-0.7,0.1
											c-0.4,0.3-0.6,0.7-0.7,1.2H8.4c-0.2-0.1-0.4-0.1-0.6-0.1c-0.3-0.1-0.6-0.2-0.9-0.4c-0.8-0.5-1.5-1.2-2.1-1.9
											c-0.6-0.7-0.7-1.6-0.4-2.4c0.2-0.4,0.5-0.7,0.8-0.8c0.4-0.2,0.8-0.2,1.2-0.2c0,0,0.1,0,0.2,0c0.3,0,0.4-0.3,0.4-0.6
											c0-0.2-0.1-0.3-0.3-0.4l-0.1-0.1c-0.1-0.1-0.1-0.2-0.2-0.3S6.2,79,6.1,78.8c-0.2-0.5-0.4-1-0.5-1.5c-0.3-1-0.5-2-0.6-3.1
											c-0.2-1-0.2-2,0-3.1c0.2-1,0.5-2,0.9-3c0.8-1.8,1.9-3.5,3.5-4.7l0.1-0.1c0.2-0.5,0.4-1,0.4-1.5c-0.3,0.2-0.6,0.4-0.9,0.7
											c-1.7,1.4-3.1,3.3-3.9,5.3c-0.4,1-0.8,2.1-1,3.2c-0.2,1.1-0.2,2.3-0.1,3.4c0.1,1.1,0.4,2.2,0.7,3.2
											c0.2,0.5,0.3,1.1,0.5,1.6c0,0.1,0.1,0.2,0.1,0.3s0.1,0.3,0.2,0.4c-0.2,0-0.3,0.1-0.5,0.1c-0.1,0-0.2,0.1-0.3,0.1
											c-0.5,0.3-0.9,0.8-1.1,1.4c-0.3,0.6-0.3,1.2-0.2,1.8l0,0c0.1,0.6,0.4,1.1,0.7,1.6c0.6,0.9,1.4,1.6,2.3,2.2
											c0.2,0.1,0.4,0.2,0.6,0.3c-0.1,0.3-0.1,0.6-0.1,0.9C6.6,88.3,6.4,88.5,6.2,88.8 M2.6,105.4c1-4.2,2.3-8.4,3.9-12.4
											c0.4,0.9,1.1,1.6,2,2c-0.3,3.3,0.7,6.6,2.8,9.2l-0.7,1.5l-1.4-0.6c-0.3-0.1-0.7,0.1-0.8,0.4c-0.1,0.3,0,0.6,0.3,0.8l2.2,1
											l9.5,7.7l0.6,0.5h0.1c3.1,2.3,5,3.5,5.7,3.5l0,0c0.5,0,0.9-0.4,1.6-1.2c1.1-1.4,2.5-2.5,4.1-3.2c1.7-0.7,3.6-1,5.5-0.8
											c0.4,0,0.8,0,1.2,0l0.5-0.1c3.3-0.8,4.4-0.9,4.7-0.8c0.1,0.2,0.2,0.4,0.2,0.6c-0.1,0.3-0.5,0.7-1.1,0.9
											c-1.7,0.6-3.5,1-5.3,1.3c-0.3,0-0.5,0.2-0.5,0.5c0,0.3,0.1,0.5,0.3,0.7c2.1,1.2,3.4,1.8,3.9,1.7l3.9-0.7h0.1
											c1.2-0.6,2.6-0.9,3.9-0.9c0.1,0.6-0.2,0.7-0.3,0.8s0,0,0,0h-0.1c-1.3,0.8-3.5,2-4,2.2s-2.7,0.7-4,0.9
											c-0.3,0.1-0.6,0.4-0.5,0.7c0.1,0.3,0.3,0.5,0.6,0.5h0.1c0.4-0.1,3.5-0.7,4.2-1s3.3-1.8,4.1-2.2c0.3,0,0.6,0.1,0.9,0.1
											c-0.5,0.4-1.2,0.8-1.8,1l0,0c0,0-0.1,0-0.1,0.1c-0.9,0.6-1.8,1.1-2.8,1.6c-0.6,0.2-3,0.8-3.9,1c-0.4,0-0.7,0.3-0.6,0.7
											s0.3,0.7,0.7,0.6h0.1c0.3-0.1,3.3-0.8,4.1-1c0.9-0.4,1.8-1,2.7-1.5v0.1c-1,1.5-2.5,2.6-4.3,3c-1.4,0.3-4.6,0.6-6.4,0.8
											c-0.7,0.1-1.2,0.1-1.6,0.2c-2.9,0.3-10.1-2.5-10.1-2.6c-7.1-2.8-25.3-11.4-24-17.4 M19.5,97.5c-1-1.7-2.3-3.2-4-4.3
											l0.4-0.3l0.8,0.2c1.1,0.3,2.2,0.4,3.3,0.5c2.2,0.1,4.3-0.1,6.4-0.6c2.1-0.4,4.2-1.1,6.2-2.1l0.5-0.3l0.9,1.5
											c0.1,1.9-0.5,3.7-1.7,5.2c-1.3,1.4-3.2,2.1-5.8,2.2c-2.3,0-4.5-0.8-6.2-2.2C20,97.2,19.6,97.2,19.5,97.5L19.5,97.5
											L19.5,97.5l-0.1-0.2 M45.6,86.9c-1.1-0.6-2-1.5-2.6-2.6c0-0.1-0.1-0.2-0.2-0.3c-0.4-1.3-0.6-2.6-0.7-4
											c0.2-0.2,0.4-0.2,0.6-0.2c0.2,0,0.3,0.2,0.4,0.4c0.3,0.8,0.7,1.6,1.4,1.6s1.6-1.1,1.8-1.4c0.5-0.6,1.1-1,1.9-1.3
											c0.1,0,0.3,0,0.4,0.1c0.1,0.1,0.1,0.2,0,0.4l-1.4,1.2c-0.2,0.2-0.3,0.5-0.1,0.7c0,0,0,0,0,0c0.1,0.1,0.2,0.2,0.4,0.2
											c0.1,0,0.2,0,0.3-0.1l1.4-1.2c0.2-0.1,0.4-0.1,0.7-0.1c-0.1,0.4-0.2,0.8-0.5,1.1L48,82.1c-0.3,0.1-0.4,0.4-0.4,0.6
											c0.1,0.3,0.4,0.4,0.6,0.4c0.1,0,0.2,0,0.3-0.1l1.5-0.9c0.2,0,0.4,0,0.6,0.1c0,0.1-0.2,0.5-0.6,0.8l-0.1,0.1l-1.4,0.8
											c-0.3,0.1-0.4,0.4-0.4,0.6c0.1,0.3,0.4,0.4,0.6,0.4c0.1,0,0.2,0,0.2-0.1l1.2-0.7c0,0.1,0,0.2,0,0.3
											c0.1,0.8-1.5,1.8-2.1,2.2l-0.1,0.1C47.2,87.2,46.3,87.2,45.6,86.9 M41.8,84.9L41.8,84.9 M38.6,85.5c0-0.1,0.1-0.2,0.1-0.3
											c0.2-0.6,0.3-1.2,0.3-1.8c0-0.6,0-1.2-0.1-1.8c0.1-0.1,0.2-0.3,0.3-0.4c0.5-1,0.8-2.1,0.8-3.2c0-0.3,0-0.5,0-0.8v-0.4
											c0-0.1,0-0.3,0-0.4c0-0.3-0.1-0.6-0.3-0.9c-0.2-0.3-0.4-0.6-0.7-0.7c-0.1-0.1-0.3-0.1-0.4-0.2c0-0.2,0.1-0.4,0.1-0.7
											c0.1-0.4,0.1-0.8,0.2-1.2c2.5,3.1,5.2,4.9,8.2,5.5c-0.6,0.4-1.2,0.8-1.6,1.4c-0.3,0.4-0.6,0.7-1,0.9
											c-0.2-0.3-0.3-0.6-0.4-0.8c-0.2-0.5-0.6-0.9-1.2-1c-0.6-0.1-1.2,0.1-1.6,0.5c-0.6,0.6-0.1,2.8,0.3,4.4
											C40.5,84,39.5,84.6,38.6,85.5 M38.5,75.5L38.5,75.5c0.3,0.2,0.5,0.6,0.5,0.9c0,0.1,0,0.2,0,0.3v0.4c0,0.2,0,0.5-0.1,0.7
											c-0.1,0.6-0.2,1.3-0.4,1.9c-0.2-0.9-0.2-1.8-0.2-2.7C38.4,76.5,38.4,76,38.5,75.5 M44.7,87.9c-0.4,1.4-1.7,5.6-4.2,7
											c-0.6,0.3-1.2,0.5-1.8,0.6c-0.9-1.3-2-2.5-3.2-3.5c-0.1-0.1-0.2-0.1-0.2-0.1c0-0.1,0-0.1-0.1-0.2l-1-1.6l0.7-0.4
											c1.4-0.6,2.4-1.2,2.5-1.2c0.1,0,0.1-0.1,0.1-0.1c1.7-1.8,3.7-3.3,4.3-3.3C42.5,86.2,43.5,87.3,44.7,87.9 M42.5,117.2
											l-0.9,0.2c-0.5-0.2-1.1-0.4-1.6-0.7l1.3-0.3L42.5,117.2z M43,116l0.2-0.1L43,116L43,116z M48.6,115.7
											c-1.1,0.2-2.2,0.6-3.3,1l-1.4,0.3C46.2,115.3,48,115.2,48.6,115.7 M7.6,86.6c-0.1,0-0.2,0.1-0.3,0.2l0,0
											c0,0,0.1-0.1,0.1-0.1C7.5,86.6,7.6,86.5,7.6,86.6 M11.8,86.2c0.4,0.7,0.7,1.4,0.7,2.2c0,0.8,0.2,1.6,0.6,2.2
											c0.5,0.4,1.2,0,2-0.4c0.2-0.1,0.4-0.1,0.5-0.1c0.2,0.1,0.3,0.3,0.4,0.5c-0.5,0.7-1.1,1.3-1.8,1.9c-0.1,0-0.2,0.1-0.3,0.2
											c-1.2,1.3-2.9,1.8-4.6,1.6H9.3c-0.8-0.2-1.5-0.8-1.8-1.6l-0.1-0.2c-0.3-0.7-1-2.4-0.4-3l0.2-0.2l0.6,1.2
											c0.1,0.2,0.3,0.3,0.5,0.3c0.1,0,0.1,0,0.2,0c0.3-0.1,0.4-0.4,0.3-0.7c0,0,0,0,0,0L8,88.7c0,0,0-0.1,0-0.2
											c-0.1-0.3-0.1-0.7,0-1c0.2,0.1,0.4,0.2,0.5,0.3l0.7,1.6c0.1,0.2,0.3,0.3,0.5,0.3c0.1,0,0.1,0,0.2,0
											c0.3-0.1,0.4-0.4,0.3-0.7l-0.7-1.6c0-0.4,0.1-0.8,0.3-1.2c0.2,0.1,0.4,0.3,0.5,0.5l0.5,1.8c0.1,0.2,0.3,0.4,0.5,0.4h0.1
											c0.3-0.1,0.4-0.3,0.4-0.6c0,0,0,0,0,0l-0.5-1.8c0.1-0.2,0.2-0.3,0.2-0.4c0.1,0,0.3,0,0.4,0.1 M38,96.9L38,96.9
											c1.1,1.5,1.8,3.1,2.3,4.8c0.3,1.2,0.5,2.5,0.4,3.7c0,0.4,0.3,0.7,0.6,0.7l0,0c0.3,0,0.6-0.3,0.6-0.6c0,0,0,0,0-0.1
											c0,0.1,0.1,0.1,0.2,0.1c6.4,3.2,6.5,7.5,6.5,7.7c0,0.4,0.3,0.6,0.6,0.6c0.2,0,0.4-0.1,0.5-0.2c2.1-2.6,4-3.1,4.7-2.6
											s0.7,2.2-0.9,4.9c-0.5,0.9-1.1,1.8-1.7,2.6c0-0.1-0.1-0.2-0.1-0.2c-0.3-0.3-0.6-0.5-1-0.6c0.1-0.4,0.1-0.8,0-1.2
											c0-0.3-0.3-0.6-0.6-0.8c-0.1,0-0.2-0.1-0.3-0.1c-0.1-0.3-0.3-0.6-0.5-0.8c-0.9-1-2.5-1-4.2-0.3c0.6-0.8,0.5-2-0.2-2.6
											c-0.4-0.4-1.2-0.5-4.3,0.2l-0.4-0.3c-0.3-0.2-0.7-0.2-0.9,0.1c-0.1,0.2-0.2,0.3-0.1,0.5h-0.2l-0.5,0.1c-0.2,0-0.5,0-0.7,0
											l-2.2-1.4c-0.3-0.2-0.7-0.1-0.9,0.2c0,0,0,0,0,0c-0.2,0.3-0.1,0.7,0.2,0.9c0,0,0,0,0,0l0.6,0.4c-1.3,0.1-2.6,0.4-3.8,0.9
											c-1.8,0.8-3.3,2-4.5,3.5c-0.2,0.3-0.4,0.5-0.7,0.7c-1.7-0.9-3.3-2-4.8-3.2l-0.5-0.5l0,0l-9.5-7.7l0.5-1l0.3,0.2
											c0.7,0.5,1.4,0.7,2.2,0.8c0.9,0,1.7-0.3,2.4-0.8c0.3-0.2,0.3-0.6,0.1-0.8c-0.2-0.3-0.6-0.3-0.8-0.1
											c-0.9,0.8-2.3,0.8-3.3,0.1c-2.3-1.6-3.9-6.3-3.6-9c1.8,0.1,3.5-0.5,4.8-1.6c1,0.7,3.8,2.8,4.3,5.3c0,0.3,0.3,0.5,0.6,0.5
											c0.3,0,0.5-0.3,0.5-0.6c0,0,0-0.1,0-0.1c0-0.2-0.1-0.3-0.1-0.5c2,1.4,4.3,2.2,6.7,2.3h0c3,0,5.2-0.9,6.7-2.6
											c1.1-1.3,1.8-3,1.9-4.8c0.8,0.8,1.5,1.6,2.2,2.5C37.7,96.3,37.8,96.5,38,96.9"/>
										<path class="st8" d="M12.5,90.6c0.2-0.1,0.4,0,0.5,0.2c0,0.1,0,0.3-0.1,0.4c-0.3,0.2-1,0.7-0.9,1c0.1,0.2,0,0.4-0.2,0.4
											c0,0,0,0,0,0h-0.1c-0.2,0-0.3-0.1-0.3-0.2C10.9,91.4,12.3,90.6,12.5,90.6"/>
										<path class="st13" d="M42.8,46.5c-0.1,0.6-0.4,1.2-0.8,1.8c-0.3,0.5-0.7,1-1.2,1.5c-0.5,0.4-0.9,0.2-1.5,0.2
											C38.7,50,38.1,50,37.5,50c-1.2-0.1-2.3-0.8-3-1.9c-0.5-1.1-0.6-2.3-0.3-3.5c0.4-2.3,2.7-3.8,5-3.4c0.2,0,0.3,0.1,0.5,0.1
											C41.9,42,43.2,44.2,42.8,46.5"/>
										<path class="st13" d="M58,44.6c0.4-2.3,2.7-3.8,5-3.4c0.2,0,0.3,0.1,0.5,0.1c2.2,0.6,3.6,2.8,3.2,5.1
											c-0.1,0.6-0.4,1.2-0.8,1.8c-0.3,0.5-0.7,1-1.2,1.5c-0.5,0.4-0.9,0.2-1.5,0.2c-0.6,0.1-1.2,0.1-1.8,0.1
											c-1.2-0.1-2.3-0.8-3-1.9C57.7,46.9,57.6,45.7,58,44.6"/>
										<path class="st3" d="M70,36.5c3-5.3,3.3-11.7,0.8-17.2C67.2,11.2,60.5,4.2,55.4,2.6c-7.1-2.3-15.2-3.8-22.5-1.3
											c-5.9,1.9-10.8,6-13.8,11.5c-0.7,1.3-1.3,2.6-1.8,4c-1.5,4.9-2.3,9.9-2.2,15c-0.1,7.9,2.5,14.9,5.5,18.5
											c0.7,0.9,1.5,1.7,2.3,2.5c3.2-2,5.9-11.6,7.5-26.5C31.6,15,38.3,9.7,43.7,7.4c3.6-1.6,7.5-2.4,11.5-2.5
											c0.4,0,0.6,0.3,0.6,0.6c0,0.4-0.3,0.6-0.6,0.6c-3.8,0.1-7.5,0.9-11,2.4c-7.4,3.3-11.6,9.3-12.5,17.9
											c-1.1,10.8-3.4,23.8-7.7,27.2c0.6,0.4,1.2,0.8,1.8,1.2c-0.1,1,0,2.1,0.2,3.1c0.2,0.8,0.5,1.2,1.1,1.2c0.2,0,0.3,0,0.5-0.1
											c0.6-0.1,1.2-0.4,1.6-0.9L29.1,58c-0.2-0.3,0-0.7,0.3-0.9c1.5-0.7,1.9-3.9,2.4-8c-0.9-1.4-1.5-2.8-2-4.3l0,0
											c-0.1-0.3,0.1-0.6,0.4-0.6c0.3-0.1,0.6,0.1,0.6,0.4c0,0,0,0,0,0l0,0c0.3,1,0.7,2.1,1.2,3c1.1-9.9,3-24.5,17.8-32.8
											c5.4-3,8.3-2.3,9.6-1.5c0.2-1.8-1.5-4.3-2.3-5.3c-0.2-0.3-0.2-0.7,0.1-0.9c0.3-0.2,0.7-0.2,0.9,0.1
											c0.2,0.2,3.9,4.6,2.2,7.5l0,0c1.3,1.2,2.3,2.5,3.1,4.1c0.2-0.1,0.5,0,0.6,0.2c2,2.1,3.5,4.5,4.6,7.1
											c0.1,0.3-0.1,0.7-0.4,0.8c-0.1,0-0.1,0-0.2,0c-0.3,0-0.5-0.2-0.6-0.4c-0.2-0.4-0.3-0.9-0.6-1.3c0.6,1.7,1.1,3.7,1.6,5.6
											c-0.1-0.8-0.2-1.7-0.3-2.5l0,0c0-0.3,0.2-0.6,0.5-0.6c0.3,0,0.5,0.1,0.6,0.4c0.3,1.6,0.5,3.2,0.7,4.8
											C69.9,34,69.9,35.3,70,36.5"/>
										<path class="st3" d="M35.2,35.8c-0.5,2.2-1,4.5-1.4,6.7C34.2,40.3,34.6,38,35.2,35.8"/>
										<path class="st6" d="M63,18.9c0.1-0.1,0.2-0.1,0.3-0.2c0.2-0.1,0.5,0,0.6,0.2c2,2.1,3.6,4.5,4.6,7.1
											c0.1,0.3-0.1,0.7-0.4,0.8c-0.1,0-0.1,0-0.2,0c-0.3,0-0.5-0.2-0.6-0.4c-0.2-0.4-0.3-0.9-0.6-1.3c-1-2-2.3-3.8-3.8-5.4
											C62.7,19.5,62.7,19.1,63,18.9"/>
										<path class="st6" d="M60.3,58.9c2.1,0.1,4.1-0.7,5.6-2.2c2-2.4,1.5-5.9,1.5-6c-0.1-0.4,0.2-0.7,0.5-0.7
											c0.4-0.1,0.7,0.2,0.7,0.5c0,0.2,0.6,4.2-1.8,7c-1.4,1.7-3.6,2.6-6.5,2.7l0,0c-0.4,0-0.6-0.3-0.7-0.6
											C59.7,59.2,60,58.9,60.3,58.9C60.3,58.9,60.3,58.9,60.3,58.9"/>
										<path class="st6" d="M22.9,54.2c-0.1,0-0.2,0-0.2,0c-0.3,0-0.5-0.2-0.6-0.4c-0.1-0.3,0-0.7,0.4-0.8c0,0,0,0,0,0
											c0.2-0.1,0.3-0.2,0.5-0.3c3.2-2,5.9-11.6,7.5-26.5C31.6,15,38.3,9.7,43.7,7.4c3.6-1.6,7.5-2.4,11.5-2.5
											c0.4,0,0.6,0.3,0.6,0.6s-0.3,0.6-0.6,0.6c0,0,0,0,0,0c-3.8,0.1-7.5,0.9-11,2.4c-7.4,3.3-11.6,9.3-12.5,17.9
											c-1.1,10.8-3.4,23.8-7.7,27.2C23.6,53.9,23.3,54.1,22.9,54.2"/>
										<path class="st6" d="M41.9,38.8c-3.3,0.8-2.1-5.4-0.1-4.4C43.5,35,43.7,38.4,41.9,38.8"/>
										<path class="st6" d="M51.7,40.5c-0.1,0.1-0.3,0.2-0.4,0.2c-0.3,0-0.6-0.2-0.6-0.5c0-0.2,0.1-0.3,0.2-0.5l0.8-0.8
											c-0.8-0.4-1.3-1.1-1.6-2c-0.1-0.3,0-0.6,0.3-0.7s0.6,0,0.7,0.3c0,0,0,0,0,0.1c0,0,0.5,1.5,1.7,1.5c0.2,0,0.4,0.2,0.5,0.4
											c0.1,0.2,0,0.4-0.1,0.6L51.7,40.5z"/>
										<path class="st6" d="M49.3,51.3c-0.2-0.1-0.2-0.3-0.2-0.4c0,0,0,0,0,0c0.1-0.2,0.3-0.2,0.5-0.2c0,0,0,0,0,0
											c0.7,0.5,1.6,0.4,2.3,0c0.1-0.1,0.4-0.1,0.5,0c0,0,0,0,0,0c0.1,0.1,0.1,0.4,0,0.5c-0.4,0.4-1,0.6-1.6,0.6
											C50.3,51.7,49.7,51.6,49.3,51.3"/>
										<path class="st6" d="M61,37.5L61,37.5L57.4,37c-0.3,0-0.5-0.2-0.5-0.5c-0.1-0.3,0-0.5,0.2-0.7l3-2.1
											c0.3-0.2,0.7-0.1,0.9,0.2c0.2,0.3,0.1,0.7-0.1,0.9c0,0,0,0,0,0L59.2,36l1.9,0.3c0.4,0,0.6,0.3,0.6,0.7S61.4,37.6,61,37.5"
											/>
										<path class="st6" d="M50.8,48.5c-2.3-0.1-4.3-1.5-5.2-3.6c-0.1-0.3,0-0.7,0.3-0.8c0,0,0,0,0,0c0.3-0.1,0.7,0,0.8,0.3
											c0.7,1.6,2.2,2.7,4,2.8h0.1c1.8,0,3.3-1.3,3.8-3c0.1-0.3,0.4-0.6,0.8-0.5c0.3,0.1,0.6,0.4,0.5,0.8l0,0c-0.5,2.3-2.6,4-5,4
											L50.8,48.5"/>
										<path class="st5" d="M94.8,67c0.1-0.2,0-0.5-0.1-0.7c-0.8-0.8-1.4-1.8-1.8-2.9c-0.2-0.4-0.2-1,0-1.4l0.2-0.1
											c0.1,0,0.1-0.1,0.1-0.1c0.2-0.2,0.4-0.5,0.6-0.8h0.1c0.1,0,0.1,0,0.2,0c0.4,0,0.6-0.3,0.6-0.6c0-0.3-0.2-0.5-0.4-0.6
											c0,0-0.7-0.2-1.4-0.5c-0.3-0.1-0.7,0-0.8,0.3s0,0.7,0.3,0.8c0,0,0,0,0,0h0.1c-0.1,0.1-0.3,0.2-0.4,0.3c-0.3,0-0.7,0-1-0.1
											c-0.5-0.2-0.6-0.4-0.7-0.5c0.2-0.9,0.4-1.7,0.7-2.6c0,0,0,0,0.1-0.1c0.8-0.3,3.2,0.7,4.7,1.5c0.3,0.2,0.7,0.1,0.9-0.3
											c0.2-0.3,0.1-0.7-0.3-0.9c-1.4-0.8-2.8-1.3-4.4-1.6c0.2-0.7,0.6-1.4,1.1-2c1.7,0.3,3.3,0.9,4.8,1.8c0.3,0.2,0.7,0,0.9-0.3
											c0,0,0,0,0,0c0.1-0.3,0-0.7-0.3-0.9c-1.2-0.6-2.5-1.1-3.8-1.5c0.2-0.7,0.6-1.2,1.1-1.7c0.8-0.7,3.3,0.6,4.7,1.7
											c0.3,0.2,0.7,0,0.9-0.3c0.1-0.2,0.1-0.5-0.1-0.7c-1-0.8-2.2-1.5-3.4-1.9l0,0c0-0.2,0.3-0.6,1.4-0.9
											c0.5-0.2,2.1,1.1,3.1,1.9c0.5,0.4,1,0.8,1.6,1.2c0.5,0.3,0.8,0.8,0.9,1.4c0,1.3-0.5,2.6-1.3,3.6c-1.3,1.8-5.3,8.7-5.5,8.9
											c-0.1,0.2-0.1,0.5,0,0.7l0,0L97.6,68L94.8,67z"/>
										<path class="st6" d="M98.3,28c-0.4,0.1-0.8-0.1-0.9-0.5c-0.1-0.4,0.1-0.8,0.5-0.9c0.4-0.1,0.8,0.1,0.9,0.5c0,0,0,0,0,0
											C98.9,27.5,98.7,27.9,98.3,28"/>
										<path class="st6" d="M98.4,30.8c0.1,0.4-0.1,0.7-0.5,0.8c0,0,0,0,0,0c-0.4,0.1-0.7-0.1-0.8-0.5c-0.1-0.4,0.1-0.7,0.5-0.8
											c0,0,0,0,0,0C97.9,30.2,98.3,30.5,98.4,30.8"/>
										<path class="st6" d="M98,35.2c0.1,0.3-0.1,0.7-0.4,0.8c-0.4,0.1-0.7-0.1-0.8-0.5c-0.1-0.4,0.1-0.7,0.5-0.8
											C97.6,34.6,98,34.8,98,35.2"/>
										<path class="st6" d="M102.9,38c-0.4,0.1-0.8-0.1-0.9-0.5c-0.1-0.4,0.1-0.8,0.5-0.9c0.4-0.1,0.8,0.1,0.9,0.4
											c0.1,0.4-0.1,0.8-0.4,0.9C103,38,102.9,38,102.9,38"/>
										<path class="st6" d="M104.7,34.7c-0.4,0.1-0.7-0.1-0.8-0.5c-0.1-0.4,0.1-0.7,0.5-0.8c0.4-0.1,0.7,0.1,0.8,0.5
											C105.2,34.3,105,34.6,104.7,34.7"/>
										<path class="st6" d="M105.6,30.1c-0.1-0.4,0.1-0.7,0.5-0.8c0,0,0,0,0,0c0.4-0.1,0.7,0.1,0.8,0.5c0.1,0.4-0.1,0.7-0.5,0.8
											C106,30.7,105.7,30.5,105.6,30.1"/>
										<path class="st6" d="M106.9,40.4c0.4-0.1,0.7,0.1,0.8,0.5s-0.1,0.7-0.5,0.8c-0.4,0.1-0.7-0.1-0.8-0.5c0,0,0,0,0,0
											C106.3,40.9,106.6,40.5,106.9,40.4"/>
										<path class="st6" d="M110.1,38c0.4-0.1,0.7,0.1,0.8,0.5c0.1,0.4-0.1,0.7-0.5,0.8c-0.4,0.1-0.7-0.1-0.8-0.5l0,0
											C109.6,38.4,109.8,38.1,110.1,38C110.1,38,110.1,38,110.1,38"/>
										<path class="st6" d="M113.8,35.1c0.3-0.1,0.7,0.1,0.8,0.5c0.1,0.3-0.1,0.7-0.5,0.8l0,0c-0.3,0.1-0.7-0.1-0.8-0.5
											C113.3,35.6,113.5,35.2,113.8,35.1"/>
										<path class="st6" d="M110.7,45.7c0.4-0.1,0.7,0.1,0.8,0.5s-0.1,0.7-0.5,0.8c-0.4,0.1-0.7-0.1-0.8-0.5c0,0,0,0,0,0
											C110.1,46.1,110.3,45.8,110.7,45.7"/>
										<path class="st6" d="M114.7,43.9c0.4-0.1,0.8,0.1,0.9,0.4s-0.1,0.8-0.4,0.9c0,0-0.1,0-0.1,0c-0.4,0.1-0.7-0.1-0.8-0.5
											C114.2,44.3,114.4,44,114.7,43.9"/>
									</g>
								</g>
							</g>
						</g>
					</g>
				</g>
			</g>
		</g>
	</g>
</g>
</svg>
