<?xml version="1.0" encoding="utf-8"?>
<!-- Generator: Adobe Illustrator 26.0.3, SVG Export Plug-In . SVG Version: 6.00 Build 0)  -->
<svg version="1.1" id="レイヤー_1" xmlns="http://www.w3.org/2000/svg" xmlns:xlink="http://www.w3.org/1999/xlink" x="0px"
	 y="0px" viewBox="0 0 93 110" style="enable-background:new 0 0 93 110;" xml:space="preserve">
<style type="text/css">
	.st0{clip-path:url(#SVGID_00000011753474231451358680000014738950596639643274_);}
	.st1{clip-path:url(#SVGID_00000003063218927393902730000015117149224239147956_);}
	.st2{fill:#FFFFFF;}
	.st3{fill:#FFF100;}
	.st4{fill:#FDE67C;}
	.st5{fill:#26466D;}
	.st6{fill:#7BD1F4;}
	.st7{fill:#F7DCD5;}
	.st8{fill:#FEFFFF;}
</style>
<g id="レイヤー_2_00000142168110220423828470000001423385971993975424_">
	<g id="レイヤー_1-2">
		<g id="アートワーク_18">
			<g>
				<defs>
					<rect id="SVGID_1_" x="-21.6" y="0" width="144.2" height="110"/>
				</defs>
				<clipPath id="SVGID_00000129909306517228471870000015545652145046205860_">
					<use xlink:href="#SVGID_1_"  style="overflow:visible;"/>
				</clipPath>
				<g style="clip-path:url(#SVGID_00000129909306517228471870000015545652145046205860_);">
					<g>
						<defs>
							<path id="SVGID_00000127009795740445276250000016180511088538799800_" d="M-9.1,0h119.2c6.9,0,12.5,5.6,12.5,12.5v85
								c0,6.9-5.6,12.5-12.5,12.5H-9.1c-6.9,0-12.5-5.6-12.5-12.5v-85C-21.6,5.6-16,0-9.1,0z"/>
						</defs>
						<clipPath id="SVGID_00000147215072013389233210000008704178727713949338_">
							<use xlink:href="#SVGID_00000127009795740445276250000016180511088538799800_"  style="overflow:visible;"/>
						</clipPath>
						<g style="clip-path:url(#SVGID_00000147215072013389233210000008704178727713949338_);">
							<path class="st2" d="M74.4,2l-3.7,0.5l-0.2-0.6l4.1-0.5c0.2,0,0.4-0.1,0.5-0.3L75,1.7C74.8,1.6,74.5,1.8,74.4,2"/>
							<path class="st2" d="M79.3,11.9l-0.6,0.5L82,4.8l3.3,2.5c0.1,0.1,0.3,0.2,0.5,0.1l-0.2,0.2l-3.4-2.5L79.3,11.9z"/>
							<polygon class="st2" points="81.3,17.7 88.9,14.3 89.1,15.4 82.3,17.7 							"/>
							<path class="st3" d="M75.6,2.4c0-0.2-0.1-0.4-0.2-0.5l0.4-0.1l-1.3,11.7l-0.3-0.7c0.1-0.1,0.2-0.3,0.2-0.4L75.6,2.4z"/>
							<path class="st4" d="M74.3,2.3l-0.8,7.3l-2.7-7.1L74.4,2C74.3,2.1,74.3,2.2,74.3,2.3"/>
							<path class="st4" d="M85.3,7.9c-0.2-0.3-0.6-0.3-0.9-0.1L79.3,12l2.9-6.8l3.4,2.5l1.1,0.8l-9.1,7.4l0.6-1.4l7-5.7
								C85.5,8.6,85.5,8.2,85.3,7.9"/>
							<path class="st4" d="M89.3,18.8c0-0.4-0.3-0.7-0.6-0.7l-6.3-0.4l6.8-2.4l0.6,3c0.1,0.3,0.3,0.5,0.6,0.5l0.2,1.8L78.8,19
								l0.3-0.1l9.5,0.5C88.9,19.5,89.2,19.2,89.3,18.8"/>
							<path class="st5" d="M69.1,1c0.1-0.2,0.3-0.3,0.5-0.3l5-0.6c0.4,0,0.7,0.2,0.7,0.6c0,0,0,0,0,0c0,0.2,0,0.3-0.1,0.5
								c-0.1,0.2-0.3,0.2-0.4,0.3l-4.1,0.5l0.2,0.6l2.7,7.1l0.8-7.3c0-0.1,0-0.2,0-0.3c0.2-0.3,0.6-0.4,0.9-0.2
								c0.2,0.1,0.3,0.4,0.3,0.6l-1.1,9.9c0,0.2-0.1,0.3-0.2,0.4c-0.1,0.1-0.2,0.1-0.3,0.1h-0.2c-0.2,0-0.4-0.2-0.5-0.4L69,1.5
								C68.9,1.4,68.9,1.2,69.1,1"/>
							<path class="st5" d="M81.1,3.6c0.1-0.3,0.5-0.5,0.9-0.3c0.1,0,0.1,0.1,0.1,0.1l4,3c0.3,0.2,0.3,0.6,0.1,0.9
								c-0.1,0.1-0.2,0.2-0.4,0.2c-0.2,0-0.4,0-0.5-0.1L82,4.8l-3.2,7.6l0.6-0.5l5.1-4.2c0.3-0.2,0.7-0.2,0.9,0.1
								c0.2,0.3,0.2,0.7-0.1,0.9l-7,5.7l-0.7,0.6c-0.1,0.1-0.3,0.2-0.5,0.1c-0.1,0-0.2-0.1-0.3-0.1c-0.2-0.2-0.3-0.5-0.2-0.8
								L81.1,3.6z"/>
							<path class="st5" d="M78.4,17.6l10.7-4.9c0.2-0.1,0.4-0.1,0.6,0c0.2,0.1,0.3,0.3,0.3,0.4l0.9,4.9c0.1,0.3-0.2,0.7-0.5,0.8
								c0,0,0,0,0,0h-0.1c-0.3,0-0.6-0.2-0.6-0.5l-0.6-3l-0.2-1.1l-7.5,3.4l1,0l6.3,0.4c0.4,0,0.6,0.3,0.6,0.7
								c0,0.4-0.3,0.6-0.7,0.6l0,0l-9.5-0.5h-0.5l0,0c-0.4-0.1-0.6-0.4-0.5-0.7c0-0.2,0.2-0.4,0.4-0.5"/>
							<path class="st6" d="M62.8,56.5c1.1,1.7,2.4,3.3,3.9,4.7l0.2,0.2c-0.1,0-0.3,0-0.4,0c-0.8,0.2-1.5,0.7-1.9,1.5
								c-0.2,0.3-0.2,0.5-0.3,0.8c-0.4,0.3-0.7,0.6-1,0.9c-0.3,0.7-0.4,1.5-0.3,2.3c-0.2,0.5-0.3,1.1-0.3,1.6
								c-0.6-0.5-1-1.1-1.3-1.8c-1-3-1.4-6.2-1-9.4l1.3-0.4C62.1,56.8,62.4,56.6,62.8,56.5"/>
							<path class="st6" d="M72.5,56c-0.7,0.9-1.2,2-1.5,3.2c-0.6-0.4-1.2-0.7-1.7-1.2c0.3-2.1-0.5-3.2-1.3-3.6
								c-0.3-0.2-0.7-0.1-0.9,0.2c0,0,0,0,0,0c-0.2,0.3-0.1,0.7,0.2,0.8c0,0,0,0,0,0c0.5,0.3,0.8,0.9,0.8,1.6c-0.7-0.6-1.4-1.3-2-2
								l0.2-0.1c1.5-0.8,2.8-1.8,4-3c0.6-0.6,1.1-1.3,1.5-2c0.2-0.4,0.5-0.9,0.6-1.4c0.7,0.3,1.4,1.7,1.7,6.2
								C73.5,55,72.9,55.5,72.5,56"/>
							<path class="st2" d="M73.4,37.9c0-0.5-0.1-1-0.1-1.5c0.3,0,0.7,0.2,0.9,0.4c0.2,0.3,0.4,0.6,0.4,1c0,0.4,0,0.9-0.1,1.3
								c0,0.2,0,0.5-0.1,0.7c0,0.2-0.1,0.5-0.2,0.7c-0.2,0.6-0.4,1.2-0.8,1.7C73.5,40.8,73.5,39.4,73.4,37.9"/>
							<path class="st2" d="M59.8,20.7c-7,5.7-19,14.4-25.9,14.4h-0.3c0,0.1,0,0.2,0,0.3c0,0.4,0,0.8,0.1,1.1s0.1,0.8,0.2,1.1
								c0,0.4,0.1,0.7,0.2,1.1L34,39l0.1,0.2c0,0.1,0.1,0.1,0.1,0.2v0.1l0,0l0,0c0.3,0.1,0.4,0.4,0.2,0.7c-0.1,0.3-0.4,0.4-0.7,0.2
								c-0.1,0-0.1-0.1-0.2-0.1l-0.1-0.1c0-0.1-0.1-0.1-0.1-0.2c-0.1-0.1-0.2-0.2-0.2-0.3c-0.1-0.1-0.1-0.2-0.2-0.3
								c-0.2,0.2-0.5,0.2-0.7,0c0,0,0,0,0,0l0,0l0,0l-0.1,0L32,39.2c-0.1-0.1-0.3-0.1-0.5-0.2c-0.3-0.1-0.7-0.1-1-0.2H30
								c-0.1,0-0.3,0-0.4,0c-0.2,0.1-0.4,0.2-0.5,0.5c-0.2,0.6-0.3,1.2-0.2,1.8c0.1,0.7,0.3,1.4,0.5,2c0.5,1.3,1.2,2.5,2.2,3.4
								c0.5,0.4,1,0.7,1.7,0.8c0.3,0.1,0.6,0.1,0.9,0c0.2,0,0.3,0,0.5-0.1l0,0v-0.1l0,0c-0.1-0.3,0.1-0.5,0.3-0.6c0,0,0,0,0,0
								c0.3-0.1,0.5,0.1,0.6,0.3l0,0c0.5,1.6,1.4,3.1,2.5,4.4c1.1,1.3,2.5,2.3,4,3.2c1.5,0.8,3.1,1.4,4.7,1.9
								c1.7,0.5,3.4,0.8,5.1,0.9l0,0c0.3,0.1,0.4,0.3,0.4,0.6c0,0.3-0.3,0.5-0.5,0.5l-0.9,0c0.2,2.9-0.1,6.6-1.6,9.3
								c-0.8,1-1.9,1.7-3.2,2c0,0.1,0.1,0.2,0.1,0.4s0,0.2,0.1,0.2c0.7,1,1.4,1.9,2.3,2.7c0.2,0.1,0.3,0.1,0.5,0.2
								c0.3,0.1,0.5,0.3,0.5,0.6c1.8,1.4,4,2.2,6.3,2.2h0.1c2.5,0,4.3-0.7,5.5-2.1c0.8-1,1.3-2.3,1.4-3.6c-1.2-0.8-2.1-1.8-2.7-3.1
								c-1-3-1.3-6.3-1-9.4l-2,0.5l0,0c-0.3,0.1-0.5-0.1-0.6-0.4s0.1-0.5,0.4-0.6l0,0l0,0c1.9-0.4,3.7-0.9,5.5-1.6
								c-0.3-0.5-0.4-1.2-0.2-1.7c0.2-0.6,0.8-1.1,1.5-1.2c0.5-0.1,0.7,0.2,1.4,1l0.4,0.5l0.3-0.2c1.3-0.7,2.6-1.7,3.6-2.8
								c1-1.1,1.7-2.5,2.1-4c0.4-1.5,0.6-3,0.7-4.6c0.1-1.6,0-3.1-0.1-4.7c-0.2-3.2-0.7-6.3-1.4-9.4l0,0c0,0,0,0,0-0.1
								c-0.2-0.4-0.3-0.9-0.5-1.3c-0.1-0.1-0.3-0.2-0.3-0.3c-1.2-2.3-2.8-4.4-4.7-6.2c-0.1-0.1-0.2-0.2-0.2-0.4
								C63.3,19.4,62.4,19.4,59.8,20.7"/>
							<path class="st6" d="M72.8,33.1c-0.3-1.6-0.6-3.2-1-4.7c-0.1-0.3-0.4-0.4-0.6-0.4c-0.2,0.1-0.4,0.3-0.4,0.6
								c-0.2-0.4-0.3-0.9-0.5-1.3c0.1,0,0.2,0.1,0.2,0.1c0.1,0,0.2,0,0.3,0c0.3-0.1,0.5-0.5,0.3-0.8c-1.2-2.5-2.9-4.7-5-6.6
								c-0.3-0.2-0.6-0.2-0.9,0c0,0,0,0,0,0c-0.1,0.1-0.2,0.3-0.2,0.5c-1.7-1-2.7-1-5.3,0.3c3.2-2.5,5.3-4.4,5.6-4.7
								c0.3-0.2,0.3-0.6,0.1-0.9c0,0,0,0,0,0c-0.2-0.2-0.6-0.2-0.9,0c-0.2,0.2-21.7,19.2-31,18.7c0-0.2,0-0.5,0-0.8l0,0
								c0.1,0,0.2,0.1,0.3,0.1H34c6.5-1.6,12.3-5.3,16.5-10.5c1.7-2.1,3.1-4.5,3.9-7.1c0.1-0.3-0.1-0.7-0.4-0.8
								c-0.3-0.1-0.7,0.1-0.8,0.4c0,0.1-3.7,12.3-19.6,16.6l0,0c0-0.4,0.1-0.8,0.2-1.1l0,0c0-0.3-0.1-0.5-0.4-0.6
								c-0.3,0-0.5,0.1-0.6,0.4c0,0,0,0.1,0,0.1c0,0.8-0.1,1.6-0.2,2.4s-0.2,1.6-0.2,2.4c0,0.8,0,1.6,0.1,2.5c0,0.2,0.1,0.4,0.1,0.6
								l0,0l-0.3-0.1c-0.2-0.1-0.4-0.1-0.6-0.2C31.4,38.1,31,38,30.6,38H30c-0.2,0-0.5,0-0.7,0.1c-0.5,0.1-0.9,0.5-1.1,0.9
								c-0.2,0.4-0.3,0.8-0.3,1.2c0,0.4,0,0.8,0,1.2c0.1,0.8,0.3,1.5,0.6,2.2c0.3,0.7,0.6,1.4,0.9,2.1c0.4,0.7,0.8,1.3,1.4,1.9
								c0.6,0.6,1.4,1,2.2,1.2c0.4,0.1,0.9,0.1,1.3,0c0.2,0,0.4-0.1,0.6-0.2l0.2-0.1c0.5,1.1,1.1,2.1,1.8,3h-0.1
								c-0.3,0.1-0.5,0.5-0.3,0.8c0,0,0,0,0,0c1,2.2,1.1,4.8,0.3,7.1c-0.3,1-1,1.9-1.9,2.5c-1,0.8-1.8,1.7-2.2,2.9
								c-0.9,2.5-0.4,5.3,1.2,7.5c1.6,2,3.8,3.5,6.2,4.2c0.3,0.1,0.7-0.1,0.8-0.4c0.1-0.3-0.1-0.7-0.4-0.8c-2.2-0.6-4.2-2-5.6-3.8
								c-1.3-1.8-1.7-4.1-1-6.3c0.4-1,1.1-1.8,1.9-2.4c1-0.8,1.8-1.9,2.2-3.1c0.8-2.3,0.8-4.7,0.1-7c1,1.1,2.2,2,3.5,2.8
								c1.6,0.9,3.2,1.6,5,2.1c1,0.3,2,0.5,3.1,0.6c0.2,2.7,0,6.3-1.4,8.8c-0.6,0.6-1.4,1.1-2.3,1.3c-0.1-0.8-0.1-1.5,0-2.3
								c0.5-2.1-0.8-6.1-1-6.5c-0.1-0.3-0.5-0.5-0.8-0.4c-0.3,0.1-0.5,0.5-0.4,0.8c0,0,0,0,0,0c0.4,1.1,1.3,4.4,1,5.9
								c-0.5,2.3,0.4,7.3,3.8,8.4c-0.1,0.1-0.2,0.1-0.2,0.2c-0.4,0.2-0.9,0.4-1.4,0.6l-0.6,0.2l-0.7,0.2c-2.8,0.9-5.2,2.2-8,2.8
								c-0.5,0.1-1.1,0.2-1.6,0.2c-0.4,0-0.8,0-1.2,0c-0.5,0-0.9-0.1-1.3-0.1c0.1-0.1,0.1-0.2,0.1-0.3c0-0.3-0.3-0.6-0.6-0.7
								c-2.9-0.1-5.6-1.6-7.3-3.9c-0.5-0.6-0.8-1.4-1-2.2c-0.3-2.1,1.2-3.7,2.7-5.4c1.4-1.2,2.4-2.8,3-4.5c1-4-0.9-8.1-2.7-11.3
								s-7.3-13.2-6-18.5c0.1-0.3-0.1-0.7-0.5-0.8c-0.3-0.1-0.7,0.1-0.8,0.5c-1.3,5.5,3.9,15.4,6.2,19.4c1.7,2.9,3.5,6.8,2.6,10.3
								c-0.6,1.5-1.5,2.9-2.7,4c-1.7,1.8-3.5,3.7-3,6.5c0.2,1,0.6,1.9,1.2,2.7l0.2,0.3l-1.4,1.1c-0.7-1-1.3-2.1-1.7-3.2
								c-0.9-4.8,1.3-8.4,2.3-12.5c1-3.9-1.9-4.9-3.2-8.7c-1.9-6.4-2.4-13.1-1.5-19.7c0-4.3,0.5-9.9,2.7-14.3s4.5-6.4,8.4-8.7
								c0.5-0.3,2.3-0.7,2.8-1c0.8-0.4,1.5-1.6,2.3-1.9c1.4-0.6,2.8-1.2,4.3-1.6c4.5-1,10.1-0.9,16.8,0.7c5,1.2,12.1,7.6,16.1,15.2
								s1.3,13.6,0.2,15.3C73,34.4,72.9,33.7,72.8,33.1"/>
							<path class="st5" d="M70,26.9c-1.2-2.3-2.8-4.4-4.7-6.2c-0.1-0.1-0.2-0.2-0.2-0.4c0-0.2,0-0.4,0.2-0.5
								c0.2-0.3,0.6-0.3,0.9-0.1c0,0,0,0,0,0c2.1,1.9,3.8,4.1,5,6.6c0.1,0.3,0,0.7-0.3,0.8c-0.1,0-0.2,0.1-0.2,0c-0.1,0-0.2,0-0.2,0
								C70.1,27.2,70,27.1,70,26.9"/>
							<path class="st7" d="M44.4,44.3c2.3,0.3,4,2.3,3.7,4.7c-0.1,0.6-0.2,1.1-0.5,1.6c-0.3,0.6-0.6,1.1-1,1.6
								c-0.5,0.4-0.9,0.3-1.4,0.4c-0.6,0.2-1.1,0.3-1.7,0.4c-1.2,0-2.3-0.5-3.1-1.4c-0.6-1-0.9-2.1-0.8-3.3c0.1-2.3,2.1-4.1,4.4-4
								C44.1,44.3,44.2,44.3,44.4,44.3"/>
							<path class="st7" d="M66,41.1c2.3,0.3,4,2.3,3.7,4.7c-0.1,0.6-0.2,1.1-0.5,1.6c-0.3,0.6-0.6,1.1-1,1.6
								c-0.5,0.4-0.9,0.4-1.4,0.4c-0.6,0.2-1.1,0.3-1.7,0.4c-1.2,0-2.3-0.5-3.1-1.4c-0.6-1-0.9-2.1-0.8-3.3c0.1-2.3,2.1-4.1,4.4-4
								C65.7,41.1,65.8,41.1,66,41.1"/>
							<path class="st5" d="M43.7,38.1c1.8,0.3,2.4,3.6,0.8,4.2C41.4,43.6,41.6,37.5,43.7,38.1"/>
							<path class="st5" d="M62.8,39.6c-3,1.5-3.2-4.7-1.1-4.2C63.4,35.6,64.4,38.8,62.8,39.6"/>
							<path class="st5" d="M52.8,39.3c-0.1-0.3,0-0.6,0.2-0.8c0.3-0.1,0.6,0,0.8,0.2c0,0,0.7,1.3,1.8,1.2c0.3,0,0.6,0.2,0.6,0.5
								c0,0.1,0,0.3-0.1,0.4l-1.2,1.6c-0.1,0.1-0.3,0.2-0.4,0.2c-0.1,0-0.2,0-0.3-0.1c-0.2-0.2-0.3-0.5-0.1-0.8l0.6-0.9
								C53.9,40.6,53.2,40,52.8,39.3"/>
							<path class="st5" d="M53.6,53.2c-0.2-0.1-0.3-0.3-0.2-0.5c0,0,0,0,0,0c0.1-0.2,0.3-0.3,0.5-0.2c0.7,0.4,1.6,0.2,2.2-0.3
								c0.1-0.2,0.4-0.2,0.5-0.1c0.2,0.1,0.2,0.4,0.1,0.5c-0.5,0.5-1.1,0.8-1.8,0.8C54.4,53.4,54,53.4,53.6,53.2"/>
							<path class="st5" d="M58,46.2c0.1-0.3,0.4-0.6,0.7-0.5c0.3,0.1,0.6,0.4,0.5,0.7c0,0,0,0,0,0c-0.4,2.3-2.3,4.1-4.7,4.2h-0.4
								c-2.2,0-4.1-1.2-5-3.2c-0.1-0.4,0.1-0.7,0.4-0.8c0.4-0.1,0.7,0.1,0.8,0.4c0.7,1.6,2.3,2.6,4.1,2.4C56.2,49.3,57.7,48,58,46.2
								"/>
							<path class="st4" d="M48.2,74.4c2.1,1.9,4.9,2.9,7.7,2.8c2.2,0.1,4.4-0.7,6.1-2.1l-6.5,30.3L46.8,75
								C47.3,74.9,47.8,74.7,48.2,74.4"/>
							<path class="st5" d="M16.2,132.5c0.1,0.2,0.3,0.3,0.5,0.3c0.1,0,0.2,0,0.3-0.1l1.3-0.8l1.1,1.3c0.2,0.3,0.6,0.3,0.8,0.1
								l2.6-1.7l2.7,3.6c-0.3,1.2-0.5,2.5-0.6,3.7c-1.1,1.1-2.3,2.6-2.3,3.4c0.2,1.2,0.5,2.3,1,3.4c0.1,0.1,0.2,0.2,0.3,0.3
								c0.9,0.5,2,0.9,3,1.1l-0.6,3.4c0,0.1,0,0.1,0,0.2c0.1,0.7,0.5,1.2,1,1.5c1,0.5,2.1,0.7,3.2,0.6c7.3,0,22.2-5.3,25.3-6.4
								c2.9,2.2,7.2,3.5,12.8,3.9c2.6,0.2,5.1,0.2,7.7-0.1c0.2,0,0.3-0.1,0.4-0.3c0.1-0.1,0.2-0.3,0.1-0.5L72,122.9l1.9-11.8
								c1.2,3.2,3.3,6.9,6.3,8.8c1.2,0.8,2.7,1.2,4.1,1.2c1,0,1.9-0.2,2.9-0.5c2.2-0.7,3.9-2.4,4.7-4.5c1.9-4.5,1.1-12-2.3-22.2
								c-1.6-4.8-3.5-9.5-5.7-14c-0.1-0.3-0.5-0.4-0.8-0.3l-1.5,0.4l-0.9-2.6c-0.1-0.3-0.5-0.5-0.8-0.4l-1.2,0.3
								c-0.6-1.4-1.4-2.6-2.4-3.7c0.5-4.2,0.7-8.4,0.1-9.6l-0.8-2.1c-0.3-1.1-0.4-2.3-0.4-3.4c0.1-0.3,0.2-0.5,0.3-0.8
								c0.3-0.9,0.7-1.9,0.2-2.6c-0.3-0.4-0.8-0.6-1.2-0.5c-0.2,0-0.4,0.1-0.7,0.2c-0.6,0.3-1.1,0.8-1.5,1.4c-0.7,0.9-1.2,2-1.5,3.2
								c-0.6-0.4-1.2-0.7-1.7-1.2c0.3-2.1-0.5-3.2-1.3-3.6c-0.3-0.2-0.7-0.1-0.9,0.2c-0.2,0.3-0.1,0.7,0.2,0.8
								c0.5,0.3,0.8,0.9,0.8,1.6c-0.7-0.6-1.4-1.3-2-2l0.2-0.1c1.5-0.8,2.8-1.8,4-3c0.6-0.6,1.1-1.3,1.5-2c0.2-0.4,0.5-0.9,0.6-1.4
								c0.1-0.3,0.2-0.6,0.3-0.9c0.4-1.2,0.6-2.5,0.7-3.7c0.2-0.1,0.3-0.2,0.4-0.3c0.4-0.4,0.7-0.8,1-1.3l0.2-0.4l0.2-0.4
								c0.1-0.2,0.2-0.5,0.3-0.7c0.1-0.2,0.1-0.5,0.2-0.7c0.1-0.2,0.1-0.5,0.2-0.8c0.1-0.5,0.1-1.1,0.1-1.6
								c-0.1-0.7-0.4-1.3-0.9-1.7c-0.2-0.2-0.5-0.4-0.8-0.5c-0.3-0.1-0.6-0.2-0.8-0.2h-0.3c0,0,0-0.1,0-0.1c-0.1-0.7-0.2-1.3-0.3-2
								c-0.3-1.6-0.6-3.2-1-4.7c-0.1-0.3-0.4-0.4-0.6-0.4c-0.2,0.1-0.4,0.3-0.4,0.6c0,0,0,0,0,0.1l0,0c0.7,3.1,1.1,6.2,1.3,9.4
								c0.1,1.6,0.1,3.1,0.1,4.7c-0.1,1.6-0.3,3.1-0.7,4.6c-0.4,1.5-1.1,2.9-2.1,4c-1,1.1-2.3,2.1-3.6,2.8l-0.3,0.2L65,53.8
								c-0.7-0.9-0.9-1.1-1.4-1c-0.7,0.1-1.3,0.5-1.5,1.2c-0.1,0.6,0,1.2,0.3,1.7c-1.8,0.7-3.6,1.2-5.5,1.6l0,0
								c-0.3,0.1-0.5,0.3-0.4,0.6s0.3,0.5,0.6,0.4l0,0l2-0.5c-0.3,3.2,0,6.4,1,9.4c0.6,1.3,1.6,2.4,2.7,3.1
								c-0.1,1.3-0.6,2.6-1.4,3.6c-1.2,1.4-3,2.1-5.5,2.1h-0.1c-2.3,0-4.5-0.8-6.3-2.2c0-0.3-0.2-0.6-0.5-0.6
								c-0.2,0-0.3-0.1-0.5-0.2c-0.8-0.8-1.6-1.7-2.3-2.7c0-0.1-0.1-0.2-0.1-0.2l-0.1-0.4c1.2-0.3,2.4-1,3.2-2
								c1.6-2.7,1.8-6.4,1.6-9.3l0.9,0c0.3,0,0.5-0.2,0.5-0.5c0-0.3-0.2-0.5-0.5-0.5l0,0c-1.7-0.2-3.4-0.5-5.1-0.9
								c-1.7-0.4-3.2-1.1-4.8-1.9c-1.5-0.8-2.9-1.9-4-3.2c-1.1-1.3-2-2.8-2.5-4.4l0,0c-0.1-0.3-0.4-0.4-0.6-0.3
								c-0.3,0.1-0.4,0.4-0.3,0.6c0,0,0,0,0,0l0,0c0,0,0,0.1,0,0.1l0,0c-0.2,0-0.3,0.1-0.5,0.1c-0.3,0-0.6,0-0.9,0
								c-0.6-0.1-1.2-0.4-1.7-0.8c-1-1-1.8-2.1-2.2-3.4c-0.3-0.6-0.4-1.3-0.5-2c-0.1-0.6-0.1-1.3,0.2-1.8c0.1-0.2,0.3-0.4,0.5-0.5
								c0.1,0,0.3,0,0.4,0h0.5c0.3,0,0.7,0.1,1,0.2c0.2,0,0.3,0.1,0.5,0.2l0.2,0.1l0.1,0l0,0l0,0c0.2,0.2,0.5,0.2,0.7,0c0,0,0,0,0,0
								c0.1,0.1,0.1,0.2,0.2,0.3c0.1,0.1,0.2,0.2,0.3,0.3c0,0.1,0.1,0.1,0.2,0.2l0.1,0.1c0.1,0,0.1,0.1,0.2,0.1
								c0.3,0.1,0.6,0,0.7-0.2c0.1-0.3,0-0.6-0.2-0.7l0,0l0,0v-0.1c0,0-0.1-0.1-0.1-0.2l-0.1-0.2L34,38.7c-0.1-0.3-0.2-0.7-0.2-1.1
								c-0.1-0.4-0.1-0.7-0.2-1.1s-0.1-0.8-0.1-1.1v-0.3h0.3c6.9,0,18.9-8.7,25.9-14.4c3.2-2.5,5.3-4.5,5.6-4.7
								c0.3-0.2,0.3-0.6,0.1-0.9c-0.2-0.3-0.6-0.3-0.9-0.1c-0.2,0.2-21.7,19.2-31,18.7c0-0.3,0-0.5,0-0.8l0,0c0.1,0,0.2,0.1,0.3,0.1
								H34c6.5-1.6,12.3-5.3,16.5-10.4c1.7-2.1,3.1-4.5,3.9-7.1c0.1-0.3-0.1-0.7-0.4-0.8c-0.3-0.1-0.7,0.1-0.8,0.4l0,0
								c0,0.1-3.7,12.3-19.6,16.6l0,0c0-0.4,0.1-0.8,0.2-1.1l0,0c0-0.3-0.2-0.5-0.5-0.6c-0.2,0-0.5,0.1-0.5,0.4c0,0,0,0.1,0,0.1
								c0,0.8-0.1,1.6-0.2,2.4s-0.2,1.6-0.2,2.4c0,0.8,0,1.6,0.1,2.5c0,0.2,0.1,0.4,0.1,0.6l0,0l-0.3-0.1c-0.2-0.1-0.4-0.1-0.6-0.2
								C31.4,38.1,31,38,30.6,38H30c-0.2,0-0.5,0-0.7,0.1c-0.5,0.1-0.9,0.5-1.1,0.9c-0.2,0.4-0.3,0.8-0.3,1.2c0,0.4,0,0.8,0,1.2
								c0.1,0.8,0.3,1.5,0.6,2.2c0.3,0.7,0.6,1.4,0.9,2.1c0.4,0.7,0.8,1.3,1.4,1.9c0.6,0.6,1.4,1,2.2,1.2c0.4,0.1,0.9,0.1,1.3,0
								c0.2,0,0.4-0.1,0.6-0.2l0.2-0.1c0.5,1.1,1.1,2.1,1.8,3h-0.1c-0.3,0.1-0.5,0.5-0.3,0.8c0,0,0,0,0,0c1,2.2,1.1,4.8,0.3,7.1
								c-0.3,1-1,1.9-1.9,2.5c-1,0.8-1.8,1.7-2.2,2.9c-0.9,2.5-0.4,5.3,1.2,7.5c1.6,2,3.8,3.5,6.2,4.2c0.3,0.1,0.7-0.1,0.8-0.4
								c0.1-0.3-0.1-0.7-0.4-0.8c-2.2-0.6-4.2-2-5.6-3.8c-1.3-1.8-1.7-4.1-1-6.3c0.4-1,1.1-1.8,1.9-2.4c1-0.8,1.8-1.9,2.2-3.1
								c0.8-2.3,0.8-4.7,0-7c1,1.1,2.2,2,3.5,2.8c1.6,0.9,3.2,1.6,5,2.1c1,0.3,2,0.5,3.1,0.6c0.2,2.7,0,6.3-1.4,8.8
								c-0.6,0.6-1.4,1.1-2.3,1.3c-0.1-0.8-0.1-1.5,0-2.3c0.5-2.1-0.8-6.1-1-6.5c-0.1-0.3-0.5-0.5-0.8-0.4c-0.3,0.1-0.5,0.5-0.4,0.8
								c0,0,0,0,0,0c0.4,1.1,1.3,4.4,1,5.9c-0.5,2.3,0.4,7.3,3.8,8.4c-0.1,0.1-0.2,0.1-0.2,0.2c2.1,1.9,4.9,2.9,7.7,2.8
								c2.2,0.1,4.4-0.7,6.1-2.1l-6.5,30.3L46.8,75l-0.6,0.2l-0.7,0.2l9.4,33l0,0l0,0c0,0,0,0.1,0,0.1l0,0c0.1,0.2,0.3,0.3,0.5,0.3
								h0.2l0,0l0,0l0,0l0,0l0,0l0,0l0,0l0,0l0,0l0,0l0,0l0,0l0,0l0,0l0,0l0,0l0,0l0,0l8-37.2c0.3,0.2,0.5,0.4,0.8,0.5l1.9,2.6
								c0.4,1,1.1,1.9,1.9,2.6l-3.2,4.1c-0.2,0.2-0.2,0.6,0,0.8l3.6,4.7l0,0l-12.2,21c-0.2,0.3-0.1,0.7,0.2,0.9c0,0,0,0,0,0
								c0.1,0.1,0.2,0.1,0.3,0.1c0.2,0,0.4-0.1,0.6-0.3l11.4-19.6l3.2,16.7c0,0.1,0.3,1.3,0.7,2.9l-2.3,14.3c0,0.1,0,0.2,0,0.2
								l5,26.2c-2.8,0.2-13.4,0.6-19.1-3.9c-0.2-0.1-0.4-0.2-0.6-0.1c-6.5,2.4-24.1,8.2-27.7,6.1c-0.2-0.1-0.4-0.3-0.4-0.5l4.8-29.1
								c0-0.1,0-0.1,0-0.2l-2.8-29.4c0-0.4-0.4-0.6-0.7-0.6c-0.4,0-0.6,0.4-0.6,0.7l0.2,1.8l-12.8,11.2h-1.1c-0.4,0-0.7,0.3-0.7,0.7
								s0.3,0.7,0.7,0.7h1L28,124.6l-11,6.7c-2.5-3.3-16.6-23.1-15.6-30.1c0.9-6.3,18.1-20.7,24.4-25.8c1.9,1.9,4.5,3,7.2,3.2l0,0
								c0.2,0,0.4-0.1,0.5-0.3c0.1-0.1,0.1-0.2,0.1-0.3c0-0.3-0.3-0.6-0.6-0.7c-2.9-0.1-5.6-1.6-7.3-3.9c-0.5-0.6-0.8-1.4-1-2.2
								c-0.3-2.2,1.1-3.8,2.7-5.4c1.4-1.2,2.4-2.8,3-4.5c1-4-0.9-8.1-2.7-11.3s-7.3-13.2-6-18.5c0.1-0.3-0.1-0.7-0.5-0.8
								c-0.3-0.1-0.7,0.1-0.8,0.5c-1.3,5.5,3.9,15.4,6.2,19.4c1.7,2.9,3.5,6.8,2.6,10.3c-0.6,1.5-1.5,2.9-2.7,4
								c-1.7,1.8-3.5,3.7-3,6.5c0.2,1,0.6,1.9,1.2,2.7l0.2,0.3l-1.4,1.1C16.3,81.5,1,94.6,0.1,101C-1.1,109.2,15.5,131.6,16.2,132.5
								 M24.1,130.9l3-2c0.7,1.3,1.1,2.2,1.1,2.2c0,0.1,0.1,0.2,0.2,0.2l1.2,1L27.3,146c-0.8-0.2-1.6-0.5-2.3-0.9
								c-0.4-0.9-0.7-1.8-0.8-2.8c0.3-0.6,0.6-1.1,1-1.5c0.1,1,0.5,1.8,1.3,2.4c0.1,0.1,0.2,0.1,0.3,0.1c0.2,0,0.5-0.1,0.6-0.4
								c0.2-0.3,0.1-0.7-0.2-0.9c-0.6-0.4-0.8-1.5-0.8-2.8c0-0.1,0-0.1,0-0.2V139c0.1-1.2,0.3-2.4,0.6-3.6v-0.1v-0.1
								c0,0,0-0.1,0-0.1l0,0c0,0,0-0.1,0-0.1c0,0,0,0,0-0.1v-0.1v-0.1l0-0.1l0,0L24.1,130.9 M17,106l11.9-10.5l2.4,26l-1.5,9.3
								l-0.5-0.4c-0.1-0.3-0.5-1.1-1.1-2.2l0.8-0.5c0.2-0.1,0.3-0.3,0.3-0.4c0-0.2,0-0.4-0.1-0.5l-0.7-1l0.7-0.4
								c0.1-0.1,0.3-0.2,0.3-0.4c0-0.2,0-0.4-0.1-0.5L17,106z M20.2,131.9l-0.6-0.7l7.8-4.8l0.4,0.5L20.2,131.9z M73.5,105.3
								L73.5,105.3l-3.9-20.7L83,80.9c1.7,3.5,11.7,25.3,7.8,34.6c-0.7,1.8-2.2,3.2-4,3.7c-2,0.7-4.1,0.5-5.9-0.6
								C75.5,115.5,73.5,105.4,73.5,105.3 M79.8,78.3l0.7,1.9L71,82.9l-0.5-2L79.8,78.3z M74.8,55.9c-0.1,0.5-0.2,0.9-0.4,1.3
								c-0.1,0.3-0.2,0.6-0.3,0.9c-0.1,1.3,0.1,2.5,0.3,3.8l0,0c0,0.1,0,0.2,0,0.3l0.9,2.3c0,0.1,0.1,0.1,0.1,0.2
								c0.4,0.8,0,6.7-0.7,11.6c0,0.1,0,0.2,0,0.2l0.4,1.7l-3.2,0.9l-0.3-1.3c-0.1-0.3-0.3-0.5-0.6-0.5c-0.7,0-1.4-0.4-1.9-0.9
								c-0.6-0.7-1.4-2-1.2-4.5c0.2-3.3,0-3.5-0.3-3.7c-0.3-0.2-0.7-0.1-0.9,0.2c0,0.1-0.1,0.1-0.1,0.2l-0.2-0.1
								c-0.3-0.2-0.7,0-0.9,0.3c-0.2,0.3,0,0.7,0.3,0.9l0.8,0.4c0,0.2,0,0.4,0,0.6c-1.1,0-2.1-0.6-2.6-1.6c-0.3-0.5-0.3-1.2-0.1-1.7
								c0.1-0.1,0.1-0.1,0.1-0.2c0.9-0.1,1.7-0.1,2.6,0c0.4,0,0.7-0.2,0.7-0.6c0,0,0,0,0,0c0-0.4-0.2-0.7-0.6-0.7c0,0,0,0,0,0
								c-0.9-0.1-1.8-0.1-2.7,0c0-0.2,0-0.4,0.1-0.6c0.2-0.2,0.4-0.4,0.6-0.6c1,0,2.1,0.1,3.1,0.2h0.1c0.4,0,0.7-0.3,0.7-0.6
								c0-0.4-0.3-0.7-0.6-0.7l0,0c-0.2,0-1.5-0.2-2.6-0.2c0.2-0.4,0.6-0.6,1-0.8c0.9,0,1.8,0.1,2.7,0.3l1.1,0.3c0.1,0,0.1,0,0.2,0
								c0.4-0.1,0.6-0.4,0.5-0.7c0-0.2-0.2-0.4-0.3-0.5l-1-0.3c-0.8-0.4-1.5-0.9-2.2-1.5c-3.1-3-4.5-5.2-4.2-5.9
								c0-0.1,0.1-0.1,0.2-0.2c0.1,0.1,0.3,0.3,0.4,0.5c1.4,1.7,4.3,5.2,8.5,6.5c0.3,0.1,0.7-0.1,0.8-0.4c0.1-0.3-0.1-0.7-0.4-0.8
								c-0.2-0.1-0.4-0.2-0.7-0.2c0.2-1.1,0.6-2.1,1.3-3C74.1,56.1,74.5,55.9,74.8,55.9L74.8,55.9 M60.4,57.3l1.3-0.4
								c0.4-0.1,0.7-0.2,1.1-0.4c1.1,1.7,2.4,3.3,3.9,4.7l0.2,0.2c-0.1,0-0.3,0-0.4,0c-0.8,0.2-1.5,0.7-1.9,1.5
								c-0.2,0.3-0.2,0.5-0.2,0.8c-0.4,0.3-0.7,0.6-1,0.9c-0.3,0.7-0.4,1.5-0.3,2.3c-0.2,0.5-0.3,1.1-0.3,1.6
								c-0.5-0.5-1-1.1-1.3-1.8C60.4,63.7,60,60.5,60.4,57.3 M76.3,75.3c0.5,0.7,1,1.5,1.3,2.3l-1,0.3l-0.4-1.6L76.3,75.3
								 M66.5,81.7l2.9-3.7c0.4,0.3,0.9,0.4,1.4,0.5l0.2,0.9l-1.4,0.4c-0.3,0.1-0.5,0.4-0.4,0.8l0.7,2.6l-1.1,0.3
								c-0.2,0.1-0.4,0.3-0.5,0.5L66.5,81.7z M74.2,40.5c-0.2,0.6-0.4,1.2-0.8,1.7c0.1-1.4,0-2.9-0.1-4.3c0-0.5-0.1-1-0.1-1.5
								c0.3,0,0.7,0.2,0.9,0.4c0.2,0.3,0.4,0.6,0.4,1c0,0.4,0,0.9-0.1,1.3c0,0.2,0,0.5-0.1,0.7C74.4,40.1,74.3,40.3,74.2,40.5"/>
							<path class="st2" d="M76.6,77.9l-0.4-1.6l0.1-1c0.5,0.7,1,1.5,1.3,2.3L76.6,77.9z"/>
							<path class="st8" d="M34.9,78.4c-0.5,0-0.9-0.1-1.3-0.1c-0.1,0.2-0.3,0.3-0.5,0.3l0,0c-2.7-0.1-5.3-1.3-7.2-3.2
								c-6.3,5.1-23.5,19.5-24.4,25.8c-1,7,13.1,26.8,15.6,30.1l11-6.7l-12.2-18.1h-1c-0.4,0-0.7-0.3-0.7-0.7s0.3-0.7,0.7-0.7h1.1
								L28.7,94l-0.2-1.8c0-0.4,0.2-0.7,0.6-0.7c0.4,0,0.7,0.2,0.7,0.6l2.8,29.4c0,0.1,0,0.1,0,0.2l-4.8,29.1
								c0.1,0.2,0.2,0.4,0.4,0.5c3.5,2.1,21.2-3.7,27.7-6.1c0.2-0.1,0.5,0,0.6,0.1c5.7,4.5,16.3,4.1,19.1,3.9l-5-26.2
								c0-0.1,0-0.2,0-0.2l2.3-14.3c-0.5-1.6-0.7-2.8-0.7-2.9l-3.2-16.7l-11.4,19.6c-0.1,0.2-0.3,0.3-0.6,0.3c-0.1,0-0.2,0-0.3-0.1
								c-0.3-0.2-0.4-0.6-0.2-0.9c0,0,0,0,0,0l12.1-20.9l0,0l-3.6-4.7c-0.2-0.2-0.2-0.6,0-0.8l3.2-4.1c-0.8-0.9-1.2-1.9-1.4-3.1
								l-1.9-2.6c-0.3-0.1-0.6-0.3-0.8-0.5l-8,37.2l0,0l0,0l0,0l0,0l0,0l0,0l0,0l0,0l0,0l0,0l0,0l0,0l0,0l0,0l0,0l0,0l0,0l0,0H56
								c-0.2,0-0.4-0.1-0.5-0.3l0,0c0,0,0-0.1-0.1-0.1l0,0l0,0l-9.4-33c-2.8,0.9-5.2,2.2-8,2.8l4.2,3.7c0.1,0.1,0.2,0.3,0.2,0.5
								c0,0.2-0.1,0.3-0.2,0.5l-3.2,3.3l15,22c0.4,0.2,0.5,0.7,0.3,1c-0.2,0.4-0.7,0.5-1,0.3c-0.1,0.1-0.2,0.1-0.4,0.1
								c-0.2,0-0.4-0.1-0.5-0.3L37.3,86.4c-0.2-0.3-0.1-0.6,0.1-0.8l3-3.2l-4.2-3.8c-0.1-0.1-0.1-0.2-0.2-0.3
								C35.6,78.4,35.2,78.4,34.9,78.4 M58.9,120c0,0.8-0.3,1.5-0.8,2.1c-0.5,0.6-1.3,0.9-2.1,0.9l0,0c-1.6-0.3-2.7-1.8-2.5-3.4
								c0.2-1.3,1.2-2.3,2.5-2.5l0,0C57.6,117.1,59,118.4,58.9,120 M52.4,132.5c0-0.8,0.3-1.5,0.8-2.1c0.5-0.6,1.3-0.9,2.1-0.9l0,0
								c1.6,0.3,2.7,1.8,2.5,3.4c-0.2,1.3-1.2,2.3-2.5,2.5l0,0C53.7,135.5,52.4,134.2,52.4,132.5"/>
							<path class="st2" d="M70.7,78.6l0.2,0.9l-1.4,0.4c-0.3,0.1-0.5,0.4-0.4,0.8l0.7,2.6l-1.1,0.3c-0.2,0.1-0.4,0.3-0.5,0.5
								l-1.8-2.3l2.9-3.7C69.8,78.3,70.3,78.5,70.7,78.6"/>
							<path class="st5" d="M41.8,81.9c0.1,0.1,0.2,0.3,0.2,0.5c0,0.2-0.1,0.3-0.2,0.5l-3.2,3.3l15,22c0.2,0.3,0.1,0.7-0.2,0.9
								c0,0,0,0,0,0c-0.1,0.1-0.2,0.1-0.4,0.1c-0.2,0-0.4-0.1-0.5-0.3L37.3,86.4c-0.2-0.3-0.1-0.6,0.1-0.8l3-3.2l-4.2-3.8
								c-0.1-0.1-0.1-0.2-0.2-0.3c0.5,0,1.1-0.1,1.6-0.2L41.8,81.9z"/>
							<path class="st2" d="M74.2,58.1c-0.1,1.3,0.1,2.5,0.3,3.8l0,0c0,0.1,0,0.2,0,0.3l0.9,2.3c0,0.1,0.1,0.1,0.1,0.2
								c0.4,0.8,0,6.7-0.7,11.6c0,0.1,0,0.2,0,0.2l0.4,1.7l-3.2,0.9l-0.3-1.3c-0.1-0.3-0.3-0.5-0.6-0.5c-0.7,0-1.4-0.4-1.9-0.9
								c-0.6-0.7-1.4-2-1.2-4.5c0.2-3.3,0-3.5-0.3-3.7c-0.3-0.2-0.7-0.1-0.9,0.2c0,0.1-0.1,0.1-0.1,0.2l-0.2-0.1
								c-0.3-0.2-0.7,0-0.9,0.3c0,0,0,0,0,0c-0.2,0.3,0,0.7,0.3,0.9c0,0,0,0,0,0l0.8,0.4c0,0.2,0,0.4,0,0.6c-1.1,0-2.1-0.6-2.6-1.6
								c-0.3-0.5-0.3-1.2-0.1-1.7c0.1-0.1,0.1-0.1,0.1-0.2c0.9-0.1,1.7-0.1,2.6,0c0.4,0,0.7-0.2,0.7-0.6c0,0,0,0,0,0
								c0-0.4-0.2-0.7-0.6-0.7c0,0,0,0,0,0c-0.9-0.1-1.8-0.1-2.7,0c0-0.2,0-0.4,0.1-0.6c0.2-0.2,0.4-0.4,0.6-0.6
								c1,0,2.1,0.1,3.1,0.2h0.1c0.4,0,0.7-0.3,0.7-0.6c0-0.4-0.3-0.7-0.6-0.7c-0.2,0-1.5-0.2-2.6-0.2c0.2-0.4,0.6-0.6,1-0.8
								c0.9,0,1.8,0.1,2.7,0.3l1.1,0.3c0.1,0,0.1,0,0.2,0c0.4-0.1,0.6-0.4,0.5-0.7c0-0.2-0.2-0.4-0.3-0.5l-1-0.3
								c-0.8-0.4-1.5-0.9-2.2-1.5c-3.1-3-4.5-5.2-4.2-5.9c0-0.1,0.1-0.1,0.2-0.2l0.4,0.5c1.4,1.7,4.3,5.2,8.5,6.5
								c0.3,0.1,0.7-0.1,0.8-0.4c0.1-0.3-0.1-0.7-0.4-0.8c-0.2-0.1-0.4-0.2-0.7-0.2c0.2-1.1,0.6-2.1,1.3-3c0.5-0.6,0.9-0.9,1.2-0.9
								h0.1c-0.1,0.5-0.2,0.9-0.4,1.3C74.4,57.5,74.3,57.8,74.2,58.1"/>
							<polygon class="st4" points="71,82.9 70.5,80.9 79.8,78.3 80.5,80.3 							"/>
							<path class="st8" d="M73.5,105.3L73.5,105.3l-3.9-20.7L83,80.9c1.7,3.5,11.7,25.3,7.8,34.6c-0.7,1.8-2.2,3.2-4,3.7
								c-2,0.7-4.1,0.5-5.9-0.6C75.5,115.5,73.5,105.4,73.5,105.3"/>
						</g>
					</g>
				</g>
			</g>
		</g>
	</g>
</g>
</svg>
