<svg xmlns="http://www.w3.org/2000/svg" viewBox="0 0 68.14 85.01"><defs><style>.cls-1{isolation:isolate;}.cls-2,.cls-20{fill:#0080a9;}.cls-3{fill:#fff247;}.cls-4{fill:#e5e5e6;}.cls-5,.cls-7{fill:#26466d;}.cls-11,.cls-18,.cls-6{fill:#fff;}.cls-11,.cls-12,.cls-16,.cls-17,.cls-18,.cls-19,.cls-20,.cls-22,.cls-23,.cls-24,.cls-7,.cls-8,.cls-9{stroke:#26466d;}.cls-10,.cls-11,.cls-12,.cls-15,.cls-16,.cls-17,.cls-18,.cls-19,.cls-21,.cls-22,.cls-23,.cls-24,.cls-7,.cls-8,.cls-9{stroke-linecap:round;stroke-linejoin:round;}.cls-7{stroke-width:0.17px;}.cls-10,.cls-12,.cls-15,.cls-16,.cls-17,.cls-19,.cls-22,.cls-23,.cls-8,.cls-9{fill:none;}.cls-15,.cls-8{stroke-width:0.7px;}.cls-10,.cls-11,.cls-20,.cls-9{stroke-width:0.69px;}.cls-10,.cls-15,.cls-21{stroke:#0080a9;}.cls-12{stroke-width:0.56px;}.cls-13{fill:#b6bbc0;}.cls-14{fill:#fff9b4;mix-blend-mode:multiply;}.cls-16{stroke-width:0.73px;}.cls-17{stroke-width:0.52px;}.cls-18,.cls-19{stroke-width:0.7px;}.cls-20{stroke-miterlimit:10;}.cls-21,.cls-24{fill:#ebf6fc;}.cls-21,.cls-22{stroke-width:0.76px;}.cls-23,.cls-24{stroke-width:0.71px;}</style></defs><g class="cls-1"><g id="レイヤー_2" data-name="レイヤー 2"><g id="レイヤー_1-2" data-name="レイヤー 1"><path class="cls-2" d="M31.28,40.43s8-2.61,10.35,7.37.78,17,.78,17Z"/><path class="cls-3" d="M46,25.68s-.67-6.3,1.9-7.19,6,.88,4.67,3.7A11.84,11.84,0,0,1,49,26.52Z"/><path class="cls-4" d="M48.69,26a6.23,6.23,0,0,0-.62-.15h0l-.54-.12-.3-.07-.16,0H47a.11.11,0,0,1-.08,0,.41.41,0,0,0-.52,0,.53.53,0,0,0-.13.27c0,.11-.07.22-.1.33-.12.4-.21.82-.3,1.23,0,.23-.08.46-.11.69a4.28,4.28,0,0,0,0,.62,1.5,1.5,0,0,0,.37,1.08,1.26,1.26,0,0,0,1.18.23,1.44,1.44,0,0,0,.55-.28,2.05,2.05,0,0,0,.37-.41,7.69,7.69,0,0,0,.66-1.05,6.28,6.28,0,0,0,.27-.59,3.84,3.84,0,0,0,.2-.6,1,1,0,0,0,0-.59,1,1,0,0,0-.35-.42L48.69,26Zm-.6.74.06,0-.06,0Z"/><path class="cls-5" d="M50,21a.76.76,0,0,0-.26,0l-.07,0h0s0,0,0,0a1.05,1.05,0,0,1-.07-.11.5.5,0,0,0-.48-.13,1.25,1.25,0,0,0-.47.28,2.85,2.85,0,0,0-.41.44,6.74,6.74,0,0,0-1.06,2.21,5,5,0,0,0-.25,1.21,1.2,1.2,0,0,0,.08.56c.06.16.18.32.37.26a.28.28,0,0,0,.17-.35l-.06-.12a.32.32,0,0,1,0-.14,1.51,1.51,0,0,1,0-.3,6.42,6.42,0,0,1,.31-1.22,8.27,8.27,0,0,1,.49-1.15,3.57,3.57,0,0,1,.71-1,1,1,0,0,1,.23-.18l-.14.12-.14.14a2,2,0,0,0-.25.35,3.23,3.23,0,0,0-.32.85,1.52,1.52,0,0,0,0,.82.44.44,0,0,0,.25.27.46.46,0,0,0,.38,0,1.13,1.13,0,0,0,.42-.69,8.33,8.33,0,0,0,.22-.86c0-.15.06-.29.08-.44l0-.2s0,0,.06-.06l.1-.05a.33.33,0,0,1,.17,0c.05,0,.09.09.12.14a.85.85,0,0,1,.07.39,3.83,3.83,0,0,1-.17.87c-.09.28-.19.56-.29.84A11.2,11.2,0,0,1,49,25.43a2.82,2.82,0,0,0-.21.38c0,.11-.13.21-.08.33a.25.25,0,0,0,.29.16c.13,0,.18-.15.25-.24s.14-.25.21-.37a3.84,3.84,0,0,0,.21-.4,8.84,8.84,0,0,0,.38-.83c.11-.28.21-.57.31-.86a6.68,6.68,0,0,0,.26-.87,1.59,1.59,0,0,0-.22-1.55A.68.68,0,0,0,50,21Zm-.89.21,0,0,0,0ZM49,22.33l0,.14,0-.07a5.36,5.36,0,0,1-.23.78,2.53,2.53,0,0,1,.25-.85Zm-.22.65v0Zm0,.47Z"/><path class="cls-5" d="M48.8,26.15q-.73-.24-1.47-.42L47,25.66a.65.65,0,0,0-.31,0,.27.27,0,0,0-.11.42.46.46,0,0,0,.25.1,2.29,2.29,0,0,1,.36.07c.25.06.49.14.74.21l.72.21.35.11c.11,0,.21.09.32.11a.25.25,0,0,0,.23-.42.81.81,0,0,0-.34-.15l-.37-.14Z"/><path class="cls-5" d="M46.5,25.8a.26.26,0,0,0-.27.2c0,.15,0,.3-.08.45s-.17.58-.24.87-.14.6-.2.9a6.89,6.89,0,0,0-.15.89.77.77,0,0,0,.23.72,3.85,3.85,0,0,1,.34.26c.11.09.22.2.34.28a.26.26,0,0,0,.41-.26c0-.12-.14-.17-.23-.25l-.35-.29c-.06-.05-.14-.09-.19-.14s0-.11,0-.17a2.84,2.84,0,0,1,.06-.5c0-.16.07-.33.1-.5s.07-.35.11-.48q.12-.54.27-1.08c0-.17.08-.35.11-.53a.36.36,0,0,0,0-.23.26.26,0,0,0-.21-.14Zm-.65,1.76v0Z"/><path class="cls-5" d="M49.24,26.41c-.14.06-.18.24-.23.36s-.14.31-.2.46c-.12.32-.26.63-.4.93a7.63,7.63,0,0,1-.48.89c-.17.27-.37.53-.57.79l-.12.17a.25.25,0,0,0-.05.19.25.25,0,0,0,.29.2c.13,0,.21-.15.29-.24s.19-.25.29-.38a9.81,9.81,0,0,0,1-1.73c.15-.35.28-.7.43-1.05a1.89,1.89,0,0,1,.11-.25.21.21,0,0,0,0-.19.25.25,0,0,0-.34-.15Z"/><path class="cls-5" d="M48.06,27a4.4,4.4,0,0,1-.94-.21c-.14,0-.29-.09-.44-.12a.25.25,0,0,0-.11.49l.47.13a4.05,4.05,0,0,0,.9.21c.15,0,.3,0,.34-.19a.25.25,0,0,0-.22-.31Z"/><path class="cls-5" d="M47.78,27.84l-.47,0a1.81,1.81,0,0,1-.47-.13l-.21-.1a.48.48,0,0,0-.21-.07.25.25,0,0,0-.24.24c0,.16.12.23.24.29a4.32,4.32,0,0,0,.45.19,1.82,1.82,0,0,0,.45.1l.22,0,.23,0a.28.28,0,0,0,.25-.24.27.27,0,0,0-.24-.28Z"/><path class="cls-5" d="M51.17,17.6a6.42,6.42,0,0,0-1.82-.42,2.49,2.49,0,0,0-.86.07,3.46,3.46,0,0,0-.82.34,1.55,1.55,0,0,0-.37.26,3.22,3.22,0,0,0-.32.32,8.36,8.36,0,0,0-.57.73,3.77,3.77,0,0,0-.43.79,8.11,8.11,0,0,0-.24.88,7.79,7.79,0,0,0-.25,1.86,6.82,6.82,0,0,0,.33,1.78,7.54,7.54,0,0,0,.29.88,1.83,1.83,0,0,0,.48.74.26.26,0,0,0,.33,0,.28.28,0,0,0,.09-.33c0-.06-.1-.1-.14-.15a1,1,0,0,1-.13-.18,2.35,2.35,0,0,1-.18-.4A9.28,9.28,0,0,1,46.08,23a4.85,4.85,0,0,1,.07-1.82c0-.16.07-.31.1-.47v.07c.06-.26.12-.52.2-.78a3.3,3.3,0,0,1,.34-.71,5.22,5.22,0,0,1,.45-.6,3.26,3.26,0,0,1,.51-.54,2.46,2.46,0,0,1,.67-.33,2,2,0,0,1,.72-.13,4.67,4.67,0,0,1,1.48.27,2.92,2.92,0,0,1,.82.32,6.28,6.28,0,0,1,.7.55l-.05,0a2.17,2.17,0,0,1,.35.39,3.33,3.33,0,0,1,.24.46,4.72,4.72,0,0,1,.18.53,3.14,3.14,0,0,1,.12.51,2.85,2.85,0,0,1-.09,1.05,9,9,0,0,1-.29,1.05,6.61,6.61,0,0,1-.41,1,3.43,3.43,0,0,1-.62.85c-.26.25-.54.49-.81.72s-.56.49-.86.7l-.47.27a.25.25,0,0,0,.21.46,4.92,4.92,0,0,0,.45-.24,6.33,6.33,0,0,0,.83-.64c.28-.23.56-.47.82-.71a4.9,4.9,0,0,0,.71-.8,5.47,5.47,0,0,0,.48-1c.13-.36.25-.71.35-1.07s.17-.72.23-1.07a2.75,2.75,0,0,0-.06-1c0-.17-.1-.34-.16-.5a4.09,4.09,0,0,0-.18-.49c-.08-.16-.17-.31-.26-.46a2.49,2.49,0,0,0-.34-.38,5.3,5.3,0,0,0-.84-.66,3.06,3.06,0,0,0-.49-.22Z"/><path class="cls-5" d="M55,18.6a2.12,2.12,0,0,0-.62.31c-.08.06-.19.11-.24.2a.31.31,0,0,0,0,.25.27.27,0,0,0,.24.13.54.54,0,0,0,.27-.14,1.75,1.75,0,0,1,.29-.18L55,19.1a.59.59,0,0,0,.14-.06.26.26,0,0,0,.05-.31A.24.24,0,0,0,55,18.6Z"/><path class="cls-5" d="M55.4,19.81a6.42,6.42,0,0,1-.76,0,.37.37,0,0,0-.29.07.26.26,0,0,0,.14.43h.76a.78.78,0,0,0,.34,0,.26.26,0,0,0-.19-.47Z"/><path class="cls-5" d="M54.07,17.45c-.11,0-.16.1-.21.19s-.12.21-.19.31-.11.16-.16.25a.21.21,0,0,0,0,.23.25.25,0,0,0,.42.05,3.48,3.48,0,0,0,.36-.55c0-.1.12-.2.07-.32a.26.26,0,0,0-.28-.16Z"/><path class="cls-6" d="M51.19,22.73a.32.32,0,0,1-.13-.37,2.52,2.52,0,0,0,0-2.17,1.31,1.31,0,0,0-.92-.49.32.32,0,0,1-.32-.32.33.33,0,0,1,.33-.32,1.9,1.9,0,0,1,1.43.77,3,3,0,0,1,0,2.73.31.31,0,0,1-.4.2Z"/><path class="cls-7" d="M55.45,36l.21-.05h.21a1.68,1.68,0,0,1,1.15.4,1.13,1.13,0,0,1,.46.86.66.66,0,0,1-.28.56,1.14,1.14,0,0,1-.72.21,1.61,1.61,0,0,1-1.09-.38,1.17,1.17,0,0,1-.46-1V33.23a14.31,14.31,0,0,0-1.36.91,1.36,1.36,0,0,0-.49,1.16,2.46,2.46,0,0,0,0,.26c0,.08,0,.17.07.26a1.62,1.62,0,0,1-.4-.52,1.34,1.34,0,0,1-.14-.62,1.49,1.49,0,0,1,.36-1,7.46,7.46,0,0,1,1-.87,7.41,7.41,0,0,0,.63-.54,1.43,1.43,0,0,0,.34-.5h.51Z"/><path class="cls-8" d="M52,37.8s-2.71-2-5.06-.36a6.34,6.34,0,0,1-4.69,1.09"/><path class="cls-2" d="M20.66,38.2a23.7,23.7,0,0,0-4.52,1.48c-2.15,1-3.05,4.38-3.87,9.33-1.52,9.2,2.22,31.34,2.22,31.34l17.8.2s-1.51-6.22.4-11.72c3.44-9.91,5.77-14.66,4.25-18.6A115,115,0,0,0,31.78,38.6Z"/><path class="cls-6" d="M22.39,26.42,31,29.66s-1.69,5.61.81,9.3S26,46.34,19.09,39.7C19.09,39.7,24.05,36.84,22.39,26.42Z"/><path class="cls-8" d="M30.71,30.53S29.33,35.27,31.83,39,26,46.34,19.09,39.7c0,0,4.81-2.38,3.31-12.13"/><polyline class="cls-9" points="18.2 39.08 16.3 42.92 18.78 46.81 16.91 48.71 25.34 61.27"/><polyline class="cls-10" points="33.52 39.85 36.69 43.37 34.38 45.68 36 48.45 31.34 58.61"/><path class="cls-11" d="M32.91,39.34,28.19,62.19,19.06,39.68s4.74,2.9,8.35,2.9A6.84,6.84,0,0,0,32.91,39.34Z"/><path class="cls-12" d="M26.22,65.13A1.12,1.12,0,1,0,27.34,64,1.12,1.12,0,0,0,26.22,65.13Z"/><path class="cls-12" d="M26.38,69.94a1.12,1.12,0,1,0,1.12-1.12A1.12,1.12,0,0,0,26.38,69.94Z"/><polyline class="cls-9" points="31.37 45.7 27.7 42.72 22.07 46.62"/><path class="cls-6" d="M21.64,29.85A16.85,16.85,0,0,0,35,31.79c7.46-2.13,6.12-14.3,6.12-14.3S41,7.6,31.32,5.54,6.81,21.75,21.64,29.85Z"/><path class="cls-13" d="M19.87,28.8S3,17.67,10.72,7.37c4.71-6.23,12.77-10.11,23.12-5,2.89,1.42,7.43,4.19,8,9.63s-.33,7.66-.33,7.66a9.7,9.7,0,0,0-1.42-4.48C38.75,13,34.84,8,34.84,8s-9.13,3.55-12.59,6.13c-4.1,3.06-6.3,5.17-6.63,6.91S19.87,28.8,19.87,28.8Z"/><path class="cls-8" d="M30.78,21.19A1.79,1.79,0,0,0,32,22.61l-1.1.81"/><path class="cls-8" d="M35.93,9s4.85,6.57,5,7.53"/><path class="cls-14" d="M20.11,24.68a2.65,2.65,0,1,0,3.09-2.12A2.65,2.65,0,0,0,20.11,24.68Z"/><path class="cls-14" d="M34.39,26a2.65,2.65,0,1,0,3.09-2.12A2.65,2.65,0,0,0,34.39,26Z"/><path class="cls-6" d="M16.2,20.48l1.5,4.28a3.12,3.12,0,0,1-3.25-2.36C13.55,19.74,16.2,20.48,16.2,20.48Z"/><path class="cls-15" d="M16.2,20.48s-2.65-.74-1.75,1.92a3.12,3.12,0,0,0,3.25,2.36"/><path class="cls-5" d="M24.26,20.6c-.06.81.15.95.6,1s.94,0,1-.86-.25-1.5-.69-1.53S24.32,19.79,24.26,20.6Z"/><path class="cls-5" d="M34.23,21.38c-.06.8.16.94.59,1a.8.8,0,0,0,1-.85c.06-.8-.25-1.47-.68-1.51S34.29,20.58,34.23,21.38Z"/><path class="cls-8" d="M28.91,32.32a14.85,14.85,0,0,0,6.05-.5c.36-.15.88-.29,1.24-.44,5-2.77,5.23-8.79,4.88-13.89"/><path class="cls-13" d="M12.24,18.53A56.62,56.62,0,0,1,12.53,25c-.07,3,2.87,9.54-4.6,11.43-4,1-4.07.46-4.07.46a10.33,10.33,0,0,0,3-5.51c.6-3.39-2.56-6.88.63-10.81C9.19,18.48,12.24,18.53,12.24,18.53Z"/><path class="cls-8" d="M11.78,21.33s-2-.82-1.9,2.63,2.27,10.15-1.1,11.48"/><path class="cls-8" d="M15.54,20A43.63,43.63,0,0,1,34.6,8.17"/><path class="cls-8" d="M20.54,6s-8.07,12.58-8.42,15.31"/><path class="cls-8" d="M11.34,9.58s-2.4,7.77-.55,11"/><path class="cls-16" d="M32.46,25.71a2.81,2.81,0,0,1-2.61,1.76A3.06,3.06,0,0,1,27,25.3"/><path class="cls-17" d="M30,29.19s-.89.62-1.42.22"/><path class="cls-8" d="M23.35,30.92S19.85,29.14,18.7,27"/><path class="cls-18" d="M37.18,37.08A20.26,20.26,0,0,1,36.76,33c.2-.7,1-2,0-2s-2.46,2.4-2.15,4.18Z"/><path class="cls-6" d="M28.11,31.09c.62-.48,2.82,1.13,5.13,1.83,0,0,1.7.72,2.12,1.5l1.54,1,.48,1.49c.54.64-.9,7.77-.9,7.77l.62,1.55-2.86,1.25L34,45.55c-1,0-2.53-1.06-2.26-4,.07-.78-.14-.58-1.48-1.35a1.5,1.5,0,0,1-.84-1.89c-1-1.1.92-1.93.92-1.93a.89.89,0,0,1,.65-1.13,6,6,0,0,1,2.53.12l-1.18-.92S26.34,32.45,28.11,31.09Z"/><path class="cls-19" d="M36.9,35.4l.48,1.49c.54.64-.9,7.77-.9,7.77l.62,1.55"/><path class="cls-19" d="M35.36,34.42c-.42-.78-2.12-1.5-2.12-1.5-2.31-.7-4.51-2.31-5.13-1.83-1.77,1.36,4.18,3.37,4.18,3.37l1.18.92a6,6,0,0,0-2.53-.12.89.89,0,0,0-.65,1.13s-1.89.83-.92,1.93a1.5,1.5,0,0,0,.84,1.89c1.34.77,1.55.57,1.48,1.35-.27,2.93,1.29,3.94,2.26,4l.21,1.15"/><path class="cls-19" d="M32.32,37A11,11,0,0,0,30,36.53"/><path class="cls-19" d="M31.51,38.72a3.83,3.83,0,0,0-1.92-.45"/><polygon class="cls-11" points="32.34 47.32 31.67 45.53 37.22 43.99 37.69 45.84 32.34 47.32"/><path class="cls-20" d="M38.53,45.2S33.05,46.73,31,47c0,0,3.32,25.48,9.36,23.69S41,48.14,38.53,45.2Z"/><polygon class="cls-21" points="17.56 77.26 34.15 75.63 44.33 78.03 17.56 77.26"/><path class="cls-6" d="M18.44,73.75s5.12-2.31,6.34-1.59a.85.85,0,0,0,.36.11s1.5-.16,1.71.07a8.07,8.07,0,0,0,1.25.35,2.63,2.63,0,0,1,.91.43c.15.21.48,4-.7,3.59-.07,0-1.41,0-1.41,0l-.18-1.08A1.72,1.72,0,0,1,25.64,77c-.22.06-.6-.36-.9-.31-2.39.41-7.06,1.27-7.06,1.27A2.39,2.39,0,0,1,17,76.16C17,75,18.44,73.75,18.44,73.75Z"/><path class="cls-22" d="M24.08,74s.69,2.88,1.62,2.82.69-3.55-.92-4.67c-1.17-.8-6.34,1.59-6.34,1.59S17,75,17,76.16A2.39,2.39,0,0,0,17.68,78"/><path class="cls-22" d="M25.14,72.27a4.8,4.8,0,0,1,2.13.19c.28.11,1.48,4.58.23,4.4-1-.14-1-1.5-1-1.5"/><path class="cls-22" d="M27.47,72.57s1.23-.1,1.57.65c.1.24.28,3.76-.9,3.37"/><path class="cls-22" d="M24.1,74.6s-1.1,1.55-1.77,1.49"/><path class="cls-2" d="M17.72,77.42S3.13,74.33,1,70.22s.26-27.09,16.53-31.07c.32.47-5.06,7.43-4.06,13.57C14.54,59.5,9,65.91,9,65.91L19.63,72.8a8.55,8.55,0,0,0-2.53,2.75A1.33,1.33,0,0,0,17.72,77.42Z"/><rect class="cls-6" x="0.01" y="78.13" width="63.66" height="6.88" transform="translate(63.69 163.14) rotate(-180)"/><line class="cls-23" x1="15.18" y1="78.23" x2="0.36" y2="78.23"/><polygon class="cls-24" points="63.29 77 63.42 78.39 28.16 79.6 28.71 77.38 63.29 77"/><path class="cls-6" d="M64.73,77.25a1.08,1.08,0,0,0,1-1l2-24.19A1.51,1.51,0,0,0,67,50.73l-1.36-.65a4.88,4.88,0,0,0-1.81-.41l-32.3.24a1.07,1.07,0,0,0-1,1L28.3,75.49a2.23,2.23,0,0,0,.62,1.59l0,0a2.73,2.73,0,0,0,1.66.63Z"/><path class="cls-23" d="M64.73,77.25a1.08,1.08,0,0,0,1-1l2-24.19A1.51,1.51,0,0,0,67,50.73l-1.36-.65a4.88,4.88,0,0,0-1.81-.41l-32.3.24a1.07,1.07,0,0,0-1,1L28.3,75.49a2.23,2.23,0,0,0,.62,1.59l0,0a2.73,2.73,0,0,0,1.66.63Z"/><line class="cls-23" x1="66.84" y1="51.3" x2="32.59" y2="51.49"/><line class="cls-23" x1="30.03" y1="77.78" x2="31.72" y2="52.36"/><line class="cls-23" x1="31.14" y1="50.62" x2="31.86" y2="51.64"/><polygon class="cls-24" points="28.11 79.53 15.18 78.23 15.26 76.63 28.84 77.68 28.11 79.53"/><path class="cls-22" d="M24.78,72.16c-1.17-.8-6.34,1.59-6.34,1.59S17,75,17,76.16"/><path class="cls-11" d="M21.91,4A18,18,0,0,1,34.77,2.67S27.67,2.21,23.09,5C19.51,7.17,16.84,11.81,17,17.7l-1.8.15S14.75,7.37,21.91,4Z"/><path class="cls-9" d="M15.13,17.76s-.6,10.7,11,10.41"/><path class="cls-11" d="M23.62,28.43c.05.63,1,1.07,2.21,1s1.58-.81,1.52-1.44-.54-.94-1.71-.84S23.57,27.8,23.62,28.43Z"/><ellipse class="cls-11" cx="15.88" cy="20.67" rx="2.78" ry="4.58" transform="translate(-2.43 2.12) rotate(-7.1)"/><path class="cls-9" d="M16.83,18.3s1.94,3.61-.7,5.47"/></g></g></g></svg>