<?xml version="1.0" encoding="utf-8"?>
<!-- Generator: Adobe Illustrator 26.0.3, SVG Export Plug-In . SVG Version: 6.00 Build 0)  -->
<svg version="1.1" id="レイヤー_1" xmlns="http://www.w3.org/2000/svg" xmlns:xlink="http://www.w3.org/1999/xlink" x="0px"
	 y="0px" viewBox="0 0 100.9 111" style="enable-background:new 0 0 100.9 111;" xml:space="preserve">
<style type="text/css">
	.st0{clip-path:url(#SVGID_00000055685242865416315020000017596120933437349814_);}
	.st1{clip-path:url(#SVGID_00000088812781520645229880000002621732260094693509_);}
	.st2{clip-path:url(#SVGID_00000134232609628014581270000006657840533197493682_);}
	.st3{fill:#FFFFFF;}
	.st4{fill:#26466D;}
	.st5{fill:#FDE67C;}
	.st6{fill:#D7F1FC;}
	.st7{fill:#51C3F1;}
	.st8{fill:#F1FAFE;}
	.st9{fill:#A8E1F8;}
	.st10{fill:#AAE1F8;}
	.st11{fill:#F7DCD5;}
	.st12{clip-path:url(#SVGID_00000114049128724814014410000012970526615537274278_);}
	.st13{fill:#FFFA9E;}
	.st14{clip-path:url(#SVGID_00000108310941869520411690000015565663570758539152_);}
</style>
<g>
	<g id="レイヤー_2_00000136387607040912518880000006701040488055407551_">
		<g id="レイヤー_1-2">
			<g id="アートワーク_19">
				<g>
					<defs>
						<rect id="SVGID_1_" x="-14.2" y="0" width="144.2" height="111"/>
					</defs>
					<clipPath id="SVGID_00000108309881458048826320000008022810676395792044_">
						<use xlink:href="#SVGID_1_"  style="overflow:visible;"/>
					</clipPath>
					<g style="clip-path:url(#SVGID_00000108309881458048826320000008022810676395792044_);">
						<g>
							<defs>
								<rect id="SVGID_00000167394261754892788580000016706155103223193277_" x="-14.2" y="0" width="144.2" height="111"/>
							</defs>
							<clipPath id="SVGID_00000081607367451380275870000003254757535188364720_">
								<use xlink:href="#SVGID_00000167394261754892788580000016706155103223193277_"  style="overflow:visible;"/>
							</clipPath>
							<g style="clip-path:url(#SVGID_00000081607367451380275870000003254757535188364720_);">
								<g>
									<defs>
										<path id="SVGID_00000135667812554005343690000013829589271401214347_" d="M-1.6,0h119.1c6.9,0,12.6,5.6,12.6,12.6v85.9
											c0,6.9-5.6,12.6-12.6,12.6H-1.6c-6.9,0-12.6-5.6-12.6-12.6V12.6C-14.2,5.6-8.6,0-1.6,0z"/>
									</defs>
									<clipPath id="SVGID_00000141449158634752087810000009563980197268529025_">
										<use xlink:href="#SVGID_00000135667812554005343690000013829589271401214347_"  style="overflow:visible;"/>
									</clipPath>
									<g style="clip-path:url(#SVGID_00000141449158634752087810000009563980197268529025_);">
										<path class="st3" d="M4,59.1c-0.7-0.3-1.7-0.6-2.4-0.8c1.1,1.1,2.4,2,3.8,2.7l0.2,0.1c0.6,0.4,1.4,0.9,2.1,1.4
											s1.4,1,2,1.3c0.3,0.2,0.6,0.5,0.9,0.8c1,1,2,1.9,3.2,2.7c0.6,0.4,1.1,0.8,1.5,1.1c0.2,0.1,0.2,0.3,0.2,0.5
											c0,1.3,0,2.7,0.1,4c1.7,0.5,3.5,0.6,5.2,0.2L19.5,68c0-0.1,0-0.2,0-0.3c0.3-1.1,0.8-2.1,1.6-2.9c0.4-0.8,0.8-1.7,1-2.6
											c0.2-0.9,0.6-1.8,1-2.7c0.8-1.2,2.6-4.8,2.4-5.5c0-0.1-0.1-0.1-0.2-0.1c-0.3,0-1,0.8-1.5,1.2c-0.5,0.5-1,1-1.5,1.4
											c-0.2,0.1-0.3,0.2-0.5,0.4c-0.5,0.5-1.1,0.9-1.7,0.9c-0.3,0-0.6-0.2-0.7-0.5c-0.2-0.3-0.5-0.6-0.7-0.9
											c-0.6-0.6-1.1-1.4-1.4-2.2c-0.1-0.3-0.4-0.9-0.7-1.7c-0.8-1.9-2.8-6.5-3.7-7.9c0.1,1.5,0.3,3.1,0.8,4.6
											c0.5,1.6,0.8,3.4,0.8,5.1c-0.1,0.4-0.4,0.6-0.7,0.6c-0.2,0-0.4-0.1-0.5-0.3l-0.1-0.2c-4.4-6.7-6.2-8.4-6.9-8.8
											c0.6,1.4,1.2,2.7,1.9,4c2.1,4.1,2.9,5.9,2.4,6.8c-0.2,0.3-0.6,0.4-0.9,0.2l-0.6-0.4c-5.3-3.4-6.9-3.8-7.4-3.8
											c0.2,0.5,1.4,1.8,6.2,5.6l0.5,0.4l0.1,0.1c0.4,0.2,0.7,0.7,0.5,1.2C8.4,60.7,6.8,60.1,4,59.1 M10.9,61.5
											c0-0.3,0.3-0.5,0.6-0.5c0,0,0,0,0,0c4.1,0.4,4.2,3.4,4.2,3.5c0,0.3-0.2,0.5-0.5,0.6l0,0c-0.3,0-0.5-0.2-0.5-0.5
											c0-0.1-0.1-2.1-3.2-2.4C11.1,62,10.9,61.8,10.9,61.5C10.9,61.5,10.9,61.5,10.9,61.5 M9.6,57.4c1.7-1.2,3.5-2.2,5.5-3
											c0.3-0.1,0.6,0,0.7,0.3c0.1,0.3,0,0.6-0.3,0.7c-1.8,0.8-3.6,1.7-5.2,2.8c-0.1,0.1-0.2,0.1-0.3,0.1c-0.2,0-0.3-0.1-0.4-0.2
											C9.3,57.9,9.3,57.6,9.6,57.4C9.6,57.4,9.6,57.4,9.6,57.4"/>
										<path class="st4" d="M4.7,62.2l0.2,0.1c0.6,0.4,1.4,0.9,2.1,1.4c0.7,0.5,1.4,1,2.1,1.4c0.2,0.2,0.4,0.3,0.6,0.6
											c1,1.1,2.2,2,3.4,2.8l1.2,0.9c0,0.5,0,1.7,0.1,3.3H14c-0.2-0.1-0.3-0.1-0.5,0c-0.2,0.1-0.3,0.2-0.3,0.4
											c-1.4,4.3-2.4,8.7-3.1,13.2C8.6,96,9.4,103.3,12.4,108c2.1,3.3,5.6,5.4,9.4,5.8c0.5,0.1,1,0.1,1.4,0.1
											c1.2,0,2.4-0.2,3.5-0.6c0.9-0.3,1.7-0.7,2.5-1.1c3-1.9,5.4-4.7,6.9-7.8c0.1-0.3,0-0.7-0.3-0.9c0,0,0,0,0,0
											c-0.1,0-0.3,0-0.4,0c-0.2,0-0.4,0.2-0.5,0.4c0,0.1-4.4,9.7-12.9,8.7c-3.5-0.3-6.6-2.2-8.5-5.2C7.3,97.7,13,77.8,14.2,74
											c1.6,0.5,5.7,1.5,7.9,0h0.1l0,0l0,0l0,0c0.9,1.3,2.5,7.8,4,15.2c0,0.1,0,0.3,0,0.4c0,0.1,0.1,0.1,0.1,0.2
											c0.5,2.6,1,5.3,1.5,7.9c0.1,0.4,0.4,0.6,0.8,0.5c0.3-0.1,0.6-0.4,0.5-0.7c0,0,0,0,0,0c0,0-0.6-3.6-1.5-8
											c1-1.2,2.4-4.4,4.1-9.3c1.5-4.9,5.6-8.5,10.6-9.3h0.1c1.1-0.3,2.5-0.6,4-0.8l0.6-1.4c-1.8,0.2-3.6,0.6-4.9,0.9
											c-5.4,1-9.8,4.9-11.5,10.1c-0.9,2.7-1.9,5.4-3.2,7.9c-0.2-0.7-0.3-1.5-0.5-2.2c-2.6-12.4-3.7-12.8-4.2-13
											c-0.2-0.1-0.5-0.1-0.7,0l-1.1-4.5c0.3-0.9,0.7-1.7,1.3-2.3c0.5-1,0.9-2,1.2-3c0.2-0.8,0.5-1.6,0.8-2.3c0,0,3.5-5.5,2.3-7
											c-0.3-0.4-0.7-0.6-1.1-0.6c-0.9,0-1.7,0.8-2.5,1.6c-0.4,0.4-0.8,0.9-1.3,1.2c-0.2,0.1-0.4,0.3-0.6,0.5
											c-0.2,0.2-0.4,0.3-0.6,0.5c-0.2-0.3-0.4-0.6-0.7-0.8c-0.5-0.5-0.9-1.2-1.2-1.8c-0.1-0.3-0.4-0.9-0.7-1.6
											c-3.8-8.7-4.2-9-4.9-8.9c-0.4,0-0.7,0.3-0.9,0.6c-0.7,1-0.2,2.9,0.5,5.9c0.2,0.7,0.4,1.4,0.5,2.1c-4.4-6.5-6-7.4-6.9-7.5
											c-0.4-0.1-0.7,0.1-1,0.3c-0.6,0.6-0.2,1.6,1.9,5.7c0.7,1.3,1.7,3.3,2.1,4.5c-4.6-2.9-6.9-3.9-8.1-3.5
											c-0.4,0.1-0.6,0.4-0.7,0.8c-0.3,0.9,0.6,2.3,6.1,6.6c-0.6-0.2-1.3-0.5-1.9-0.6c-2.7-1-4-1.4-4.4-0.5
											C-0.4,58.6,0.9,60,4.7,62.2 M1.5,58.4c0.7,0.2,1.7,0.5,2.4,0.8c2.8,1,4.4,1.5,4.8,0.5c0.2-0.5-0.1-1-0.5-1.2l-0.1-0.1
											L7.7,58c-4.8-3.7-5.9-5.1-6.1-5.6c0.5,0,2.1,0.4,7.4,3.8l0.6,0.4c0.3,0.2,0.7,0.1,0.9-0.2c0.6-0.9-0.2-2.6-2.4-6.8
											c-0.7-1.3-1.3-2.6-1.9-4c0.7,0.4,2.5,2.1,6.9,8.8l0.1,0.2c0.2,0.2,0.4,0.3,0.7,0.3c0.3-0.1,0.5-0.3,0.5-0.5
											c0-1.7-0.3-3.4-0.8-5.1c-0.4-1.5-0.7-3-0.8-4.6c0.9,1.4,2.9,6,3.7,7.9c0.3,0.8,0.6,1.4,0.7,1.7c0.3,0.8,0.8,1.5,1.4,2.2
											c0.3,0.3,0.5,0.6,0.7,0.9c0.2,0.2,0.4,0.4,0.7,0.5c0.6,0.1,1.2-0.4,1.7-0.9c0.2-0.2,0.3-0.3,0.5-0.4
											c0.6-0.4,1.1-0.9,1.5-1.4c0.4-0.5,1.2-1.2,1.5-1.2c0.1,0,0.1,0.1,0.2,0.1c0.2,0.7-1.6,4.3-2.4,5.5c-0.4,0.8-0.8,1.8-1,2.7
											c-0.2,0.9-0.6,1.8-1,2.6c-0.8,0.8-1.3,1.8-1.6,2.9c0,0.1,0,0.2,0,0.3l1.2,5.1c-1.7,0.4-3.5,0.3-5.2-0.2
											c-0.1-1.3-0.1-2.7-0.1-4c0-0.2-0.1-0.4-0.2-0.5c-0.4-0.3-0.9-0.7-1.5-1.1c-1.1-0.8-2.2-1.7-3.2-2.7
											c-0.3-0.3-0.6-0.6-0.9-0.8c-0.6-0.3-1.3-0.8-2-1.3s-1.5-1-2.1-1.4L5.3,61C4,60.3,2.7,59.4,1.5,58.4"/>
										<path class="st4" d="M11.5,61c4.1,0.4,4.2,3.4,4.2,3.5c0,0.3-0.2,0.5-0.5,0.6l0,0c-0.3,0-0.5-0.2-0.5-0.5
											c0-0.1-0.1-2.1-3.2-2.4c-0.3,0-0.5-0.3-0.5-0.6c0,0,0,0,0,0C10.9,61.2,11.2,61,11.5,61C11.5,61,11.5,61,11.5,61"/>
										<path class="st5" d="M78.8,61c3.6-0.8,6.9-2.4,9.8-4.7c8.8-6.7,1.6-36.4,1.6-36.4C87.7,14,81.2,2.5,75,4.6
											C57.6-7,41.8,5.8,36,16.4c-1.5,3.9-12.1,37.2,4,43.6c2.8,1.1,8.9,1.3,14.8,1.1c0.1-0.5,0.2-0.9,0.2-1.4
											c-1.1-0.1-2.2-0.3-3.2-0.6c-1.7-0.4-3.4-1-5-1.7c-1.7-0.7-3.2-1.7-4.6-2.8c-0.3-0.3-0.7-0.6-1-1c-0.3-0.3-0.6-0.7-0.9-1.1
											c-0.5-0.8-0.9-1.6-1.3-2.4c-0.7-1.7-1.2-3.4-1.4-5.2c-0.3-1.7-0.5-3.5-0.6-5.3c-0.1-1.8-0.1-3.5,0-5.3s0.2-3.5,0.4-5.3
											c0-0.3,0.3-0.5,0.6-0.5c0.3,0,0.5,0.3,0.5,0.6c0,0,0,0,0,0l0,0c-0.1,0.7-0.1,1.5-0.2,2.2c2,0.2,4-0.1,5.9-0.7
											c4.2-1.5,10.3-0.8,15.2-2.9c0.4-0.2,0.8-0.3,1.2-0.5c0.1-0.1,0.2-0.2,0.3-0.2l0,0c1.6-0.3,3.1-1,4.4-2
											c1.3-1,2.4-2.2,3.2-3.6c0.9-1.4,1.6-2.9,2.1-4.5c0.6-1.6,1-3.2,1.2-4.8l0,0c0-0.3,0.3-0.5,0.6-0.5c0.3,0,0.5,0.3,0.5,0.6
											l0,0c-0.1,0.9-0.2,1.7-0.4,2.6c-0.2,0.9-0.4,1.7-0.7,2.5c-0.6,1.7-1.4,3.2-2.3,4.7c-1,1.5-2.2,2.8-3.6,3.8l-0.3,0.2
											c3.4-0.5,6.8-0.6,10.3-0.3l-0.3-0.6l0,0v0c-0.1-0.3,0-0.6,0.3-0.7c0.3-0.1,0.6,0,0.7,0.3c0.5,1.1,1,2.1,1.4,3.2
											s0.8,2.1,1.2,3.2c0.3,1.1,0.7,2.2,0.9,3.3c0.1,0.3,0.1,0.6,0.2,1l0.2-0.1c0.4-0.2,0.8-0.3,1.2-0.4
											c0.2-0.1,0.4-0.1,0.7-0.1c0.8-0.1,1.5,0.3,1.9,1c0.4,0.8,0.6,1.6,0.5,2.5c0,0.8,0,1.6-0.2,2.4c-0.2,1.6-0.8,3.2-1.8,4.5
											c-0.5,0.7-1.2,1.2-2.1,1.5c-0.4,0.1-0.9,0.2-1.3,0.2c-0.2,0-0.4,0-0.7,0h-0.3c-0.5,1.5-1.1,2.9-2,4.2
											c-1.1,1.6-2.4,3-3.9,4.1c-1.5,1.1-3.2,2-5,2.7c-0.6,0.2-1.2,0.4-1.9,0.6c0,0.5,0,1.1,0,1.7c2-0.2,3.3-0.3,3.3-0.3
											c3,1.2,6.3,1.5,9.4,0.8C78.6,61.1,78.7,61.1,78.8,61 M43.6,18L43.6,18c-0.6,0.6-1.2,1.2-1.8,1.8c-0.6,0.6-1.2,1.3-1.7,2
											c-0.5,0.7-1,1.4-1.4,2.2c-0.4,0.7-0.7,1.5-0.9,2.4l0,0v0.1c-0.1,0.3-0.4,0.4-0.7,0.3c-0.3-0.1-0.4-0.4-0.3-0.7l0,0
											c0.3-0.9,0.6-1.7,1-2.5c0.4-0.8,0.8-1.6,1.3-2.4c0.5-0.7,1-1.5,1.6-2.1c0.6-0.7,1.3-1.3,2.1-1.8c0.2-0.2,0.5-0.1,0.7,0.1
											C43.9,17.5,43.9,17.8,43.6,18C43.6,18,43.6,18,43.6,18 M57.3,18.4c-0.1,0.8-0.3,1.5-0.5,2.2c-0.2,0.7-0.5,1.5-0.8,2.2
											c-0.3,0.7-0.7,1.4-1.2,2c-0.5,0.6-1,1.2-1.6,1.8c-0.6,0.5-1.2,1-1.9,1.4c-1.3,0.8-2.8,1.4-4.3,1.8h0
											c-0.3,0.1-0.6-0.1-0.6-0.4c0,0,0,0,0,0c0-0.3,0.1-0.6,0.4-0.6l0,0c2.9-0.5,5.4-2.1,7-4.6c0.8-1.2,1.4-2.5,1.8-3.9
											c0.4-1.4,0.7-2.8,0.8-4.2l0,0c0-0.3,0.3-0.5,0.6-0.5c0.2,0,0.4,0.2,0.5,0.5C57.4,16.9,57.4,17.6,57.3,18.4 M84.6,51
											L84.6,51c1.2-2,2-4.2,2.2-6.5c0.3-2.3,0.3-4.7,0.1-7c-0.1-1.2-0.2-2.3-0.4-3.5s-0.4-2.3-0.7-3.5c-0.5-2.3-1-4.6-1.7-6.8
											l0,0c0-0.3,0.2-0.6,0.5-0.6c0.2,0,0.4,0.1,0.5,0.3c0.4,1.1,0.8,2.3,1.1,3.4s0.6,2.3,0.9,3.5c0.5,2.4,0.8,4.7,1,7.1
											c0.2,2.4,0.1,4.8-0.2,7.2c-0.1,0.6-0.2,1.2-0.3,1.8s-0.3,1.2-0.5,1.8c-0.4,1.2-0.9,2.3-1.5,3.4l0,0
											c-0.2,0.2-0.5,0.3-0.7,0.2C84.5,51.6,84.4,51.3,84.6,51C84.6,51,84.6,51,84.6,51"/>
										<path class="st3" d="M38.4,31.5c-0.1,2.7-0.1,5.4,0,8.2c0.1,1.7,0.2,3.4,0.5,5.1c0.3,1.7,0.7,3.3,1.3,4.9
											c0.3,0.8,0.7,1.5,1.1,2.2c0.2,0.4,0.5,0.7,0.7,1c0.3,0.3,0.6,0.6,0.9,0.9c1.3,1.1,2.7,2,4.3,2.7c1.6,0.7,3.2,1.3,4.8,1.7
											c0.8,0.2,1.7,0.4,2.5,0.5c0.8,0.1,1.7,0.2,2.5,0.2l0,0c0.3,0,0.5,0.2,0.5,0.5c0,0.3-0.2,0.5-0.5,0.5c0,0,0,0,0,0
											c-0.2,0-0.5,0-0.8,0c-0.2,1.4-0.5,2.9-0.8,4.3l0.4,0.1c1.3,0.2,2.7,0.5,3.7,0.6c0.4,0,0.8,0,1.1,0h0.1c1-0.5,2-1,3.1-1.3
											c0.2-0.1,0.3-0.1,0.5-0.2c0-1.4,0-2.8,0-4.1c-0.8,0.2-1.5,0.3-2.3,0.4c-0.3,0-0.5-0.1-0.6-0.4c-0.1-0.3,0.1-0.6,0.4-0.6
											c0,0,0,0,0,0l0,0c1.8-0.4,3.5-1,5.2-1.7c1.7-0.6,3.3-1.5,4.7-2.5c1.5-1,2.7-2.3,3.8-3.7c1-1.4,1.7-3.1,2.1-4.8l0,0l0,0
											c0.1-0.3,0.4-0.4,0.7-0.4c0.2,0.1,0.4,0.2,0.4,0.5c0.2,0,0.3,0,0.5,0c0.3,0,0.7-0.1,1-0.3c0.6-0.2,1.2-0.6,1.6-1.1
											c0.5-0.5,0.8-1.1,1.1-1.8c0.3-0.7,0.5-1.4,0.6-2.1c0.1-0.8,0.2-1.5,0.1-2.3c0-0.7-0.1-1.4-0.5-2c-0.3-0.5-0.9-0.7-1.5-0.5
											c-0.3,0.1-0.7,0.2-1,0.4c-0.1,0.1-0.3,0.2-0.4,0.3l-0.1,0.1c0.1,0.4,0.1,0.8,0.2,1.3c0,0.3-0.2,0.6-0.5,0.6
											c-0.3,0-0.6-0.2-0.6-0.5l0,0c-0.2-1.1-0.5-2.2-0.8-3.3s-0.5-2.2-0.8-3.3c-0.3-1.1-0.6-2.2-1-3.2c-0.3-0.8-0.6-1.7-1-2.5
											c-3.4-0.3-6.9-0.2-10.2,0.3c-1.4,0.9-2.9,1.6-4.5,2l0,0c-0.3,0-0.6-0.1-0.6-0.4c0-0.1,0-0.3,0.1-0.4
											c-0.4,0.1-0.8,0.3-1.2,0.5c-4.9,2.1-11,1.4-15.2,2.8C42.4,31.4,40.4,31.6,38.4,31.5"/>
										<path class="st4" d="M43.6,18c-0.6,0.6-1.2,1.2-1.8,1.8c-0.6,0.6-1.2,1.3-1.7,2c-0.5,0.7-1,1.4-1.4,2.2
											c-0.4,0.7-0.7,1.5-0.9,2.4l0,0v0.1c-0.1,0.3-0.4,0.4-0.7,0.3c-0.3-0.1-0.4-0.4-0.3-0.7l0,0c0.3-0.9,0.6-1.7,1-2.5
											c0.4-0.8,0.8-1.6,1.3-2.4c0.5-0.7,1-1.5,1.6-2.1c0.6-0.7,1.3-1.3,2.1-1.8c0.3-0.2,0.6-0.1,0.8,0.2
											C43.8,17.6,43.8,17.9,43.6,18L43.6,18z"/>
										<path class="st4" d="M61.2,28.3c-0.3,0-0.5-0.3-0.5-0.6c0-0.2,0.1-0.3,0.3-0.4l0,0c1.6-0.3,3.1-1,4.4-2
											c1.3-1,2.4-2.2,3.2-3.6c0.9-1.4,1.6-2.9,2.1-4.5c0.6-1.6,1-3.2,1.2-4.8l0,0c0-0.3,0.3-0.5,0.6-0.5c0.3,0,0.5,0.3,0.5,0.6
											l0,0c-0.1,0.9-0.2,1.7-0.4,2.6c-0.2,0.9-0.4,1.7-0.7,2.5c-0.6,1.7-1.4,3.2-2.3,4.7c-1,1.5-2.2,2.8-3.6,3.8l-0.3,0.2
											C64.3,27.3,62.8,27.9,61.2,28.3L61.2,28.3"/>
										<path class="st4" d="M84.6,51c1.2-2,2-4.2,2.2-6.5c0.3-2.3,0.3-4.7,0.1-7c-0.1-1.2-0.2-2.3-0.4-3.5s-0.4-2.3-0.7-3.5
											c-0.5-2.3-1-4.6-1.7-6.8l0,0c0-0.3,0.2-0.6,0.5-0.6c0.2,0,0.4,0.1,0.5,0.3c0.4,1.1,0.8,2.3,1.1,3.4s0.6,2.3,0.9,3.5
											c0.5,2.4,0.8,4.7,1,7.1c0.2,2.4,0.1,4.8-0.2,7.2c-0.1,0.6-0.2,1.2-0.3,1.8s-0.3,1.2-0.5,1.8c-0.4,1.2-0.9,2.3-1.5,3.4l0,0
											c-0.2,0.2-0.5,0.3-0.7,0.2S84.4,51.2,84.6,51L84.6,51z"/>
										<path class="st4" d="M56.8,20.7c-0.2,0.7-0.5,1.5-0.8,2.2c-0.3,0.7-0.7,1.4-1.2,2c-0.5,0.6-1,1.2-1.6,1.8
											c-0.6,0.5-1.2,1-1.9,1.4c-1.3,0.8-2.8,1.4-4.3,1.8h0c-0.3,0.1-0.6-0.1-0.6-0.4c0,0,0,0,0,0c0-0.3,0.1-0.6,0.4-0.6l0,0
											c2.9-0.5,5.4-2.1,7-4.6c0.8-1.2,1.4-2.5,1.8-3.9c0.4-1.4,0.7-2.8,0.8-4.2l0,0c0-0.3,0.3-0.5,0.6-0.5
											c0.2,0,0.4,0.2,0.5,0.5c0,0.8,0,1.6-0.1,2.3C57.2,19.2,57,19.9,56.8,20.7"/>
										<path class="st6" d="M34.9,103.8c0,0.1-4.4,9.7-12.9,8.7c-3.5-0.3-6.6-2.2-8.5-5.2c-6.1-9.7-0.4-29.6,0.8-33.3
											c1.6,0.5,5.7,1.5,7.9,0h0.1h0c0.9,1.3,2.5,7.8,4,15.2c0,0.1,0,0.3,0,0.4c0,0.1,0.1,0.1,0.1,0.2c0.5,2.6,1,5.3,1.5,7.9
											c0.1,0.4,0.4,0.6,0.8,0.5c0.3-0.1,0.6-0.4,0.5-0.7c0,0-0.6-3.6-1.5-8c1-1.2,2.4-4.4,4.1-9.3c1.5-4.9,5.6-8.5,10.6-9.3h0.1
											c1.1-0.3,2.5-0.6,4-0.8C44.3,75,38.7,88.5,37.7,95c-0.4,3.4-0.3,6.7,0.1,10.1l0,0l-1.5-4c0,0-0.3,0.9-1,2.3
											C35.1,103.4,35,103.6,34.9,103.8"/>
										<path class="st6" d="M51.6,69.4c0.4,0.1,0.7-0.2,0.8-0.5c0,0,0,0,0,0c0.2-1.3,0.5-2.5,0.9-3.8c0.5,0.1,1.6,0.2,2.4,0.4
											c1.1,0.2,2.3,0.4,3.3,0.6c-1.2,0.9-2.3,2.1-3.1,3.4c-0.6,1-1.1,2-1.4,3.1c-0.3,1.1-0.4,2.3-0.4,3.4c0,1.1,0,2.1-0.1,3.2
											c-0.1,1-0.4,2.1-0.7,3.1c-0.4,1.1-0.7,2.2-0.9,3.3c-0.1,0.6-0.1,1.2,0,1.8l0,0l-6-0.5l5-17.6h0.1L51.6,69.4"/>
										<path class="st7" d="M37.7,94.9c1-6.5,6.6-20,8.7-24.9l0.6-1.4l0.2-0.4l4.2-0.9c-0.1,0.4-0.2,0.8-0.3,1.3
											c-0.1,0.3,0.1,0.6,0.3,0.7v0.1l-5,17.6l6,0.5c0.1,0.6,0.3,1.2,0.6,1.7c0.5,1,1.2,2,2.1,2.8c0.5,0.5,1,1,1.6,1.4l-2.3,3.4
											c-0.5-1-1.2-1.9-2-2.7c0.4-1,0.7-2.6-0.2-3.7l0,0c-0.7-0.8-1.7-1.4-2.7-1.7c-0.4-0.5-1.7-1.6-3.1-1.1
											c-0.5,0.1-1,0.5-1.2,1c0,0.1,0,0.1-0.1,0.2c-0.5,0.2-1,0.5-1.3,0.9c-0.3,0.6-0.6,1.2-0.7,1.9c-0.2,0.3-0.4,0.7-0.5,1
											c-0.3,0.9-0.2,1.8,0.4,2.6c0.1,0.2,0.3,0.3,0.5,0.3c0.2,0.1,0.4,0.3,0.5,0.6c0.5,0.6,1.2,1,2,1.2c-0.9,2.4-0.5,5,0.9,7.1
											c-0.2,0.2-0.3,0.5-0.2,0.7l0.2,0.3c-0.3,0.1-0.5,0.2-0.9,0.3c-3.6,1.5-6.1,4-4.4,8.2c1.4,3.5,3,2.9,4.4,5.1
											c-6.5-0.8-8.3,6.8-0.5,6.2c1.7-0.1,3-0.2,4-0.2l0,0.1c0.6,0.9,1.4,1.7,2.3,2.3l-3.1-0.2c-0.4,0-0.7,0.2-0.7,0.6
											c0,0,0,0,0,0v0.1c-2.9-0.5-5.7-1.3-8.5-2.2c-0.3-0.1-0.7,0.1-0.8,0.4c-0.1,0.3,0.1,0.7,0.4,0.8c2.3,0.8,4.6,1.4,7,1.9
											c-1.2,0.4-2.7,0.8-4.3,1.4c-3.5,1.2-5.1,2.1-5.9,2.7c0.5-2,1-3.9,1.5-5.8c2.1-8,1.1-15.4,0.5-22
											C37.3,101.8,37.3,98.3,37.7,94.9"/>
										<path class="st4" d="M41.8,130.2c-3.5,1.2-5.1,2.1-5.9,2.7c-0.4,0.3-0.7,0.7-0.7,1.2v1.2v0.5c0,0.2,0.1,0.4,0.2,0.5
											c0.1,0.1,0.3,0.2,0.5,0.1c0.2,0,3.9-0.6,6-1.1c1.7-0.6,3.3-1.4,4.8-2.4l-3,11.9c-4.7-0.5-8.3-1-8.4-1
											c-0.4,0-0.7,0.3-0.7,0.6c0,0.3,0.2,0.6,0.5,0.7c0.4,0.1,3.8,0.5,8.2,1l-2.8,11.2c0,0.2,0,0.4,0.1,0.5
											c0.1,0.2,0.3,0.3,0.4,0.3l3.8,0.7H45c0.3,0,0.6-0.2,0.7-0.5l2.2-11.7l3.4,0.3l0.8,10.8c0,0.3,0.3,0.6,0.7,0.6l0,0l3.8-0.3
											c0.2,0,0.3-0.1,0.5-0.2c0.1-0.1,0.2-0.3,0.1-0.5l-1.3-10.1c3.3,0.3,6.7,0.1,10-0.4l0.4,8c0,0.3,0.3,0.6,0.7,0.6l0,0
											c0.4,0,0.6-0.3,0.6-0.7l-0.4-8.8c0-0.4-0.3-0.6-0.7-0.6c-0.1,0-0.1,0-0.2,0c-1.8,0.7-5.9,0.8-10.6,0.6l-1.8-13.5
											c1.4,1.2,2.9,2.2,4.5,3c2,0.8,5.7,1.7,5.8,1.8c0.2,0.1,0.4,0,0.5-0.1c0.2-0.1,0.3-0.3,0.3-0.4l0.3-1.7
											c0.1-0.7-0.2-1.7-5.6-4.3h1.6c5,0,10-0.7,14.9-2.1c0,0,0.1,0.1,0.1,0.1c0.1,0.1,0.4,0.2,0.6,0.2h0.3
											c1.1-0.2,2.2-0.5,3.2-0.9c2.5-0.9,5-2,7.3-3.3c5.6-3.1,14.6-9.7,12.9-19.7c-1.3-7.7-4.3-18.2-11.2-26.3c0-0.1,0-0.1,0-0.2
											c-0.1-1.1-0.2-2.2-0.5-3.3c-0.5-2.2-1.6-4.3-3.1-6c-0.8-0.8-1.6-1.6-2.6-2.2c-0.9-0.7-1.9-1.2-2.9-1.8
											c-0.5-0.2-1-0.5-1.5-0.7c0.2-0.4,0.6-0.8,0.9-1.1c0.3-0.3,0.3-0.7,0-0.9c-0.1-0.1-0.3-0.2-0.5-0.2c0.2-0.2,0.2-0.5,0-0.8
											C79.1,61.1,79,61,78.7,61c-0.1,0-0.2,0-0.3,0.1l-0.1,0.1c-0.3,0.2-0.5,0.4-0.8,0.6c-0.1-0.3-0.5-0.4-0.8-0.3
											c-1.1,0.3-2.2,0.7-3.3,1.3c-2.1-0.4-4.2-0.4-6.3-0.1c-0.5,0.1-1,0.2-1.5,0.3c0-0.8,0-1.6,0-2.4c0-0.6,0-1.2,0-1.7
											c0.6-0.2,1.2-0.4,1.9-0.6c1.8-0.7,3.5-1.6,5-2.7c1.5-1.1,2.9-2.5,3.9-4.1c0.9-1.3,1.5-2.7,2-4.2h0.3c0.2,0,0.4,0,0.7,0
											c0.5,0,0.9,0,1.4-0.2c0.8-0.3,1.6-0.8,2.1-1.5c1-1.3,1.6-2.9,1.8-4.5c0.1-0.8,0.2-1.6,0.1-2.4c0-0.9-0.2-1.7-0.6-2.5
											c-0.4-0.7-1.1-1.1-1.9-1c-0.2,0-0.4,0.1-0.7,0.1c-0.4,0.1-0.8,0.2-1.2,0.4l-0.2,0.1c-0.1-0.3-0.1-0.6-0.2-1
											c-0.3-1.1-0.6-2.2-0.9-3.3c-0.3-1.1-0.8-2.2-1.2-3.2S77.1,26,76.6,25c-0.1-0.3-0.4-0.4-0.7-0.3c-0.3,0.1-0.4,0.4-0.3,0.7
											v0l0,0l0.3,0.6c0.4,0.8,0.8,1.6,1.1,2.5c0.4,1.1,0.7,2.1,1,3.2c0.3,1.1,0.6,2.2,0.8,3.3s0.5,2.2,0.8,3.3l0,0
											c0,0.3,0.3,0.5,0.6,0.5c0.3,0,0.5-0.3,0.5-0.6c0-0.4-0.1-0.9-0.2-1.3l0.1-0.1c0.1-0.1,0.2-0.2,0.4-0.2
											c0.3-0.2,0.7-0.3,1-0.4c0.5-0.3,1.2-0.1,1.5,0.5c0.3,0.6,0.5,1.3,0.5,2c0,0.7-0.1,1.5-0.2,2.2c-0.1,0.7-0.3,1.4-0.6,2.1
											c-0.3,0.7-0.6,1.3-1.1,1.8c-0.5,0.5-1,0.9-1.6,1.1c-0.3,0.1-0.7,0.2-1,0.3c-0.2,0-0.3,0-0.5,0c0-0.2-0.2-0.4-0.4-0.5
											c-0.3-0.1-0.6,0.1-0.7,0.4l0,0l0,0c-0.4,1.7-1.1,3.4-2.1,4.8c-1,1.4-2.3,2.7-3.8,3.7c-1.5,1-3,1.9-4.7,2.5
											c-1.7,0.7-3.4,1.2-5.2,1.5l0,0c-0.3,0.1-0.5,0.3-0.4,0.6c0,0,0,0,0,0c0.1,0.3,0.3,0.5,0.6,0.4c0.8-0.1,1.5-0.2,2.3-0.4
											c0,1.3,0,2.7,0,4.1L64,63.4c-1.1,0.3-2.1,0.8-3.1,1.3h-0.1c-0.4,0-0.8,0-1.1,0c-1-0.1-2.4-0.4-3.7-0.6l-0.4-0.1
											c0.4-1.4,0.6-2.8,0.8-4.3c0.2,0,0.5,0,0.8,0c0.3,0,0.5-0.2,0.5-0.5c0,0,0,0,0,0c0-0.3-0.2-0.5-0.5-0.5l0,0
											c-0.8,0-1.7,0-2.5-0.2c-0.9-0.1-1.7-0.3-2.5-0.5c-1.7-0.4-3.3-1-4.8-1.7c-1.5-0.7-3-1.6-4.3-2.7c-0.3-0.3-0.6-0.6-0.9-0.9
											c-0.3-0.3-0.5-0.6-0.7-1c-0.4-0.7-0.8-1.5-1.1-2.2c-0.6-1.6-1-3.2-1.3-4.9c-0.3-1.7-0.4-3.4-0.5-5.1
											c-0.1-2.7-0.1-5.4,0-8.2c0-0.7,0.1-1.5,0.2-2.2l0,0c0-0.3-0.2-0.6-0.5-0.6c0,0,0,0,0,0c-0.3,0-0.6,0.2-0.6,0.5
											c-0.2,1.8-0.3,3.5-0.4,5.3s-0.1,3.5,0,5.3c0.1,1.8,0.3,3.6,0.6,5.4c0.3,1.8,0.8,3.5,1.4,5.2c0.3,0.8,0.8,1.7,1.3,2.4
											c0.3,0.4,0.5,0.8,0.9,1.1c0.3,0.3,0.6,0.7,1,1c1.4,1.2,2.9,2.1,4.6,2.8c1.6,0.7,3.3,1.3,5,1.7c1.1,0.3,2.1,0.5,3.2,0.6
											c-0.1,0.5-0.1,1-0.2,1.4c-0.2,1-0.4,1.9-0.6,2.7c-0.5-0.1-0.9-0.2-1.4-0.1c-0.3,0.1-0.7,0.2-1.4,3.5
											c-0.1,0.4-0.2,0.8-0.3,1.3c-0.1,0.3,0.1,0.6,0.3,0.7v0.1h0.1h0.1c0.4,0.1,0.7-0.2,0.8-0.5c0,0,0,0,0,0
											c0.2-1.3,0.5-2.5,0.9-3.8c0.5,0.1,1.6,0.2,2.4,0.4c1.1,0.2,2.3,0.4,3.3,0.6c-1.2,0.9-2.2,2.1-3.1,3.4
											c-0.6,1-1.1,2-1.4,3.1c-0.3,1.1-0.4,2.3-0.4,3.4c0,1.1,0,2.1-0.1,3.2c-0.1,1-0.4,2.1-0.7,3.1c-0.4,1.1-0.7,2.2-0.9,3.3
											c-0.1,0.6-0.1,1.2,0,1.8l0,0c0.1,0.6,0.3,1.2,0.6,1.7c0.5,1,1.2,2,2.1,2.8c0.5,0.5,1,1,1.6,1.4l-2.3,3.4
											c-0.5-1-1.2-1.9-2-2.7c0.4-1,0.7-2.6-0.2-3.7l0,0c-0.7-0.8-1.6-1.4-2.7-1.7c-0.5-0.5-1.7-1.6-3.1-1.1
											c-0.5,0.1-1,0.5-1.2,1c0,0.1,0,0.1-0.1,0.2c-0.5,0.1-1,0.5-1.3,0.9c-0.3,0.6-0.6,1.2-0.7,1.9c-0.2,0.3-0.4,0.7-0.5,1
											c-0.3,0.9-0.2,1.8,0.4,2.6c0.1,0.2,0.3,0.3,0.5,0.3c0.2,0.1,0.4,0.3,0.5,0.6c0.5,0.6,1.2,1,2,1.2c0.1-0.3,0.3-0.7,0.5-1
											l0.5-0.2c-0.6-0.1-1.2-0.3-1.7-0.6c-0.2-0.5-0.6-0.9-1.1-1.1c-0.2-0.3-0.3-0.7-0.2-1.1c0.1-0.3,0.3-0.5,0.4-0.8
											c0.1-0.1,0.2-0.3,0.2-0.4c0-0.5,0.2-1,0.5-1.5c0.2-0.3,0.6-0.4,0.9-0.5c0.2,0,0.4-0.2,0.5-0.4c0.1-0.2,0.1-0.4,0-0.6
											c0.1-0.1,0.3-0.2,0.4-0.2c0.7-0.2,1.5,0.6,1.8,0.9c0.1,0.1,0.3,0.2,0.4,0.2c0.8,0.2,1.6,0.6,2.1,1.3
											c0.5,0.6,0.2,1.8-0.1,2.6c-0.1,0.1-0.1,0.2-0.1,0.3l0,0l0,0c0,0.2,0.1,0.4,0.2,0.6c0,0,3,2.6,2.6,5.5
											c-0.1,0.4,0.2,0.7,0.5,0.7c0,0,0,0,0,0h0.1c0.2,0,0.5-0.1,0.6-0.3c1.5,2.6,4.2,4.2,7.2,4.2c0.4,0,0.8,0,1.2-0.1
											c2.8-0.4,5.5-1.6,7.7-3.4c-0.6,1.8-0.5,3.7,0.2,5.4c0.1,0.2,0.3,0.3,0.4,0.3h0.1c0.1,0,0.3,0,0.4-0.1c0,0,3.7-2.6,4.4-6.5
											c0.7,1.3,1.9,2.2,3.3,2.8c0.5,0.2,1.1,0.2,1.7,0.1l1.9,1.8l-3.7,5.2l-5.9,8.1c-0.2,0.2-0.2,0.6,0,0.8
											c0.1,0.1,0.1,0.1,0.2,0.2l0,0c-0.2,0.1-0.4,0.2-0.5,0.3l-0.1,0.1c-0.2-0.1-0.5-0.4-0.7-0.7c-1.3-1.5-3-2.7-4.8-3.4
											c-2-0.7-4.1-1-6.1-0.7c-0.3,0-0.6,0-0.8,0l-0.5-0.1l-0.5-0.1c0.9-3-0.8-6.6-1-6.8c-0.2-0.3-0.6-0.4-0.9-0.2
											c-0.3,0.2-0.4,0.5-0.3,0.8c0,0,1.7,3.4,0.8,6c-2.9-0.5-3.8-0.4-4.2,0c-0.5,0.5-0.7,1.2-0.6,1.9c0.1,0.6,0.6,1.3,2,1.8
											c1.3,0.4,2.6,0.7,3.9,0.9c-0.5,0.3-1,0.5-1.6,0.7c-0.6-0.1-3.4-0.5-3.8-0.6c-1.2-0.4-4.1-1.3-5.2-0.7
											c-0.3,0.2-0.5,0.5-0.5,0.8c-0.1,0.4,0,0.8,0.1,1.2c-0.4,0.1-0.7,0.3-1,0.6c-0.2,0.3-0.3,0.6-0.2,0.9
											c0.2,0.7,1.1,1.2,1.8,1.6c-0.1,0.4-0.1,0.8,0.1,1.2l0,0.1c0.6,0.9,1.4,1.7,2.3,2.3l-3.1-0.2c-0.4,0-0.7,0.2-0.7,0.6
											c0,0,0,0,0,0v0.1c-2.9-0.5-5.7-1.3-8.5-2.2c-0.3-0.1-0.7,0.1-0.8,0.4c-0.1,0.3,0.1,0.7,0.4,0.8c2.3,0.8,4.6,1.4,7,1.9
											c-1.2,0.4-2.7,0.8-4.3,1.4 M36.4,134c0.4-0.7,4.8-2.6,11.3-4.4l0.1,0.2l0,0.9c-0.1,0-0.3,0-0.4,0.1c0,0-3.9,2.7-5.8,3.2
											c-1.5,0.4-3.9,0.8-5.1,1L36.4,134z M42,156.8l6.2-24.6c0,0,0.1,0,0.2,0l0.8,0.1l0.1,0.1l-4.8,24.8L42,156.8z M53.4,156.8
											l-1.8-24.3h0.8l0,0c0.1,0,0.2,0,0.3-0.1l3.2,24.2L53.4,156.8z M58.9,134c-1.9-0.7-5.4-3.8-5.4-3.8
											c-0.1-0.1-0.2-0.1-0.4-0.2l0.1-0.9l0.1-0.2c6.3,2.6,10.4,4.9,10.7,5.7l-0.1,0.9C62.7,135.2,60.3,134.5,58.9,134 M66.2,129
											c2.7-0.7,5.4-1.6,7.9-2.7l2.5-0.7c0,0.5,0,0.9-0.2,1.4C73.1,128.1,69.7,128.7,66.2,129 M95.7,116.8
											c-5.6,6.4-15.1,9.8-18,10.5c0.9-3.7-1.6-7.3-2.5-8.5l9.7-13.3c0,0,0.1-0.1,0.1-0.1c0.1,0,0.2,0.1,0.3,0.1
											c0.1,0,0.3-0.1,0.4-0.1l1.9-1.4c0.2-0.3,0.2-0.7-0.1-0.9c-0.2-0.2-0.5-0.2-0.7-0.1l-1.9,1.4c-0.1,0.1-0.1,0.1-0.2,0.2
											l-2.5-2.5c-0.3-2-1.3-3.9-2.8-5.4c0.2-0.2,0.4-0.3,0.6-0.5c0.4-0.4,0.8-0.8,1.2-1.2c0.2-0.2,0.4-0.4,0.5-0.7l0.1-0.1h0.1
											c0,0,0.1,0.1,0.2,0.1c0.3,0.2,0.6,0.3,1,0.3c0.6,0,1.2-0.1,1.7-0.4c1-0.4,1.9-1.1,2.7-1.8c0.4-0.4,0.8-0.9,1-1.5
											c0.2-0.6,0.2-1.2,0-1.8c-0.2-0.6-0.6-1.1-1.1-1.5c-0.2-0.2-0.5-0.3-0.8-0.4c0.2-0.2,0.3-0.4,0.4-0.7
											c0.3-0.5,0.5-1,0.8-1.5c0.5-1,0.9-2.1,1.2-3.2c0.1-0.4,0.2-0.9,0.3-1.3c6.1,7.7,8.8,17.5,10,24.7
											C100.1,109.2,98.8,113.1,95.7,116.8 M88,75.2c0.3,1,0.4,2.1,0.5,3.2c0,1-0.1,2.1-0.4,3.1c-0.3,1-0.7,2-1.1,3
											c-0.2,0.5-0.5,1-0.7,1.4c-0.1,0.2-0.3,0.5-0.4,0.7c-0.1,0.1-0.1,0.2-0.2,0.3l-0.1,0.1c-0.3,0.1-0.4,0.3-0.3,0.6
											c0,0.2,0.2,0.3,0.3,0.3c0.1,0,0.1,0,0.2,0c0.4,0,0.8,0.1,1.2,0.4c0.3,0.2,0.6,0.6,0.7,1c0.2,0.9-0.1,1.8-0.8,2.3
											c-0.7,0.7-1.5,1.2-2.4,1.6c-0.4,0.2-0.8,0.3-1.3,0.3c-0.2,0-0.4-0.1-0.5-0.2l0,0c0.5-0.8,0.9-1.7,1.2-2.6
											c0.1-0.3-0.1-0.7-0.4-0.8c-0.3-0.1-0.7,0.1-0.8,0.4c-0.4,1-0.8,1.9-1.4,2.8C81,93.2,81,93.3,81,93.4l-0.1,0.2
											c-0.2,0.2-0.3,0.4-0.5,0.6c-0.3,0.4-0.7,0.8-1.1,1.1c-0.8,0.7-1.6,1.2-2.6,1.6c-0.2,0.1-0.5,0.1-0.7,0.2l-0.8,0.2
											c-0.5,0.1-1,0.2-1.6,0.2c-1.1,0.1-2.1,0.1-3.2,0c-4.3-0.4-8.4-1.9-12-4.4c-1.8-1.1-3.2-2.7-4.2-4.5
											c-0.5-0.9-0.6-1.8-0.5-2.8c0.2-1,0.4-2,0.8-3c0.4-1.1,0.6-2.2,0.8-3.3c0.1-1.1,0.1-2.2,0.1-3.4c0-1,0.1-2.1,0.3-3.1
											c0.3-1,0.7-1.9,1.3-2.8c1.1-1.8,2.7-3.3,4.5-4.3c1.9-1,3.9-1.7,6-2c1.6-0.2,3.2-0.3,4.8-0.1c-0.4,0.4-0.8,0.9-1,1.5
											c-0.4,1-0.4,2.1,0,3.1c0.1,0.2,0.3,0.4,0.6,0.4l0,0c0.1,0,0.2,0,0.3-0.1c0.3-0.2,0.4-0.5,0.3-0.9c-0.3-0.6-0.2-1.4,0.1-2
											c0.5-1.1,1.8-2,3.8-2.7c-1,1-1.6,2.2-1.8,3.6c-0.1,1.1,0.3,2.1,1.1,2.9c0.1,0.1,0.3,0.2,0.4,0.2c0.2,0,0.4-0.1,0.5-0.2
											c0.3-0.3,0.3-0.7,0-0.9c-0.5-0.5-0.7-1.2-0.7-2c0.1-1.2,1-2.5,2.6-3.8c-0.8,0.8-1.2,2-1.1,3.1c0.3,2.1,2.8,3.3,2.8,3.4
											c0.1,0,0.2,0.1,0.3,0.1c0.2,0,0.3-0.1,0.5-0.2c0-0.1,0.1-0.1,0.1-0.2c0.2-0.3,0-0.7-0.3-0.9c0,0,0,0,0,0l0,0
											c-0.8-0.4-1.5-1-2-1.7c-0.1-0.2-0.2-0.4-0.2-0.7c0-0.1,0-0.3,0-0.4c0.4,0.2,0.9,0.4,1.3,0.6c1,0.5,1.9,1,2.8,1.7
											c0.9,0.6,1.7,1.3,2.4,2.1C86.5,71.2,87.5,73.1,88,75.2 M57.8,94.1c1.9,1.2,3.9,2.2,6,3c2.1,0.8,4.3,1.3,6.6,1.4
											c0.6,0,1.2,0.1,1.8,0.1l0,0c-2.1,2-5.2,4.3-8.8,4.7c-5.8,0.7-7.8-4.3-8.1-5.5L57.8,94.1z M73.6,98.6L73.6,98.6
											c0.6,0,1.2-0.1,1.8-0.2h0.1c0.2,1.6-0.2,3.3-1.1,4.6c-0.6,0.9-1.3,1.7-2.1,2.4C71.6,103.3,72.7,100.4,73.6,98.6 M76.8,98
											l0.2-0.1c0.4-0.2,0.9-0.4,1.3-0.6c1.3,1.2,2.2,2.9,2.6,4.6C79.1,101.8,77.7,99.8,76.8,98 M73.4,121.2
											c0.5-0.1,1-0.3,1.4-0.7c0.8,1.1,1.3,2.4,1.6,3.8l-2.7,0.7h-0.1c-0.1,0-7.3,3.2-10.3,3c-0.3,0-0.9-0.1-1.6-0.1
											c-1.9-0.1-5.1-0.3-6.6-0.6c-1.8-0.4-3.4-1.4-4.5-2.9v-0.1c0.9,0.6,1.8,1,2.8,1.5c0.8,0.3,3.8,0.9,4.2,0.9h0.1
											c0.4,0,0.7-0.3,0.7-0.6c0-0.3-0.2-0.6-0.5-0.7c-0.9-0.2-3.4-0.7-4-0.9c-1-0.4-2-1-2.9-1.5l-0.1-0.1l0,0
											c-0.7-0.2-1.3-0.6-1.9-1c0.3-0.1,0.6-0.2,0.9-0.2c0.8,0.4,3.5,1.9,4.2,2.1s4,0.8,4.4,0.8h0.1c0.4,0,0.7-0.2,0.7-0.6
											c0-0.4-0.2-0.7-0.6-0.7c-1.4-0.2-3.6-0.6-4.2-0.8s-2.8-1.4-4.2-2.1l0,0h-0.1c0,0-0.3-0.2-0.3-0.8c1.4,0,2.7,0.3,4,0.8
											c0,0,0.1,0,0.1,0c0.1,0,3.4,0.5,4,0.6s1.9-0.6,4-1.9c0.2-0.2,0.3-0.4,0.3-0.7c-0.1-0.3-0.3-0.5-0.6-0.5
											c-1.9-0.2-3.7-0.6-5.5-1.1c-0.7-0.2-1.1-0.5-1.2-0.9c0-0.2,0-0.4,0.2-0.6c0.3-0.1,1.5,0,4.8,0.6l0.5,0.1
											c0.4,0,0.8,0,1.2,0c1.9-0.2,3.8,0,5.6,0.7c1.7,0.7,3.1,1.7,4.3,3.1C72.5,120.7,72.9,121.1,73.4,121.2L73.4,121.2z
											 M51.8,131.2l-2.6-0.1l0.2-2.6l2.6,0.1L51.8,131.2z M56.7,129l-0.5-0.2c1.5,0.2,3.5,0.3,5,0.4
											C59.7,129.2,58.1,129.1,56.7,129 M48.2,145.2l2.2-11.2l0.9,11.6C50.3,145.5,49.3,145.4,48.2,145.2"/>
										<path class="st3" d="M45.1,95.4c-0.2-0.5-0.6-0.9-1.1-1.1c-0.2-0.3-0.3-0.7-0.2-1.1c0.1-0.3,0.3-0.5,0.4-0.8
											c0.1-0.1,0.2-0.3,0.2-0.4c0-0.5,0.2-1,0.5-1.5c0.2-0.3,0.6-0.4,0.9-0.5c0.2,0,0.4-0.2,0.5-0.4c0.1-0.2,0.1-0.4,0-0.6
											c0.1-0.1,0.3-0.2,0.4-0.2c0.7-0.2,1.5,0.6,1.8,0.9c0.1,0.1,0.3,0.2,0.4,0.2c0.8,0.2,1.6,0.6,2.1,1.3
											c0.5,0.6,0.2,1.8-0.1,2.6c-0.1,0.1-0.1,0.2-0.1,0.3l0,0l-4.1,2C46.2,95.9,45.6,95.7,45.1,95.4"/>
										<path class="st5" d="M46.4,96.2l0.4-0.2l4.1-2l0,0c0,0.2,0.1,0.4,0.2,0.6c0,0,3,2.6,2.6,5.5c-0.1,0.4,0.2,0.7,0.5,0.7
											c0,0,0,0,0,0h0.1c0.2,0,0.5-0.1,0.6-0.3c1.5,2.6,4.2,4.2,7.2,4.2c0.4,0,0.8,0,1.2-0.1c2.8-0.4,5.5-1.6,7.7-3.4
											c-0.6,1.8-0.5,3.7,0.2,5.4c0.1,0.2,0.2,0.3,0.4,0.4h0.1c0.1,0,0.3,0,0.4-0.1c0,0,3.7-2.6,4.4-6.5c0.7,1.3,1.9,2.2,3.3,2.8
											c0.3,2.4,0.3,4.8-0.2,7.1l-5.9,8.1c-0.2,0.2-0.2,0.6,0,0.8c0.1,0.1,0.1,0.1,0.2,0.2l-0.5,0.4l-0.1,0.1
											c-0.3-0.2-0.5-0.5-0.7-0.7c-1.3-1.5-3-2.7-4.8-3.4c-2-0.7-4.1-1-6.1-0.7c-0.3,0-0.6,0-0.8,0l-0.5-0.1l-0.5-0.1
											c0.9-3-0.8-6.6-1-6.8c-0.2-0.3-0.6-0.4-0.9-0.2c-0.3,0.2-0.4,0.5-0.3,0.8c0,0,1.7,3.4,0.8,6c-2.9-0.5-3.8-0.4-4.2,0
											c-0.5,0.5-0.7,1.2-0.6,1.9c0.1,0.6,0.6,1.3,2,1.8c1.3,0.4,2.6,0.7,3.9,0.9c-0.5,0.3-1,0.5-1.6,0.7
											c-0.6-0.1-3.4-0.5-3.8-0.6c-1.2-0.4-4.1-1.3-5.2-0.7c-0.3,0.2-0.5,0.5-0.5,0.8c-0.1,0.4,0,0.8,0.1,1.2
											c-0.4,0.1-0.7,0.3-1,0.6c-0.2,0.3-0.3,0.6-0.2,0.9c0.2,0.7,1.1,1.2,1.8,1.6c-0.1,0.4-0.1,0.8,0.1,1.2
											c-1,0.1-2.3,0.1-4,0.2c-7.8,0.6-6-7,0.5-6.2c-1.4-2.2-3-1.6-4.4-5.1c-1.7-4.2,0.8-6.7,4.4-8.2c0.3-0.1,0.6-0.2,0.9-0.3
											c0.5,0.8,1.8,3.1,4.3,3.5c0.2,0,0.5,0.1,0.7,0.1c2.7,0,5.1-2.4,5.2-2.5c0.3-0.3,0.3-0.7,0-0.9c0,0,0,0,0,0
											c-0.3-0.3-0.7-0.3-0.9,0c0,0-2.4,2.5-4.8,2.1c-2.2-0.4-3.4-3-3.4-3.1c-0.1-0.3-0.5-0.5-0.9-0.3c0,0,0,0,0,0
											c-0.1,0-0.1,0.1-0.2,0.1c-1.5-2.1-1.8-4.7-0.9-7.1C46,96.8,46.1,96.4,46.4,96.2"/>
										<path class="st4" d="M47.9,104.4c0,0,1.2,2.7,3.4,3.1s4.8-2,4.8-2.1c0.3-0.3,0.7-0.3,0.9,0c0.3,0.3,0.3,0.7,0,0.9
											c0,0,0,0,0,0c-0.1,0.1-2.5,2.5-5.2,2.5c-0.2,0-0.5,0-0.7-0.1c-2.4-0.4-3.8-2.7-4.3-3.5l-0.2-0.3c-0.1-0.3,0-0.6,0.2-0.7
											c0.1-0.1,0.1-0.1,0.2-0.1C47.4,104,47.7,104.1,47.9,104.4C47.9,104.4,47.9,104.4,47.9,104.4"/>
										<path class="st6" d="M77.7,127.2c0.9-3.7-1.6-7.3-2.5-8.5l9.7-13.3c0,0,0.1-0.1,0.1-0.1c0.1,0,0.2,0.1,0.3,0.1
											c0.1,0,0.3-0.1,0.4-0.1l1.9-1.4c0.2-0.3,0.2-0.7-0.1-0.9c-0.2-0.2-0.5-0.2-0.7-0.1l-1.9,1.4c-0.1,0.1-0.1,0.1-0.2,0.2
											l-2.5-2.5c-0.3-2-1.3-3.9-2.8-5.4c0.2-0.2,0.4-0.3,0.6-0.5c0.4-0.4,0.8-0.8,1.2-1.2c0.2-0.2,0.4-0.4,0.5-0.7l0.1-0.1h0.1
											c0,0,0.1,0.1,0.2,0.1c0.3,0.2,0.6,0.3,1,0.3c0.6,0,1.2-0.1,1.7-0.4c1-0.4,1.9-1.1,2.7-1.8c0.4-0.4,0.8-0.9,1-1.5
											c0.2-0.6,0.2-1.2,0-1.8c-0.2-0.6-0.6-1.1-1.1-1.5c-0.2-0.2-0.5-0.3-0.8-0.4c0.2-0.2,0.3-0.4,0.4-0.7
											c0.3-0.5,0.5-1,0.8-1.5c0.5-1,0.9-2.1,1.2-3.2c0.1-0.4,0.2-0.9,0.3-1.3c6.1,7.7,8.8,17.5,10,24.7
											c0.7,4.2-0.5,8.1-3.7,11.7C90.1,123.1,80.6,126.5,77.7,127.2"/>
										<path class="st8" d="M14.2,74c1.6,0.5,5.7,1.5,7.9,0h0.1h0c0.4,0.7,0.7,1.5,0.9,2.3L13.7,76C13.9,75.2,14.1,74.5,14.2,74"
											/>
										<path class="st8" d="M38.9,71.9l6.7,0.2c-0.6,1.3-1.2,2.9-1.9,4.6l-10.1-0.3C34.9,74.5,36.7,72.9,38.9,71.9"/>
										<path class="st8" d="M29.3,86.3c0.6-1.2,1.2-2.8,1.8-4.6l9.3,0.2h1.1C41,83.5,40.5,85,40,86.6l-4.2-0.1L29.3,86.3z"/>
										<path class="st8" d="M11.5,85.8c0.3-1.7,0.6-3.2,0.9-4.7l3.5,0.1l8.7,0.2c0.3,1.4,0.7,3,1,4.7l-5.1-0.1L11.5,85.8z"/>
										<path class="st8" d="M10.9,91.1l14.7,0.4h1.1c0.1,0.4,0.2,0.9,0.2,1.4s0.2,1.1,0.3,1.6l0.3,1.7h-2l-14.8-0.4
											C10.8,94.2,10.8,92.7,10.9,91.1"/>
										<path class="st8" d="M37.5,96.5l-7.3-0.2h-1.3c-0.1-0.4-0.2-1-0.3-1.7c-0.1-0.4-0.1-0.8-0.2-1.2L28,91.6l2.3,0.1l8.1,0.2
											c-0.3,1-0.5,2.1-0.7,3.1C37.6,95.5,37.6,95.9,37.5,96.5"/>
										<path class="st8" d="M37.8,104.3c0,0.3,0,0.5,0.1,0.8l0,0l-0.5-1.2l-0.8-2.1h1C37.7,102.6,37.8,103.4,37.8,104.3"/>
										<path class="st8" d="M35.3,101.7L35.3,101.7h0.8l-0.2,0.6c-0.1,0.3-0.3,0.7-0.5,1.1c-0.2,0-0.4,0.2-0.5,0.4
											c-0.4,0.9-0.9,1.8-1.5,2.6l-18.1-0.5l-2.6-0.1c-0.7-1.5-1.2-3.1-1.5-4.7l8.9,0.2L35.3,101.7z"/>
										<path class="st8" d="M53.3,65.1c0.5,0.1,1.6,0.2,2.4,0.4l1.8,0.3c0.5,0.1,1,0.2,1.5,0.2c-0.4,0.3-0.8,0.7-1.2,1.1h-1.6
											L52.8,67C52.9,66.3,53.1,65.7,53.3,65.1"/>
										<path class="st8" d="M54.1,77l-3.5-0.1h-1.3l0.3-1.1l1-3.4l0.1-0.2h0.2l3.8,0.1c0,0.1-0.1,0.2-0.1,0.2
											c-0.3,1.1-0.4,2.3-0.4,3.4C54.1,76.3,54.1,76.7,54.1,77"/>
										<path class="st8" d="M53.3,82.2L53.3,82.2c-0.4,1.1-0.7,2.2-0.9,3.3c-0.1,0.5-0.1,0.9,0,1.4l-5.9-0.2l1.3-4.6L53.3,82.2z"
											/>
										<path class="st8" d="M87.4,87.4c-0.2-0.2-0.5-0.3-0.8-0.4c0.2-0.2,0.3-0.5,0.4-0.7c0.3-0.5,0.5-1,0.8-1.5s0.5-1.1,0.7-1.7
											l2.9,0.1c1,1.5,1.9,3.1,2.7,4.8l-6.2-0.2C87.8,87.7,87.6,87.5,87.4,87.4"/>
										<path class="st8" d="M79.4,96.6c0.2-0.2,0.4-0.3,0.6-0.5c0.4-0.4,0.8-0.8,1.2-1.2c0.2-0.2,0.4-0.4,0.5-0.7l0.1-0.1h0.1
											c0,0,0.1,0.1,0.2,0.1c0.3,0.2,0.6,0.3,1,0.3c0.6,0,1.2-0.1,1.8-0.4c0.6-0.3,1.2-0.6,1.7-1l9.9,0.3
											c0.6,1.6,1.1,3.2,1.5,4.7l-17.6-0.5C80,97.3,79.7,96.9,79.4,96.6"/>
										<path class="st8" d="M84.7,104.4l-1.5-1.4l3.2,0.1l-1.5,1.2C84.8,104.3,84.7,104.3,84.7,104.4"/>
										<path class="st8" d="M83.3,107.7l1.6-2.2c0,0,0.1-0.1,0.1-0.1c0.1,0,0.2,0,0.3,0.1c0.1,0,0.3,0,0.4-0.1l1.9-1.4
											c0.2-0.2,0.3-0.4,0.2-0.7l11.3,0.3c0,0.2,0.1,0.4,0.1,0.5c0.1,0.4,0.1,0.7,0.2,1.1c0.2,1,0.2,2.1,0.2,3.1l-4.6-0.1
											L83.3,107.7z"/>
										<path class="st9" d="M63.7,97.2c2.1,0.8,4.3,1.3,6.6,1.4c0.6,0,1.2,0.1,1.8,0v0.1c-2.1,2-5.2,4.3-8.8,4.7
											c-5.8,0.7-7.8-4.3-8.1-5.5l2.6-3.7C59.7,95.4,61.7,96.4,63.7,97.2"/>
										<path class="st6" d="M60.9,96.1c0-0.1,0-0.1,0-0.2c0.5,0.2,1,0.5,1.5,0.7l-0.2,0.1C61.7,96.9,61.1,96.7,60.9,96.1
											C60.9,96.1,60.9,96.1,60.9,96.1"/>
										<path class="st6" d="M62.8,98.2c0.5-0.2,1.1,0.1,1.3,0.6c0.2,0.5-0.1,1.1-0.6,1.3c-0.5,0.2-1.1-0.1-1.3-0.6
											C62,99,62.2,98.4,62.8,98.2C62.8,98.2,62.8,98.2,62.8,98.2"/>
										<path class="st6" d="M67.5,98.2c-0.1,0.3-0.3,0.5-0.6,0.7c-0.5,0.2-1.1,0-1.3-0.6c0,0,0,0,0-0.1c0-0.2,0-0.4,0-0.5
											C66.2,97.9,66.9,98.1,67.5,98.2"/>
										<path class="st6" d="M64,101.7c0.5-0.2,1.1,0.1,1.3,0.6c0,0,0,0,0,0c0.1,0.2,0.1,0.5,0,0.7c-0.6,0.2-1.1,0.3-1.7,0.4
											c-0.1-0.1-0.2-0.2-0.2-0.4C63.2,102.5,63.4,101.9,64,101.7C64,101.7,64,101.7,64,101.7"/>
										<path class="st6" d="M67.5,100.4c0.5-0.2,1.1,0,1.3,0.5c0,0,0,0,0,0.1c0,0.1,0,0.2,0,0.3c-0.5,0.3-1.1,0.6-1.6,0.9
											c-0.5-0.3-0.6-0.9-0.3-1.4C67,100.6,67.2,100.4,67.5,100.4"/>
										<path class="st6" d="M70.9,99.2c0.2-0.1,0.5-0.1,0.7,0c-0.4,0.4-0.9,0.8-1.4,1.1C70.1,99.8,70.4,99.3,70.9,99.2"/>
										<path class="st6" d="M57.5,94.5l0.3-0.4l0.2,0.1C57.8,94.4,57.7,94.5,57.5,94.5L57.5,94.5"/>
										<path class="st6" d="M55.5,97.4c0.2,0.1,0.4,0.3,0.4,0.5c0.2,0.4,0,0.9-0.3,1.2c-0.2-0.4-0.3-0.8-0.5-1.2L55.5,97.4z"/>
										<path class="st6" d="M58.1,96c0.5-0.2,1.1,0.1,1.3,0.6c0.2,0.5-0.1,1.1-0.6,1.3c-0.5,0.2-1.1-0.1-1.3-0.6
											C57.2,96.8,57.5,96.2,58.1,96C58,96,58,96,58.1,96"/>
										<path class="st6" d="M57.2,101.3C57.2,101.4,57.2,101.4,57.2,101.3c-0.2-0.2-0.4-0.4-0.6-0.6
											C56.9,100.9,57.1,101.1,57.2,101.3"/>
										<path class="st6" d="M59.3,99.5c0.5-0.2,1.1,0.1,1.3,0.6s-0.1,1.1-0.6,1.3c-0.5,0.2-1-0.1-1.2-0.6
											C58.5,100.3,58.7,99.7,59.3,99.5C59.3,99.5,59.3,99.5,59.3,99.5"/>
										<path class="st6" d="M61.8,103.4c-0.6,0-1.1-0.1-1.7-0.3c0.4-0.4,1-0.5,1.4-0.1C61.7,103.2,61.8,103.3,61.8,103.4"/>
										<path class="st9" d="M76.8,98l0.2-0.1c0.4-0.2,0.9-0.4,1.3-0.6c1.3,1.2,2.2,2.9,2.6,4.6C79.1,101.8,77.7,99.8,76.8,98"/>
										<path class="st9" d="M73.6,98.6L73.6,98.6c0.6,0,1.2-0.1,1.8-0.2h0.1c0.2,1.6-0.2,3.3-1.1,4.6c-0.6,0.9-1.3,1.7-2.1,2.4
											C71.6,103.3,72.7,100.4,73.6,98.6"/>
										<path class="st3" d="M88,75.2c-0.5-2.1-1.6-4-3-5.5c-0.7-0.8-1.5-1.5-2.4-2.1c-0.9-0.6-1.8-1.1-2.7-1.6
											c-0.4-0.2-0.9-0.4-1.3-0.6c0,0.1,0,0.3,0,0.4c0,0.2,0.1,0.5,0.2,0.7c0.5,0.7,1.4,1,1.9,1.7l0,0c0.3,0.2,0.5,0.5,0.3,0.9
											c0,0,0,0,0,0c0,0.1-0.1,0.1-0.1,0.2c0,0.1,0,0.2-0.1,0.3s-1.1,1.9-3.9,0.8c-1.2-0.5-2.4-0.8-3.7-0.9c-0.5,0-1-0.3-1.3-0.8
											c-0.2,0-0.4-0.1-0.6-0.4c-0.4-1-0.4-2.1,0-3.1c0.2-0.5,0.6-1,1-1.5c-1.6-0.2-3.2-0.2-4.8,0.1c-2.1,0.3-4.1,1-6,2
											c-1.8,1-3.4,2.5-4.5,4.3c-0.6,0.9-1,1.8-1.3,2.8c-0.2,1-0.3,2.1-0.2,3.1c0.1,1.1,0,2.2-0.1,3.4c-0.1,1.1-0.4,2.3-0.8,3.3
											c-0.4,1-0.6,2-0.8,3c-0.1,1,0,2,0.5,2.8c1,1.8,2.5,3.4,4.2,4.5c3.5,2.5,7.6,4,11.9,4.4c1.1,0.1,2.1,0.1,3.2,0
											c0.5,0,1.1-0.1,1.6-0.2c0.3,0,0.5-0.1,0.8-0.2c0.2-0.1,0.5-0.1,0.7-0.2c1-0.3,1.8-0.9,2.6-1.6c0.4-0.4,0.8-0.7,1.1-1.1
											c0.2-0.2,0.3-0.4,0.5-0.6l0.1-0.2c0-0.1,0.1-0.2,0.1-0.3c0.6-0.9,1.1-1.8,1.4-2.8c0.1-0.3,0.5-0.5,0.8-0.4
											c0.3,0.1,0.5,0.5,0.4,0.8c-0.3,0.9-0.7,1.8-1.2,2.6l0,0c0.2,0.1,0.3,0.1,0.5,0.2c0.4,0,0.9-0.1,1.3-0.3
											c0.9-0.4,1.7-0.9,2.4-1.6c0.7-0.6,1-1.5,0.8-2.3c-0.1-0.4-0.4-0.8-0.7-1c-0.4-0.2-0.8-0.4-1.2-0.4c-0.1,0-0.1,0-0.2,0
											c-0.3-0.1-0.4-0.3-0.3-0.6c0-0.2,0.2-0.3,0.3-0.3l0.1-0.1c0.1-0.1,0.2-0.2,0.2-0.3c0.2-0.2,0.3-0.4,0.4-0.7
											c0.3-0.5,0.5-0.9,0.7-1.4c0.5-1,0.8-2,1.1-3c0.3-1,0.4-2,0.4-3.1C88.4,77.3,88.2,76.2,88,75.2"/>
										<path class="st10" d="M80.7,68.1c-0.8-0.4-1.4-1-1.9-1.7C79.3,67.1,80.2,67.4,80.7,68.1"/>
										<path class="st10" d="M76.9,70.3c-1.2-0.5-2.4-0.8-3.7-0.9c-0.6,0-1.1-0.3-1.4-0.8l0,0c0.1,0,0.2,0,0.3-0.1
											c0.3-0.2,0.4-0.5,0.3-0.9c-0.3-0.6-0.2-1.4,0.1-2c0.5-1.1,1.8-2,3.8-2.7c-1,1-1.6,2.2-1.8,3.6c-0.1,1.1,0.3,2.1,1.1,2.9
											c0.1,0.1,0.3,0.2,0.4,0.2c0.2,0,0.4-0.1,0.5-0.2c0.3-0.3,0.3-0.7,0-0.9c-0.5-0.5-0.7-1.2-0.6-1.9c0.1-1.2,1-2.5,2.6-3.8
											c-0.8,0.8-1.2,2-1.1,3.1c0.3,2.1,2.8,3.3,2.8,3.4c0.1,0,0.2,0.1,0.3,0.1c0.2,0,0.3-0.1,0.5-0.2c0,0.1,0,0.2-0.1,0.3
											S79.8,71.4,76.9,70.3"/>
										<path class="st11" d="M76.8,92.7c-0.1,0.5-0.4,0.9-0.7,1.3c-0.3,0.4-0.6,0.8-1,1.1c-0.4,0.3-0.8,0.1-1.2,0.1
											c-0.5,0-0.9,0-1.4,0c-1-0.2-1.8-0.8-2.2-1.7c-0.3-0.9-0.3-1.9,0-2.8c0.5-1.8,2.3-2.9,4.1-2.4c0.1,0,0.2,0.1,0.4,0.1
											C76.4,89.1,77.3,90.9,76.8,92.7"/>
										<path class="st11" d="M60.8,87c-0.1,0.5-0.4,1-0.7,1.3c-0.3,0.4-0.6,0.8-1,1.1c-0.4,0.3-0.8,0.1-1.2,0.1
											c-0.5,0-0.9,0-1.4,0c-1-0.2-1.8-0.8-2.2-1.7c-0.3-0.9-0.3-1.9,0-2.8c0.5-1.8,2.4-2.9,4.2-2.4c0.1,0,0.2,0.1,0.3,0.1
											C60.4,83.5,61.3,85.3,60.8,87"/>
										<path class="st4" d="M9.5,57.4c1.7-1.2,3.5-2.2,5.5-3c0.3-0.1,0.6,0,0.7,0.3c0.1,0.3,0,0.6-0.3,0.7
											c-1.8,0.8-3.6,1.7-5.2,2.8c-0.1,0.1-0.2,0.1-0.3,0.1c-0.2,0-0.3-0.1-0.4-0.2C9.3,57.9,9.3,57.6,9.5,57.4
											C9.5,57.4,9.5,57.4,9.5,57.4"/>
										<g>
											<g>
												<defs>
													<rect id="SVGID_00000183928741655850472600000017837989504908980881_" x="64.3" y="42.4" width="9.1" height="9"/>
												</defs>
												<clipPath id="SVGID_00000000926942555216219630000002390127835941575320_">
													<use xlink:href="#SVGID_00000183928741655850472600000017837989504908980881_"  style="overflow:visible;"/>
												</clipPath>
												<g style="clip-path:url(#SVGID_00000000926942555216219630000002390127835941575320_);">
													<path class="st13" d="M64.4,47.9c-0.5-2.3,0.8-4.6,3-5.3c2.3-0.8,4.8,0.4,5.6,2.7c0.1,0.1,0.1,0.3,0.1,0.4
														c0.4,1.2,0.3,2.4-0.2,3.5c-0.6,1.1-1.7,1.8-3,2c-0.6,0-1.2,0-1.8,0c-0.6,0-1,0.2-1.6-0.2c-0.5-0.4-0.9-0.9-1.3-1.4
														C64.8,49.1,64.5,48.5,64.4,47.9"/>
												</g>
											</g>
										</g>
										<g>
											<g>
												<defs>
													<rect id="SVGID_00000102518798015449296910000001455374878674278817_" x="42.3" y="43.7" width="9.1" height="9"/>
												</defs>
												<clipPath id="SVGID_00000076600306063431995780000015073970237248718999_">
													<use xlink:href="#SVGID_00000102518798015449296910000001455374878674278817_"  style="overflow:visible;"/>
												</clipPath>
												<g style="clip-path:url(#SVGID_00000076600306063431995780000015073970237248718999_);">
													<path class="st13" d="M45.5,44c2.3-0.8,4.8,0.4,5.6,2.7c0.1,0.1,0.1,0.3,0.1,0.4c0.3,1.2,0.3,2.4-0.2,3.5
														c-0.6,1.1-1.7,1.8-3,2c-0.6,0-1.2,0-1.8-0.1c-0.6,0-1,0.2-1.6-0.2c-0.5-0.4-0.9-0.9-1.3-1.5c-0.4-0.5-0.7-1.1-0.9-1.8
														C41.9,47,43.2,44.6,45.5,44"/>
												</g>
											</g>
										</g>
										<path class="st4" d="M66.4,40.5c-1.8-0.4-1.8-3.8,0-4.5C68.4,34.9,69.8,41.2,66.4,40.5"/>
										<path class="st4" d="M47.7,40.9c-1.8-0.4-1.7-3.9,0.1-4.5C49.7,35.4,51.1,41.7,47.7,40.9"/>
										<path class="st3" d="M56,51.5L56,51.5L56,51.5c-0.3-0.3-0.6-0.7-0.8-1.1c-0.2-0.4-0.5-0.9-0.7-1.4c-0.3-0.7-0.6-1.4-0.8-2
											c0.5,0.1,0.9,0.1,1.4,0.2c0.8,0.1,1.5,0.1,2.3,0.2c0.8,0,1.6,0,2.4-0.1c0.4,0,0.9-0.1,1.3-0.2c0,0.2-0.1,0.4-0.1,0.5
											c-0.1,0.5-0.2,1-0.4,1.5c-0.2,0.5-0.4,0.9-0.6,1.4c-0.2,0.4-0.5,0.8-0.8,1.1l0,0c-0.2,0.2-0.3,0.5-0.1,0.8l-0.2,0.2
											l-2,0.1c-0.2-0.1-0.4-0.2-0.6-0.4C56.3,51.9,56.2,51.7,56,51.5"/>
										<path class="st4" d="M52.9,45.8L52.9,45.8c0.7,0.1,1.5,0.2,2.2,0.2s1.5,0.1,2.2,0.1c0.7,0,1.5,0,2.2-0.1
											c0.7-0.1,1.4-0.2,2-0.5c0.1,0,0.2,0,0.3,0c0.4,0,0.6,0.4,0.6,0.7l0,0c-0.1,0.6-0.2,1.1-0.3,1.7s-0.3,1.1-0.5,1.6
											c-0.2,0.5-0.4,1.1-0.7,1.5c-0.3,0.5-0.7,1-1.2,1.4c-0.2,0.2-0.6,0.1-0.7-0.1l0,0c-0.2-0.2-0.2-0.6,0.1-0.7c0,0,0,0,0,0
											l0,0c0.3-0.3,0.6-0.7,0.8-1.1c0.2-0.5,0.5-0.9,0.6-1.4c0.2-0.5,0.3-1,0.4-1.5c0-0.2,0.1-0.3,0.1-0.5
											c-0.4,0.1-0.9,0.2-1.3,0.2c-0.8,0.1-1.6,0.1-2.4,0.1c-0.8,0-1.6-0.1-2.3-0.2c-0.5,0-0.9-0.1-1.4-0.2
											c0.3,0.7,0.5,1.4,0.8,2c0.2,0.5,0.4,0.9,0.7,1.4c0.2,0.4,0.5,0.8,0.8,1.1l0,0l0,0c0.1,0.1,0.2,0.3,0.1,0.5
											c0,0.1-0.1,0.2-0.1,0.3c-0.2,0.2-0.5,0.2-0.7,0c0,0,0,0,0,0c-0.4-0.4-0.7-0.9-1-1.4c-0.3-0.5-0.5-1-0.7-1.4
											s-0.4-1-0.6-1.5s-0.4-1-0.6-1.5c0-0.1,0-0.2,0-0.2C52.3,45.9,52.5,45.7,52.9,45.8C52.8,45.8,52.8,45.8,52.9,45.8"/>
										<path class="st4" d="M55.7,40.9l0.9,0.7c0.2,0.2,0.2,0.6,0,0.8c-0.1,0.1-0.2,0.2-0.4,0.2c-0.1,0-0.3,0-0.4-0.1l-1.7-1.3
											C54,41,53.9,40.8,54,40.6c0.1-0.2,0.2-0.4,0.5-0.4c1.2-0.2,1.5-1.6,1.5-1.7c0.1-0.3,0.4-0.5,0.7-0.4s0.5,0.4,0.4,0.7l0,0
											C56.9,39.6,56.4,40.4,55.7,40.9"/>
										<path class="st4" d="M56.1,54.5c0.7,0.5,1.6,0.6,2.3,0.1c0.2-0.1,0.4,0,0.5,0.2c0.1,0.2,0,0.4-0.2,0.5l0,0
											c-0.5,0.2-1,0.3-1.5,0.4c-0.6,0-1.2-0.2-1.7-0.6c-0.1-0.1-0.1-0.4,0-0.5S56,54.3,56.1,54.5L56.1,54.5"/>
										<path class="st4" d="M66.9,85.8c-0.2-0.1-0.3-0.2-0.4-0.4c-0.1,0-0.2-0.1-0.3-0.1h-0.1c0,0,0,0.1-0.1,0.2
											c0,0.3-0.3,0.5-0.5,0.5h-0.1c-0.3,0-0.5-0.3-0.5-0.6c0,0,0,0,0,0c0-0.4,0.2-0.7,0.5-0.9c0.3-0.2,0.7-0.3,1-0.2
											c0.4,0.1,0.8,0.3,1,0.6c0.1,0.2,0.1,0.4,0.1,0.6C67.4,85.8,67.1,85.9,66.9,85.8C66.8,85.8,66.8,85.8,66.9,85.8"/>
										<path class="st4" d="M64.5,90c1.2,0.6,2.6,0.5,3.7-0.4c0.2-0.2,0.5-0.2,0.8,0c0.2,0.2,0.2,0.5,0,0.8l0,0
											c-0.8,0.7-1.8,1.1-2.8,1.1c-0.7,0-1.4-0.2-2-0.4c-2.9-1.2-2.7-3.5-2.7-3.6c0.1-0.3,0.3-0.5,0.6-0.4
											c0.3,0.1,0.5,0.3,0.4,0.6C62.6,87.6,62.4,89.1,64.5,90"/>
										<path class="st4" d="M73.4,87.3c-1.1-0.7-0.2-3,1.1-3C76,84,75.5,88.5,73.4,87.3"/>
										<path class="st4" d="M60.3,82.7c-1.1-0.7-0.2-3,1.1-3C63,79.5,62.4,84,60.3,82.7"/>
									</g>
								</g>
							</g>
						</g>
					</g>
				</g>
			</g>
		</g>
	</g>
</g>
</svg>
