<?xml version="1.0" encoding="utf-8"?>
<!-- Generator: Adobe Illustrator 26.0.3, SVG Export Plug-In . SVG Version: 6.00 Build 0)  -->
<svg version="1.1" id="レイヤー_1" xmlns="http://www.w3.org/2000/svg" xmlns:xlink="http://www.w3.org/1999/xlink" x="0px"
	 y="0px" viewBox="0 0 92.3 111" style="enable-background:new 0 0 92.3 111;" xml:space="preserve">
<style type="text/css">
	.st0{clip-path:url(#SVGID_00000134237396170900596650000001993488915338639509_);}
	.st1{clip-path:url(#SVGID_00000120519933286770043880000018235660168093543828_);}
	.st2{clip-path:url(#SVGID_00000160189633706218861090000009726462854733259403_);}
	.st3{fill:#FFFFFF;}
	.st4{fill:#26466D;}
	.st5{fill:#FDE67C;}
	.st6{fill:#82D4F5;}
	.st7{clip-path:url(#SVGID_00000168811259099489662090000016107704630209400204_);}
	.st8{fill:#FFFA9E;}
	.st9{clip-path:url(#SVGID_00000057118200641208508890000007716355030468605573_);}
	.st10{fill:#0080A9;}
	.st11{fill:#FFF76B;}
	.st12{clip-path:url(#SVGID_00000067925664627202204960000018113540836142583681_);}
	.st13{clip-path:url(#SVGID_00000131349972345167249590000016914450756372142527_);}
	.st14{fill:#DEF4FC;}
	.st15{fill:#0086A9;}
	.st16{fill:#86D5F5;}
</style>
<g>
	<g id="レイヤー_2_00000131333943294819935790000001016482947251543994_">
		<g id="レイヤー_1-2">
			<g id="アートワーク_17">
				<g>
					<defs>
						<rect id="SVGID_1_" x="-20.2" width="144.2" height="111"/>
					</defs>
					<clipPath id="SVGID_00000032640130983522892170000002781192812281222791_">
						<use xlink:href="#SVGID_1_"  style="overflow:visible;"/>
					</clipPath>
					<g style="clip-path:url(#SVGID_00000032640130983522892170000002781192812281222791_);">
						<g>
							<defs>
								<rect id="SVGID_00000075862490160193448520000010045278006892976546_" x="-20.2" width="144.2" height="111"/>
							</defs>
							<clipPath id="SVGID_00000103970802865299958650000001527797103501153974_">
								<use xlink:href="#SVGID_00000075862490160193448520000010045278006892976546_"  style="overflow:visible;"/>
							</clipPath>
							<g style="clip-path:url(#SVGID_00000103970802865299958650000001527797103501153974_);">
								<g>
									<defs>
										<path id="SVGID_00000062876333183988653300000001131199405214725510_" d="M-7.7,0h119.1c6.9,0,12.6,5.6,12.6,12.6v85.9
											c0,6.9-5.6,12.6-12.6,12.6H-7.7c-6.9,0-12.6-5.6-12.6-12.6V12.6C-20.2,5.6-14.6,0-7.7,0z"/>
									</defs>
									<clipPath id="SVGID_00000175294346265556421250000004379743531872059559_">
										<use xlink:href="#SVGID_00000062876333183988653300000001131199405214725510_"  style="overflow:visible;"/>
									</clipPath>
									<g style="clip-path:url(#SVGID_00000175294346265556421250000004379743531872059559_);">
										<path class="st3" d="M10.2,58.8C9.9,58.9,9.5,59,9.2,59H9.1c-0.4,0-0.6-0.3-0.6-0.7c0-0.3,0.2-0.6,0.5-0.6
											c0.8-0.1,1.6-0.4,2.3-0.8c0,0,0.1-0.1,0.2-0.1c0,0,4.8-2,6.1-6.3c0.4-0.8,0.9-1.6,1.5-2.2c0.4-0.4,0.7-0.8,1-1.3
											c-0.2,0-0.7,0.2-1.5,0.8c-0.2,0.2-0.4,0.3-0.6,0.4c-0.2,0.1-0.3,0.3-0.5,0.5c-0.8,0.8-2.1,2.3-4,1
											c-0.9-0.6-1.5-1.5-1.6-2.5c0-1,0.4-2,1.2-2.6c1.2-1,2.8-2.5,5.1-0.4c0.5,0.5,1.1,0.7,1.8,0.7c-0.9-1.6-2.8-4-4.5-3.7
											c-2.3,0.4-2.7,1.2-2.8,1.5c0,0.1,0,0.2,0,0.2c0,0.3-0.3,0.6-0.7,0.6l0,0c-0.1,0-0.2,0-0.2,0c0,0.1,0,0.2,0,0.3
											c-0.1,0.3-0.4,0.5-0.7,0.5c-2-0.3-4.1-0.1-6,0.5H4.7c-0.3,0-0.6-0.3-0.6-0.6c0-0.2,0.2-0.5,0.4-0.5l0.3-0.1
											c-0.3-0.6-1.4-3.2-2.1-4.6c-0.6-1.1-1.1-1.6-1.4-1.6H1.4C1.4,37.7,1.8,39,3,43.4c1.2,4.5,2,9.2,2.2,13.9
											c0,0.1,0,0.1,0,0.2l-0.2,4l5.1-0.5L10.2,58.8z M6.2,46.5c0.2-0.2,0.6-0.2,0.8,0c0,0,0,0,0,0c0.1,0.1,1.8,2.1,1.6,3.9
											c-0.1,0.7-0.5,1.4-1.1,1.8c-0.2,0.2-0.6,0.2-0.8-0.1c0,0,0,0,0,0c-0.2-0.3-0.1-0.6,0.1-0.8c0.3-0.2,0.6-0.6,0.6-1
											c0.1-1.1-0.9-2.6-1.4-3C6,47.1,6,46.7,6.2,46.5"/>
										<path class="st3" d="M9.3,42.8c0.6,0,1.3,0.1,1.9,0.2h0.1c0-0.1,0-0.1,0-0.2c0-0.1,0-0.3,0-0.4c0.1-1.2,0.6-5.3,1-7
											c0.2-1,0.1-2.1-0.2-3.1c-0.1,0.1-0.1,0.2-0.2,0.4c-0.7,1.6-2.2,7.3-2.6,8.8C9.3,41.9,9.3,42.4,9.3,42.8"/>
										<path class="st3" d="M7.9,42.9C8,42.6,8,42.4,8,42.1C8,42,8,42,8,42c-0.2-0.6-1.8-6.2-1.9-7.2c-0.2-2.6-1-3.4-1.3-3.4l0,0
											c0,0-0.1,0.1-0.1,0.4C4.8,34,6,42.2,6.2,43.2C6.7,43.1,7.3,43,7.9,42.9"/>
										<path class="st4" d="M7.5,50.3c0,0.4-0.3,0.8-0.6,1c-0.3,0.2-0.3,0.6-0.1,0.8c0.1,0.1,0.3,0.2,0.5,0.2
											c0.1,0,0.2,0,0.4-0.1c0.6-0.4,1-1.1,1.1-1.8c0.2-1.9-1.6-3.8-1.6-3.9c-0.2-0.2-0.6-0.2-0.8,0c0,0,0,0,0,0
											c-0.2,0.2-0.2,0.6,0,0.8C6.6,47.8,7.7,49.2,7.5,50.3"/>
										<polygon class="st3" points="3.7,62.9 3.8,64.7 12.5,64 12.6,62 										"/>
										<path class="st4" d="M3.8,64.7l-0.1-1.8l8.9-0.9l0,1.9l1.3-0.1l0.1-2.5c0-0.2-0.1-0.4-0.2-0.5c-0.1-0.1-0.3-0.2-0.5-0.2
											l-1.8,0.2l0.2-2.6c0.2-0.1,0.3-0.2,0.5-0.3c0.7-0.3,5.4-2.5,6.8-7.1c0.3-0.6,0.7-1.2,1.2-1.7c0.8-1,1.7-2,1-2.9
											c-0.1-0.1-0.1-0.1-0.2-0.2l0.2-0.1c0.3-0.2,0.4-0.6,0.3-0.9c0,0,0,0,0,0c-0.5-1-1.1-1.9-1.8-2.7c-1.5-1.9-3-2.7-4.5-2.4
											c-0.8,0.1-1.6,0.4-2.3,0.7c0.2-1.7,0.5-3.8,0.8-4.9c0.3-1.4,0.2-4.4-1.1-4.8c-0.5-0.2-1.1-0.1-1.8,1.3
											c-0.8,2.3-1.6,4.6-2.2,7c-0.6-2-1.1-4.1-1.2-4.6c-0.3-3.5-1.7-4.6-2.7-4.6c-0.9,0.1-1.5,0.9-1.3,1.8c0,0,0,0,0,0
											c0.1,1.2,0.5,4.1,0.9,6.7L4,38.3c-1.2-2.4-2.4-2.4-3-2.2c-0.6,0.1-1,0.7-1,1.3c0,0.3,0.3,1.3,1.8,6.5
											c1.2,4.4,2,8.9,2.2,13.4l-0.3,4.4l-0.7,0.1c-0.4,0-0.6,0.3-0.6,0.7l0.2,2.4L3.8,64.7z M5.2,57.5c0-0.1,0-0.1,0-0.2
											C5,52.6,4.2,48,3,43.4c-1.2-4.4-1.6-5.7-1.6-6.1h0.1c0.3,0,0.8,0.5,1.4,1.6c0.7,1.4,1.8,4,2.1,4.6c-0.1,0-0.2,0.1-0.3,0.1
											c-0.3,0.1-0.5,0.4-0.4,0.7c0.1,0.2,0.3,0.4,0.6,0.4h0.2c2-0.6,4-0.8,6.1-0.5c0.3,0.1,0.6-0.1,0.7-0.5c0-0.1,0-0.2,0-0.3
											c0.1,0,0.2,0,0.2,0l0,0c0.3,0,0.6-0.3,0.7-0.6c0,0,0-0.1,0-0.2c0.1-0.3,0.5-1.1,2.8-1.5c1.7-0.3,3.5,2.1,4.5,3.7
											c-0.7,0-1.3-0.2-1.8-0.7c-2.3-2.1-3.9-0.7-5.1,0.4c-0.8,0.6-1.3,1.6-1.2,2.6c0.1,1.1,0.7,2,1.6,2.6c1.8,1.2,3.2-0.2,4-1
											c0.1-0.2,0.3-0.3,0.5-0.5c0.2-0.1,0.4-0.2,0.6-0.4c0.8-0.6,1.3-0.9,1.5-0.8c-0.3,0.5-0.6,0.9-1,1.2
											c-0.6,0.6-1.1,1.4-1.5,2.2c-1.3,4.3-6,6.3-6.1,6.3c-0.1,0-0.1,0.1-0.2,0.1c-0.7,0.4-1.5,0.7-2.3,0.8
											c-0.3,0.1-0.5,0.5-0.4,0.9c0.1,0.2,0.2,0.3,0.4,0.4h0.1c0.4,0,0.7-0.1,1.1-0.2L10.1,61L5,61.5L5.2,57.5z M4.7,31.5
											L4.7,31.5c0.3,0,1.1,0.8,1.3,3.4c0.1,1,1.7,6.5,1.9,7.2c0,0,0,0.1,0,0.1c0,0.2,0,0.5-0.1,0.8c-0.6,0.1-1.2,0.2-1.8,0.3
											C6,42.2,4.8,34,4.6,31.9C4.6,31.6,4.7,31.4,4.7,31.5 M12.1,32.4c0.3,1,0.4,2,0.2,3.1c-0.4,1.6-0.9,5.8-1,7
											c0,0.1,0,0.3,0,0.4c0,0.1,0,0.1,0,0.2h-0.1c-0.6-0.1-1.3-0.2-1.9-0.2c0-0.4,0.1-0.8,0-1.3c0.4-1.5,1.9-7.2,2.6-8.7
											C12,32.7,12,32.6,12.1,32.4 M18.8,46.1c-0.3,0.2-0.7,0.4-1,0.7l-0.5,0.3c-0.3,0.2-0.6,0.4-0.8,0.7c-1,1-1.5,1.4-2.3,0.8
											c-0.6-0.4-0.9-0.9-1-1.6c0-0.6,0.3-1.2,0.8-1.5c0.8-0.7,1.3-1.1,1.9-1.1c0.6,0.1,1.1,0.3,1.4,0.7
											C17.7,45.6,18.2,45.9,18.8,46.1"/>
										<path class="st5" d="M18.9,95c0-3.3,1.2-5.3,4.4-6.3c-0.6-0.4-1.2-0.9-1.7-1.5c-0.4-0.4-0.7-0.9-0.8-1.5
											c-0.1-0.6-0.1-1.2,0.1-1.7c0.2-0.6,0.6-1.1,1.1-1.4c0.2-0.1,0.5-0.2,0.7-0.3c-0.1-0.2-0.2-0.4-0.4-0.7
											c-0.2-0.5-0.5-1-0.7-1.5c-0.4-1-0.7-2-0.9-3c-2.1,2.6-4,5.3-5.6,8.2l-0.7-21.6h-0.5l-1.3,0.1l-8.8,0.7l-1.3,0.1H2
											c0,0-4.3,39.5,5.5,40.4c3.2,0.2,6.4-0.3,9.4-1.5c1-3.4,1.8-6,2.1-6.6C18.9,96.4,18.9,95.7,18.9,95"/>
										<path class="st5" d="M59.3,65.9c0.4,0.9,1.3,1.6,2.2,1.8l0.4-0.7l0.1-0.3c0-0.1,0.1-0.1,0.1-0.2c-0.6-0.4-1.1-0.8-1.5-1.3
											L59,65.2C59.1,65.4,59.2,65.7,59.3,65.9"/>
										<path class="st3" d="M54.5,73.9c2.5-1.1,4.6-2.8,6.3-5c-1.2-0.4-2.1-1.3-2.6-2.4c-0.4-0.9-0.7-1.8-0.9-2.8l-6.8,0.1
											c1.1,1,2,2.1,2.8,3.4c0.6,1,1,2,1.2,3.1c0.2,1.1,0.3,2.2,0.2,3.3C54.5,73.7,54.5,73.8,54.5,73.9"/>
										<path class="st6" d="M34.4,32c0,0,0-0.1,0-0.1c0.2-1.4,0.4-2.9,0.7-4.3c0.2-1.2,0.5-2.3,0.8-3.5c-0.1-0.2-0.1-0.4-0.1-0.6
											c1.8-4.8,7.1-7.1,7.4-7.2c0.3-0.1,0.7,0,0.9,0.4c0,0.1,0,0.3,0,0.4c0.3,0,0.5,0,0.8,0c-0.8-0.6-1.2-0.9-1.2-1
											c-0.3-0.3-0.2-0.7,0-0.9c0.2-0.2,0.6-0.2,0.8-0.1c0.1,0.1,9.8,8.3,29,17.4c-0.1-0.5-0.2-1-0.4-1.5c-0.3-1-0.6-2.1-0.9-3.1
											c-0.3-1-0.8-2-1.3-3l0,0c-0.1-0.3-0.1-0.6,0.2-0.7c0.3-0.1,0.6-0.1,0.7,0.2v0.1c0.4,1,0.9,2,1.3,3.1
											c0.4,1,0.8,2.1,1.1,3.1s0.6,2.1,0.9,3.2c0.2,0.8,0.3,1.6,0.4,2.3c0.2-0.1,0.4-0.2,0.6-0.3c0.4-0.1,0.8-0.2,1.2-0.2h0.3
											c0.1,0,0.2,0,0.3,0c0.2,0,0.5,0.1,0.7,0.2c0.4,0.2,0.8,0.6,1,1.1c0.3,0.8,0.3,1.6,0.2,2.5c-0.1,0.8-0.3,1.5-0.6,2.3
											c-0.4,1.5-1.3,2.9-2.4,4c-0.6,0.6-1.4,0.9-2.3,1.1c-0.4,0.1-0.8,0.1-1.3,0c-0.2,0-0.4-0.1-0.6-0.1l-0.2-0.1
											c-0.7,1.3-1.6,2.6-2.6,3.7c-0.9,1-2,1.9-3.1,2.7l-0.4,0.5c0,0,9.6,3.2,14.2-7.3c0,0,10.6,0.3,8.1-21.1
											c-0.2-0.9-1.3-5-1.7-6c-0.6-1.6-1.5-3.1-2.5-4.5C79.8,6.9,72.9,0.4,63,0c-4.5-0.2-9.4,1.5-15.5,3.8
											c-5.8,2.3-12.8,5.8-14.3,15.9c-1,6.7,0,10.7,0.6,12.4c0.2,0,0.3-0.1,0.5-0.1L34.4,32 M84.6,26.9c-0.1-0.4,0.1-0.7,0.5-0.8
											c0.4-0.1,0.7,0.1,0.8,0.5c0.4,2.2,0.6,4.5,0.5,6.7c-0.2,4.9-1.8,8.7-4.5,10.9c-0.1,0.1-0.3,0.1-0.4,0.1
											c-0.4,0-0.7-0.3-0.7-0.7c0-0.2,0.1-0.4,0.2-0.5C87.1,38.3,84.6,27,84.6,26.9 M65.1,9.3c0.3-0.2,0.7-0.1,0.9,0.3
											c0,0,0,0,0,0c0.1,0.1,7.8,14,14.7,16.2c0.3,0.1,0.5,0.5,0.4,0.8c-0.1,0.3-0.3,0.5-0.6,0.5c-0.1,0-0.1,0-0.2,0
											c-3.1-1-6.7-4.1-10.6-9.4c-1.8-2.4-3.4-4.9-4.9-7.5C64.7,9.9,64.8,9.6,65.1,9.3C65.1,9.4,65.1,9.4,65.1,9.3"/>
										<path class="st3" d="M34,37.5c0-1.4,0.1-2.8,0.2-4.2c-0.2,0-0.4,0.1-0.5,0.2c-0.4,0.3-0.6,0.8-0.6,1.3c0,0.1,0,0.3,0,0.4
											v0.2v0.2c0,0.3,0,0.7,0.1,1c0.1,0.6,0.2,1.2,0.5,1.8c0.1,0.2,0.2,0.5,0.4,0.7C34,38.7,34,38.1,34,37.5"/>
										<path class="st3" d="M44.1,17c0,0.2-0.2,0.4-0.4,0.5c0,0-4.9,2.1-6.6,6.3c-0.7,2.9-1.2,5.9-1.5,8.9
											c-0.4,3.2-0.5,6.5-0.1,9.7c0.2,1.6,0.7,3.1,1.5,4.4c0.9,1.3,2,2.5,3.3,3.4c2.7,1.8,5.7,3.1,8.8,3.9l0,0
											c0.3,0.2,0.3,0.5,0.2,0.7C49.3,54.9,49.2,55,49,55l0,0l-0.2,0c0,1.3,0,2.4-0.1,3.5l8-0.1c0-0.9,0-1.7,0.1-2.5
											c-0.6,0-1.3,0-1.9,0c-0.3,0-0.5-0.3-0.5-0.5c0,0,0,0,0,0c0-0.3,0.2-0.5,0.5-0.5l0,0c1.7-0.1,3.5-0.3,5.2-0.6
											c1.7-0.3,3.4-0.8,4.9-1.6c1.6-0.7,3-1.7,4.2-2.9c1.2-1.2,2.2-2.7,2.8-4.3l0,0c0.1-0.3,0.5-0.4,0.7-0.2
											c0.2,0.1,0.3,0.3,0.3,0.4c0.2,0,0.3,0,0.5,0c0.3,0,0.7,0,1-0.1c0.6-0.1,1.2-0.4,1.7-0.8c0.5-0.4,1-0.9,1.3-1.5
											c0.2-0.3,0.4-0.6,0.5-0.9c0.1-0.3,0.3-0.7,0.4-1c0.2-0.6,0.4-1.3,0.5-2c0.1-0.7,0.1-1.4-0.1-2c-0.1-0.2-0.3-0.5-0.5-0.6
											c-0.1-0.1-0.2-0.1-0.4-0.1c-0.2,0-0.3,0-0.5,0c-0.3,0-0.7,0.1-1,0.2c-0.1,0-0.3,0.1-0.4,0.2c0,0-0.1,0.1-0.1,0.1l0,0l0,0
											c-0.1,0.2-0.2,0.3-0.5,0.4c-0.1,0.1-0.2,0.2-0.3,0.2c-0.3,0-0.5-0.2-0.6-0.4l0,0c-0.2-1-0.5-2.1-0.7-3.2v-0.1
											c-0.1,0-0.1,0-0.2,0.1c-7.8-3.6-15.3-7.8-22.5-12.5c-3-2-5.1-3.5-6.3-4.5C44.7,17,44.4,17,44.1,17"/>
										<g>
											<g>
												<defs>
													<rect id="SVGID_00000073001502057757214080000017736218338244371365_" x="59.9" y="41.3" width="8.7" height="8.8"/>
												</defs>
												<clipPath id="SVGID_00000103947502406859542420000011281426668428597180_">
													<use xlink:href="#SVGID_00000073001502057757214080000017736218338244371365_"  style="overflow:visible;"/>
												</clipPath>
												<g style="clip-path:url(#SVGID_00000103947502406859542420000011281426668428597180_);">
													<path class="st8" d="M63.6,41.4c-2.2,0.3-3.9,2.2-3.8,4.5c0,0.6,0.2,1.3,0.5,1.8c0.3,0.6,0.6,1.1,1,1.6
														c0.5,0.4,0.9,0.3,1.5,0.4c0.6,0.2,1.1,0.3,1.7,0.4c1.2,0,2.4-0.5,3.2-1.4c0.6-1,0.9-2.2,0.8-3.3
														c-0.1-2.3-2.1-4.2-4.4-4C64,41.3,63.8,41.3,63.6,41.4"/>
												</g>
											</g>
										</g>
										<g>
											<g>
												<defs>
													<rect id="SVGID_00000059278778775134211680000002636561199806999986_" x="38" y="38.1" width="8.7" height="8.8"/>
												</defs>
												<clipPath id="SVGID_00000000921448076325069410000001646399388078988989_">
													<use xlink:href="#SVGID_00000059278778775134211680000002636561199806999986_"  style="overflow:visible;"/>
												</clipPath>
												<g style="clip-path:url(#SVGID_00000000921448076325069410000001646399388078988989_);">
													<path class="st8" d="M41.8,38.1c-2.2,0.3-3.9,2.2-3.8,4.5c0,0.6,0.2,1.3,0.5,1.8c0.3,0.6,0.6,1.1,1,1.6
														c0.5,0.5,0.9,0.4,1.5,0.4c0.6,0.2,1.1,0.3,1.7,0.4c1.2,0,2.4-0.5,3.2-1.4c0.6-1,0.9-2.2,0.8-3.3
														c-0.1-2.3-2.1-4.1-4.4-4C42.1,38.1,42,38.1,41.8,38.1"/>
												</g>
											</g>
										</g>
										<path class="st3" d="M76.1,37.2C76.1,37.2,76.1,37.2,76.1,37.2L76.1,37.2L76.1,37.2"/>
										<polyline class="st3" points="76.1,37.2 76.1,37.2 76.1,37.2 76.1,37.2 76.1,37.2 										"/>
										<path class="st10" d="M76.1,37.2L76.1,37.2"/>
										<path class="st4" d="M63.9,35c-1.8,0.3-2.4,3.6-0.8,4.3C66.3,40.5,66,34.3,63.9,35"/>
										<path class="st4" d="M55.1,36.2c0.1-0.3,0-0.6-0.2-0.8c-0.3-0.1-0.6,0-0.8,0.2c0,0-0.7,1.3-1.8,1.2
											c-0.2,0-0.4,0.1-0.5,0.3c-0.1,0.2-0.1,0.4,0,0.6l1.2,1.6c0.1,0.1,0.3,0.2,0.4,0.2c0.1,0,0.2,0,0.3-0.1
											c0.2-0.2,0.3-0.5,0.1-0.8l-0.7-0.9C54,37.6,54.6,37,55.1,36.2"/>
										<path class="st4" d="M53.1,50.6c0.4,0,0.8-0.1,1.2-0.2c0.2,0,0.3-0.2,0.3-0.4s-0.2-0.3-0.4-0.3c0,0,0,0-0.1,0
											c-0.7,0.4-1.6,0.2-2.2-0.3c-0.1-0.2-0.4-0.2-0.5-0.1c-0.2,0.1-0.2,0.4-0.1,0.5C51.7,50.3,52.4,50.6,53.1,50.6"/>
										<path class="st4" d="M58.4,43.7c-0.3-0.1-0.7,0-0.8,0.3c0,0,0,0,0,0c-0.7,1.6-2.4,2.6-4.2,2.5c-1.8-0.1-3.3-1.4-3.6-3.2
											c-0.1-0.3-0.4-0.6-0.7-0.5c0,0,0,0,0,0c-0.3,0.1-0.6,0.4-0.5,0.7c0,0,0,0,0,0c0.4,2.4,2.4,4.1,4.8,4.3h0.4
											c2.2,0,4.1-1.3,5-3.3C58.9,44.1,58.7,43.8,58.4,43.7"/>
										<path class="st4" d="M69.8,17.7c3.9,5.2,7.4,8.4,10.6,9.4c0.1,0,0.1,0,0.2,0c0.4,0,0.7-0.3,0.7-0.7c0-0.3-0.2-0.5-0.5-0.6
											C73.8,23.6,66.1,9.7,66.1,9.6c-0.2-0.3-0.6-0.4-0.9-0.2c-0.3,0.2-0.3,0.5-0.2,0.8C66.4,12.8,68,15.3,69.8,17.7"/>
										<path class="st4" d="M81,44.1c0.1,0.2,0.3,0.2,0.5,0.2c0.1,0,0.3,0,0.4-0.1c2.8-2.2,4.3-6,4.5-10.9
											c0.1-2.3-0.1-4.5-0.5-6.7c-0.1-0.4-0.4-0.6-0.8-0.5c-0.4,0.1-0.6,0.4-0.5,0.8c0,0.1,2.5,11.5-3.5,16.3
											C80.8,43.4,80.8,43.8,81,44.1C81,44.1,81,44.1,81,44.1"/>
										<path class="st4" d="M47.7,35.6c0.1-0.2,0-0.5-0.2-0.7l-2.7-2.5c-0.2-0.3-0.6-0.3-0.9,0c-0.3,0.2-0.3,0.6,0,0.9
											c0,0,0,0,0,0l1.5,1.4h-1.9c-0.3,0-0.6,0.3-0.6,0.6c0,0,0,0,0,0c0,0.3,0.3,0.6,0.6,0.6h3.5C47.3,36,47.6,35.9,47.7,35.6"/>
										<path class="st3" d="M57.3,77.9l1.7-2.4l1.6-4.3c-1.4,1.6-3.1,2.8-5,3.7l0.1,0.1c0.2,0.3,0.3,0.6,0.3,0.9
											c0,0.1,0.1,0.3,0.1,0.4v0.4c0,0.3,0,0.5,0,0.8c0,0.8-0.1,1.7-0.2,2.5C56.2,79.4,56.8,78.7,57.3,77.9"/>
										<path class="st5" d="M59,115.8l1.1,1c1.5-1.1,3.5-1.5,5.3-1.2c0.8,0.2,1.4,0.7,1.8,1.4l5.5-3.2l2.2-7.7l0.1-3.7
											c-5,5-10.9,9.2-17.4,12.2l0,0C58.1,115,58.6,115.4,59,115.8"/>
										<path class="st5" d="M63.3,67.2l-1.6,4.4c1.2-1.7,1.4-1.8,1.5-1.8l0.2-0.1c0.6-0.4,1.4-0.8,2.1-1c0.2-0.2,0.4-0.4,0.7-0.6
											C65.2,68,64.3,67.7,63.3,67.2"/>
										<path class="st5" d="M65.4,83.3l-2.9,4c0.2,0,0.4,0.1,0.6,0.3c0.1,0.1,0.2,0.2,0.3,0.4c0.4-0.2,0.8-0.4,1.2-0.5l2.1-2.7
											L65.4,83.3z"/>
										<path class="st11" d="M59.2,94.2c-0.1-0.4-0.2-0.9-0.2-1.3l-0.3,0.6C58.9,93.7,59,93.9,59.2,94.2"/>
										<path class="st5" d="M66.6,63c1.4,0.2,2.9,0,4.3-0.6c-2.5-2.5-6.2-3.5-9.7-2.7C63.3,60.3,65.1,61.4,66.6,63"/>
										<path class="st5" d="M60.2,60.7c1,0.6,1.9,1.3,2.7,2.2c0.3,0.3,0.3,0.7,0,0.9c-0.3,0.3-0.7,0.3-0.9,0c0,0,0,0,0,0
											c-0.6-0.6-1.3-1.2-2-1.7c1.5,2.9,4.5,4.8,7.8,5C66.4,63.9,63.6,61.5,60.2,60.7"/>
										<path class="st5" d="M48.6,62.5L48.6,62.5l9-0.1l-0.1-2.7l-10.1,0.2l0.1,1.9C47.8,62,48.2,62.2,48.6,62.5"/>
										<path class="st3" d="M54.9,78.9C55,78.4,55,78,55,77.5c0-0.2,0-0.5,0-0.7v-0.4c0-0.1,0-0.2,0-0.3c0-0.4-0.2-0.7-0.6-0.9
											l0,0c0,0.5,0,1,0,1.5c0,0.9,0.2,1.8,0.4,2.6C54.9,79.2,54.9,79.1,54.9,78.9"/>
										<path class="st3" d="M50.1,87.6c-0.5,0-0.9,0-1.4-0.1c-0.5,0-0.8,0.1-1.2-0.2c-0.4-0.3-0.7-0.7-0.9-1.1
											c-0.3-0.4-0.5-0.8-0.6-1.3c-0.4-1.7,0.7-3.5,2.4-3.9c1.7-0.6,3.6,0.4,4.1,2.1c0,0.1,0.1,0.2,0.1,0.3
											c0.1,0.5,0.2,1.1,0.1,1.6l0.5-0.8c-0.1-0.2-0.1-0.5,0-0.7l0.7-0.9c0-0.1,0-0.1,0.1-0.2l0.3-0.4c-0.1-0.7-0.3-1.4-0.5-2.2
											c-0.3-1.1-0.5-2.1-0.6-3.2c0-1.1,0-2.2,0.1-3.2c0.1-1,0.1-2-0.1-3c-0.2-1-0.6-1.9-1.1-2.8c-1-1.8-2.4-3.3-4.1-4.3
											c-0.9-0.5-1.8-1-2.7-1.4c-0.9-0.4-1.9-0.7-2.9-0.9h-0.3c0.7,0.4,1.3,1,1.7,1.7c0.3,0.6,1.7,4,0.1,6.7
											c-1.1,1.9-3.5,3-7,3.2l0,0c-0.3,0-0.6-0.3-0.6-0.6c0-0.1,0-0.3,0.1-0.4h-0.1c-0.2,0.1-0.4,0.3-0.7,0.4
											c-1.4,0.8-2.9,1.2-4.5,1.3c-0.6,0-1.3-0.1-1.9-0.3c-1.3-0.4-2.4-1.4-3-2.6v-0.1c-0.6-0.6-1.2-1.3-1.7-2
											c-0.3-0.3-0.5-0.6-0.7-1c-0.8,1.1-1.3,2.2-1.7,3.5c-0.3,1-0.5,2-0.7,3c-0.1,1,0,2,0.2,3c0.2,1,0.5,2,0.9,2.9
											c0.2,0.5,0.4,0.9,0.6,1.4c0.1,0.2,0.2,0.4,0.4,0.7s0.1,0.2,0.2,0.3l0.1,0.1c0.2,0.1,0.3,0.3,0.3,0.5
											c0,0.2-0.2,0.4-0.3,0.4h-0.2c-0.4,0-0.8,0.1-1.2,0.3c-0.3,0.2-0.6,0.5-0.7,0.9c-0.1,0.4-0.1,0.8,0,1.2
											c0.1,0.4,0.3,0.8,0.6,1.1c0.6,0.7,1.4,1.3,2.2,1.7l0.2,0.1c0.4-0.1,0.9-0.2,1.4-0.2c-0.4-0.7-0.7-1.4-0.9-2.2
											c-0.1-0.3,0.1-0.7,0.5-0.8c0.3-0.1,0.7,0.1,0.8,0.5c0.2,0.8,0.6,1.6,1,2.3c0.7-0.1,1.4-0.1,2.2-0.1
											c0.1-1.5,1.1-2.7,2.5-3.1c1.8-0.6,3.8,0.4,4.3,2.2c0,0.1,0.1,0.2,0.1,0.4c0,0.2,0.1,0.4,0.1,0.7c3.8,0.2,7.6,1.1,11.2,2.5
											c0.5-0.3,1-0.5,1.5-0.8l0.2-0.1l1.6-2.3C50.9,87.5,50.5,87.6,50.1,87.6"/>
										<path class="st4" d="M40.1,82.2c0.1,0,0.2,0,0.2-0.1c0.1-0.1,0.2-0.2,0.2-0.4c0.1-0.1,0.1-0.1,0.2-0.2
											c0.1,0,0.1-0.1,0.1,0c0,0,0.1,0.1,0.1,0.1c0.1,0.2,0.3,0.3,0.5,0.2c0.2-0.1,0.3-0.3,0.2-0.5c0,0,0,0,0,0
											c-0.1-0.3-0.3-0.5-0.6-0.6c-0.3-0.1-0.6,0-0.8,0.1c-0.3,0.1-0.5,0.4-0.6,0.7c0,0.1,0,0.3,0.1,0.4
											C39.8,82.2,40,82.3,40.1,82.2"/>
										<path class="st4" d="M45,84.1c-0.3,0-0.6,0.1-0.7,0.4c-0.3,1.2-1.3,2.1-2.6,2.2c-1.2,0.3-2.5-0.2-3.1-1.3
											c-0.1-0.3-0.4-0.4-0.7-0.3c-0.3,0.1-0.4,0.4-0.3,0.7c0,0,0,0,0,0c0.6,1.3,2,2.1,3.4,2.1c0.3,0,0.6,0,0.9-0.1
											c1.7-0.2,3.1-1.5,3.5-3.1C45.5,84.5,45.3,84.2,45,84.1"/>
										<path class="st3" d="M52.6,83.5c-0.4-1.8-2.1-2.9-3.9-2.6c-0.1,0-0.2,0.1-0.3,0.1c-1.7,0.5-2.7,2.2-2.4,3.9
											c0.1,0.5,0.3,0.9,0.6,1.3c0.3,0.4,0.6,0.8,0.9,1.1c0.4,0.3,0.7,0.2,1.2,0.2c0.5,0.1,0.9,0.1,1.4,0.1
											c0.3-0.1,0.7-0.2,1-0.3l1.5-2.2C52.7,84.6,52.7,84,52.6,83.5"/>
										<g>
											<g>
												<defs>
													<rect id="SVGID_00000029037891843874001700000004203930740283060632_" x="45.9" y="80.9" width="6.8" height="6.7"/>
												</defs>
												<clipPath id="SVGID_00000168079638752027170990000010338566274469484938_">
													<use xlink:href="#SVGID_00000029037891843874001700000004203930740283060632_"  style="overflow:visible;"/>
												</clipPath>
												<g style="clip-path:url(#SVGID_00000168079638752027170990000010338566274469484938_);">
													<path class="st8" d="M52.6,83.5c-0.4-1.8-2.1-2.9-3.9-2.6c-0.1,0-0.2,0.1-0.3,0.1c-1.7,0.5-2.7,2.2-2.4,3.9
														c0.1,0.5,0.3,0.9,0.6,1.3c0.3,0.4,0.6,0.8,0.9,1.1c0.4,0.3,0.7,0.2,1.2,0.2c0.5,0.1,0.9,0.1,1.4,0.1
														c0.3-0.1,0.7-0.2,1-0.3l1.5-2.2C52.7,84.6,52.7,84,52.6,83.5"/>
												</g>
											</g>
										</g>
										<path class="st3" d="M32.1,84.8c-1.4,0.4-2.4,1.6-2.5,3.1c0.7,0,1.4,0,2.2,0h0.3c1.6,0,3.1,0.1,4.5,0.2
											c0-0.2-0.1-0.4-0.1-0.7c-0.4-1.9-2.2-3.1-4.1-2.7C32.4,84.7,32.3,84.8,32.1,84.8"/>
										<g>
											<g>
												<defs>
													<rect id="SVGID_00000036959248167624869200000017483819930131010239_" x="29.6" y="84.6" width="7.1" height="3.4"/>
												</defs>
												<clipPath id="SVGID_00000078032477320916631990000013828906339906650241_">
													<use xlink:href="#SVGID_00000036959248167624869200000017483819930131010239_"  style="overflow:visible;"/>
												</clipPath>
												<g style="clip-path:url(#SVGID_00000078032477320916631990000013828906339906650241_);">
													<path class="st8" d="M32.1,84.8c-1.4,0.4-2.4,1.6-2.5,3.1c0.7,0,1.4,0,2.2,0h0.3c1.6,0,3.1,0.1,4.5,0.2
														c0-0.2-0.1-0.4-0.1-0.7c-0.4-1.9-2.2-3.1-4.1-2.7C32.4,84.7,32.3,84.8,32.1,84.8"/>
												</g>
											</g>
										</g>
										<path class="st4" d="M33.5,83.7c1.2-0.4,0.9-2.8-0.3-3.1C31.8,80,31.2,84.5,33.5,83.7"/>
										<path class="st4" d="M46.8,77.5c-1.5-0.5-1.6,4,0.6,3C48.6,80,48.1,77.6,46.8,77.5"/>
										<path class="st5" d="M26.2,70.4c-0.6-1.4,0.4-3.5,1.7-4.3c1.1-0.8,2.6-0.6,3.4,0.5c0.8,0.8,1.1,2,0.6,3
											c-0.3,0.8-1.1,1.3-1.9,1.3c-0.3,0-0.6-0.3-0.6-0.7c0-0.3,0.3-0.6,0.7-0.6l0,0c0.3-0.1,0.6-0.3,0.7-0.6
											c0.2-0.6,0.1-1.3-0.4-1.7c-0.4-0.5-1.1-0.7-1.7-0.3c0,0,0,0-0.1,0c-0.9,0.6-1.5,2.1-1.2,2.8c0.4,0.9,1.3,1.7,2.2,2
											c1.5,0.5,3.3,0.2,5.4-0.9c1.2-0.5,2-1.5,2.4-2.7c0.3-1.4,0-2.9-0.7-4.2c-0.2-0.3-0.1-0.7,0.2-0.9c0.3-0.2,0.7-0.1,0.9,0.2
											c0,0,0,0,0,0c0.9,1.6,1.2,3.4,0.9,5.2c-0.4,1.3-1.2,2.4-2.4,3.1h0.1c0.1-0.2,0.3-0.3,0.5-0.3c3-0.2,5.1-1,6-2.6
											c1.3-2.2,0-5.2-0.2-5.5c-1.1-1.3-2.6-2.2-4.2-2.5c-0.1,0-0.2-0.1-0.3-0.1c-0.6,0-1.2,0.1-1.9,0.1c-2,0.2-4,0.8-5.9,1.6
											c-0.9,0.4-1.9,0.9-2.7,1.4c-0.9,0.5-1.7,1.1-2.4,1.8c-0.5,0.5-1,1.1-1.4,1.7c0.2,0.4,0.4,0.7,0.7,1
											C25,69.1,25.5,69.8,26.2,70.4"/>
										<path class="st4" d="M38.6,68.6c0.4-1.8,0.1-3.6-0.8-5.2c-0.2-0.3-0.6-0.4-0.9-0.2c0,0,0,0,0,0c-0.3,0.2-0.4,0.6-0.2,0.9
											c0.7,1.3,1,2.7,0.7,4.2C37,69.5,36.2,70.5,35,71c-2.1,1.1-3.9,1.4-5.4,0.9c-1-0.3-1.8-1-2.2-1.9c-0.3-0.7,0.3-2.2,1.2-2.8
											c0.5-0.4,1.3-0.3,1.7,0.2c0,0,0,0,0,0.1c0.5,0.4,0.6,1.1,0.4,1.7c-0.1,0.3-0.4,0.5-0.7,0.6c-0.3,0-0.6,0.2-0.7,0.6
											c0,0.3,0.2,0.6,0.6,0.7c0.8,0,1.6-0.5,1.9-1.3c0.5-1,0.2-2.2-0.6-3c-0.8-1-2.3-1.2-3.4-0.5c-1.3,0.9-2.3,2.9-1.7,4.3v0.1
											c0.6,1.2,1.7,2.2,3,2.6c0.6,0.2,1.2,0.3,1.9,0.3c1.6-0.1,3.1-0.5,4.5-1.3c0.2-0.1,0.5-0.3,0.7-0.4
											C37.4,71.1,38.2,70,38.6,68.6"/>
										<path class="st3" d="M68.3,95.2c0.5-0.8,0.6-1.7,0.2-2.6c-0.1-0.4-0.4-0.7-0.7-1c-0.3-0.3-0.6-0.6-0.8-1
											c-0.2-0.3-0.4-0.6-0.6-0.8c-0.2-0.2-0.4-0.4-0.6-0.7c-0.1-0.2-0.2-0.4-1-0.5c-0.5,0.1-0.9,0.3-1.4,0.6
											c-0.1,0.1-0.1,0.1-0.2,0.1c-0.2,0.3-0.4,0.6-0.5,0.9c-0.1,0.2-0.3,0.3-0.5,0.3c-0.1,0-0.2,0-0.2-0.1
											c-0.3-0.1-0.4-0.4-0.3-0.7c0,0,0,0,0,0c0.1-0.4,0.3-0.7,0.5-1l0,0c0-0.1-0.1-0.2-0.2-0.3c-0.6,0.4-1.1,1-1.6,1.5
											c-0.9,1-0.4,3.6-0.1,4.4c0.1,0.2,0,0.5-0.2,0.6c-0.1,0.1-0.2,0.1-0.3,0.2c1,1.2,2.3,2.1,3.7,2.6c0-0.1,0.1-0.1,0.1-0.2
											c0.1-0.1,0.3-0.2,0.4-0.2C65.9,97.2,67.4,96.4,68.3,95.2"/>
										<path class="st14" d="M57.5,109.5l0.2-0.1c4.2-1.7,7.1-5.6,7.5-10.1H65c-3.3,0-5.7-2.8-6.8-4.4c-0.8,1.6-1.4,3.3-1.8,5
											l0,0C57,103.1,57.4,106.3,57.5,109.5"/>
										<path class="st15" d="M75.3,68.1c-1.1-0.4-2.3-0.6-3.6-0.6c-1.5,0-2.9,0.4-4.1,1.2c0.2,0,0.4,0.1,0.6,0.2
											c1.3,0.4,2.4,1.2,3.2,2.3c0.8-0.8,1.8-1.5,2.8-2c0.2-0.1,0.4-0.1,0.7-0.1c0.9,0.1,1.8,0.5,2.5,1.2l0.2,0.1
											C77.2,69.3,76.3,68.5,75.3,68.1"/>
										<path class="st15" d="M14.6,127c0.8,7.4,5.2,10.9,15,11.7l-0.1-0.1c-0.3-0.4-0.4-0.9-0.2-1.4c0.3-0.9,1.8-1.7,4.4-2.8
											l0.4-0.2c1.9-1.1,3.7-2.3,5.5-3.5l0.4-0.3c-1.1,0.1-2.2,0.4-3.3,0.8c-1.5,0.6-2.5,0.6-3.2,0.1c-0.4-0.3-0.6-0.9-0.5-1.4
											c0-0.2,0.1-0.8,4-3c3.1-1,6.2-1.9,9.4-2.5c3.3-0.7,7.7,2,9,2.9c0.7-4.2,1-8.5,0.9-12.7c0.1-4.8-0.3-9.7-1.2-14.4l0,0
											c0,0,0,0,0-0.1c-0.2-1-0.7-2-1.3-2.8c-0.2-0.3-0.2-0.7,0.1-0.9c0.3-0.2,0.7-0.2,0.9,0.1c0.3,0.4,0.6,0.8,0.8,1.2
											c1.3-3.5,2.8-6.8,4.5-10.1c-0.7-0.9-1.6-1.7-2.6-2.4c-0.6-0.5-1.4-0.8-2.3-0.8c-0.1,0-0.3,0-0.4,0l-5.3,7.5l0,0
											c0,0.2-0.2,0.4-0.3,0.5c-0.2,0.1-0.4,0.1-0.6,0c-3.9-2.1-9.6-3.2-16.4-3.2h-0.3c-10,0-11.6,1.7-11.6,5.9
											c0,0.7,0,1.3,0.1,2c0,0.1,0,0.2,0,0.3c-0.1,0.2-5.9,17.2-5.9,26.9v0.5c0,0.4-0.3,0.7-0.6,0.7c0,0,0,0,0,0
											c0,0.3,0,0.7,0.1,1C14.3,126.4,14.6,126.6,14.6,127 M19.2,104c-0.2-0.3,0-0.7,0.3-0.9c0,0,0,0,0,0
											c0.1-0.1,3.3-1.6,9.5-1.6c5.4,0.1,10.8,1.1,15.9,2.9c0.3,0.1,0.5,0.5,0.4,0.8c-0.1,0.3-0.3,0.4-0.6,0.4
											c-0.1,0-0.1,0-0.2,0c-5-1.8-10.2-2.7-15.5-2.8c-5.9,0-8.9,1.5-8.9,1.5C19.8,104.5,19.4,104.3,19.2,104
											C19.2,104,19.2,104,19.2,104"/>
										<path class="st16" d="M57.5,85.2c-0.6-0.5-1.4-0.8-2.1-0.8c-2.4,2.2-2.8,5.7-1.2,8.4c0.6,1,1.4,1.8,2.4,2.3
											c1-2.3,2.3-5.1,3.5-7.5C59.4,86.7,58.5,85.8,57.5,85.2"/>
										<path class="st16" d="M49.9,110.8c-3.1,2-4.1,6.1-2.1,9.3c1.7,2.7,5.1,3.8,8.1,2.7c0.2-2.5,0.3-5.3,0.3-8.1
											c0-1.4,0-2.8-0.1-4.2C54.1,109.5,51.8,109.7,49.9,110.8"/>
										<path class="st16" d="M34.5,89.2c-0.8,0-1.6,0-2.4-0.1h-1.5C31.9,89.5,33.3,89.5,34.5,89.2"/>
										<path class="st16" d="M48.8,96.2c-2-3.1-6.1-4.1-9.2-2.2c-2.8,1.7-3.9,5.3-2.6,8.3c2.7,0.5,5.4,1.2,8,2.1
											c0.3,0.1,0.5,0.5,0.4,0.8c-0.1,0.3-0.3,0.4-0.6,0.4c-0.1,0-0.1,0-0.2,0c-2.2-0.8-4.4-1.4-6.7-1.9c2.1,3,6.3,3.8,9.3,1.7
											S50.9,99.2,48.8,96.2"/>
										<path class="st16" d="M20,98.3c2.2-1.8,3-4.9,2-7.6c-1.4,1-1.8,2.4-1.8,4.3c0,0.7,0,1.3,0.1,2c0,0.1,0,0.2,0,0.3
											C20.3,97.3,20.2,97.7,20,98.3"/>
										<path class="st16" d="M31.8,106.5c-1.9-3.2-6.1-4.1-9.2-2.2c-3.2,1.9-4.1,6.1-2.2,9.2c1.9,3.2,6.1,4.1,9.2,2.2
											C32.8,113.8,33.8,109.7,31.8,106.5C31.8,106.5,31.8,106.5,31.8,106.5"/>
										<path class="st10" d="M44.5,105.7c0.1,0,0.1,0,0.2,0c0.4,0,0.7-0.3,0.6-0.7c0-0.3-0.2-0.5-0.4-0.6
											c-5.1-1.8-10.5-2.8-15.9-2.9c-6.2,0-9.4,1.6-9.5,1.6c-0.3,0.2-0.4,0.6-0.3,0.9c0.2,0.3,0.5,0.4,0.9,0.3
											c0,0,3.1-1.5,8.9-1.5C34.3,102.9,39.5,103.9,44.5,105.7"/>
										<path class="st5" d="M90.3,98.2c-0.2-2.1-0.3-4.3-0.5-6.8c-0.5-8.2-3.2-14.2-7.7-17.6c-1.9-1.5-4.2-2.4-6.7-2.6
											c-0.4,0-0.6-0.3-0.6-0.7c0-0.1,0-0.1,0-0.2c0,0-0.1,0-0.1,0c-1,0.5-1.9,1.2-2.7,2c0.1,0.3,0.2,0.7,0.2,1.1
											c0,0.1,0,0.3-0.1,0.4L69.9,77c0,0.1-0.1,0.3-0.2,0.4l-0.1,0.1l-3.4,4.7l1.8,2.2c0.2,0.2,0.2,0.6,0,0.8l-1.9,2.5
											c0.4,0.2,0.8,0.5,0.9,1l0.3,0.3c0.4,0.3,0.7,0.8,0.9,1.2c0.1,0.2,0.3,0.4,0.5,0.5c0.5,0.4,0.9,1,1.1,1.6
											c0.5,1.2,0.3,2.5-0.4,3.6c-0.8,1.1-1.8,1.9-3.1,2.4c0.1,0.1,0.1,0.2,0.1,0.4c0,1.4-0.3,2.8-0.8,4.1c3.4-2.4,6.6-5,9.6-8
											l0.2-4.8c0-0.4,0.4-0.7,0.8-0.6c0.4,0,0.7,0.4,0.6,0.8L76,112.2l2.2-0.4c0.4-0.1,0.7,0.2,0.8,0.5c0.1,0.4-0.2,0.7-0.5,0.8
											l-2.9,0.6l-15.8,9.2c1,3.6,2.7,10.2,3.3,12.5c1.8-1,6.7-3.6,11.8-6.5c10.6-6.1,13.7-8.6,14.5-9.7
											C91.5,116.1,91.1,109.7,90.3,98.2"/>
										<path class="st4" d="M91.6,98.1c-0.2-2.1-0.3-4.3-0.5-6.8c-0.4-6-2.1-14.1-8.2-18.6c-1-0.7-2.1-1.3-3.2-1.8
											c-0.9-1.7-2.2-3.6-3.9-4.1c-1.3-0.4-2.6-0.6-3.9-0.6c-1,0-1.9,0.2-2.9,0.5c-0.3-0.8-0.8-1.6-1.3-2.4
											c1.6,0,3.2-0.4,4.7-1.1c0.2-0.1,0.3-0.3,0.3-0.5c0-0.2,0-0.4-0.2-0.5c-3.4-3.8-8.8-5.1-13.5-3.1h-0.1l0,0
											c0-0.4-0.3-0.6-0.7-0.6H58c0-0.9,0-1.8,0.1-2.6c0.7-0.1,1.4-0.2,2.2-0.3c1.8-0.4,3.5-1,5.2-1.8c0.4-0.2,0.9-0.5,1.3-0.7
											c1.2-0.7,2.2-1.6,3.2-2.5c1-1.1,1.9-2.4,2.6-3.7l0.2,0.1c0.2,0,0.4,0.1,0.6,0.1c0.4,0.1,0.8,0.1,1.3,0
											c0.8-0.2,1.6-0.5,2.3-1.1c1.1-1.1,2-2.5,2.4-4c0.3-0.7,0.5-1.5,0.6-2.3c0.2-0.8,0.1-1.7-0.2-2.6c-0.2-0.4-0.5-0.8-0.9-1
											c-0.2-0.1-0.5-0.2-0.7-0.2c-0.1,0-0.2,0-0.4,0h-0.3c-0.4,0-0.8,0.1-1.2,0.2c-0.2,0.1-0.4,0.2-0.6,0.3
											c-0.1-0.8-0.2-1.6-0.4-2.3c-0.2-1.1-0.6-2.1-0.9-3.2s-0.7-2.1-1.1-3.1c-0.4-1-0.9-2-1.3-3.1v-0.1
											c-0.2-0.3-0.5-0.3-0.7-0.2c-0.3,0.2-0.3,0.5-0.2,0.7l0,0c0.5,1,1,2,1.3,3c0.4,1,0.7,2.1,0.9,3.1c0.1,0.5,0.2,1,0.4,1.5
											c-19.1-9.1-28.9-17.3-29-17.4c-0.3-0.3-0.7-0.3-0.9,0s-0.3,0.7,0,0.9c0,0,0.1,0.1,0.1,0.1c0,0,0.4,0.4,1.2,1
											c1.2,0.9,3.3,2.5,6.3,4.5C58.5,26.3,66,30.4,73.8,34c0.1,0,0.1,0,0.2,0v0.1c0.2,1,0.5,2.1,0.7,3.2l0,0
											c0.1,0.3,0.3,0.5,0.6,0.4c0.1,0,0.2-0.1,0.3-0.2c0.2,0,0.4-0.2,0.5-0.4l0,0c0,0,0,0,0-0.1s0,0,0,0l0,0
											c0,0,0.1-0.1,0.1-0.1c0.1-0.1,0.2-0.1,0.4-0.2c0.3-0.1,0.7-0.2,1-0.2c0.2,0,0.3,0,0.5,0c0.1,0,0.2,0.1,0.4,0.1
											c0.2,0.1,0.4,0.3,0.5,0.6c0.2,0.6,0.2,1.3,0.1,2c-0.1,0.7-0.3,1.4-0.5,2c-0.1,0.3-0.3,0.7-0.4,1c-0.2,0.3-0.3,0.6-0.5,0.9
											c-0.4,0.6-0.8,1.1-1.3,1.5c-0.5,0.4-1.1,0.6-1.7,0.8c-0.3,0.1-0.7,0.1-1,0.1c-0.2,0-0.3,0-0.5,0c0-0.3-0.3-0.5-0.6-0.5
											c-0.2,0-0.4,0.1-0.4,0.3l0,0c-0.6,1.6-1.6,3.1-2.8,4.3c-1.2,1.2-2.6,2.2-4.2,2.9c-1.6,0.7-3.2,1.2-4.9,1.6
											c-1.7,0.3-3.4,0.5-5.2,0.6l0,0c-0.3,0-0.5,0.2-0.5,0.5c0,0.3,0.2,0.5,0.5,0.6c0,0,0,0,0,0c0.7,0,1.3,0,1.9,0
											c0,0.8-0.1,1.6-0.1,2.5l-8,0.1c0.1-1.1,0.1-2.2,0.1-3.5h0.2l0,0c0.3,0,0.5-0.2,0.5-0.5c0-0.2-0.1-0.4-0.3-0.5l0,0
											c-3.1-0.8-6.1-2.1-8.8-3.9c-1.3-0.9-2.4-2.1-3.3-3.4c-0.8-1.3-1.3-2.8-1.5-4.4c-0.4-3.2-0.4-6.5,0.1-9.7
											c0.3-3,0.9-6,1.5-8.9c1.7-4.1,6.5-6.3,6.6-6.3c0.2-0.1,0.3-0.3,0.4-0.5c0-0.1,0-0.3,0-0.4c-0.1-0.3-0.5-0.5-0.9-0.4
											c-0.2,0.1-5.6,2.4-7.4,7.2c-0.1,0.2,0,0.4,0.1,0.6c-0.3,1.2-0.6,2.3-0.8,3.5c-0.3,1.4-0.5,2.9-0.7,4.3c0,0,0,0.1,0,0.1
											h-0.2c-0.2,0-0.3,0-0.5,0.1c-0.3,0.1-0.5,0.2-0.8,0.3c-0.4,0.2-0.7,0.6-0.9,1c-0.2,0.4-0.3,0.8-0.4,1.3c0,0.4,0,0.8,0,1.1
											c0,0.4,0.1,0.7,0.1,1.1c0.1,0.7,0.3,1.5,0.6,2.2c0.3,0.7,0.8,1.4,1.4,1.8l0.2,0.1c0.1,0.5,0.1,1.1,0.2,1.6
											c0.1,0.8,0.4,1.7,0.6,2.5c0.3,0.8,0.7,1.6,1.2,2.3c1,1.4,2.2,2.6,3.6,3.6c1.4,0.9,2.9,1.7,4.4,2.4
											c0.8,0.3,1.6,0.6,2.3,0.9l0.9,0.3c0,1.3,0,2.7-0.1,4h-0.6c-0.2,0-0.3,0.1-0.5,0.2c-0.1,0.1-0.2,0.3-0.2,0.5v1.9L45.8,61
											c-1-0.4-2-0.7-3.1-0.9c-1.2-0.3-2.5-0.4-3.8-0.4h-0.2c-0.1,0-0.2,0-0.3,0c-0.7,0-1.4,0.1-2.1,0.2
											c-3.2,0.4-6.3,1.5-9.1,3.2c-0.9,0.6-1.8,1.2-2.6,2c-1.6,1.5-2.7,3.4-3.4,5.5c-0.3,1-0.6,2.1-0.7,3.2
											c-0.1,1.1,0,2.2,0.2,3.3v0.1c0.2,1,0.5,2,0.9,3c0.2,0.5,0.4,1,0.7,1.5c0.1,0.2,0.2,0.4,0.4,0.7c-0.3,0.1-0.5,0.2-0.7,0.3
											c-0.5,0.3-0.9,0.8-1.1,1.4c-0.2,0.6-0.2,1.2-0.1,1.8c0.2,0.6,0.4,1.1,0.8,1.5c0.5,0.6,1.1,1.1,1.7,1.5
											c-3.2,1-4.4,3-4.4,6.3c0,0.7,0,1.3,0.1,2c-0.2,0.6-1.1,3.2-2.1,6.6c-1.7,5.9-3.8,14.5-3.8,20.6v0.6c0,0.4,0.3,0.7,0.7,0.7
											l0,0c0.4,0,0.6-0.3,0.6-0.7c0,0,0,0,0,0v-0.5c0-9.7,5.8-26.7,5.9-26.9c0-0.1,0-0.2,0-0.3c-0.1-0.7-0.1-1.3-0.1-2
											c0-4.2,1.6-5.9,11.6-5.9h0.3c6.8,0,12.5,1.1,16.4,3.2c0.2,0.1,0.4,0.1,0.6,0c0.2-0.1,0.3-0.3,0.3-0.5l0,0l5.3-7.4
											c0.1,0,0.3,0,0.4,0c0.8,0,1.6,0.3,2.3,0.8c1,0.7,1.9,1.5,2.6,2.4c-1.7,3.3-3.2,6.7-4.5,10.1c-0.2-0.5-0.5-0.9-0.7-1.3
											c-0.2-0.3-0.6-0.3-0.9-0.1c-0.3,0.2-0.3,0.6-0.1,0.9c0.6,0.8,1.1,1.8,1.3,2.8c0,0,0,0,0,0.1l0,0c0.9,4.8,1.3,9.6,1.2,14.4
											c0,4.3-0.3,8.5-0.9,12.7c-1.3-0.9-5.7-3.5-9-2.9c-3.2,0.6-6.3,1.5-9.4,2.5c-3.8,2.2-3.9,2.7-4,3c-0.1,0.5,0.1,1.1,0.5,1.4
											c0.7,0.5,1.7,0.5,3.2-0.1c1.1-0.4,2.2-0.6,3.3-0.8l-0.4,0.3c-1.8,1.3-3.6,2.5-5.5,3.5l-0.4,0.2c-2.5,1.1-4.1,1.9-4.4,2.8
											c-0.2,0.5-0.1,1,0.2,1.4l0.1,0.1c-9.8-0.8-14.2-4.2-15-11.7c0-0.4-0.4-0.6-0.7-0.6l0,0c-0.4,0-0.6,0.4-0.6,0.7
											c0,0,0,0,0,0c0.8,7.3,4.8,11.1,13.1,12.5l-0.9,5.6c-0.1,0.4,0.2,0.7,0.5,0.7c0.1,0,0.2,0,0.2,0h0.1c0,0,2.5-0.8,10.2-0.8
											c1.4,0,2.9,0,4.5,0.1c-6.7,2.9-14.7,1.3-14.8,1.2l0,0c-0.4-0.1-0.7,0.2-0.8,0.5c-0.1,0.4,0.2,0.7,0.5,0.8
											c0.1,0,1.1,0.2,2.7,0.4c3.5,0.3,9.9,0.4,15-2.8l1.3,0.1c4.7,1.9,19.5,7.6,26.5,7.6c0.9,0.1,1.8-0.1,2.7-0.5l0.1-0.1
											c0.5-0.3,0.9-0.8,1-1.4c0.1-0.4-0.2-0.7-0.5-0.8c0,0,0,0,0,0c-0.1,0-0.1,0-0.2,0c-0.3,0-0.5,0.2-0.6,0.5
											c0,0.3-0.2,0.5-0.5,0.6c-1,0.6-4.6,0.9-16.2-2.9c-2.9-0.9-5.6-1.9-7.9-2.8c17.4,1.4,24.8,3.6,24.9,3.6h0.2
											c0.1,0,0.3,0,0.4-0.1c0.2-0.1,0.3-0.3,0.3-0.5l-0.1-3.7c0-0.4-0.3-0.6-0.7-0.6l0,0c-0.4,0-0.7,0.3-0.6,0.7c0,0,0,0,0,0
											l0.1,2.8c-2.5-0.6-10.2-2.4-25.2-3.5c-4.6-0.3-8.7-0.5-12.2-0.5c-3.2-0.1-6.4,0.1-9.6,0.7l0.7-4.6
											c0.9,0.1,1.8,0.2,2.8,0.2h0.5c0.2,0.3,0.6,0.6,1,0.7c0.9,0.3,1.9,0.4,2.9,0.2c0.8,0.7,1.8,1,2.9,0.9
											c0.9,0,1.9-0.1,2.8-0.4c0.4-0.1,0.8-0.1,1.2,0c2.5,0.4,5.1-0.1,7.3-1.3c1-0.6,1.9-1.3,2.7-2.1c1.8-1.4,4.7-3.9,5.6-4
											c0.2,0,0.5-0.2,1-0.3l0.4,1.4c0.1,0.3,0.4,0.5,0.7,0.5c0.1,0,0.1,0,0.2,0l2.1-0.5l0.3,1.3c0.1,0.3,0.3,0.5,0.6,0.5
											c0.1,0,0.2,0,0.3-0.1c0.4-0.2,5.1-2.7,10.5-5.7l0.4,11.5c0,0.4,0.3,0.7,0.7,0.7c0.4,0,0.7-0.3,0.7-0.7l-0.3-12.3
											c6.7-3.8,14.1-8.4,15.7-10.6C92.9,116.5,92.5,109.9,91.6,98.1 M74.9,128.9c-5.1,2.9-10,5.6-11.8,6.5
											c-0.6-2.3-2.3-8.9-3.3-12.5l15.7-9.2l2.9-0.6c0.4-0.1,0.6-0.4,0.5-0.8c-0.1-0.4-0.4-0.6-0.8-0.5l-2.2,0.4L76.8,90
											c0-0.4-0.3-0.7-0.7-0.7c-0.4,0-0.7,0.3-0.7,0.7l-0.2,4.8c-2.9,3-6.1,5.6-9.6,8c0.5-1.3,0.7-2.7,0.8-4.1
											c0-0.1,0-0.3-0.1-0.4c1.3-0.5,2.3-1.3,3.1-2.4c0.7-1.1,0.8-2.5,0.3-3.7c-0.2-0.6-0.5-1.1-1-1.5c-0.2-0.1-0.3-0.3-0.5-0.5
											c-0.2-0.5-0.5-0.9-0.9-1.2l-0.3-0.3c-0.2-0.5-0.5-0.8-0.9-1l1.9-2.5c0.2-0.2,0.2-0.6,0-0.8l-1.9-2.2l3.4-4.7l0.1-0.1
											c0.1-0.1,0.2-0.2,0.2-0.4l2.3-3.2c0.1-0.1,0.1-0.2,0.1-0.4c0-0.4-0.1-0.7-0.2-1.1c0.8-0.8,1.7-1.5,2.7-2c0,0,0.1,0,0.1,0
											c0,0.1,0,0.1,0,0.2c0,0.4,0.3,0.7,0.6,0.7c2.4,0.2,4.7,1.1,6.6,2.6c4.5,3.3,7.1,9.4,7.7,17.6c0.2,2.4,0.3,4.7,0.5,6.8
											c0.8,11.5,1.3,17.9-0.9,20.9C88.6,120.2,85.5,122.8,74.9,128.9 M50.9,137.1c-1.1,0.9-2.2,1.8-2.4,1.9
											c-1.3,0.7-2.7,1.1-4.2,1.3c0.5-0.2,1-0.5,1.4-0.7c0.3-0.2,0.4-0.6,0.2-0.9c-0.2-0.3-0.6-0.4-0.9-0.2
											c-1.2,0.7-2.5,1.2-3.8,1.6c-0.1,0-0.1,0.1-0.2,0.1c-0.3,0-0.6,0-0.9,0.1c-1.2,0.4-2.5,0.4-3.7,0.2
											c2.5-0.6,4.9-1.5,7.3-2.4c0.3-0.2,0.4-0.6,0.2-0.9c-0.2-0.3-0.5-0.3-0.8-0.2c-2.7,1.1-5.5,2-8.3,2.7
											c-0.1,0-0.1,0.1-0.2,0.1c-0.7,0.1-1.4,0.1-2.1-0.1c-0.1,0-0.3-0.1-0.4-0.2c0-0.1,0-0.1,0.1-0.2c0.9-0.2,2.8-0.6,3.3-0.7
											l1.2-0.6c1.3-0.6,3.7-1.7,4.3-1.9c0.3-0.1,0.6-0.5,0.5-0.8c-0.1-0.3-0.5-0.6-0.8-0.5c-1.5,0.6-3,1.3-4.5,2l-1.1,0.5
											c-0.2,0.1-1.8,0.4-3.2,0.7c-0.8,0.1-1.1-0.1-1.1-0.1c0-0.1,0-0.1,0-0.2c0.1-0.2,0.9-0.8,3.7-2l0.4-0.2
											c2-1.1,3.9-2.3,5.7-3.7c0.9-0.6,2.1-1.7,2.2-1.7c0.2-0.2,0.3-0.5,0.2-0.7c-0.1-0.3-0.4-0.4-0.7-0.4c-2,0.1-4,0.5-5.9,1.1
											c-1.2,0.5-1.7,0.4-1.8,0.3c0,0,0,0,0-0.1c1.1-0.8,2.2-1.5,3.3-2.1c3-1,6-1.7,9-2.3c3.2-0.6,8,2.7,8.4,2.9s0.5,0.3,1.9-0.3
											l1.1,4.1c-0.5,0.2-0.8,0.3-1,0.3C55.9,133.1,53.7,134.9,50.9,137.1 M56.3,100L56.3,100c0.4-1.7,1-3.4,1.8-5
											c1.1,1.6,3.6,4.4,6.8,4.4h0.1c-0.3,4.5-3.2,8.5-7.5,10.1l-0.2,0.1C57.3,106.3,57,103.1,56.3,100 M49.3,89.7
											c-0.5,0.3-1,0.6-1.5,0.8c-3.5-1.5-7.3-2.3-11.1-2.5c-1.4-0.1-3-0.2-4.5-0.2h-0.3c-0.8,0-1.5,0-2.2,0s-1.5,0.1-2.2,0.1
											c-0.4-0.7-0.8-1.5-1-2.3c-0.1-0.3-0.4-0.6-0.8-0.5c-0.3,0.1-0.6,0.4-0.5,0.8l0,0c0.2,0.8,0.5,1.5,0.8,2.2
											c-0.5,0.1-1,0.2-1.4,0.2l-0.2-0.1c-0.8-0.4-1.5-1-2.2-1.6c-0.3-0.3-0.5-0.7-0.6-1.1c-0.1-0.4-0.1-0.8,0-1.2
											c0.1-0.4,0.4-0.7,0.7-0.9c0.4-0.2,0.8-0.3,1.2-0.3h0.2c0.2-0.1,0.3-0.2,0.3-0.4c0-0.2-0.1-0.4-0.3-0.5l-0.1-0.1
											c-0.1-0.1-0.1-0.2-0.2-0.3s-0.2-0.4-0.4-0.7c-0.2-0.5-0.4-0.9-0.6-1.4c-0.4-1-0.7-1.9-0.9-2.9c-0.2-1-0.3-2-0.2-3
											c0.1-1,0.3-2,0.7-3c0.4-1.2,1-2.4,1.8-3.5c0.4-0.6,0.9-1.2,1.4-1.7c0.7-0.7,1.5-1.3,2.4-1.8c0.9-0.5,1.8-1,2.7-1.4
											c1.9-0.8,3.9-1.3,5.9-1.6c0.6-0.1,1.2-0.1,1.9-0.1c0.1,0.1,0.2,0.1,0.3,0.1c1.7,0.3,3.2,1.1,4.2,2.5
											c0.2,0.3,1.5,3.3,0.2,5.5c-0.9,1.5-2.9,2.4-6,2.6c-0.2,0-0.4,0.1-0.5,0.3c-0.1,0.1-0.1,0.2-0.1,0.4c0,0.3,0.3,0.6,0.6,0.6
											l0,0c3.5-0.2,5.8-1.3,7-3.2c1.6-2.7,0.2-6-0.1-6.7c-0.4-0.7-1-1.3-1.7-1.7l0.3,0.1c1,0.2,2,0.5,2.9,0.9
											c0.9,0.4,1.9,0.8,2.7,1.4c1.7,1.1,3.1,2.6,4.1,4.3c0.5,0.9,0.8,1.8,1.1,2.8c0.2,1,0.2,2,0.1,3c-0.1,1.1-0.2,2.2-0.1,3.2
											c0.1,1.1,0.3,2.2,0.6,3.2c0.2,0.7,0.4,1.5,0.5,2.2L54,82.6c0,0-0.1,0.1-0.1,0.2l-0.7,0.9c-0.1,0.2-0.1,0.5,0,0.7l-0.5,0.8
											l-1.5,2.2l-1.6,2.3L49.3,89.7 M47.4,59.9l10.1-0.2l0.1,2.7l-9,0.1l0,0c-0.4-0.2-0.8-0.5-1.2-0.7L47.4,59.9z M70.9,62.4
											c-1.4,0.5-2.8,0.7-4.3,0.6c-1.5-1.6-3.3-2.7-5.4-3.3C64.7,58.8,68.3,59.9,70.9,62.4 M59,92.9c0.1,0.4,0.1,0.9,0.2,1.3
											c-0.2-0.3-0.4-0.6-0.5-0.7L59,92.9 M64,97.7c-0.1,0.1-0.1,0.1-0.1,0.2c-1.5-0.5-2.8-1.4-3.7-2.6c0.1,0,0.2-0.1,0.3-0.2
											c0.2-0.2,0.2-0.4,0.2-0.6c-0.2-0.8-0.8-3.5,0.1-4.4c0.5-0.6,1-1.1,1.6-1.5c0.1,0.1,0.1,0.2,0.2,0.3l0,0
											c-0.2,0.3-0.4,0.6-0.5,1c-0.1,0.3,0,0.6,0.3,0.7c0,0,0,0,0,0c0.1,0,0.1,0,0.2,0.1c0.2,0,0.4-0.1,0.5-0.3
											c0.1-0.3,0.3-0.6,0.5-0.9c0.1,0,0.1-0.1,0.2-0.1c0.4-0.3,0.9-0.5,1.4-0.6c0.8,0.1,0.9,0.2,1,0.5c0.1,0.3,0.3,0.5,0.6,0.7
											c0.3,0.2,0.5,0.5,0.6,0.8c0.2,0.4,0.4,0.7,0.8,1c0.3,0.3,0.6,0.6,0.7,1c0.4,0.8,0.3,1.8-0.2,2.6c-1,1.3-2.4,2.1-4,2.3
											C64.2,97.5,64.1,97.6,64,97.7 M54.4,76.7c0-0.5,0-1,0-1.5l0,0c0.3,0.2,0.5,0.5,0.6,0.9c0,0.1,0,0.2,0,0.3v0.4
											c0,0.2,0,0.5,0,0.7c0,0.5-0.1,0.9-0.1,1.4c0,0.1,0,0.2-0.1,0.4C54.5,78.4,54.4,77.6,54.4,76.7 M54.2,70.3
											c-0.3-1.1-0.7-2.1-1.2-3.1c-0.7-1.3-1.6-2.5-2.8-3.4l6.8-0.1c0.2,1,0.5,1.9,0.9,2.8c0.5,1.1,1.5,2,2.8,2.4
											c-1.6,2.2-3.8,3.9-6.3,5v-0.3C54.6,72.5,54.6,71.3,54.2,70.3 M59,63.2c0.5,0.8,1,1.5,1.7,2.1c0.5,0.5,1,0.9,1.5,1.3
											c0,0.1-0.1,0.1-0.1,0.2L62,67l-0.4,0.7c-1-0.2-1.8-0.9-2.2-1.8c-0.1-0.2-0.2-0.5-0.3-0.8c-0.2-0.5-0.3-1-0.4-1.5
											c0.1,0,0.2-0.1,0.3-0.2C58.9,63.4,59,63.3,59,63.2 M56,76.7v-0.4c0-0.1,0-0.3-0.1-0.4c-0.1-0.3-0.2-0.6-0.3-0.9l-0.1-0.1
											c1.9-0.9,3.6-2.2,5-3.7l-1.6,4.3l-1.7,2.4c-0.6,0.7-1,1.4-1.5,2.1c0.2-0.8,0.3-1.6,0.3-2.5C56.1,77.3,56.1,77,56,76.7
											 M65.5,68.8c-0.8,0.2-1.5,0.6-2.1,1l-0.2,0.1c-0.1,0-0.2,0.1-1.5,1.8l1.6-4.4c0.9,0.5,1.9,0.8,2.9,1
											C66,68.4,65.7,68.6,65.5,68.8 M64.7,87.5c-0.4,0.1-0.8,0.3-1.2,0.5c-0.1-0.1-0.2-0.2-0.3-0.4c-0.2-0.1-0.4-0.2-0.6-0.3
											l2.9-4l1.3,1.5L64.7,87.5z M77.5,70.2c-0.7-0.6-1.6-1-2.5-1.2c-0.2,0-0.4,0-0.7,0.1c-1,0.5-2,1.2-2.8,2
											c-0.8-1.1-1.9-1.9-3.2-2.3c-0.2-0.1-0.4-0.1-0.6-0.2c1.2-0.8,2.6-1.2,4.1-1.2c1.2,0,2.4,0.2,3.5,0.6
											c1,0.4,1.9,1.2,2.4,2.2L77.5,70.2 M67.7,67.1c-3.3-0.2-6.2-2.1-7.8-5c0.7,0.5,1.4,1.1,2,1.7c0.1,0.1,0.3,0.2,0.5,0.2
											c0.2,0,0.3-0.1,0.5-0.2c0.3-0.3,0.3-0.7,0-0.9c-0.8-0.8-1.7-1.6-2.7-2.2C63.5,61.4,66.4,63.8,67.7,67.1 M74.9,102.3
											l-0.1,3.7l-0.2,6.5l-1.9,1.1l-5.4,3.3c-0.4-0.7-1-1.2-1.8-1.4c-1.9-0.4-3.8,0-5.3,1.2l-1.1-1c-0.4-0.4-0.9-0.8-1.4-1.2
											l0,0C64,111.5,69.9,107.4,74.9,102.3 M58.1,116.7c1.6,1.4,1.6,1.4,1.8,1.4c0.3,0.1,0.6,0,0.8-0.3c1.3-1,2.9-1.4,4.5-1
											c0.4,0.1,0.7,0.4,0.8,0.8l-7.4,4.3c-0.3,0.1-0.4,0.4-0.3,0.7c0,0.1,0,0.2,0.1,0.3c-0.3-0.1-0.6-0.3-0.8-0.5l-0.1-0.1
											c-0.1-0.1-0.2-0.2-0.2-0.2c0.1-1.8,0.2-3.8,0.3-5.9L58.1,116.7 M57.2,123.7l0.1,0.1L57.2,123.7
											C57.2,123.8,57.2,123.7,57.2,123.7 M57.5,125.3l1.4-0.5c0.8,2.8,1.7,6.5,2.4,9l-1.4,0.4L57.5,125.3z M33.2,36.6
											c-0.1-0.3-0.1-0.7-0.1-1v-0.2v-0.2c0-0.1,0-0.3,0-0.4c0-0.5,0.3-1,0.7-1.3c0.2-0.1,0.3-0.2,0.5-0.2
											c-0.2,1.4-0.2,2.8-0.2,4.2c0,0.5,0,1.1,0,1.6c-0.1-0.2-0.3-0.5-0.4-0.7C33.5,37.9,33.3,37.3,33.2,36.6"/>
									</g>
								</g>
							</g>
						</g>
					</g>
				</g>
			</g>
		</g>
	</g>
</g>
</svg>
