<?xml version="1.0" encoding="UTF-8"?><svg xmlns="http://www.w3.org/2000/svg" viewBox="0 0 101.58 18.72"><defs><style>.d{fill:#463e36;}.e{fill:none;stroke:#fff;stroke-width:2px;}</style></defs><g id="a"/><g id="b"><g id="c"><g><g><path class="e" d="M6.32,6.7c2.94,0,5.1,2.14,5.1,5.06,0,3.22-2.28,5.48-5.48,5.48-3.82,0-5.94-2.58-5.94-7.3C0,4.6,2.32,1.48,6.28,1.48c2.38,0,4.8,1.44,4.8,2.88,0,.84-.84,1.62-1.72,1.62-.4,0-.64-.12-1.06-.54-.68-.66-1.3-.92-2.12-.92-1.66,0-2.44,.9-2.84,3.26,.9-.78,1.72-1.08,2.98-1.08Zm-.46,7.54c1.42,0,2.36-.94,2.36-2.34s-.88-2.28-2.26-2.28c-1.52,0-2.68,1.1-2.68,1.9,0,1.32,.86,2.72,2.58,2.72Z"/><path class="e" d="M23.11,9.36c-.46,.92-.7,1.32-1.16,1.98-.64,.9-1.14,1.28-1.76,1.28-.84,0-1.56-.68-1.56-1.48,0-.54,.12-.7,.82-1.6,.96-1.28,1.62-2.72,2.06-4.42,.26-1.06,.62-1.42,1.4-1.42,.98,0,1.72,.52,1.72,1.22,0,.38-.2,1.06-.38,1.64h8.66c.72,0,1.12,.5,1.12,1.4s-.4,1.4-1.12,1.4h-3.12c-.22,2.72-.76,4.68-2.24,6.58-1.04,1.36-2.9,2.78-4,2.78-.86,0-1.58-.72-1.58-1.58,0-.78,.44-1.02,1.4-1.58,2.14-1.24,3.12-2.9,3.42-6.2h-3.68Z"/><path class="e" d="M51.95,12.6h-7.96c-.28,1.96-.78,3.56-1.5,4.84-.42,.74-.88,1.06-1.54,1.06-.88,0-1.66-.7-1.66-1.5,0-.34,.08-.48,.56-1.26,1.1-1.8,1.52-4.16,1.52-8.68V2.98c0-1.8,.46-2.26,2.26-2.26h9c1.8,0,2.26,.46,2.26,2.26V15.36c0,2.72-1.5,2.9-3.62,2.9s-2.76-.36-2.76-1.56c0-.86,.42-1.38,1.14-1.38,.24,0,1.44,.08,1.7,.08,.46,0,.6-.2,.6-.82v-1.98Zm0-2.54v-2.08h-7.66c0,.62-.02,1.42-.08,2.08h7.74Zm0-4.62v-1.52c0-.32-.12-.44-.44-.44h-6.78c-.32,0-.44,.12-.44,.44v1.52h7.66Z"/><path class="e" d="M65.11,11.72c.48-.34,.82-.6,1.12-.84,.94-.76,1.32-.96,1.7-.96,.8,0,1.56,.88,1.56,1.82,0,.72-.14,.86-1.62,1.92-2.6,1.82-3.32,2.28-4.48,2.88-.66,.34-1.08,.5-1.36,.5-.76,0-1.46-.96-1.46-2.02,0-.64,.2-.84,1.44-1.46V1.52c0-.8,.56-1.24,1.54-1.24s1.56,.44,1.56,1.24V11.72Zm4.94-8.64c2.06,2.26,2.38,2.6,2.38,3.2,0,.86-.82,1.68-1.7,1.68-.62,0-.94-.24-1.6-1.14-.46-.64-1.42-1.68-2.14-2.34-.66-.6-.86-.92-.86-1.38,0-.82,.84-1.62,1.7-1.62,.6,0,1.02,.3,2.22,1.6Zm8.54,11.68c.78,.92,.98,1.3,.98,1.88,0,.92-.9,1.78-1.88,1.78-.58,0-.96-.34-1.68-1.48-.46-.72-1.78-2.34-2.1-2.68-.52,.7-3.7,4.22-5.84,4.22-.8,0-1.54-.86-1.54-1.78,0-.6,.26-.94,1.1-1.38,4.42-2.44,6.56-6.5,6.62-12.54,.02-1.26,.14-1.88,.42-2.18,.24-.22,.74-.4,1.22-.4,.6,0,1.28,.3,1.52,.68,.14,.22,.2,.52,.2,1.06,0,1.14-.2,3.26-.48,4.94-.3,1.7-.66,2.88-1.44,4.6,.54,.52,2.64,2.98,2.9,3.28Z"/><path class="e" d="M94.28,5.52c-.1,.58-.16,.92-.22,1.14,.6,.5,1.08,.96,3,2.86,.96,.94,1.36,1.5,1.36,1.96,0,.84-.8,1.7-1.58,1.7-.42,0-.74-.14-1.14-.64-1.1-1.48-2.32-2.68-2.7-3.04-.34,.7-2.18,3.8-3.66,3.8-.82,0-1.58-.86-1.58-1.82,0-.48,.14-.66,.94-1.28,.9-.72,1.94-2.2,2.52-4.68h-3.06c-.56,0-.68,.1-.68,.68v11.32c0,.74-.52,1.16-1.48,1.16s-1.46-.42-1.46-1.16V5c0-1.8,.46-2.26,2.26-2.26h4.72c.08-2.28,.08-2.74,1.46-2.74,1.22,0,1.62,.38,1.62,1.52,0,.3-.02,.78-.06,1.22h4.8c1.78,0,2.24,.46,2.24,2.26v11.02c0,2-.64,2.48-3.34,2.48-1.7,0-2.68,0-2.68-1.48,0-1.06,.56-1.52,1.18-1.52,.24,0,1.3,.1,1.52,.1,.26,0,.38-.12,.38-.42V6.2c0-.58-.12-.68-.68-.68h-3.68Z"/></g><g><path class="d" d="M6.32,6.7c2.94,0,5.1,2.14,5.1,5.06,0,3.22-2.28,5.48-5.48,5.48-3.82,0-5.94-2.58-5.94-7.3C0,4.6,2.32,1.48,6.28,1.48c2.38,0,4.8,1.44,4.8,2.88,0,.84-.84,1.62-1.72,1.62-.4,0-.64-.12-1.06-.54-.68-.66-1.3-.92-2.12-.92-1.66,0-2.44,.9-2.84,3.26,.9-.78,1.72-1.08,2.98-1.08Zm-.46,7.54c1.42,0,2.36-.94,2.36-2.34s-.88-2.28-2.26-2.28c-1.52,0-2.68,1.1-2.68,1.9,0,1.32,.86,2.72,2.58,2.72Z"/><path class="d" d="M23.11,9.36c-.46,.92-.7,1.32-1.16,1.98-.64,.9-1.14,1.28-1.76,1.28-.84,0-1.56-.68-1.56-1.48,0-.54,.12-.7,.82-1.6,.96-1.28,1.62-2.72,2.06-4.42,.26-1.06,.62-1.42,1.4-1.42,.98,0,1.72,.52,1.72,1.22,0,.38-.2,1.06-.38,1.64h8.66c.72,0,1.12,.5,1.12,1.4s-.4,1.4-1.12,1.4h-3.12c-.22,2.72-.76,4.68-2.24,6.58-1.04,1.36-2.9,2.78-4,2.78-.86,0-1.58-.72-1.58-1.58,0-.78,.44-1.02,1.4-1.58,2.14-1.24,3.12-2.9,3.42-6.2h-3.68Z"/><path class="d" d="M51.95,12.6h-7.96c-.28,1.96-.78,3.56-1.5,4.84-.42,.74-.88,1.06-1.54,1.06-.88,0-1.66-.7-1.66-1.5,0-.34,.08-.48,.56-1.26,1.1-1.8,1.52-4.16,1.52-8.68V2.98c0-1.8,.46-2.26,2.26-2.26h9c1.8,0,2.26,.46,2.26,2.26V15.36c0,2.72-1.5,2.9-3.62,2.9s-2.76-.36-2.76-1.56c0-.86,.42-1.38,1.14-1.38,.24,0,1.44,.08,1.7,.08,.46,0,.6-.2,.6-.82v-1.98Zm0-2.54v-2.08h-7.66c0,.62-.02,1.42-.08,2.08h7.74Zm0-4.62v-1.52c0-.32-.12-.44-.44-.44h-6.78c-.32,0-.44,.12-.44,.44v1.52h7.66Z"/><path class="d" d="M65.11,11.72c.48-.34,.82-.6,1.12-.84,.94-.76,1.32-.96,1.7-.96,.8,0,1.56,.88,1.56,1.82,0,.72-.14,.86-1.62,1.92-2.6,1.82-3.32,2.28-4.48,2.88-.66,.34-1.08,.5-1.36,.5-.76,0-1.46-.96-1.46-2.02,0-.64,.2-.84,1.44-1.46V1.52c0-.8,.56-1.24,1.54-1.24s1.56,.44,1.56,1.24V11.72Zm4.94-8.64c2.06,2.26,2.38,2.6,2.38,3.2,0,.86-.82,1.68-1.7,1.68-.62,0-.94-.24-1.6-1.14-.46-.64-1.42-1.68-2.14-2.34-.66-.6-.86-.92-.86-1.38,0-.82,.84-1.62,1.7-1.62,.6,0,1.02,.3,2.22,1.6Zm8.54,11.68c.78,.92,.98,1.3,.98,1.88,0,.92-.9,1.78-1.88,1.78-.58,0-.96-.34-1.68-1.48-.46-.72-1.78-2.34-2.1-2.68-.52,.7-3.7,4.22-5.84,4.22-.8,0-1.54-.86-1.54-1.78,0-.6,.26-.94,1.1-1.38,4.42-2.44,6.56-6.5,6.62-12.54,.02-1.26,.14-1.88,.42-2.18,.24-.22,.74-.4,1.22-.4,.6,0,1.28,.3,1.52,.68,.14,.22,.2,.52,.2,1.06,0,1.14-.2,3.26-.48,4.94-.3,1.7-.66,2.88-1.44,4.6,.54,.52,2.64,2.98,2.9,3.28Z"/><path class="d" d="M94.28,5.52c-.1,.58-.16,.92-.22,1.14,.6,.5,1.08,.96,3,2.86,.96,.94,1.36,1.5,1.36,1.96,0,.84-.8,1.7-1.58,1.7-.42,0-.74-.14-1.14-.64-1.1-1.48-2.32-2.68-2.7-3.04-.34,.7-2.18,3.8-3.66,3.8-.82,0-1.58-.86-1.58-1.82,0-.48,.14-.66,.94-1.28,.9-.72,1.94-2.2,2.52-4.68h-3.06c-.56,0-.68,.1-.68,.68v11.32c0,.74-.52,1.16-1.48,1.16s-1.46-.42-1.46-1.16V5c0-1.8,.46-2.26,2.26-2.26h4.72c.08-2.28,.08-2.74,1.46-2.74,1.22,0,1.62,.38,1.62,1.52,0,.3-.02,.78-.06,1.22h4.8c1.78,0,2.24,.46,2.24,2.26v11.02c0,2-.64,2.48-3.34,2.48-1.7,0-2.68,0-2.68-1.48,0-1.06,.56-1.52,1.18-1.52,.24,0,1.3,.1,1.52,.1,.26,0,.38-.12,.38-.42V6.2c0-.58-.12-.68-.68-.68h-3.68Z"/></g></g></g></g></svg>