<svg xmlns="http://www.w3.org/2000/svg" viewBox="0 0 114.96 20.74"><defs><style>.cls-1{fill:#463e36;}.cls-2{fill:#fff;}</style></defs><g id="レイヤー_2" data-name="レイヤー 2"><g id="レイヤー_1-2" data-name="レイヤー 1"><path class="cls-1" d="M15.2,20.2c-1.68,0-1.68-1.58-1.68-2.1a1.72,1.72,0,0,1,1.62-2h.42c.13,0,.16,0,.16,0s.18-.17.18-1.48V7.46h-.81A34.39,34.39,0,0,1,12.94,19a1.57,1.57,0,0,1-1.48.86,2.56,2.56,0,0,1-1.74-.74H9.54a1.21,1.21,0,0,1-1.26-1l0-.14a51.67,51.67,0,0,1-5.78,1.56,2.2,2.2,0,0,1-2-2.4,1.7,1.7,0,0,1,1.42-1.83l1.92-3.9L1.32,9.26A1.63,1.63,0,0,1,.66,7.94c0-.71.71-2.48,1.78-2.48a1.24,1.24,0,0,1,.27,0L4.32,1.82A1.29,1.29,0,0,1,5.58,1c.73,0,2.16.44,2.16,1.44a1.38,1.38,0,0,1-.17.66L5.48,7.58l.19.16,1-2A1.37,1.37,0,0,1,7.92,4.9a3.11,3.11,0,0,1,1.72.61h0c0-.49,0-2,1.56-2h.1V2.14c0-1,.64-1.54,1.9-1.54s1.9.52,1.9,1.54V3.52h2.62a2,2,0,0,1,2,2V15.3c0,3-.53,4.9-3.15,4.9ZM6.5,14.31l.76-.22L7,13.23ZM9,11a1.25,1.25,0,0,1,1.3,1l.32,1.16a33.51,33.51,0,0,0,.65-5.77H11.2a1.49,1.49,0,0,1-1.1-.4L10,7.2l-2,4A3.21,3.21,0,0,1,9,11Z"/><path class="cls-2" d="M13.2,1.1c1,0,1.4.36,1.4,1V4h3.12a1.49,1.49,0,0,1,1.5,1.5V15.3c0,3.34-.72,4.4-2.64,4.4H15.2c-.8,0-1.18-.4-1.18-1.6s.72-1.46,1.12-1.46h.42c.58,0,.84-.28.84-2V7.28A.32.32,0,0,0,16.08,7H14.6A34.53,34.53,0,0,1,12.48,18.8a1.08,1.08,0,0,1-1,.56,2,2,0,0,1-1.54-.78,1.36,1.36,0,0,1-.38,0A.73.73,0,0,1,8.76,18l-.16-.66A62.05,62.05,0,0,1,2.46,19C1.5,19,1,18,1,17.12s.48-1.24,1.26-1.4l2.2-4.46L1.64,8.88a1.16,1.16,0,0,1-.48-.94c0-.58.62-2,1.28-2a.81.81,0,0,1,.52.2L4.78,2a.79.79,0,0,1,.8-.56c.52,0,1.66.32,1.66.94a1,1,0,0,1-.12.44L4.86,7.72l1,.8L7.08,6a.89.89,0,0,1,.84-.6c.58,0,1.78.46,1.78,1.12A1.13,1.13,0,0,1,9.58,7l-4,8.06c.78-.18,1.54-.4,2.3-.64L7.44,12.8a.83.83,0,0,1,0-.3c0-.68,1-1,1.62-1a.76.76,0,0,1,.82.66l.82,3A32.85,32.85,0,0,0,11.8,7h-.6c-.72,0-1.06-.36-1.06-1.46S10.48,4,11.2,4h.6V2.14c0-.68.34-1,1.4-1m0-1c-2.09,0-2.4,1.28-2.4,2v.91A1.85,1.85,0,0,0,9.22,4.69a3.58,3.58,0,0,0-1.3-.29,1.85,1.85,0,0,0-.44,0L8,3.26a1.91,1.91,0,0,0,.21-.86C8.24,1,6.41.46,5.58.46A1.8,1.8,0,0,0,3.86,1.63L2.4,5C.94,5,.16,7.09.16,7.94A2.17,2.17,0,0,0,1,9.66l2.21,1.86L1.56,14.88A2.16,2.16,0,0,0,0,17.12,2.69,2.69,0,0,0,2.46,20a42.41,42.41,0,0,0,5.45-1.43,1.69,1.69,0,0,0,1.61,1,3.15,3.15,0,0,0,1.94.74,2.13,2.13,0,0,0,1.79-.89A1.92,1.92,0,0,0,15.2,20.7h1.38c3.2,0,3.64-2.59,3.64-5.4V5.52A2.47,2.47,0,0,0,17.72,3H15.6V2.14c0-.61-.23-2-2.4-2ZM8.93,10.54l1.38-2.75a2,2,0,0,0,.47.14,32.9,32.9,0,0,1-.31,3.3A1.74,1.74,0,0,0,9,10.54Zm5.57,5.21a37.33,37.33,0,0,0,.9-5.32v4.21a6.58,6.58,0,0,1-.05,1h-.21a2.05,2.05,0,0,0-.64.11Z"/><path class="cls-1" d="M28.5,20.24c-.48,0-1.94,0-1.94-1.56V16.42a1.17,1.17,0,0,1-.82.36c-1.2,0-1.8-1.64-1.8-2.56a2.21,2.21,0,0,1,.44-1.38,19.46,19.46,0,0,0,1.86-3H25.9c-1.54,0-1.54-1.44-1.54-1.92s0-1.94,1.54-1.94h.66V5.63h0a2.19,2.19,0,0,1-2-2.24A1.37,1.37,0,0,1,25.69,2a30.77,30.77,0,0,0,4-.8,1.52,1.52,0,0,1,.43-.06,2.31,2.31,0,0,1,2.1,2.22c0,1.19-1.06,1.41-1.7,1.55h0v1h.18a1.57,1.57,0,0,1,.81.19A18,18,0,0,0,33.57,2,1.86,1.86,0,0,1,35.4.82c1,0,2,.55,2,1.6a3.36,3.36,0,0,1-.39,1.22h.78l.54-1.49a1.5,1.5,0,0,1,1.55-1c1.24,0,2,.51,2,1.3a1.93,1.93,0,0,1-.07.5l-.25.74h.72c.68,0,1.49.32,1.49,1.82,0,1.21-.5,1.82-1.49,1.82H41.3v.64H42c.68,0,1.48.32,1.48,1.82,0,1.2-.49,1.8-1.48,1.8h-.7v.64H42c.68,0,1.48.32,1.48,1.82,0,1.21-.49,1.82-1.48,1.82h-.7v.64h1.06c.68,0,1.49.32,1.49,1.82,0,1.2-.5,1.8-1.49,1.8h-7.9a2,2,0,0,1-2-2V13.81c-.29.64-.8,1.23-1.44,1.23a1.12,1.12,0,0,1-.56-.15v3.79C30.46,20.24,29,20.24,28.5,20.24Zm9-3.78v-.64H36.36v.64Zm0-4.28v-.64H36.36v.64Zm-5.26-.62a1.72,1.72,0,0,1,.24.31V9.69a1.87,1.87,0,0,1-.68-.33,1.42,1.42,0,0,1-1.14.44h-.1Zm5.26-3.64V7.28H36.36v.64Z"/><path class="cls-2" d="M35.4,1.32c.66,0,1.54.3,1.54,1.1a8.08,8.08,0,0,1-.68,1.72h1.92l.66-1.82a1,1,0,0,1,1.08-.72c.52,0,1.54.14,1.54.8a1.34,1.34,0,0,1-.06.36l-.46,1.38h1.42c.64,0,1,.34,1,1.32s-.34,1.32-1,1.32H40.8V8.42H42c.64,0,1,.34,1,1.32S42.64,11,42,11H40.8v1.64H42c.64,0,1,.34,1,1.32s-.34,1.32-1,1.32H40.8V17h1.56c.64,0,1,.34,1,1.32s-.34,1.3-1,1.3h-7.9a1.49,1.49,0,0,1-1.5-1.5V9.24h-.12a1.66,1.66,0,0,1-1.2-.72.88.88,0,0,1-1,.78H30v.62l1.9,2a1.29,1.29,0,0,1,.36.88c0,.58-.56,1.76-1.2,1.76a.72.72,0,0,1-.58-.34L30,13.58v5.1c0,.72-.38,1.06-1.46,1.06s-1.44-.34-1.44-1.06v-3.9c-.26.44-.74,1.5-1.32,1.5-.84,0-1.3-1.36-1.3-2.06a1.74,1.74,0,0,1,.34-1.08A17.88,17.88,0,0,0,27,9.3H25.9c-.7,0-1-.34-1-1.42s.34-1.44,1-1.44h1.16V5.06l-.58.08c-.84,0-1.42-1-1.42-1.74a.86.86,0,0,1,.7-.92,31.42,31.42,0,0,0,4-.82,1.21,1.21,0,0,1,.3,0,1.82,1.82,0,0,1,1.6,1.72c0,1-1,1-1.72,1.16V6.44h.68a.91.91,0,0,1,.88.44A18.36,18.36,0,0,0,34,2.16a1.36,1.36,0,0,1,1.36-.84m.46,7.1H38V6.78h-1.8a.32.32,0,0,0-.32.32V8.42m0,4.26H38V11H35.86v1.64M36.18,17H38V15.32H35.86v1.32a.32.32,0,0,0,.32.32M35.4.32a2.34,2.34,0,0,0-2.3,1.51A12,12,0,0,1,32.65,3,2.8,2.8,0,0,0,30.08.62a2.21,2.21,0,0,0-.54.07,31.39,31.39,0,0,1-3.91.8A1.86,1.86,0,0,0,24.06,3.4a3,3,0,0,0,1,2.19c-.61.25-1.2.85-1.2,2.29,0,1.72.86,2.25,1.58,2.38A19.21,19.21,0,0,1,24,12.54a2.74,2.74,0,0,0-.54,1.68c0,1.07.68,3.06,2.3,3.06a1.66,1.66,0,0,0,.32,0v1.43c0,.77.32,2.06,2.44,2.06S31,19.45,31,18.68V15.54H31a1.63,1.63,0,0,0,.94-.31v2.85a2.47,2.47,0,0,0,2.5,2.5h7.9c.6,0,2-.22,2-2.3,0-1.47-.68-2-1.3-2.22A2.13,2.13,0,0,0,44,14a2.08,2.08,0,0,0-1.09-2.14A2.05,2.05,0,0,0,44,9.74,2.13,2.13,0,0,0,43,7.68c.62-.19,1.3-.74,1.3-2.22,0-2.09-1.38-2.32-2-2.32h0l0-.06a2.38,2.38,0,0,0,.11-.68c0-1.09-1-1.8-2.54-1.8a2,2,0,0,0-2,1.37V2A2.4,2.4,0,0,0,35.4.32ZM31,5.29a3.91,3.91,0,0,0,.57-.2l-.27.43a1.33,1.33,0,0,0-.3-.06V5.29Zm.59,4.84a2.49,2.49,0,0,0,.28-.15L32,10v.52l-.41-.43Z"/><path class="cls-1" d="M50.24,20a2,2,0,0,1-2-2V3a2,2,0,0,1,2-2H64.9a2,2,0,0,1,2,2V18a2,2,0,0,1-2,2ZM62.9,16.4V16a1.73,1.73,0,0,1-.24.38Zm-2.74,0-.82-.6v.46a.71.71,0,0,1,0,.14Zm-4.41,0s0-.09,0-.14v-.69a12.43,12.43,0,0,1-1,.83Zm-3.52,0h0Zm10.43-1.74a1,1,0,0,1,.24.26v-.47Zm-10.44-.22a.89.89,0,0,1,.23-.13,7.75,7.75,0,0,0,1.36-.77,1.62,1.62,0,0,1-1.29-1.7V10.56A1.75,1.75,0,0,1,53,9.28h-.57a.86.86,0,0,1-.22,0Zm10.32-1.86a1.88,1.88,0,0,1,.36.27V9.27h-.72a1.74,1.74,0,0,1,.48,1.28v1.28A2.17,2.17,0,0,1,62.54,12.58ZM52.22,6.76l.22,0h.49a1.42,1.42,0,0,1-.27-.94c0-.75.3-1.07.62-1.2H52.22Zm10.48,0,.2,0V4.6h-1c.33.13.63.45.63,1.2a1.35,1.35,0,0,1-.28.94Z"/><path class="cls-2" d="M64.9,1.54A1.49,1.49,0,0,1,66.4,3V18a1.49,1.49,0,0,1-1.5,1.5H50.24a1.49,1.49,0,0,1-1.5-1.5V3a1.49,1.49,0,0,1,1.5-1.5H64.9M58.94,5h2.5c.38,0,.58.2.58.78s-.2.76-.58.76h-2.5v.68H62.7c.38,0,.58.2.58.78s-.2.76-.58.76H52.44c-.38,0-.56-.18-.56-.76s.18-.78.56-.78h3.84V6.56H53.72c-.38,0-.56-.18-.56-.76s.18-.78.56-.78h2.56V4.76a.65.65,0,0,1,.62-.66H52a.32.32,0,0,0-.32.32V16.58a.32.32,0,0,0,.32.32H57c-.44-.06-.72-.28-.72-.64V14.4c-.46.48-2.2,2.1-2.82,2.1a1.32,1.32,0,0,1-1.14-1.18.56.56,0,0,1,.34-.54,9.26,9.26,0,0,0,2.54-1.68h-.8A1.17,1.17,0,0,1,53,11.84V10.56A1.17,1.17,0,0,1,54.36,9.3h6.46a1.17,1.17,0,0,1,1.34,1.26v1.28a1.17,1.17,0,0,1-1.34,1.26h-1.6l1.34.84,1-.86a.55.55,0,0,1,.38-.2c.34,0,.92.46.92.8a.49.49,0,0,1-.16.32l-.84.72.42.26a.54.54,0,0,1,.32.46c0,.4-.64,1.18-1.06,1.18a.74.74,0,0,1-.42-.16L58.84,14.8v1.46c0,.36-.24.58-.72.64h5a.32.32,0,0,0,.32-.32V4.42a.32.32,0,0,0-.32-.32H58.3a.68.68,0,0,1,.64.66V5m-3.18,6.62h3.68c.18,0,.24-.06.24-.24V11c0-.18-.06-.24-.24-.24H55.76c-.18,0-.24.06-.24.24v.42c0,.18.06.24.24.24M64.9.54H50.24A2.48,2.48,0,0,0,47.74,3V18a2.47,2.47,0,0,0,2.5,2.5H64.9A2.46,2.46,0,0,0,67.4,18V3A2.47,2.47,0,0,0,64.9.54ZM52.72,13.62v-.07l.06,0-.06,0Z"/><path class="cls-1" d="M75.08,20.24c-.54,0-1.44-.21-1.44-1.68,0-1.24.81-1.58,1.28-1.58h.26v-.34H73.66q-1.32,0-1.32-1.62a1.66,1.66,0,0,1,.5-1.39,2.17,2.17,0,0,1-1.44-1.91A1.35,1.35,0,0,1,72,10.6a19.62,19.62,0,0,0,1.68-1.32h-.91c-.91,0-1.38-.57-1.38-1.7s.47-1.7,1.38-1.7h1.16V5.4h-.58C72.47,5.4,72,4.85,72,3.76s.45-1.64,1.32-1.64h.58V2c0-.94.59-1.42,1.74-1.42C77.1.6,77.4,1.37,77.4,2v.1h.52a1.22,1.22,0,0,1,1.13.6,1.76,1.76,0,0,1,1.43-.88,1.78,1.78,0,0,1,1.88,1.58c0,.18,0,.56-1.36,2.49a1.1,1.1,0,0,1,.74.43A25.46,25.46,0,0,0,82.83,2,1.55,1.55,0,0,1,84.48.78,1.79,1.79,0,0,1,86.42,2.4l-.11.78h3.15c1.05,0,1.58.67,1.58,2,0,1-.28,1.57-.85,1.83a20.74,20.74,0,0,1-1.93,7,13.18,13.18,0,0,0,2.26,2.7,1.62,1.62,0,0,1,.5,1.19A2.3,2.3,0,0,1,89,20c-.74,0-1.61-.8-2.83-2.66C85.3,18.45,83.94,20,83,20a2.33,2.33,0,0,1-2.12-2.12,1.5,1.5,0,0,1,.56-1.18,11.38,11.38,0,0,0,2.76-2.94c-.29-.63-.54-1.24-.76-1.84a1.42,1.42,0,0,1-1.2.62,2.16,2.16,0,0,1-1.15-.38,4.25,4.25,0,0,1-1.17,1.22h.76c.61,0,1.34.29,1.34,1.64,0,1.08-.45,1.62-1.34,1.62H78.78v.8c0,2.32-1.39,2.8-2.56,2.8Zm.24-6.86a2.43,2.43,0,0,1,1-1h-1a8.76,8.76,0,0,1-1.19,1Zm4.59-4.1a1.75,1.75,0,0,1,.5.23l.12-.23Zm5.43-2a1.29,1.29,0,0,1,.45.7c.09.45.2.88.33,1.31a17.2,17.2,0,0,0,.4-2.12H85.37Z"/><path class="cls-2" d="M75.66,1.1c.92,0,1.24.32,1.24.92v.6h1c.56,0,.84.3.84,1.14a3.67,3.67,0,0,1,0,.52c.44-.68.84-1.94,1.76-1.94.6,0,1.38.42,1.38,1.08a13.45,13.45,0,0,1-1.82,3h.64c.58,0,.88.3.88,1.2s-.3,1.2-.88,1.2H78.14c-.28.32-.54.62-.82.92h2a1.38,1.38,0,0,1,1.22.68.76.76,0,0,1,.12-.34A25.94,25.94,0,0,0,83.32,2.1a1.07,1.07,0,0,1,1.16-.82c.64,0,1.44.38,1.44,1.12l-.2,1.28h3.74c.72,0,1.08.38,1.08,1.48s-.28,1.36-.82,1.44a20.42,20.42,0,0,1-2,7.38,14.1,14.1,0,0,0,2.5,3,1.12,1.12,0,0,1,.34.82A1.81,1.81,0,0,1,89,19.52c-.92,0-2.36-2.34-2.8-3-.5.7-2.28,3-3.2,3a1.83,1.83,0,0,1-1.62-1.62,1,1,0,0,1,.36-.78,11.83,11.83,0,0,0,3-3.3,24.47,24.47,0,0,1-1.22-3.16c-.28.6-.5,1.4-1.3,1.4a1.94,1.94,0,0,1-1.38-.76c-.08,1.34-2.42,2.34-2.5,2.6h2.32c.56,0,.84.3.84,1.14s-.28,1.12-.84,1.12H78.28v1.3c0,1.6-.72,2.3-2.06,2.3H75.08c-.58,0-.94-.28-.94-1.18s.48-1.08.78-1.08h.44c.2,0,.32-.1.32-.34v-1h-2c-.56,0-.82-.28-.82-1.12s.26-1.14.82-1.14h2c.06-1,2.1-1.5,2.1-1.88,0,0-.06-.08-.16-.08h-2.2a.56.56,0,0,1-.3-.08c-.38.34-1.38,1.34-1.9,1.34a1.56,1.56,0,0,1-1.34-1.46.85.85,0,0,1,.36-.7,21.19,21.19,0,0,0,2.68-2.24H72.76c-.6,0-.88-.3-.88-1.2s.28-1.2.88-1.2h1.66V4.9H73.34c-.56,0-.82-.28-.82-1.14s.26-1.14.82-1.14h1.08V2c0-.6.3-.92,1.24-.92m2.68,3.72a.93.93,0,0,1-.42.08h-1V6.38h.24q.66-.78,1.2-1.56m8.74,1.8H85c-.08.28-.18.58-.26.86A.78.78,0,0,1,85.3,8a17.77,17.77,0,0,0,.84,2.84,18.46,18.46,0,0,0,.94-4.26M75.66.1C74,.1,73.57,1,73.46,1.62h-.12c-.55,0-1.82.21-1.82,2.14a2.17,2.17,0,0,0,.61,1.71c-.59.19-1.25.7-1.25,2.11,0,1.57.82,2,1.44,2.16-.21.16-.42.32-.63.46a1.85,1.85,0,0,0-.79,1.52,2.7,2.7,0,0,0,1.17,2.1,2.78,2.78,0,0,0-.23,1.2c0,1.82,1.15,2.1,1.73,2.12a2.29,2.29,0,0,0-.43,1.42c0,2,1.49,2.18,1.94,2.18h1.14c2,0,3.06-1.2,3.06-3.3v-.3h1.2a2,2,0,0,0-.14.74A2.79,2.79,0,0,0,83,20.5c1,0,2.15-1.08,3.14-2.29,1,1.42,1.9,2.31,2.86,2.31a2.79,2.79,0,0,0,2.56-2.68,2.12,2.12,0,0,0-.68-1.57,12.62,12.62,0,0,1-2-2.36A21.47,21.47,0,0,0,90.66,7.3a2.34,2.34,0,0,0,.88-2.14c0-2.16-1.3-2.48-2.08-2.48H86.89l0-.13V2.4A2.28,2.28,0,0,0,84.48.28,2.06,2.06,0,0,0,82.33,2s0,.09,0,.13a2.61,2.61,0,0,0-1.83-.76A2,2,0,0,0,79,2a1.88,1.88,0,0,0-1.12-.34h0C77.75,1,77.3.1,75.66.1ZM82.2,13a1.93,1.93,0,0,0,1-.26c.12.31.25.62.39.94a12.18,12.18,0,0,1-1.11,1.36V15c0-1.48-.76-1.95-1.36-2.09l.09-.11a2.42,2.42,0,0,0,1,.22Z"/><path class="cls-1" d="M110.72,20.24c-.93,0-1.4-.58-1.4-1.74a1.47,1.47,0,0,1,1.4-1.64h.38V16a1.36,1.36,0,0,1-1.27.54,1.52,1.52,0,0,1-1.12-.35v1.67c0,2-1.19,2.38-2.2,2.38h-.62a1.09,1.09,0,0,1-.85-.41,1.59,1.59,0,0,1-1.23.41c-1,0-1.52-.41-1.52-1.24v-.1a2,2,0,0,1-1.74,1H97.5a2,2,0,0,1-2-2V15a2,2,0,0,1,1.25-1.86c-.68-.1-1-.62-1-1.56s.34-1.33.74-1.5c-.49-.2-.74-.7-.74-1.5a1.62,1.62,0,0,1,.52-1.38c-.81,0-1.22-.57-1.22-1.6S95.44,4,96.26,4a1.54,1.54,0,0,1-.54-1.38c0-1.32.7-1.6,1.28-1.6h4c.6,0,1.3.28,1.3,1.6A1.51,1.51,0,0,1,101.78,4a1.17,1.17,0,0,1,1,.55,1.71,1.71,0,0,1,.33-.29A11,11,0,0,0,106,1.65l.08-.12a2.06,2.06,0,0,1,2-1,2.13,2.13,0,0,1,2,.92,12.84,12.84,0,0,0,3.67,2.84,1.62,1.62,0,0,1,.78,1.42,2.32,2.32,0,0,1-.27,1.06,1.79,1.79,0,0,1-1.59,1.12,1.46,1.46,0,0,1-.74-.22,1.09,1.09,0,0,1-1.1.68h-3.07a2,2,0,0,1,.87.95,1.29,1.29,0,0,1,1.28-.59,1.31,1.31,0,0,1,1.28.58V9.14c0-.58.27-1.28,1.54-1.28s1.54.7,1.54,1.28v8.58a2.29,2.29,0,0,1-2.52,2.52Zm-5.38-3a.94.94,0,0,1,.36-.08v-.36h-.36Zm-6.1-.44v-.76H98.8v.76Zm2.07-3.7a2,2,0,0,1,1,.86V12.08A1.16,1.16,0,0,1,101.31,13.14Zm4.39.82v-.08h-.36V14Zm-4.1-3.88a1.22,1.22,0,0,1,.7,1v-1a2,2,0,0,1,2-2h.79a.94.94,0,0,1-.28-.36,1.26,1.26,0,0,1-.65.18,1.77,1.77,0,0,1-1.51-1.06,1.18,1.18,0,0,1-.85.36,1.56,1.56,0,0,1,.54,1.38C102.34,9.38,102.09,9.88,101.6,10.08Zm3.74.9ZM109,5.34c-.26-.25-.51-.51-.75-.77-.22.26-.45.52-.69.77Z"/><path class="cls-2" d="M108,1a1.69,1.69,0,0,1,1.54.68,13.34,13.34,0,0,0,3.86,3,1.12,1.12,0,0,1,.52,1,1.74,1.74,0,0,1-.22.82,1.32,1.32,0,0,1-1.14.86c-.4,0-.78-.36-1.1-.58v.06c0,.74-.26,1-.74,1h-4.9c-.48,0-.72-.24-.72-1-.3.22-.6.54-1,.54-.78,0-1.3-1-1.3-1.68a1.21,1.21,0,0,1,.52-1,11.4,11.4,0,0,0,3-2.74A1.66,1.66,0,0,1,108,1m-1.68,4.84h3.94a17.82,17.82,0,0,1-2-2,20.31,20.31,0,0,1-1.9,2M101,1.52c.52,0,.8.28.8,1.1s-.28,1.08-.8,1.08H97c-.52,0-.78-.26-.78-1.08s.26-1.1.78-1.1h4m.66,3c.54,0,.82.28.82,1.1s-.28,1.1-.82,1.1H96.32c-.54,0-.8-.26-.8-1.1s.26-1.1.8-1.1h5.38m-.68,3c.54,0,.82.28.82,1.1s-.28,1.1-.82,1.1H97c-.54,0-.8-.26-.8-1.1s.26-1.1.8-1.1h4m11.64.88c.78,0,1,.26,1,.78v8.58a1.81,1.81,0,0,1-2,2h-1c-.6,0-.9-.3-.9-1.24s.58-1.14.9-1.14h.38a.5.5,0,0,0,.52-.56V9.14c0-.52.26-.78,1-.78m-5.94.22a1.49,1.49,0,0,1,1.5,1.5v7.78c0,1.34-.58,1.88-1.7,1.88h-.62c-.4,0-.72-.42-.72-1.06s.2-1,.52-1h.2c.28,0,.3-.14.3-.36v-1h-1.36V19c0,.5-.26.74-1,.74s-1-.24-1-.74V10.08a1.49,1.49,0,0,1,1.5-1.5h2.42m-1.88,2.9h1.36V10.8a.32.32,0,0,0-.32-.32h-.72a.32.32,0,0,0-.32.32v.68m0,3h1.36V13.38h-1.36v1.08m5-5.28c.68,0,.92.24.92.68v5.52c0,.44-.24.66-.92.66s-.92-.22-.92-.66V9.86c0-.44.22-.68.92-.68m-8.8,1.3c.52,0,.8.28.8,1.1s-.28,1.08-.8,1.08H97c-.52,0-.78-.26-.78-1.08s.26-1.1.78-1.1h4m-.48,3a1.49,1.49,0,0,1,1.5,1.5v2.9a1.49,1.49,0,0,1-1.5,1.5H97.5A1.49,1.49,0,0,1,96,17.9V15a1.49,1.49,0,0,1,1.5-1.5h3.06m-1.94,3.84h.8a.32.32,0,0,0,.32-.32V15.9a.32.32,0,0,0-.32-.32h-.8a.32.32,0,0,0-.32.32V17a.32.32,0,0,0,.32.32M108,0a2.58,2.58,0,0,0-2.38,1.25l-.07.1a10.33,10.33,0,0,1-2.73,2.48l0,0-.19-.12a2.61,2.61,0,0,0,.21-1.11c0-1.95-1.38-2.1-1.8-2.1H97c-.53,0-1.78.2-1.78,2.1a2.73,2.73,0,0,0,.19,1.09,1.94,1.94,0,0,0-.89,1.89,1.94,1.94,0,0,0,.89,1.89,2.77,2.77,0,0,0-.19,1.09,2.33,2.33,0,0,0,.43,1.5,2.33,2.33,0,0,0-.43,1.5,2.14,2.14,0,0,0,.54,1.61A2.5,2.5,0,0,0,95,15v2.9a2.47,2.47,0,0,0,2.5,2.5h3.06a2.49,2.49,0,0,0,1.48-.47,1.87,1.87,0,0,0,1.78.81,2.51,2.51,0,0,0,1.22-.26,1.5,1.5,0,0,0,.86.26h.62a2.46,2.46,0,0,0,2.41-1.36,1.74,1.74,0,0,0,1.79,1.36h1a2.8,2.8,0,0,0,3-3V9.14a1.73,1.73,0,0,0-.64-1.39,3,3,0,0,0,.57-.79A2.68,2.68,0,0,0,115,5.68a2.13,2.13,0,0,0-1-1.86,12.46,12.46,0,0,1-3.53-2.73A2.72,2.72,0,0,0,108,0ZM102.8,8.07a2,2,0,0,0,0-.26l.19.16-.14.1Zm6.42,9.07V17l.11,0-.11.14Z"/></g></g></svg>