<svg xmlns="http://www.w3.org/2000/svg" viewBox="0 0 65.52 20.52"><defs><style>.cls-1{fill:#463e36;}.cls-2{fill:#fff;}</style></defs><g id="レイヤー_2" data-name="レイヤー 2"><g id="レイヤー_1-2" data-name="レイヤー 1"><path class="cls-1" d="M2.94,16.91A2.4,2.4,0,0,1,1.19,16C.36,15,.27,13.86,1,13.18A16.72,16.72,0,0,0,5.16,6.52a1.65,1.65,0,0,1,1.65-1,2.55,2.55,0,0,1,1,.2A2.46,2.46,0,0,1,9.22,6.94a1.51,1.51,0,0,1,0,1.16A28.86,28.86,0,0,1,4,16.49,1.36,1.36,0,0,1,2.94,16.91Zm14.54-1A1.46,1.46,0,0,1,16.07,15c-2-4.39-3-6.42-3.9-7.48a1.56,1.56,0,0,1-.37-1.18A2.06,2.06,0,0,1,12.64,5a2.64,2.64,0,0,1,1.57-.62,1.4,1.4,0,0,1,.66.15,2.62,2.62,0,0,1-.26-1.15A2.63,2.63,0,1,1,16,5.66a45,45,0,0,1,4,7.35c.39.86-.09,1.86-1.18,2.5A2.42,2.42,0,0,1,17.48,15.9ZM17.25,2.58a.78.78,0,0,0-.8.78.79.79,0,0,0,.8.78.81.81,0,0,0,.8-.78A.79.79,0,0,0,17.25,2.58Z"/><path class="cls-2" d="M17.25,1.2a2.15,2.15,0,1,1-2.14,2.16A2.15,2.15,0,0,1,17.25,1.2m0,3.44a1.31,1.31,0,0,0,1.3-1.28,1.3,1.3,0,1,0-1.3,1.28m-3,.22a.9.9,0,0,1,.66.26c1.26,1.38,2.58,3.74,4.62,8.1.26.58-.1,1.34-1,1.86a2,2,0,0,1-1,.32,1,1,0,0,1-.95-.56c-2-4.6-3.08-6.54-4-7.6A1.27,1.27,0,0,1,13,5.38a2.16,2.16,0,0,1,1.26-.52M6.81,6a2.29,2.29,0,0,1,.82.16C8.59,6.52,9,7.3,8.77,7.9a28.32,28.32,0,0,1-5.18,8.24.88.88,0,0,1-.65.27,1.91,1.91,0,0,1-1.37-.75c-.68-.8-.72-1.66-.24-2.12a17.25,17.25,0,0,0,4.3-6.86A1.17,1.17,0,0,1,6.81,6M17.25.2a3.16,3.16,0,0,0-3.14,3.16,2.74,2.74,0,0,0,0,.5,3.22,3.22,0,0,0-1.82.73,2.58,2.58,0,0,0-1,1.74,2.08,2.08,0,0,0,.49,1.57c.85,1,1.92,3,3.83,7.35a2,2,0,0,0,1.86,1.15A3,3,0,0,0,19,15.94a2.53,2.53,0,0,0,1.37-3.13A62.14,62.14,0,0,0,17.12,6.5h.13a3.12,3.12,0,0,0,3.16-3.14A3.17,3.17,0,0,0,17.25.2Zm0,3.44a.3.3,0,0,1-.3-.28.28.28,0,0,1,.3-.28.3.3,0,0,1,.3.28.31.31,0,0,1-.3.28ZM6.81,5A2.15,2.15,0,0,0,4.68,6.37a16.22,16.22,0,0,1-4,6.44,2.5,2.5,0,0,0,.16,3.5,2.91,2.91,0,0,0,2.14,1.1,1.85,1.85,0,0,0,1.38-.59,29.06,29.06,0,0,0,5.36-8.5,2,2,0,0,0,0-1.57A3,3,0,0,0,8,5.21,3.39,3.39,0,0,0,6.81,5Z"/><path class="cls-1" d="M26.85,12.32a1.94,1.94,0,0,1-1.72-2.06,1.89,1.89,0,0,1,1.72-2H40.93a1.93,1.93,0,0,1,1.74,2,1.94,1.94,0,0,1-1.74,2.06Z"/><path class="cls-2" d="M40.93,8.72a1.43,1.43,0,0,1,1.24,1.54,1.45,1.45,0,0,1-1.24,1.56H26.85a1.44,1.44,0,0,1-1.22-1.56,1.42,1.42,0,0,1,1.22-1.54H40.93m0-1H26.85a2.39,2.39,0,0,0-2.22,2.54,2.41,2.41,0,0,0,2.22,2.56H40.93a2.45,2.45,0,0,0,2.24-2.56,2.4,2.4,0,0,0-2.24-2.54Z"/><path class="cls-1" d="M56,20c-1.25,0-2.16-.69-2.16-1.64V2.16c0-1,.91-1.66,2.18-1.66a2.34,2.34,0,0,1,1.72.63,1.45,1.45,0,0,1,.42,1.05c0,.75,0,1.65,0,2.63,0,.57,0,1.17,0,1.79a1.69,1.69,0,0,1,.75-.18,1.41,1.41,0,0,1,.84.28l4.76,3.5a1.44,1.44,0,0,1,.54,1,2.31,2.31,0,0,1-.57,1.7,2.39,2.39,0,0,1-1.75,1,1.35,1.35,0,0,1-.81-.26l-3.78-2.8c0,2.86,0,5.78,0,7.55C58.13,19.33,57.23,20,56,20Z"/><path class="cls-2" d="M56,1c1,0,1.66.52,1.64,1.16,0,1.46,0,3.4,0,5.44a1.8,1.8,0,0,1,1.26-.68.9.9,0,0,1,.54.18l4.76,3.5c.5.38.48,1.22-.12,2a1.89,1.89,0,0,1-1.36.81.87.87,0,0,1-.52-.17L57.61,9.82c0,3.42,0,6.8,0,8.54,0,.64-.64,1.16-1.64,1.16s-1.66-.5-1.66-1.14V2.16C54.33,1.52,55,1,56,1m0-1c-1.56,0-2.68.91-2.68,2.16V18.38c0,1.24,1.12,2.14,2.66,2.14s2.64-.9,2.64-2.16c0-1.57,0-4,0-6.56l3,2.21a2,2,0,0,0,1.12.36,2.81,2.81,0,0,0,2.13-1.18,2.82,2.82,0,0,0,.69-2.07,1.92,1.92,0,0,0-.74-1.31L60,6.3a1.83,1.83,0,0,0-1.13-.38l-.25,0c0-.39,0-.76,0-1.13,0-1,0-1.87,0-2.64A1.93,1.93,0,0,0,58.09.78,2.87,2.87,0,0,0,56,0Z"/></g></g></svg>