<svg xmlns="http://www.w3.org/2000/svg" viewBox="0 0 68.02 20.8"><defs><style>.cls-1{fill:#463e36;}.cls-2{fill:#fff;}</style></defs><g id="レイヤー_2" data-name="レイヤー 2"><g id="レイヤー_1-2" data-name="レイヤー 1"><path class="cls-1" d="M13.46,20.3c-.49,0-2,0-2-1.6V17.14c-1.19,1.72-2,2.44-2.7,2.44A2.16,2.16,0,0,1,7,18.47v.21c0,1.6-1.52,1.6-2,1.6s-2,0-2-1.6V13.07a1.31,1.31,0,0,1-.5.09c-1.36,0-2-1.67-2-2.8A2.41,2.41,0,0,1,1,8.83,20.8,20.8,0,0,0,4.08,2.27,1.86,1.86,0,0,1,5.94,1,2.37,2.37,0,0,1,8,2.08a2,2,0,0,1,1.65-.86H17.2a2,2,0,0,1,2,2V7.78a2,2,0,0,1-2,2H15.46v0h3.38c1,0,1.52.63,1.52,1.88s-.51,1.86-1.52,1.86H17.41A18.43,18.43,0,0,0,19.62,16a1.81,1.81,0,0,1,.56,1.31,2.41,2.41,0,0,1-2.1,2.32c-.68,0-1.47-.68-2.62-2.31V18.7C15.46,20.3,14,20.3,13.46,20.3ZM7,16.13A1,1,0,0,1,7.21,16a18.43,18.43,0,0,0,2.21-2.41H8.24A1.35,1.35,0,0,1,7,13ZM6.43,7.87A1.44,1.44,0,0,1,7,9.16v1.22a1.34,1.34,0,0,1,1.2-.58h3.22v0H9.68a2,2,0,0,1-2-2V4.66C7.31,5.77,6.89,6.84,6.43,7.87ZM15.12,6V5H11.78V6Z"/><path class="cls-2" d="M5.94,1.5c.76,0,1.76.42,1.76,1.3a.62.62,0,0,1,0,.2A36.41,36.41,0,0,1,5.76,8.12a.94.94,0,0,1,.78,1v9.52c0,.74-.38,1.1-1.52,1.1s-1.52-.36-1.52-1.1V12a1.23,1.23,0,0,1-1,.7c-1,0-1.5-1.44-1.5-2.3a1.9,1.9,0,0,1,.4-1.22A21.13,21.13,0,0,0,4.56,2.4a1.36,1.36,0,0,1,1.38-.9m11.26.22a1.49,1.49,0,0,1,1.5,1.5V7.78a1.49,1.49,0,0,1-1.5,1.5H15v1h3.88c.68,0,1,.36,1,1.38s-.34,1.36-1,1.36H16.4a21.16,21.16,0,0,0,2.88,3.28,1.29,1.29,0,0,1,.4.94,1.92,1.92,0,0,1-1.6,1.82c-1,0-2.64-2.72-3.12-3.46V18.7c0,.74-.38,1.1-1.5,1.1S12,19.44,12,18.7V15.46c-.48.76-2.24,3.62-3.2,3.62a1.94,1.94,0,0,1-1.6-1.84,1.24,1.24,0,0,1,.38-.92A21.16,21.16,0,0,0,10.42,13H8.24c-.68,0-1-.34-1-1.36s.32-1.38,1-1.38H12v-1H9.68a1.49,1.49,0,0,1-1.5-1.5V3.22a1.49,1.49,0,0,1,1.5-1.5H17.2M11.6,6.54h3.7a.32.32,0,0,0,.32-.32V4.78a.32.32,0,0,0-.32-.32H11.6a.32.32,0,0,0-.32.32V6.22a.32.32,0,0,0,.32.32M5.94.5A2.35,2.35,0,0,0,3.6,2.12a20,20,0,0,1-3,6.4A2.93,2.93,0,0,0,0,10.36c0,1.37.78,3.3,2.5,3.3v5c0,.79.33,2.1,2.52,2.1,1.46,0,2.09-.58,2.35-1.2a2.3,2.3,0,0,0,1.39.5c.67,0,1.35-.42,2.2-1.44v.06c0,1,.44,2.1,2.5,2.1S16,19.53,16,18.75a3.08,3.08,0,0,0,2.12,1.33,2.91,2.91,0,0,0,2.6-2.82A2.27,2.27,0,0,0,20,15.58,15.84,15.84,0,0,1,18.46,14h.38c.76,0,2-.3,2-2.36,0-1.81-1-2.26-1.68-2.35a2.52,2.52,0,0,0,.52-1.55V3.22A2.47,2.47,0,0,0,17.2.72H9.68a2.48,2.48,0,0,0-1.62.59A3.11,3.11,0,0,0,5.94.5Zm6.34,5h2.34v.08H12.28V5.46ZM7,7.73c0-.11.09-.23.14-.34v.52L7,7.73Zm.5,1.67V9.09l.19.27-.19,0Zm0,5.54v-1a2.27,2.27,0,0,0,.7.1h.12c-.27.32-.55.63-.82.9Z"/><path class="cls-1" d="M36.14,20.3c-.89,0-1.34-.55-1.34-1.66s.69-1.54,1.28-1.54l1.39,0v-.18H30.72v1.68c0,1.68-1.59,1.68-2.12,1.68s-2.1,0-2.1-1.68V10.88a2,2,0,0,1,.64-1.48h-.6c-1.08,0-1.74-1.22-1.74-2.1A1.27,1.27,0,0,1,26,5.94l1.27,0,.38-.57h-2c-1.44,0-1.44-1.35-1.44-1.8,0-1.19.48-1.8,1.44-1.8h6.34c.19-.59.73-1.14,2-1.14s1.85.55,2,1.14h6.31c1,0,1.46.61,1.46,1.8s-.49,1.8-1.46,1.8H42l.89.91a1.42,1.42,0,0,1,.48,1c0,1-1.54,2-2.38,2h-.09a2,2,0,0,1,.81,1.62V17c0,2.21-1,3.28-3,3.28Zm-5.42-8.46Zm9-3a2.22,2.22,0,0,1,.37,0,2.77,2.77,0,0,1-.25-.24l-.19-.23c-1.05.14-2.28.3-3.65.44ZM31.94,5.74c1.82-.08,3.6-.19,5.09-.31L37,5.34H32.21Z"/><path class="cls-2" d="M34.1,1.1c1.14,0,1.58.44,1.64,1.14h6.72c.64,0,1,.34,1,1.3s-.32,1.3-1,1.3H40.8L42.52,6.6a.93.93,0,0,1,.34.64c0,.64-1.28,1.52-1.88,1.52a1,1,0,0,1-.78-.42l-.36-.44a96.11,96.11,0,0,1-13.26,1h0C25.8,8.9,25.3,8,25.3,7.3A.77.77,0,0,1,26,6.44c.5,0,1,0,1.54,0l1-1.56H25.72c-.64,0-.94-.32-.94-1.3s.3-1.3.94-1.3h6.74c.06-.7.48-1.14,1.64-1.14M31,6.28c2.56-.1,5.14-.26,7.06-.44l-.86-1H31.94L31,6.28m8.72,3.1a1.49,1.49,0,0,1,1.5,1.5V17c0,1.86-.68,2.78-2.52,2.78H36.14c-.56,0-.84-.28-.84-1.16s.42-1,.78-1l1.38,0c.32,0,.52-.18.52-.56v-.62H30.22v2.18c0,.8-.42,1.18-1.62,1.18S27,19.42,27,18.62V10.88a1.49,1.49,0,0,1,1.5-1.5H39.7m-9.48,3H38v-.68a.32.32,0,0,0-.32-.32H30.54a.32.32,0,0,0-.32.32v.68m0,2.54H38v-1H30.22v1M34.1.1a2.44,2.44,0,0,0-2.38,1.14h-6c-.72,0-1.94.3-1.94,2.3,0,1.47.65,2,1.29,2.21A1.82,1.82,0,0,0,24.3,7.3a2.62,2.62,0,0,0,1.91,2.57,2.44,2.44,0,0,0-.21,1v7.74c0,1,.45,2.18,2.6,2.18s2.62-1.36,2.62-2.18V17.44h3.37a2.36,2.36,0,0,0-.29,1.2c0,1.95,1.29,2.16,1.84,2.16h2.54C41,20.8,42.2,19.53,42.2,17V10.88a2.53,2.53,0,0,0-.36-1.32c1-.4,2-1.35,2-2.32a1.94,1.94,0,0,0-.63-1.35l-.13-.13c.65-.19,1.32-.73,1.32-2.22,0-2.08-1.37-2.3-2-2.3h-6A2.44,2.44,0,0,0,34.1.1Z"/><path class="cls-1" d="M51.16,19.8c-1.7,0-1.7-1.62-1.7-2.16s0-2.16,1.7-2.16h4.2V10.26H49.62c-1.56,0-1.74-1.25-1.74-2.2,0-.54,0-2.2,1.74-2.2h5.74V2.26c0-1,1-1.76,2.36-1.76s2.34.74,2.34,1.76v3.6h5.7c1.76,0,1.76,1.66,1.76,2.2s0,2.2-1.76,2.2h-5.7v5.22h4.16c1.15,0,1.72.73,1.72,2.16,0,.54,0,2.16-1.72,2.16Z"/><path class="cls-2" d="M57.72,1c1.1,0,1.84.56,1.84,1.26v4.1h6.2c.84,0,1.26.44,1.26,1.7s-.42,1.7-1.26,1.7h-6.2V16h4.66c.8,0,1.22.42,1.22,1.66S65,19.3,64.22,19.3H51.16c-.8,0-1.2-.4-1.2-1.66s.4-1.66,1.2-1.66h4.7V9.76H49.62c-.84,0-1.24-.42-1.24-1.7s.4-1.7,1.24-1.7h6.24V2.26c0-.7.74-1.26,1.86-1.26m0-1c-1.66,0-2.86,1-2.86,2.26v3.1H49.62c-1,0-2.24.47-2.24,2.7s1.22,2.7,2.24,2.7h5.24V15h-3.7c-.82,0-2.2.35-2.2,2.66s1.2,2.66,2.2,2.66H64.22c.83,0,2.22-.34,2.22-2.66S65.05,15,64.22,15H60.56V10.76h5.2c1,0,2.26-.47,2.26-2.7s-1.41-2.7-2.26-2.7h-5.2V2.26C60.56,1,59.34,0,57.72,0Z"/></g></g></svg>