<svg xmlns="http://www.w3.org/2000/svg" viewBox="0 0 67.38 20.82"><defs><style>.cls-1{fill:#463e36;}.cls-2{fill:#fff;}</style></defs><g id="レイヤー_2" data-name="レイヤー 2"><g id="レイヤー_1-2" data-name="レイヤー 1"><path class="cls-1" d="M2.14,19.84C.5,19.84.5,18.29.5,17.78s0-2.08,1.64-2.08h0V9c0-1.76,1.66-1.76,2.2-1.76s2.2,0,2.2,1.76v6.7H8.42V5.56H2.72C1.08,5.56,1.08,4,1.08,3.48s0-2.08,1.64-2.08H17.46c1.1,0,1.66.7,1.66,2.08,0,.52,0,2.08-1.66,2.08h-4.6V8.38h3.46c1.1,0,1.66.7,1.66,2.06,0,.51,0,2.06-1.66,2.06H12.86v3.2H18c1.1,0,1.66.7,1.66,2.08,0,.51,0,2.06-1.66,2.06Z"/><path class="cls-2" d="M17.46,1.9c.76,0,1.16.4,1.16,1.58s-.4,1.58-1.16,1.58h-5.1V8.88h4c.76,0,1.16.4,1.16,1.56S17.08,12,16.32,12h-4v4.2H18c.76,0,1.16.4,1.16,1.58s-.4,1.56-1.16,1.56H2.14C1.38,19.34,1,19,1,17.78s.38-1.58,1.14-1.58h.52V9c0-.84.42-1.26,1.7-1.26s1.7.42,1.7,1.26v7.2H8.92V5.06H2.72c-.76,0-1.14-.38-1.14-1.58S2,1.9,2.72,1.9H17.46m0-1H2.72C1.92.9.58,1.24.58,3.48S1.74,6.06,2.72,6.06h5.2V15.2H7.06V9c0-.84-.35-2.26-2.7-2.26S1.66,8,1.66,9v6.25C.9,15.39,0,16,0,17.78,0,20,1.34,20.34,2.14,20.34H18c.81,0,2.16-.33,2.16-2.56S18.85,15.2,18,15.2H13.36V13h3c.81,0,2.16-.33,2.16-2.56s-1.35-2.56-2.16-2.56h-3V6.06h4.1c.81,0,2.16-.33,2.16-2.58S18.27.9,17.46.9Z"/><path class="cls-1" d="M28.54,20.16c-.5,0-2,0-2-1.62V15.38a1.27,1.27,0,0,1-.62.16c-1.19,0-2-1.55-2-2.58a2.06,2.06,0,0,1,.74-1.6A20.76,20.76,0,0,0,28,7.24H25.7c-1.43,0-1.6-1.12-1.6-2,0-.49,0-2,1.6-2h.58V2.14C26.28.5,27.82.5,28.32.5c1.35,0,2,.55,2,1.64V3.35a2.36,2.36,0,0,1,2.18,2.47,8.62,8.62,0,0,1-1.58,4l1.54,1.05a1.52,1.52,0,0,1,.78,1.33,2.69,2.69,0,0,1-.38,1.26c-.29.53-.72,1.14-1.42,1.14a1.42,1.42,0,0,1-.88-.34v4.26C30.6,20.16,29.05,20.16,28.54,20.16Zm5.2-.38C32,19.78,32,18.16,32,17.62s0-2.18,1.72-2.18h2v-6H34.28c-1.72,0-1.72-1.62-1.72-2.16s0-2.18,1.72-2.18H35.7V2.2C35.7.5,37.28.5,37.8.5c1.41,0,2.12.57,2.12,1.7V5.12h1.36C43,5.12,43,6.76,43,7.3s0,2.16-1.74,2.16H39.92v6h1.86c1.74,0,1.74,1.64,1.74,2.18s0,2.16-1.74,2.16Z"/><path class="cls-2" d="M37.8,1c1.2,0,1.62.4,1.62,1.2V5.62h1.86c.82,0,1.24.42,1.24,1.68S42.1,9,41.28,9H39.42v7h2.36c.82,0,1.24.42,1.24,1.68s-.42,1.66-1.24,1.66h-8c-.82,0-1.22-.4-1.22-1.66s.4-1.68,1.22-1.68H36.2V9H34.28c-.82,0-1.22-.4-1.22-1.66s.4-1.68,1.22-1.68H36.2V2.2c0-.8.4-1.2,1.6-1.2M28.32,1c1.14,0,1.54.38,1.54,1.14V3.8c1.26.06,2.18.68,2.18,2S31,8.92,30.28,10l1.94,1.32a1.06,1.06,0,0,1,.56.92,2.19,2.19,0,0,1-.32,1c-.34.62-.64.88-1,.88a1,1,0,0,1-.6-.26l-.78-.64v5.32c0,.76-.4,1.12-1.56,1.12S27,19.3,27,18.54v-4.3c-.3.32-.64.8-1.12.8C25,15,24.4,13.72,24.4,13A1.57,1.57,0,0,1,25,11.74c.74-.66,3.6-3.84,3.6-4.8a.23.23,0,0,0-.24-.2H25.7c-.76,0-1.1-.36-1.1-1.46s.34-1.48,1.1-1.48h1.08V2.14c0-.76.38-1.14,1.54-1.14M37.8,0c-2.26,0-2.6,1.38-2.6,2.2V4.62h-.92A2.23,2.23,0,0,0,33,5a2.78,2.78,0,0,0-2.09-2V2.14c0-.8-.33-2.14-2.54-2.14s-2.54,1.34-2.54,2.14V2.8H25.7c-.78,0-2.1.32-2.1,2.48s1.14,2.46,2.1,2.46h1.38A23.91,23.91,0,0,1,24.29,11a2.57,2.57,0,0,0-.89,2c0,1.29.94,3.08,2.48,3.08H26v2.5c0,1,.44,2.12,2.54,2.12s2.56-1.32,2.56-2.12V15.08a1.64,1.64,0,0,0,.38,0,2.26,2.26,0,0,0,1.86-1.4,3.18,3.18,0,0,0,.44-1.5,2.06,2.06,0,0,0-1-1.75l-1.14-.78c.21-.35.42-.73.6-1.11a2,2,0,0,0,2,1.38h.92v5H33.74c-1,0-2.22.47-2.22,2.68s1.21,2.66,2.22,2.66h8c1,0,2.24-.46,2.24-2.66s-1.4-2.68-2.24-2.68H40.42V10h.86c1,0,2.24-.46,2.24-2.66s-1.4-2.68-2.24-2.68h-.86V2.2c0-.82-.34-2.2-2.62-2.2Z"/><path class="cls-1" d="M64.88,20.32a1.67,1.67,0,0,1-.63-.11l-4.49-1.53a1,1,0,0,1-.8-1,1.92,1.92,0,0,1,.28-.88H55.53a1.61,1.61,0,0,1,.27.86,1.14,1.14,0,0,1-.68,1.06,35.81,35.81,0,0,1-5.06,1.56,2.36,2.36,0,0,1-2.16-2.14A1.13,1.13,0,0,1,48.83,17c.43-.07.93-.16,1.46-.27a2,2,0,0,1-1.51-1.94V8.4a2,2,0,0,1,2-2h0a2,2,0,0,1-1-1.72V3.08a2,2,0,0,1,2-2h10.9a2,2,0,0,1,2,2v1.6a2,2,0,0,1-1,1.72h0a2,2,0,0,1,2,2v6.4a2,2,0,0,1-1.21,1.85l1.29.35c.79.21,1,.7,1,1.06a2.12,2.12,0,0,1-.39,1.1A1.88,1.88,0,0,1,64.88,20.32Z"/><path class="cls-2" d="M62.76,1.58a1.49,1.49,0,0,1,1.5,1.5v1.6a1.49,1.49,0,0,1-1.5,1.5H51.86a1.49,1.49,0,0,1-1.5-1.5V3.08a1.49,1.49,0,0,1,1.5-1.5h10.9M53.82,4.34h7A.32.32,0,0,0,61.14,4v-.3a.32.32,0,0,0-.32-.32h-7a.32.32,0,0,0-.32.32V4a.32.32,0,0,0,.32.32m10,2.56a1.49,1.49,0,0,1,1.5,1.5v6.4a1.49,1.49,0,0,1-1.5,1.5H61.46l4.32,1.18c.38.1.6.26.6.58a1.78,1.78,0,0,1-.32.84c-.38.66-.76.92-1.18.92a1.31,1.31,0,0,1-.46-.08l-4.5-1.54c-.3-.1-.46-.26-.46-.52a2.19,2.19,0,0,1,.84-1.38H54.1a1.68,1.68,0,0,1,1.2,1.36.65.65,0,0,1-.38.6,36.63,36.63,0,0,1-4.86,1.52,1.87,1.87,0,0,1-1.66-1.64.64.64,0,0,1,.52-.64,18.85,18.85,0,0,0,4.58-1.2H50.78a1.49,1.49,0,0,1-1.5-1.5V8.4a1.49,1.49,0,0,1,1.5-1.5H63.84M52.42,9.56H62.2V9a.32.32,0,0,0-.32-.32H52.74a.32.32,0,0,0-.32.32v.56m0,2.46H62.2v-.9H52.42V12m.32,2.48h9.14a.32.32,0,0,0,.32-.32v-.54H52.42v.54a.32.32,0,0,0,.32.32M62.76.58H51.86a2.48,2.48,0,0,0-2.5,2.5v1.6a2.53,2.53,0,0,0,.43,1.42,2.46,2.46,0,0,0-1.51,2.3v6.4a2.49,2.49,0,0,0,.64,1.69l-.17,0a1.64,1.64,0,0,0-1.35,1.62,2.87,2.87,0,0,0,2.66,2.64,31.57,31.57,0,0,0,5.21-1.58h.06a1.65,1.65,0,0,0,1-1.52,2.19,2.19,0,0,0,0-.36h2.24a1.73,1.73,0,0,0,0,.38,1.5,1.5,0,0,0,1.15,1.47l4.49,1.54a2.16,2.16,0,0,0,.78.13,2.36,2.36,0,0,0,2.05-1.42,2.6,2.6,0,0,0,.45-1.34A1.57,1.57,0,0,0,66,16.52l-.29-.08a2.53,2.53,0,0,0,.59-1.64V8.4a2.47,2.47,0,0,0-1.5-2.3,2.53,2.53,0,0,0,.42-1.42V3.08a2.47,2.47,0,0,0-2.5-2.5Z"/></g></g></svg>