<?xml version="1.0" encoding="UTF-8"?><svg xmlns="http://www.w3.org/2000/svg" viewBox="0 0 105.68 19"><defs><style>.d{fill:#463e36;}.e{fill:none;stroke:#fff;stroke-width:2px;}</style></defs><g id="a"/><g id="b"><g id="c"><g><g><path class="e" d="M12.26,10.56c1.2,1.5,3.56,3.28,5.62,4.22,1,.44,1.34,.8,1.34,1.38,0,.9-.7,1.8-1.42,1.8-1.36,0-5.04-2.48-6.76-4.58v4.42c0,.76-.54,1.2-1.48,1.2s-1.5-.44-1.5-1.2v-4.4c-.94,1.32-4.68,4.64-6.66,4.64-.78,0-1.4-.74-1.4-1.64,0-.7,.24-1,1.1-1.4,3-1.38,4.96-3.62,5.68-4.44H1.16c-.68,0-1.06-.48-1.06-1.34s.38-1.34,1.06-1.34h2.9s-1.1-1.48-1.1-2.16c0-.4,.3-.78,.88-1.06h-1.34c-.68,0-1.06-.48-1.06-1.34s.38-1.34,1.06-1.34h5.56v-.78c0-.76,.54-1.2,1.5-1.2s1.48,.44,1.48,1.2v.78h5.66c.68,0,1.06,.48,1.06,1.34s-.38,1.34-1.06,1.34h-1.16c.48,.28,.72,.64,.72,1.02,0,.76-1.06,2.04-1.22,2.2h2.82c.7,0,1.08,.48,1.08,1.34s-.38,1.34-1.08,1.34h-5.6Zm-4.2-5.9h-2.84c.42,.3,1.28,1.54,1.28,2.16,0,.42-.22,.74-.74,1.06h2.3v-3.22Zm5.12,3.22c-.38-.3-.56-.6-.56-.94,0-.28,.1-.44,1.02-1.9,.08-.14,.14-.24,.26-.38h-2.86v3.22h2.14Z"/><path class="e" d="M36.51,11.98h5.54c.7,0,1.1,.5,1.1,1.36s-.4,1.36-1.1,1.36h-5.54v3.04c0,.74-.52,1.18-1.46,1.18s-1.46-.44-1.46-1.18v-3.04h-8.22c-.7,0-1.08-.48-1.08-1.36s.38-1.36,1.08-1.36h1.96v-3.7c0-1.4,.46-1.82,1.92-1.82h4.34v-1.84h-4.54c-.48,.66-1.48,1.78-2,2.26-.44,.4-.76,.54-1.22,.54-.82,0-1.46-.66-1.46-1.48,0-.58,.1-.68,1.16-1.7,.78-.78,1.86-2.2,2.38-3.14,.48-.82,.78-1.06,1.36-1.06,.86,0,1.58,.58,1.58,1.32,0,.14-.02,.26-.08,.48h10.74c.7,0,1.1,.5,1.1,1.4s-.4,1.38-1.1,1.38h-5v1.84h4.3c.68,0,1.06,.48,1.06,1.34s-.38,1.32-1.06,1.32h-4.3v2.86Zm-2.92,0v-2.86h-2.98c-.3,0-.44,.14-.44,.44v2.42h3.42Z"/><path class="e" d="M54.96,5.04c0-.46,0-.94,.8-1.18h-2.78c-.34,0-.42,.1-.42,.44v3.9c0,1.04-.06,2.82-.14,3.82-.1,1.62-.34,3.06-.68,4.28-.5,1.72-.9,2.2-1.92,2.2-.9,0-1.48-.52-1.48-1.34,0-.38,.04-.52,.48-1.66,.62-1.68,.9-4.18,.9-7.94V3.66c0-1.84,.42-2.28,2.22-2.28h4.96c0-.42,0-1.36,1.5-1.36s1.48,.9,1.5,1.36h6.1c.62,0,.98,.44,.98,1.24s-.36,1.24-.98,1.24h-3.16c.86,.24,.86,.76,.86,1.18h1.92c.54,0,.86,.38,.86,1.08s-.32,1.08-.86,1.08h-1.92v1.26c0,1.34-.34,1.68-1.68,1.68h-5.36c-1.36,0-1.7-.34-1.7-1.68v-1.26h-1.26c-.56,0-.86-.38-.86-1.08s.3-1.08,.86-1.08h1.26Zm7.96,5.64c1.26,0,1.78,.34,1.78,1.2,0,1.46-2.12,3.22-2.64,3.56,1.08,.34,1.88,.52,2.68,.62,1.16,.16,1.54,.46,1.54,1.26,0,.86-.46,1.44-1.2,1.44-1.08,0-4.52-.96-5.82-1.62-2.84,1.42-5.64,1.58-5.82,1.58-.74,0-1.26-.58-1.26-1.42s.22-1,2.28-1.4c.6-.1,1.3-.28,2.16-.54-.78-.72-1.46-1.46-2.12-2.36h-.7c-.6,0-.94-.42-.94-1.16s.34-1.16,.94-1.16h9.12Zm-5.92-6.82c.8,.24,.8,.74,.8,1.18h3c0-.46,0-.92,.84-1.18h-4.64Zm.76,9.14c.3,.36,.8,.78,1.46,1.2,.8-.44,1.52-.96,1.52-1.1,0-.08-.08-.1-.56-.1h-2.42Zm.04-5.8v.62c0,.34,.1,.44,.44,.44h2.12c.34,0,.44-.1,.44-.44v-.62h-3Z"/><path class="e" d="M82.28,11.78h1.04c.72,0,1.14,.52,1.14,1.44s-.42,1.44-1.14,1.44h-1.04v1.44c0,.76-.54,1.18-1.5,1.18s-1.5-.42-1.5-1.18v-1.44h-5.52c-1.14,0-1.84-.64-1.84-1.68,0-.46,.12-.82,.42-1.26l6.08-8.56c.72-.98,1.38-1.42,2.22-1.42,1.1,0,1.64,.62,1.64,1.94V11.78Zm-3-4.88l-3.28,4.88h3.28V6.9Z"/><path class="e" d="M102.74,12.74h-7.96c-.28,1.96-.78,3.56-1.5,4.84-.42,.74-.88,1.06-1.54,1.06-.88,0-1.66-.7-1.66-1.5,0-.34,.08-.48,.56-1.26,1.1-1.8,1.52-4.16,1.52-8.68V3.12c0-1.8,.46-2.26,2.26-2.26h9c1.8,0,2.26,.46,2.26,2.26V15.5c0,2.72-1.5,2.9-3.62,2.9s-2.76-.36-2.76-1.56c0-.86,.42-1.38,1.14-1.38,.24,0,1.44,.08,1.7,.08,.46,0,.6-.2,.6-.82v-1.98Zm0-2.54v-2.08h-7.66c0,.62-.02,1.42-.08,2.08h7.74Zm0-4.62v-1.52c0-.32-.12-.44-.44-.44h-6.78c-.32,0-.44,.12-.44,.44v1.52h7.66Z"/></g><g><path class="d" d="M12.26,10.56c1.2,1.5,3.56,3.28,5.62,4.22,1,.44,1.34,.8,1.34,1.38,0,.9-.7,1.8-1.42,1.8-1.36,0-5.04-2.48-6.76-4.58v4.42c0,.76-.54,1.2-1.48,1.2s-1.5-.44-1.5-1.2v-4.4c-.94,1.32-4.68,4.64-6.66,4.64-.78,0-1.4-.74-1.4-1.64,0-.7,.24-1,1.1-1.4,3-1.38,4.96-3.62,5.68-4.44H1.16c-.68,0-1.06-.48-1.06-1.34s.38-1.34,1.06-1.34h2.9s-1.1-1.48-1.1-2.16c0-.4,.3-.78,.88-1.06h-1.34c-.68,0-1.06-.48-1.06-1.34s.38-1.34,1.06-1.34h5.56v-.78c0-.76,.54-1.2,1.5-1.2s1.48,.44,1.48,1.2v.78h5.66c.68,0,1.06,.48,1.06,1.34s-.38,1.34-1.06,1.34h-1.16c.48,.28,.72,.64,.72,1.02,0,.76-1.06,2.04-1.22,2.2h2.82c.7,0,1.08,.48,1.08,1.34s-.38,1.34-1.08,1.34h-5.6Zm-4.2-5.9h-2.84c.42,.3,1.28,1.54,1.28,2.16,0,.42-.22,.74-.74,1.06h2.3v-3.22Zm5.12,3.22c-.38-.3-.56-.6-.56-.94,0-.28,.1-.44,1.02-1.9,.08-.14,.14-.24,.26-.38h-2.86v3.22h2.14Z"/><path class="d" d="M36.51,11.98h5.54c.7,0,1.1,.5,1.1,1.36s-.4,1.36-1.1,1.36h-5.54v3.04c0,.74-.52,1.18-1.46,1.18s-1.46-.44-1.46-1.18v-3.04h-8.22c-.7,0-1.08-.48-1.08-1.36s.38-1.36,1.08-1.36h1.96v-3.7c0-1.4,.46-1.82,1.92-1.82h4.34v-1.84h-4.54c-.48,.66-1.48,1.78-2,2.26-.44,.4-.76,.54-1.22,.54-.82,0-1.46-.66-1.46-1.48,0-.58,.1-.68,1.16-1.7,.78-.78,1.86-2.2,2.38-3.14,.48-.82,.78-1.06,1.36-1.06,.86,0,1.58,.58,1.58,1.32,0,.14-.02,.26-.08,.48h10.74c.7,0,1.1,.5,1.1,1.4s-.4,1.38-1.1,1.38h-5v1.84h4.3c.68,0,1.06,.48,1.06,1.34s-.38,1.32-1.06,1.32h-4.3v2.86Zm-2.92,0v-2.86h-2.98c-.3,0-.44,.14-.44,.44v2.42h3.42Z"/><path class="d" d="M54.96,5.04c0-.46,0-.94,.8-1.18h-2.78c-.34,0-.42,.1-.42,.44v3.9c0,1.04-.06,2.82-.14,3.82-.1,1.62-.34,3.06-.68,4.28-.5,1.72-.9,2.2-1.92,2.2-.9,0-1.48-.52-1.48-1.34,0-.38,.04-.52,.48-1.66,.62-1.68,.9-4.18,.9-7.94V3.66c0-1.84,.42-2.28,2.22-2.28h4.96c0-.42,0-1.36,1.5-1.36s1.48,.9,1.5,1.36h6.1c.62,0,.98,.44,.98,1.24s-.36,1.24-.98,1.24h-3.16c.86,.24,.86,.76,.86,1.18h1.92c.54,0,.86,.38,.86,1.08s-.32,1.08-.86,1.08h-1.92v1.26c0,1.34-.34,1.68-1.68,1.68h-5.36c-1.36,0-1.7-.34-1.7-1.68v-1.26h-1.26c-.56,0-.86-.38-.86-1.08s.3-1.08,.86-1.08h1.26Zm7.96,5.64c1.26,0,1.78,.34,1.78,1.2,0,1.46-2.12,3.22-2.64,3.56,1.08,.34,1.88,.52,2.68,.62,1.16,.16,1.54,.46,1.54,1.26,0,.86-.46,1.44-1.2,1.44-1.08,0-4.52-.96-5.82-1.62-2.84,1.42-5.64,1.58-5.82,1.58-.74,0-1.26-.58-1.26-1.42s.22-1,2.28-1.4c.6-.1,1.3-.28,2.16-.54-.78-.72-1.46-1.46-2.12-2.36h-.7c-.6,0-.94-.42-.94-1.16s.34-1.16,.94-1.16h9.12Zm-5.92-6.82c.8,.24,.8,.74,.8,1.18h3c0-.46,0-.92,.84-1.18h-4.64Zm.76,9.14c.3,.36,.8,.78,1.46,1.2,.8-.44,1.52-.96,1.52-1.1,0-.08-.08-.1-.56-.1h-2.42Zm.04-5.8v.62c0,.34,.1,.44,.44,.44h2.12c.34,0,.44-.1,.44-.44v-.62h-3Z"/><path class="d" d="M82.28,11.78h1.04c.72,0,1.14,.52,1.14,1.44s-.42,1.44-1.14,1.44h-1.04v1.44c0,.76-.54,1.18-1.5,1.18s-1.5-.42-1.5-1.18v-1.44h-5.52c-1.14,0-1.84-.64-1.84-1.68,0-.46,.12-.82,.42-1.26l6.08-8.56c.72-.98,1.38-1.42,2.22-1.42,1.1,0,1.64,.62,1.64,1.94V11.78Zm-3-4.88l-3.28,4.88h3.28V6.9Z"/><path class="d" d="M102.74,12.74h-7.96c-.28,1.96-.78,3.56-1.5,4.84-.42,.74-.88,1.06-1.54,1.06-.88,0-1.66-.7-1.66-1.5,0-.34,.08-.48,.56-1.26,1.1-1.8,1.52-4.16,1.52-8.68V3.12c0-1.8,.46-2.26,2.26-2.26h9c1.8,0,2.26,.46,2.26,2.26V15.5c0,2.72-1.5,2.9-3.62,2.9s-2.76-.36-2.76-1.56c0-.86,.42-1.38,1.14-1.38,.24,0,1.44,.08,1.7,.08,.46,0,.6-.2,.6-.82v-1.98Zm0-2.54v-2.08h-7.66c0,.62-.02,1.42-.08,2.08h7.74Zm0-4.62v-1.52c0-.32-.12-.44-.44-.44h-6.78c-.32,0-.44,.12-.44,.44v1.52h7.66Z"/></g></g></g></g></svg>