<svg xmlns="http://www.w3.org/2000/svg" viewBox="0 0 121.33 140.05"><defs><style>.cls-1{fill:#fff;}.cls-2{fill:none;}.cls-3{fill:#26466d;}.cls-4{fill:#f99f81;}.cls-5{fill:#b6bbc0;}.cls-6{fill:#fae37e;}.cls-7{fill:#fbe47d;}.cls-8{fill:#fcfcfa;}.cls-9{fill:#f9fafb;}.cls-10{fill:#f8f9fa;}.cls-11{fill:#f7f8f9;}.cls-12{fill:#f5f6f8;}.cls-13{fill:#fcfdfd;}.cls-14{fill:#456083;}.cls-15{fill:#b6bbbf;}.cls-16{fill:#fec1ae;}</style></defs><g id="レイヤー_2" data-name="レイヤー 2"><g id="レイヤー_1-2" data-name="レイヤー 1"><path class="cls-1" d="M52.1,51.31c.51-.2,1.21-.25,1.49-.62,2.07-2.72,4.64-5.19,5.13-8.8a1.93,1.93,0,0,1,2-1.89c.55,0,1.1-.11,1.64-.2A3.78,3.78,0,0,0,65.07,38c1.58-2.48.3-6.82-2.44-7.93a2.05,2.05,0,0,1-1.45-2c-.22-2,0-4.16-1.09-6.05a16.47,16.47,0,0,0-5-10.46c-6.28-6.3-14-8.28-22.65-7a8.58,8.58,0,0,1,1.24-3.26c.24-.43.5-.94-.07-1.26S32.7.23,32.4.61a9.08,9.08,0,0,0-.75,1.24c-1.34,2.41-1.5,2.44-3.12.3A3.64,3.64,0,0,0,27.39,1C27,.78,26.7.49,26.26.81A.91.91,0,0,0,26,1.93a28.56,28.56,0,0,0,1.38,4.32,4.3,4.3,0,0,0-.81.16,20.8,20.8,0,0,0-9.35,7.26,16.77,16.77,0,0,0-3.47,10,33.67,33.67,0,0,0,1.42,7.69,18.58,18.58,0,0,0-2.48.07,4.23,4.23,0,0,0-3.07,6.34,6.87,6.87,0,0,0,4.81,3.61,1.82,1.82,0,0,1,1.69,1.28c.82,2.84,3.14,4.66,4.64,7,.31.49.87.35,1.31.51a24.2,24.2,0,0,1-1.9,6.73,16.27,16.27,0,0,1-3,4.7c-1.91,2.08-3.6,4.36-5.33,6.6a7.9,7.9,0,0,0-1.83,4.11,2.14,2.14,0,0,0-2.43,1.08A6.38,6.38,0,0,1,6.29,74.7a10,10,0,0,0-2.54,2.73A43.69,43.69,0,0,0,.34,85.88a10.76,10.76,0,0,0,1.82,9.25c.62.83,1.28,1.63,1.91,2.46a3.52,3.52,0,0,1,.69,3.31,8.66,8.66,0,0,0-.55,3.67c.38,2.84,0,5.68,0,8.51a21.38,21.38,0,0,0,1,6.92c1,2.73,2,5.45,2.76,8.22a11.31,11.31,0,0,0,14,7.79,3.32,3.32,0,0,0,1.82-5.4,6.16,6.16,0,0,0-2.51-2.14c-1.69-.65-2.86-1.5-2.61-3.57a5.58,5.58,0,0,0-.42-1.81,2.36,2.36,0,0,1-.06-1.42,17.87,17.87,0,0,0,.63-6,6.68,6.68,0,0,1,.24-2.26,42.44,42.44,0,0,0,1.69-9.3,8.22,8.22,0,0,1,1.67-4c.81-1.09,1.82-.89,2.34.43a9.64,9.64,0,0,1,.58,3.46c0,2.22.08,4.44.14,6.66a52.86,52.86,0,0,0,1.31,9.19c.39,1.84,1.63,3.14,2.56,4.66a5.68,5.68,0,0,0,2.79,2.35c1.58.68,3.26.46,4.88.69a4.26,4.26,0,0,0,4.51-3.18,3.37,3.37,0,0,0-2.12-4.05c-1.83-.81-2.57-1.94-2.28-3.86a2,2,0,0,0-.11-.82,9.51,9.51,0,0,1,.16-5.13,5.58,5.58,0,0,0,0-2.84,7.89,7.89,0,0,1,.3-5.1c.64-1.43,1.15-2.73.26-4.29a3.8,3.8,0,0,1-.06-2.25c.29-1.85.61-3.69,1-5.5a6.44,6.44,0,0,0,0-4.07,1.55,1.55,0,0,1,.73-2.12,8.38,8.38,0,0,0,2.61-2.91,23.34,23.34,0,0,0,2.61-5.42c.48-1.46.79-1.63,2.32-1.35,1.15.21,2.27.58,3.41.88-.09,2.48.09,5-.77,7.4-.64,1.78-.23,3.73-.73,5.54-.4,1.47-.81,2.89-.18,4.45a3.31,3.31,0,0,1-.11,2.25,4.59,4.59,0,0,0,0,2.24c.2,1.28.53,2.64-.09,3.88a7.15,7.15,0,0,0-.36,4.26,37,37,0,0,1,.66,4.92c0,4.58,0,9.16,0,13.74a15.09,15.09,0,0,0,.63,5.33,13.62,13.62,0,0,1,.53,3.26c.18,1.79.66,2.31,2.51,2.22a12.36,12.36,0,0,1,3.26.42,25.19,25.19,0,0,0,6.76.7c1.37-.08,2.72-.46,4.08-.67a2.62,2.62,0,0,1,2.68.67,2.21,2.21,0,0,0,1.71.59,7.68,7.68,0,0,0,3-.61,2.29,2.29,0,0,1,2.37.14,3.22,3.22,0,0,0,3.67.28c1-.45,2.22-1,3.39-.38a6,6,0,0,0,4.45.3c1.23-.27,2.38-.64,3.59.11.54.33,1.2.09,1.82,0a7.44,7.44,0,0,1,3-.47,24.33,24.33,0,0,0,5,.2c2.47,0,3.73-1.18,4.21-3.67a7.51,7.51,0,0,1,2.27,0c3.47.19,4.86-1,5.18-4.42.38-4.06.39-8.16,1.29-12.17a47.43,47.43,0,0,0,.61-8.66c.12-3.4,1-6.72,1-10.12,0-3.88.31-7.78-.4-11.63a3,3,0,0,1,.37-2.58,2.76,2.76,0,0,0,.29-2.38c-.31-1.84-1.1-3.66-.87-5.5a19.9,19.9,0,0,0-.32-5.35c-.32-2.26-.59-4.53-.85-6.79a42.7,42.7,0,0,0-2.25-9.47,2.45,2.45,0,0,0-1.79-1.85,2.15,2.15,0,0,1-1.39-1.17,3.52,3.52,0,0,0-3.48-1.79c-1.45,0-3,.34-4.34-.17a5.6,5.6,0,0,0-4,0,1.74,1.74,0,0,1-1.78-.11c-1.38-1.11-2.79-.92-4.31-.35A5.46,5.46,0,0,1,86.17,48,3.23,3.23,0,0,0,83,48a3.3,3.3,0,0,1-3.71,0,1.66,1.66,0,0,0-2.13.11,2.94,2.94,0,0,1-3.46.45c-.7-.28-1.56-.55-2.13.18-1.23,1.6-3,1.45-4.57,1.22a6.54,6.54,0,0,0-4.85,1.37A45.62,45.62,0,0,0,58,54.66c-.33,0-.73.05-1-.1C55.33,53.5,53.72,52.4,52.1,51.31Z"/><path class="cls-1" d="M50.52,75.6c-1.14-.3-2.26-.67-3.41-.88-1.53-.28-1.84-.11-2.32,1.35a23.34,23.34,0,0,1-2.61,5.42,8.38,8.38,0,0,1-2.61,2.91,1.55,1.55,0,0,0-.73,2.12,6.44,6.44,0,0,1,0,4.07c-.44,1.81-.76,3.65-1,5.5a3.8,3.8,0,0,0,.06,2.25c.89,1.56.38,2.86-.26,4.29a7.89,7.89,0,0,0-.3,5.1,5.58,5.58,0,0,1,0,2.84,9.51,9.51,0,0,0-.16,5.13,2,2,0,0,1,.11.82c-.29,1.92.45,3,2.28,3.86a3.37,3.37,0,0,1,2.12,4.05,4.26,4.26,0,0,1-4.51,3.18c-1.62-.23-3.3,0-4.88-.69a5.68,5.68,0,0,1-2.79-2.35c-.93-1.52-2.17-2.82-2.56-4.66a52.86,52.86,0,0,1-1.31-9.19c-.06-2.22-.12-4.44-.14-6.66a9.64,9.64,0,0,0-.58-3.46c-.52-1.32-1.53-1.52-2.34-.43a8.22,8.22,0,0,0-1.67,4,42.44,42.44,0,0,1-1.69,9.3,6.68,6.68,0,0,0-.24,2.26,17.87,17.87,0,0,1-.63,6,2.36,2.36,0,0,0,.06,1.42,5.58,5.58,0,0,1,.42,1.81c-.25,2.07.92,2.92,2.61,3.57a6.16,6.16,0,0,1,2.51,2.14,3.32,3.32,0,0,1-1.82,5.4,11.31,11.31,0,0,1-14-7.79c-.76-2.77-1.81-5.49-2.76-8.22a21.38,21.38,0,0,1-1-6.92c0-2.83.37-5.67,0-8.51a8.66,8.66,0,0,1,.55-3.67,3.52,3.52,0,0,0-.69-3.31c-.63-.83-1.29-1.63-1.91-2.46A10.76,10.76,0,0,1,.34,85.88a43.69,43.69,0,0,1,3.41-8.45A10,10,0,0,1,6.29,74.7a6.38,6.38,0,0,0,1.36-1.27,2.14,2.14,0,0,1,2.43-1.08,6.1,6.1,0,0,1,.48,2.22,4.65,4.65,0,0,0,2.34,3.49,8.42,8.42,0,0,0,2.79,1.31,6.24,6.24,0,0,1,3.78,2,4,4,0,0,0,1.57,1c1.7.81,3.52.51,5.29.68,1.31.12,2.73,0,3.75.94,1.25,1.15,2.45.7,3.65.12a10.37,10.37,0,0,1,2.06-.93c4-1,6.26-3.55,7.22-7.44a1.81,1.81,0,0,0-.81-2.16A17.65,17.65,0,0,0,39.28,72a36.81,36.81,0,0,1-6.65-3.81A4,4,0,0,1,31,65.84a.82.82,0,0,1,.27-.94.76.76,0,0,1,1,.09c.22.16.41.36.63.54a34.94,34.94,0,0,0,14.26,7.34c1.77.45,3.59.32,5.32.7a11.48,11.48,0,0,0,7.2-.91l1.3.33c.54,1,1.64,1.18,2.5,1.7a1.62,1.62,0,0,0,2.05-.29c1-.75,1.26-1.94,2-2.8s.71-.91-.59-1.69c-.84-.61-1.73-1.11-1.08-2.49.42-.9,0-1.25-1-1a5.13,5.13,0,0,0-2.07.91,1.41,1.41,0,0,1-1.34.31,6.4,6.4,0,0,0-3-1.64c-4.19-.87-7.94-3-12-4.26a2.89,2.89,0,0,1-.58-.22c-1.85-1.08-3.78-2-5-3.91-.53-.79-.56-1.37.29-1.88l.68.22c.86,1.3,1.76,2.51,3.62,2,.36-.09.65.15,1,.31,2.78,1.47,5.36,3.38,8.54,4,.31.06.58.37.86.57a4.3,4.3,0,0,0,3.08.94,11.17,11.17,0,0,1,2.24.29c.42.07.78.15,1,.64a.87.87,0,0,0,1,.61c1.36-.46,3-.47,4-1.59A3.39,3.39,0,0,1,70,62.51c.33,0,.75,0,.86-.38s-.27-.74-.63-.92A12.22,12.22,0,0,0,66,60.06c-.54-.07-1.13,0-1.41-.62,2.53-1.81,4.85-.85,7.11.57,1.59,1,1.7,2,.51,3.39a2.48,2.48,0,0,1-2,1,1.56,1.56,0,0,0-1.61,1.29c-.74,2.17-.79,2.15,1,3.73a4.57,4.57,0,0,1,.45.43c1,1.05,1,1.6.14,2.73a5.39,5.39,0,0,0-1.11,2c-.24,1-.86,1.61-2,1.22a1.15,1.15,0,0,0-1.33.31c-1,1.19-2,.93-3.13.24A15.15,15.15,0,0,1,61,75.36c-1-.81-1.9-.48-2.87.06a3.09,3.09,0,0,0-1.44,2.16c-.59,2.22-.16,4.58-.93,6.76A5.62,5.62,0,0,0,55.66,87c.26,2.93-.25,5.9.14,8.84-1.17,1.88-.57,3.87-.4,5.86.13,1.64.9,3.25.41,4.93a9,9,0,0,0-.23,2.68c0,2.15.42,4.27.32,6.43a32.27,32.27,0,0,0,.81,9.89,6,6,0,0,1,.3,2.24,1.06,1.06,0,0,0,1.42,1.25,5.23,5.23,0,0,1,3.63.44,3.67,3.67,0,0,0,2,.18,3,3,0,0,1,1.64.11,8.1,8.1,0,0,0,4.5.1c1.09-.16,2.18-.4,3.27-.56a1.85,1.85,0,0,1,1.91.53c.94,1.19,2.09,1.14,3.37.64.58-.22,1.22-.28,1.79-.51a2,2,0,0,1,2.32.36,2.35,2.35,0,0,0,2.88.23,5,5,0,0,1,4-.35,7.6,7.6,0,0,0,4.67,0,3.38,3.38,0,0,1,2.63,0,2.75,2.75,0,0,0,2.57.09,6,6,0,0,1,2.88-.3,14.08,14.08,0,0,0,3.31-.08c2.17.51,3.87.17,4.48-1.08a6.09,6.09,0,0,0,.85-4,6.92,6.92,0,0,1,.31-3.65A46.16,46.16,0,0,0,113,109.67c0-2.26.23-4.54.08-6.81a3.91,3.91,0,0,1,.67-2.77,1.39,1.39,0,0,0-.12-2,3.1,3.1,0,0,1-.69-2.52c.11-3.52.34-7.06.67-10.55a37.19,37.19,0,0,0,0-9.66c-.48-3-1.28-6-.67-9-.82-2.39-.49-5-1.1-7.37-.5-2-.52-4.17-2.62-5.4-.35-.21-.48-.82-.67-1.27a2.55,2.55,0,0,0-2.75-1.73c-3.73.23-7.45-.47-11.18,0a7,7,0,0,1-2.28,0c-3-.62-6.08-.36-9.11-.33-5.74,0-11.39,1.29-17.11,1.71a4.88,4.88,0,0,0-3.09,1l-3.39,3C59,55.58,58,55.68,58,54.66a45.62,45.62,0,0,1,4.17-3.35A6.54,6.54,0,0,1,67,49.94c1.61.23,3.34.38,4.57-1.22.57-.73,1.43-.46,2.13-.18a2.94,2.94,0,0,0,3.46-.45A1.66,1.66,0,0,1,79.26,48,3.3,3.3,0,0,0,83,48a3.23,3.23,0,0,1,3.2,0,5.46,5.46,0,0,0,4.62.14c1.52-.57,2.93-.76,4.31.35a1.74,1.74,0,0,0,1.78.11,5.6,5.6,0,0,1,4,0c1.36.51,2.89.21,4.34.17a3.52,3.52,0,0,1,3.48,1.79,2.15,2.15,0,0,0,1.39,1.17,2.45,2.45,0,0,1,1.79,1.85A42.7,42.7,0,0,1,114.16,63c.26,2.26.53,4.53.85,6.79a19.9,19.9,0,0,1,.32,5.35c-.23,1.84.56,3.66.87,5.5a2.76,2.76,0,0,1-.29,2.38,3,3,0,0,0-.37,2.58c.71,3.85.41,7.75.4,11.63,0,3.4-.88,6.72-1,10.12a47.43,47.43,0,0,1-.61,8.66c-.9,4-.91,8.11-1.29,12.17-.32,3.41-1.71,4.61-5.18,4.42a7.51,7.51,0,0,0-2.27,0,17.22,17.22,0,0,0-4.54-.14,18.37,18.37,0,0,1-5.39.09c-4.08-.72-8.16-.15-12.19.26-3.49.35-6.87-.65-10.32-.28a2.59,2.59,0,0,1-1.35-.49,3.6,3.6,0,0,0-2.41-.34,28.08,28.08,0,0,1-8.44.07c-3.91-.61-6.26-3.13-6.56-7.4a99.17,99.17,0,0,1-.5-14.32c.22-3-.49-5.91-.45-8.9.05-3.58-.62-7.16,0-10.74a6.2,6.2,0,0,0-.07-1,26.19,26.19,0,0,1,.28-5.37,47,47,0,0,0,1.22-6.32c.08-1.44,0-1.67-1.46-1.87A10.74,10.74,0,0,0,50.52,75.6ZM37.27,89.25c0-.21,0-.42,0-.63-.13-2.15-.89-2.73-3.05-2.35a12.14,12.14,0,0,1-4.52.4,46.21,46.21,0,0,1-17-6.89,11.45,11.45,0,0,1-3.31-3.41c-.19-.29-.36-.59-.57-.87s-.75-.49-1-.08c-1.33,1.85-3.3,3.2-4.19,5.4a58.86,58.86,0,0,0-1.79,7,5.26,5.26,0,0,0,.32,2.67c.14.5.4,1,.9,1,2,.39,3.86,1.5,5.92,1.91,5.16,1,10.43,1.36,15.58,2.47,2.68.58,5.54.2,8.1,1.54a3.41,3.41,0,0,0,1.64.13c1.65-.05,2-.49,2.15-2.61.12-1.61-.27-2.15-1.87-2.38a35.53,35.53,0,0,0-3.71-.35A32.65,32.65,0,0,1,22,90.66c-2.58-.81-5.1-1.75-7.75-2.36a21.38,21.38,0,0,1-8-3.37,5,5,0,0,1-1.72-1.77c-.11-.24-.35-.52-.06-.74s.49.06.68.24a15.94,15.94,0,0,0,7.38,3.64,61.56,61.56,0,0,1,7.57,2.25,58.85,58.85,0,0,0,8.67,2.09c2.4.52,4.87-.25,7.2.73.51.22.95-.12,1.08-.68S37.2,89.73,37.27,89.25ZM6.8,99.56c-.08,1.62-.07,1.6,1.41,1.91a11.73,11.73,0,0,0,1.86.19,41.33,41.33,0,0,1,8.22,1,1.5,1.5,0,0,0,2-.9,7.23,7.23,0,0,1,3-3.36c.27-.14.49-.35.43-.64s-.45-.47-.79-.54c-2.59-.46-5.16-1-7.77-1.25a46.83,46.83,0,0,1-8-1.37C6.61,94.43,6,94,5.44,94.49s.11,1.27.26,1.9a1.79,1.79,0,0,0,.42.71A2.89,2.89,0,0,1,6.8,99.56Zm25.05,11.31h.72c2.54,0,2.71-.19,2.57-2.64,0-.42,0-.83,0-1.25,0-.79-.4-1.11-1.16-1.1a12,12,0,0,0-3.09.4c-.52.14-1.23.35-1.4-.38s.49-1.07,1.11-1.2c.94-.2,1.9-.37,2.86-.48a2.79,2.79,0,0,0,2.59-3.7c-.18-.77-.53-1.29-1.38-1.26a11.8,11.8,0,0,1-4.21-1,12.58,12.58,0,0,0-3.05-.53c-1.09-.08-1.57.61-1,1.57a6.34,6.34,0,0,1,.55,3c.06,1.86.14,3.73.25,5.6a2.86,2.86,0,0,0,2.32,2.78A10.43,10.43,0,0,0,31.85,110.87Zm-13-5.19c0-1.3-.32-1.64-1.88-1.81-2.53-.27-5.07-.53-7.61-.72-3-.24-3.21,0-2.61,3,0,.2.06.41.11.61.52,2.46.77,2.65,3.26,2.79,2.27.13,4.56-.09,6.77.62a1,1,0,0,0,1.43-1A17.38,17.38,0,0,1,18.87,105.68Zm-7.31,16.45v0c.9,0,1.79,0,2.69,0a.36.36,0,0,1,.38.4,1.13,1.13,0,0,1-.22.53,1.57,1.57,0,0,1-1.15.35c-1,0-1.94.09-2.9.15-.5,0-1,.17-1.16.71s.19.76.45,1.08a4.9,4.9,0,0,0,6.89.82,1,1,0,0,0,.37-1.27,15.21,15.21,0,0,1-.55-4.71c0-1.4-.42-1.86-1.9-1.81A42.44,42.44,0,0,1,9.94,118c-.76-.06-1.49-.31-2.24-.39s-1.14.3-1,1.13a3.8,3.8,0,0,0,3.85,3.42Zm.31,6.43c-.59,0-1.31-.57-1.74.11s.18,1.41.58,2A2.61,2.61,0,0,0,11,131c3.15,3.39,7.06,4.07,11.38,3.14,1.1-.24,1.36-1.13.74-2.07a2.41,2.41,0,0,0-1.55-1,3.22,3.22,0,0,1-1.67-.75,6.26,6.26,0,0,0-6.57-1.92A6.27,6.27,0,0,1,11.87,128.56ZM8.35,110.93c-2.17,0-2.36.25-1.68,2.17.18.52.34,1.06.47,1.59a1.94,1.94,0,0,0,1.59,1.47c2.24.42,4.49.75,6.73,1.13.64.11,1.14-.05,1.27-.71a20.2,20.2,0,0,0,.43-3.27,1.71,1.71,0,0,0-1.79-1.86C13,111.25,10.55,111.09,8.35,110.93Zm29.77,14.91a2.3,2.3,0,0,0,2.34-1.3,2,2,0,0,0-1.17-2.21c-1.84-1-3.68-2-5.73-.41a6.43,6.43,0,0,1-1.36.48c-.55.22-1.37.18-1.45,1s.66,1.15,1.28,1.44a5.68,5.68,0,0,0,1.94.67A21.72,21.72,0,0,1,38.12,125.84Zm-5.08-9a10,10,0,0,0-3.25.4,1.46,1.46,0,0,0-1.2,2c.32,1.42.95,2.13,2.09,2.2,1.41.09,2.87.11,3.54-1.48.25-.58.61-1.09.86-1.65.38-.84.13-1.33-.76-1.48A7.78,7.78,0,0,0,33,116.79Zm-.56-1.66.9.06c1.4.08,1.72-.16,1.74-1.3s-.3-1.45-1.81-1.37a7.72,7.72,0,0,1-2.67-.1,4.3,4.3,0,0,0-1.63-.13c-1.08.12-1.55.88-1.35,2.1s.71,1.46,1.86,1.24A10.84,10.84,0,0,1,32.48,115.13Z"/><path class="cls-1" d="M41,55.76c-.85.52-.82,1.1-.29,1.89,1.26,1.87,3.19,2.83,5,3.91a2.89,2.89,0,0,0,.58.22c4.06,1.25,7.81,3.39,12,4.26a6.4,6.4,0,0,1,3,1.64,5.1,5.1,0,0,1-.68,2.55,9,9,0,0,0-1.09,2.43,11.48,11.48,0,0,1-7.2.91c-1.73-.38-3.55-.25-5.32-.7a34.94,34.94,0,0,1-14.26-7.34c-.22-.18-.41-.38-.63-.54a.76.76,0,0,0-1-.09.82.82,0,0,0-.27.94,4,4,0,0,0,1.67,2.31A36.81,36.81,0,0,0,39.28,72a17.65,17.65,0,0,1,2.92,1.6A1.81,1.81,0,0,1,43,75.72c-1,3.89-3.26,6.49-7.22,7.44a10.37,10.37,0,0,0-2.06.93c-1.2.58-2.4,1-3.65-.12-1-1-2.44-.82-3.75-.94-1.77-.17-3.59.13-5.29-.68a4,4,0,0,1-1.57-1,6.24,6.24,0,0,0-3.78-2,8.42,8.42,0,0,1-2.79-1.31,4.65,4.65,0,0,1-2.34-3.49,6.1,6.1,0,0,0-.48-2.22,7.9,7.9,0,0,1,1.83-4.11c1.73-2.24,3.42-4.52,5.33-6.6a16.27,16.27,0,0,0,3-4.7,24.2,24.2,0,0,0,1.9-6.73,19.24,19.24,0,0,1,3,1.43c-.91,1.06.12,1.64.64,2.22,3.62,4.08,8.94,4.37,12.93.68.66-.61,1-.48,1.49.06C40.53,55,41,55.21,41,55.76Z"/><path class="cls-1" d="M15.2,31.36a33.67,33.67,0,0,1-1.42-7.69,16.77,16.77,0,0,1,3.47-10A20.8,20.8,0,0,1,26.6,6.41a4.3,4.3,0,0,1,.81-.16,4.19,4.19,0,0,1,.47.66c.68,1.44,1.07,1.6,2.52.94.23-.1.38-.38.62-.49,1.15-.57,1-1.83,1.43-2.75,8.67-1.26,16.37.72,22.65,7a16.47,16.47,0,0,1,5,10.46c-1.81.19-2.22.82-1.52,2.45a4.35,4.35,0,0,1,.68,2.29c-.9-.39-1.32-1.67-2.28-1.7-1.82-.05-3.69-.39-5.47.49a6.2,6.2,0,0,1-6.31-.14,1.17,1.17,0,0,0-1.51,0c-1.65,1.35-3.38.92-5.06.13a1.38,1.38,0,0,0-1.78.2,7,7,0,0,1-8.49.66,1.61,1.61,0,0,0-2,0,4.62,4.62,0,0,1-4.3.84,1.52,1.52,0,0,0-2.06.84c-.54,1-1.13,1.89-1.7,2.84C17.19,30.69,16.26,31.58,15.2,31.36Zm13.35-9c.55.07,1.2.19,1.31-.54s-.55-.89-1.05-1.08a2.24,2.24,0,0,0-2.83,1c-.23.34-.52.71-.2,1.11s.74.25,1.09,0C27.38,22.39,27.87,22,28.55,22.31Z"/><path class="cls-1" d="M50.52,75.6a10.74,10.74,0,0,1,2.88.26c1.45.2,1.54.43,1.46,1.87a47,47,0,0,1-1.22,6.32,26.19,26.19,0,0,0-.28,5.37,6.2,6.2,0,0,1,.07,1c-.61,3.58.06,7.16,0,10.74,0,3,.67,5.92.45,8.9a99.17,99.17,0,0,0,.5,14.32c.3,4.27,2.65,6.79,6.56,7.4a28.08,28.08,0,0,0,8.44-.07,3.6,3.6,0,0,1,2.41.34,2.59,2.59,0,0,0,1.35.49c3.45-.37,6.83.63,10.32.28,4-.41,8.11-1,12.19-.26a18.37,18.37,0,0,0,5.39-.09,17.22,17.22,0,0,1,4.54.14c-.48,2.49-1.74,3.71-4.21,3.67a24.33,24.33,0,0,1-5-.2,7.44,7.44,0,0,0-3,.47c-.62.14-1.28.38-1.82,0-1.21-.75-2.36-.38-3.59-.11a6,6,0,0,1-4.45-.3c-1.17-.66-2.36-.07-3.39.38a3.22,3.22,0,0,1-3.67-.28,2.29,2.29,0,0,0-2.37-.14,7.68,7.68,0,0,1-3,.61,2.21,2.21,0,0,1-1.71-.59,2.62,2.62,0,0,0-2.68-.67c-1.36.21-2.71.59-4.08.67a25.19,25.19,0,0,1-6.76-.7,12.36,12.36,0,0,0-3.26-.42c-1.85.09-2.33-.43-2.51-2.22a13.62,13.62,0,0,0-.53-3.26,15.09,15.09,0,0,1-.63-5.33c0-4.58,0-9.16,0-13.74a37,37,0,0,0-.66-4.92,7.15,7.15,0,0,1,.36-4.26c.62-1.24.29-2.6.09-3.88a4.59,4.59,0,0,1,0-2.24A3.31,3.31,0,0,0,48.84,93c-.63-1.56-.22-3,.18-4.45.5-1.81.09-3.76.73-5.54C50.61,80.59,50.43,78.08,50.52,75.6Z"/><path class="cls-1" d="M15.2,31.36c1.06.22,2-.67,3.07-.37a11.6,11.6,0,0,1,.14,1.65c-.08,1.43-.89,2-2.22,1.4a19.69,19.69,0,0,0-2.8-.77,2,2,0,0,0-2.17.84,1.77,1.77,0,0,0,.08,2.14c1.11,1.84,2.44,3.39,4.82,3.45.46,0,.91.17,1,.59.48,2.23,2.33,3.56,3.45,5.38a14.68,14.68,0,0,0,4.27,3.88,2.63,2.63,0,0,0,1.77.54,8.76,8.76,0,0,1,3.64.71A29.61,29.61,0,0,0,38,52.12c2.24.14,4.42-1.16,6.73-.5,3.15-.91,6.47-1.3,9-3.88a8.38,8.38,0,0,0,2.64-4.32c.24-1.22.47-2.45.79-3.65.23-.88.67-1.47,1.81-1.06,1.3.47,2.6-.12,3.89-.32A1.3,1.3,0,0,0,64,36.56c-.23-.82-.22-1.65-.38-2.46-.38-1.9-.89-2.48-2.84-2.72-.94-.11-1.17-.48-1.12-1.32a7,7,0,0,0-.23-2.88c0-.05.1-.12.09-.13a1.31,1.31,0,0,0-.21-.2v0a4.35,4.35,0,0,0-.68-2.29c-.7-1.63-.29-2.26,1.52-2.45,1,1.89.87,4,1.09,6.05a2.05,2.05,0,0,0,1.45,2c2.74,1.11,4,5.45,2.44,7.93a3.78,3.78,0,0,1-2.69,1.77c-.54.09-1.09.15-1.64.2a1.93,1.93,0,0,0-2,1.89c-.49,3.61-3.06,6.08-5.13,8.8-.28.37-1,.42-1.49.62-.83.23-1.52.89-2.45.87a14,14,0,0,0-6.29,1,4.65,4.65,0,0,1-3.4.3,3.14,3.14,0,0,0-1.23-.06,17.34,17.34,0,0,1-7.57-.7,1.53,1.53,0,0,0-.81-.12c-1.89.49-3.52-.38-5.2-.94a19.24,19.24,0,0,0-3-1.43c-.44-.16-1,0-1.31-.51-1.5-2.38-3.82-4.2-4.64-7a1.82,1.82,0,0,0-1.69-1.28,6.87,6.87,0,0,1-4.81-3.61,4.23,4.23,0,0,1,3.07-6.34A18.58,18.58,0,0,1,15.2,31.36Z"/><path class="cls-1" d="M49.65,52.18c.93,0,1.62-.64,2.45-.87,1.62,1.09,3.23,2.19,4.87,3.25.25.15.65.07,1,.1.07,1,1,.92,1.62,1.25a3.39,3.39,0,0,0,1.65.41,4,4,0,0,1,2.31,1.79,8.64,8.64,0,0,1-1,4.19c-.44.72-1.4.93-1.61,1.82a11.17,11.17,0,0,0-2.24-.29,4.3,4.3,0,0,1-3.08-.94c-.28-.2-.55-.51-.86-.57-3.18-.62-5.76-2.53-8.54-4-.31-.16-.6-.4-1-.31-1.86.49-2.76-.72-3.62-2,1.24,0,2.48,0,3.71-.06A4.69,4.69,0,0,0,49.65,52.18Z"/><path class="cls-1" d="M32.45,4.61C32,5.53,32.17,6.79,31,7.36c-.24.11-.39.39-.62.49-1.45.66-1.84.5-2.52-.94a4.19,4.19,0,0,0-.47-.66A28.56,28.56,0,0,1,26,1.93.91.91,0,0,1,26.26.81c.44-.32.78,0,1.13.17a3.64,3.64,0,0,1,1.14,1.17c1.62,2.14,1.78,2.11,3.12-.3A9.08,9.08,0,0,1,32.4.61c.3-.38.71-.8,1.22-.52s.31.83.07,1.26A8.58,8.58,0,0,0,32.45,4.61Z"/><path class="cls-1" d="M63.53,58.11a4,4,0,0,0-2.31-1.79c.57-.57,1.3-.34,2-.38a30.5,30.5,0,0,0,3.92-.34,64.79,64.79,0,0,1,11.54-.93c5.09,0,10.19.24,15.28.35,2,0,4,0,6,0a3,3,0,0,1,3,1.85c.31.68.49,1.48,1.24,1.87a3,3,0,0,1,1.51,2.33c.22,1.15.49,2.3.78,3.43.52,2,.07,4,.8,6a3.5,3.5,0,0,1,.09,2.43,3.49,3.49,0,0,0-.1,1.44c.4,3,.75,6,1.32,9a8.39,8.39,0,0,1-.18,4.08,49.26,49.26,0,0,0-10.3.15c-1.28.14-2.57.54-3.73-.55-.61-.57-1.47-.26-2.19-.08a21.84,21.84,0,0,0-2.36.8,1.68,1.68,0,0,1-1.6.06c-2.11-1.39-4-.66-6,.43-1.46.8-3.2,1.19-4.72.09a3,3,0,0,0-3.65,0,5.15,5.15,0,0,1-5.31.29,2.73,2.73,0,0,0-2.79-.16c-1.45,1-3,.84-4.58.91-.65,0-1.75-.55-1.87.55-.11.92,1,1,1.67,1.22a2.66,2.66,0,0,0,1.22.13c4-.58,8-.23,12-.71,1.75-.2,3.58.16,5.38,0a139.64,139.64,0,0,1,14-.94c4.9,0,9.8-.51,14.71-.39-.35,4.06-.65,8.12-.74,12.19a2.29,2.29,0,0,0,.71,1.67,1.61,1.61,0,0,1,.17,2.26,5,5,0,0,0-.82,3.35c.09,6.5,0,13-1.77,19.31a5.31,5.31,0,0,0,0,2,14.08,14.08,0,0,1-3.31.08,6,6,0,0,0-2.88.3,2.75,2.75,0,0,1-2.57-.09,3.38,3.38,0,0,0-2.63,0,7.6,7.6,0,0,1-4.67,0,5,5,0,0,0-4,.35,2.35,2.35,0,0,1-2.88-.23,2,2,0,0,0-2.32-.36c-.57.23-1.21.29-1.79.51-1.28.5-2.43.55-3.37-.64a1.85,1.85,0,0,0-1.91-.53c-1.09.16-2.18.4-3.27.56a8.1,8.1,0,0,1-4.5-.1,3,3,0,0,0-1.64-.11,3.67,3.67,0,0,1-2-.18,5.23,5.23,0,0,0-3.63-.44A1.06,1.06,0,0,1,57,127.82a6,6,0,0,0-.3-2.24,32.27,32.27,0,0,1-.81-9.89c.1-2.16-.3-4.28-.32-6.43a9,9,0,0,1,.23-2.68c.49-1.68-.28-3.29-.41-4.93-.17-2-.77-4,.4-5.86-.39-2.94.12-5.91-.14-8.84a5.62,5.62,0,0,1,.12-2.61c.77-2.18.34-4.54.93-6.76a3.09,3.09,0,0,1,1.44-2.16c1-.54,1.86-.87,2.87-.06a15.15,15.15,0,0,0,1.63.91c1.11.69,2.14,1,3.13-.24a1.15,1.15,0,0,1,1.33-.31c1.14.39,1.76-.27,2-1.22a5.39,5.39,0,0,1,1.11-2c.88-1.13.82-1.68-.14-2.73a4.57,4.57,0,0,0-.45-.43c-1.77-1.58-1.72-1.56-1-3.73a1.56,1.56,0,0,1,1.61-1.29,2.48,2.48,0,0,0,2-1C73.43,62,73.32,61,71.73,60c-2.26-1.42-4.58-2.38-7.11-.57C64.05,59.17,64.46,58.1,63.53,58.11Z"/><path class="cls-1" d="M108.39,87.42a8.39,8.39,0,0,0,.18-4.08c-.57-3-.92-6-1.32-9a3.49,3.49,0,0,1,.1-1.44,3.5,3.5,0,0,0-.09-2.43c-.73-1.91-.28-4-.8-6-.29-1.13-.56-2.28-.78-3.43a3,3,0,0,0-1.51-2.33c-.75-.39-.93-1.19-1.24-1.87A3,3,0,0,0,100,55c-2,0-4,0-6,0-5.09-.11-10.19-.39-15.28-.35a64.79,64.79,0,0,0-11.54.93,30.5,30.5,0,0,1-3.92.34c-.67,0-1.4-.19-2,.38a3.39,3.39,0,0,1-1.65-.41l3.39-3a4.88,4.88,0,0,1,3.09-1c5.72-.42,11.37-1.66,17.11-1.71,3,0,6.09-.29,9.11.33a7,7,0,0,0,2.28,0c3.73-.42,7.45.28,11.18,0a2.55,2.55,0,0,1,2.75,1.73c.19.45.32,1.06.67,1.27,2.1,1.23,2.12,3.44,2.62,5.4.61,2.41.28,5,1.1,7.37-.61,3.07.19,6.06.67,9a37.19,37.19,0,0,1,0,9.66c-.33,3.49-.56,7-.67,10.55a3.1,3.1,0,0,0,.69,2.52,1.39,1.39,0,0,1,.12,2,3.91,3.91,0,0,0-.67,2.77c.15,2.27,0,4.55-.08,6.81a46.16,46.16,0,0,1-1.44,11.61,6.92,6.92,0,0,0-.31,3.65,6.09,6.09,0,0,1-.85,4c-.61,1.25-2.31,1.59-4.48,1.08a5.31,5.31,0,0,1,0-2c1.78-6.32,1.86-12.81,1.77-19.31a5,5,0,0,1,.82-3.35,1.61,1.61,0,0,0-.17-2.26,2.29,2.29,0,0,1-.71-1.67c.09-4.07.39-8.13.74-12.19A1.24,1.24,0,0,0,108.39,87.42Z"/><path class="cls-1" d="M37.27,89.25c-.07.48-.09,1-.2,1.44s-.57.9-1.08.68c-2.33-1-4.8-.21-7.2-.73a58.85,58.85,0,0,1-8.67-2.09,61.56,61.56,0,0,0-7.57-2.25,15.94,15.94,0,0,1-7.38-3.64c-.19-.18-.41-.45-.68-.24s0,.5.06.74a5,5,0,0,0,1.72,1.77,21.38,21.38,0,0,0,8,3.37c2.65.61,5.17,1.55,7.75,2.36a32.65,32.65,0,0,0,8.75,1.62,35.53,35.53,0,0,1,3.71.35c1.6.23,2,.77,1.87,2.38-.16,2.12-.5,2.56-2.15,2.61a3.41,3.41,0,0,1-1.64-.13c-2.56-1.34-5.42-1-8.1-1.54-5.15-1.11-10.42-1.44-15.58-2.47C6.83,93.07,5,92,3,91.57c-.5-.09-.76-.55-.9-1a5.26,5.26,0,0,1-.32-2.67,58.86,58.86,0,0,1,1.79-7c.89-2.2,2.86-3.55,4.19-5.4.29-.41.73-.33,1,.08s.38.58.57.87a11.45,11.45,0,0,0,3.31,3.41,46.21,46.21,0,0,0,17,6.89,12.14,12.14,0,0,0,4.52-.4c2.16-.38,2.92.2,3.05,2.35C37.28,88.83,37.27,89,37.27,89.25Z"/><path class="cls-1" d="M6.8,99.56a2.89,2.89,0,0,0-.68-2.46,1.79,1.79,0,0,1-.42-.71c-.15-.63-.88-1.25-.26-1.9s1.17-.06,1.75.11a46.83,46.83,0,0,0,8,1.37c2.61.3,5.18.79,7.77,1.25.34.07.72.14.79.54s-.16.5-.43.64a7.23,7.23,0,0,0-3,3.36,1.5,1.5,0,0,1-2,.9,41.33,41.33,0,0,0-8.22-1,11.73,11.73,0,0,1-1.86-.19C6.73,101.16,6.72,101.18,6.8,99.56Z"/><path class="cls-1" d="M31.85,110.87a10.43,10.43,0,0,1-2.38-.17,2.86,2.86,0,0,1-2.32-2.78c-.11-1.87-.19-3.74-.25-5.6a6.34,6.34,0,0,0-.55-3c-.52-1,0-1.65,1-1.57a12.58,12.58,0,0,1,3.05.53,11.8,11.8,0,0,0,4.21,1c.85,0,1.2.49,1.38,1.26a2.79,2.79,0,0,1-2.59,3.7c-1,.11-1.92.28-2.86.48-.62.13-1.3.44-1.11,1.2s.88.52,1.4.38a12,12,0,0,1,3.09-.4c.76,0,1.17.31,1.16,1.1,0,.42,0,.83,0,1.25.14,2.45,0,2.63-2.57,2.64Z"/><path class="cls-1" d="M18.87,105.68a17.38,17.38,0,0,0-.53,3.5,1,1,0,0,1-1.43,1c-2.21-.71-4.5-.49-6.77-.62-2.49-.14-2.74-.33-3.26-2.79,0-.2-.07-.41-.11-.61-.6-3-.43-3.27,2.61-3,2.54.19,5.08.45,7.61.72C18.55,104,18.9,104.38,18.87,105.68Z"/><path class="cls-1" d="M49.65,52.18a4.69,4.69,0,0,1-4.27,3.75c-1.23.07-2.47,0-3.71.06L41,55.77c0-.56-.46-.81-.78-1.17-.48-.54-.83-.67-1.49-.06-4,3.69-9.31,3.4-12.93-.68-.52-.58-1.55-1.16-.64-2.22,1.68.56,3.31,1.43,5.2.94a1.53,1.53,0,0,1,.81.12,17.34,17.34,0,0,0,7.57.7,3.14,3.14,0,0,1,1.23.06,4.65,4.65,0,0,0,3.4-.3A14,14,0,0,1,49.65,52.18Z"/><path class="cls-1" d="M11.56,122.13h-1a3.8,3.8,0,0,1-3.85-3.42c-.11-.83.25-1.21,1-1.13s1.48.33,2.24.39a42.44,42.44,0,0,0,4.52.45c1.48,0,1.91.41,1.9,1.81a15.21,15.21,0,0,0,.55,4.71,1,1,0,0,1-.37,1.27,4.9,4.9,0,0,1-6.89-.82c-.26-.32-.6-.62-.45-1.08s.66-.67,1.16-.71c1-.06,1.93-.1,2.9-.15a1.57,1.57,0,0,0,1.15-.35,1.13,1.13,0,0,0,.22-.53.36.36,0,0,0-.38-.4c-.9,0-1.79,0-2.69,0Z"/><path class="cls-1" d="M11.87,128.56a6.27,6.27,0,0,0,1.44-.09,6.26,6.26,0,0,1,6.57,1.92,3.22,3.22,0,0,0,1.67.75,2.41,2.41,0,0,1,1.55,1c.62.94.36,1.83-.74,2.07-4.32.93-8.23.25-11.38-3.14a2.61,2.61,0,0,1-.27-.31c-.4-.63-1.08-1.25-.58-2S11.28,128.52,11.87,128.56Z"/><path class="cls-1" d="M8.35,110.93c2.2.16,4.61.32,7,.52a1.71,1.71,0,0,1,1.79,1.86,20.2,20.2,0,0,1-.43,3.27c-.13.66-.63.82-1.27.71-2.24-.38-4.49-.71-6.73-1.13a1.94,1.94,0,0,1-1.59-1.47c-.13-.53-.29-1.07-.47-1.59C6,111.18,6.18,110.89,8.35,110.93Z"/><path class="cls-1" d="M38.12,125.84a21.72,21.72,0,0,0-4.15-.37A5.68,5.68,0,0,1,32,124.8c-.62-.29-1.37-.59-1.28-1.44s.9-.74,1.45-1a6.43,6.43,0,0,0,1.36-.48c2-1.54,3.89-.62,5.73.41a2,2,0,0,1,1.17,2.21A2.3,2.3,0,0,1,38.12,125.84Z"/><path class="cls-1" d="M63.53,58.11c.93,0,.52,1.06,1.09,1.33.28.64.87.55,1.41.62a12.22,12.22,0,0,1,4.18,1.15c.36.18.77.4.63.92s-.53.41-.86.38a3.39,3.39,0,0,0-3.09,1.27c-1,1.12-2.62,1.13-4,1.59a.87.87,0,0,1-1-.61c-.18-.49-.54-.57-1-.64.21-.89,1.17-1.1,1.61-1.82A8.64,8.64,0,0,0,63.53,58.11Z"/><path class="cls-1" d="M59.6,72.66a9,9,0,0,1,1.09-2.43,5.1,5.1,0,0,0,.68-2.55,1.41,1.41,0,0,0,1.34-.31,5.13,5.13,0,0,1,2.07-.91c1-.29,1.46.06,1,1-.65,1.38.24,1.88,1.08,2.49a2.34,2.34,0,0,1-1.59,2.19A9.85,9.85,0,0,1,60.9,73Z"/><path class="cls-1" d="M33,116.79a7.78,7.78,0,0,1,1.28,0c.89.15,1.14.64.76,1.48-.25.56-.61,1.07-.86,1.65-.67,1.59-2.13,1.57-3.54,1.48-1.14-.07-1.77-.78-2.09-2.2a1.46,1.46,0,0,1,1.2-2A10,10,0,0,1,33,116.79Z"/><path class="cls-1" d="M32.48,115.13a10.84,10.84,0,0,0-3,.5c-1.15.22-1.67-.13-1.86-1.24s.27-2,1.35-2.1a4.3,4.3,0,0,1,1.63.13,7.72,7.72,0,0,0,2.67.1c1.51-.08,1.83.14,1.81,1.37s-.34,1.38-1.74,1.3Z"/><path class="cls-1" d="M60.9,73a9.85,9.85,0,0,0,4.41-.89,2.34,2.34,0,0,0,1.59-2.19c1.3.78,1.36.84.59,1.69s-1.08,2.05-2,2.8a1.62,1.62,0,0,1-2.05.29C62.54,74.17,61.44,74,60.9,73Z"/><path class="cls-1" d="M59.38,27.18a7,7,0,0,1,.23,2.88c0,.84.18,1.21,1.12,1.32,2,.24,2.46.82,2.84,2.72.16.81.15,1.64.38,2.46a1.3,1.3,0,0,1-1.1,1.83c-1.29.2-2.59.79-3.89.32-1.14-.41-1.58.18-1.81,1.06-.32,1.2-.55,2.43-.79,3.65a8.38,8.38,0,0,1-2.64,4.32c-2.52,2.58-5.84,3-9,3.88-2.31-.66-4.49.64-6.73.5a29.61,29.61,0,0,1-7.74-1.32,8.76,8.76,0,0,0-3.64-.71,2.63,2.63,0,0,1-1.77-.54,14.68,14.68,0,0,1-4.27-3.88c-1.12-1.82-3-3.15-3.45-5.38-.1-.42-.55-.58-1-.59-2.38-.06-3.71-1.61-4.82-3.45a1.77,1.77,0,0,1-.08-2.14,2,2,0,0,1,2.17-.84,19.69,19.69,0,0,1,2.8.77c1.33.56,2.14,0,2.22-1.4A11.6,11.6,0,0,0,18.27,31c.57-.95,1.16-1.88,1.7-2.84A1.52,1.52,0,0,1,22,27.31a4.62,4.62,0,0,0,4.3-.84,1.61,1.61,0,0,1,2,0,7,7,0,0,0,8.49-.66,1.38,1.38,0,0,1,1.78-.2c1.68.79,3.41,1.22,5.06-.13a1.17,1.17,0,0,1,1.51,0,6.2,6.2,0,0,0,6.31.14c1.78-.88,3.65-.54,5.47-.49,1,0,1.38,1.31,2.28,1.7v0A.22.22,0,0,0,59.38,27.18ZM26.14,38.61c-2,1.09-2.63,2.3-2.32,4.36a3.54,3.54,0,0,0,3.89,3,3.49,3.49,0,0,0,3.62-3,4.3,4.3,0,0,0-2.25-4.52c.71-.73,1.61-1.34,1.25-2.62a3,3,0,0,0-2.52-2.41,4.22,4.22,0,0,0-3.46,1.93c-.45,1,0,1.94,1.45,3.09C25.9,38.46,26,38.53,26.14,38.61Zm22.49.14C47,39.82,46,41.16,46.3,43.23A3.54,3.54,0,0,0,50,46.37a3.51,3.51,0,0,0,3.8-3c.34-2.53-.77-4-3.57-4.62a9,9,0,0,0,1.41-.82,1.92,1.92,0,0,0,.71-2.19,2.83,2.83,0,0,0-2.76-2.34,4,4,0,0,0-3.27,2.17c-.33,1.1.26,2,1.94,3Zm-11.05,7a6.42,6.42,0,0,0,3.5-1.41,2.89,2.89,0,0,0,.5-.65.94.94,0,0,0-.22-1.29c-.43-.37-.75-.05-1.09.18-1.89,1.31-1.9,1.3-3.69,0a2.67,2.67,0,0,0-.5-.35c-.61-.24-.94.1-1,.64A2.83,2.83,0,0,0,37.58,45.8Zm2.89-10.09a3.37,3.37,0,0,0-1.93-2.55,2.72,2.72,0,0,0-2.77,1.34c-.29.46-.71,1-.23,1.49s.89-.16,1.26-.5c.88-.82,1.09-.81,1.73.11a3.51,3.51,0,0,1,.27.55c.2.38.44.76.93.62A1.05,1.05,0,0,0,40.47,35.71Z"/><path class="cls-1" d="M28.55,22.31c-.68-.27-1.17.08-1.68.46-.35.25-.77.4-1.09,0s0-.77.2-1.11a2.24,2.24,0,0,1,2.83-1c.5.19,1.14.43,1.05,1.08S29.1,22.38,28.55,22.31Z"/><path class="cls-1" d="M59.38,27.18a.22.22,0,0,1-.12-.33,1.31,1.31,0,0,1,.21.2S59.41,27.13,59.38,27.18Z"/><path class="cls-1" d="M108.39,87.42a1.24,1.24,0,0,1-.08,1.78c-4.91-.12-9.81.42-14.71.39a139.64,139.64,0,0,0-14,.94c-1.8.17-3.63-.19-5.38,0-4,.48-8,.13-12,.71A2.66,2.66,0,0,1,61,91.12c-.7-.24-1.78-.3-1.67-1.22.12-1.1,1.22-.53,1.87-.55,1.58-.07,3.13.07,4.58-.91a2.73,2.73,0,0,1,2.79.16,5.15,5.15,0,0,0,5.31-.29,3,3,0,0,1,3.65,0c1.52,1.1,3.26.71,4.72-.09,2-1.09,3.87-1.82,6-.43a1.68,1.68,0,0,0,1.6-.06,21.84,21.84,0,0,1,2.36-.8c.72-.18,1.58-.49,2.19.08,1.16,1.09,2.45.69,3.73.55A49.26,49.26,0,0,1,108.39,87.42Z"/><path class="cls-1" d="M50.26,38.7c2.8.66,3.91,2.09,3.57,4.62a3.51,3.51,0,0,1-3.8,3,3.54,3.54,0,0,1-3.73-3.14c-.29-2.07.74-3.41,2.33-4.48Z"/><path class="cls-1" d="M29.08,38.39a4.3,4.3,0,0,1,2.25,4.52,3.49,3.49,0,0,1-3.62,3,3.54,3.54,0,0,1-3.89-3c-.31-2.06.33-3.27,2.32-4.36C27.16,39,28.11,38.55,29.08,38.39Z"/><path class="cls-1" d="M29.08,38.39c-1,.16-1.92.63-2.94.22-.11-.08-.24-.15-.34-.23-1.48-1.15-1.9-2.06-1.45-3.09a4.22,4.22,0,0,1,3.46-1.93,3,3,0,0,1,2.52,2.41C30.69,37.05,29.79,37.66,29.08,38.39Z"/><path class="cls-1" d="M50.26,38.7l-1.63,0-.34-.22c-1.68-1-2.27-1.91-1.94-3a4,4,0,0,1,3.27-2.17,2.83,2.83,0,0,1,2.76,2.34,1.92,1.92,0,0,1-.71,2.19A9,9,0,0,1,50.26,38.7Z"/><path class="cls-1" d="M37.58,45.8A2.83,2.83,0,0,1,35.05,43c.09-.54.42-.88,1-.64a2.67,2.67,0,0,1,.5.35c1.79,1.26,1.8,1.27,3.69,0,.34-.23.66-.55,1.09-.18a.94.94,0,0,1,.22,1.29,2.89,2.89,0,0,1-.5.65A6.42,6.42,0,0,1,37.58,45.8Z"/><path class="cls-1" d="M40.47,35.71a1.05,1.05,0,0,1-.74,1.06c-.49.14-.73-.24-.93-.62a3.51,3.51,0,0,0-.27-.55c-.64-.92-.85-.93-1.73-.11-.37.34-.64,1.1-1.26.5s-.06-1,.23-1.49a2.72,2.72,0,0,1,2.77-1.34A3.37,3.37,0,0,1,40.47,35.71Z"/><path class="cls-2" d="M57.1,54.31c.51-.2,1.21-.25,1.49-.62,2.07-2.72,4.64-5.19,5.13-8.8a1.93,1.93,0,0,1,2-1.89c.55,0,1.1-.11,1.64-.2A3.78,3.78,0,0,0,70.07,41c1.58-2.48.3-6.82-2.44-7.93a2.05,2.05,0,0,1-1.45-2c-.22-2,0-4.16-1.09-6.05a16.47,16.47,0,0,0-5-10.46c-6.28-6.3-14-8.28-22.65-7a8.58,8.58,0,0,1,1.24-3.26c.24-.43.5-.94-.07-1.26s-.92.14-1.22.52a9.08,9.08,0,0,0-.75,1.24c-1.34,2.41-1.5,2.44-3.12.3A3.64,3.64,0,0,0,32.39,4c-.35-.2-.69-.49-1.13-.17A.91.91,0,0,0,31,4.93a28.56,28.56,0,0,0,1.38,4.32,4.3,4.3,0,0,0-.81.16,20.8,20.8,0,0,0-9.35,7.26,16.77,16.77,0,0,0-3.47,10,33.67,33.67,0,0,0,1.42,7.69,18.58,18.58,0,0,0-2.48.07,4.23,4.23,0,0,0-3.07,6.34,6.87,6.87,0,0,0,4.81,3.61,1.82,1.82,0,0,1,1.69,1.28c.82,2.84,3.14,4.66,4.64,7,.31.49.87.35,1.31.51a24.2,24.2,0,0,1-1.9,6.73,16.27,16.27,0,0,1-3,4.7c-1.91,2.08-3.6,4.36-5.33,6.6a7.9,7.9,0,0,0-1.83,4.11,2.14,2.14,0,0,0-2.43,1.08,6.38,6.38,0,0,1-1.36,1.27,10,10,0,0,0-2.54,2.73,43.69,43.69,0,0,0-3.41,8.45,10.76,10.76,0,0,0,1.82,9.25c.62.83,1.28,1.63,1.91,2.46a3.52,3.52,0,0,1,.69,3.31,8.66,8.66,0,0,0-.55,3.67c.38,2.84,0,5.68,0,8.51a21.38,21.38,0,0,0,1,6.92c1,2.73,2,5.45,2.76,8.22a11.31,11.31,0,0,0,14,7.79,3.32,3.32,0,0,0,1.82-5.4,6.16,6.16,0,0,0-2.51-2.14c-1.69-.65-2.86-1.5-2.61-3.57a5.58,5.58,0,0,0-.42-1.81,2.36,2.36,0,0,1-.06-1.42,17.87,17.87,0,0,0,.63-6,6.68,6.68,0,0,1,.24-2.26,42.44,42.44,0,0,0,1.69-9.3,8.22,8.22,0,0,1,1.67-4c.81-1.09,1.82-.89,2.34.43a9.64,9.64,0,0,1,.58,3.46c0,2.22.08,4.44.14,6.66a52.86,52.86,0,0,0,1.31,9.19c.39,1.84,1.63,3.14,2.56,4.66a5.68,5.68,0,0,0,2.79,2.35c1.58.68,3.26.46,4.88.69a4.26,4.26,0,0,0,4.51-3.18,3.37,3.37,0,0,0-2.12-4.05c-1.83-.81-2.57-1.94-2.28-3.86a2,2,0,0,0-.11-.82,9.51,9.51,0,0,1,.16-5.13,5.58,5.58,0,0,0,0-2.84,7.89,7.89,0,0,1,.3-5.1c.64-1.43,1.15-2.73.26-4.29a3.8,3.8,0,0,1-.06-2.25c.29-1.85.61-3.69,1-5.5a6.44,6.44,0,0,0,0-4.07,1.55,1.55,0,0,1,.73-2.12,8.38,8.38,0,0,0,2.61-2.91,23.34,23.34,0,0,0,2.61-5.42c.48-1.46.79-1.63,2.32-1.35,1.15.21,2.27.58,3.41.88-.09,2.48.09,5-.77,7.4-.64,1.78-.23,3.73-.73,5.54-.4,1.47-.81,2.89-.18,4.45a3.31,3.31,0,0,1-.11,2.25,4.59,4.59,0,0,0,0,2.24c.2,1.28.53,2.64-.09,3.88a7.15,7.15,0,0,0-.36,4.26,37,37,0,0,1,.66,4.92c0,4.58,0,9.16,0,13.74a15.09,15.09,0,0,0,.63,5.33,13.62,13.62,0,0,1,.53,3.26c.18,1.79.66,2.31,2.51,2.22a12.36,12.36,0,0,1,3.26.42,25.19,25.19,0,0,0,6.76.7c1.37-.08,2.72-.46,4.08-.67a2.62,2.62,0,0,1,2.68.67,2.21,2.21,0,0,0,1.71.59,7.68,7.68,0,0,0,3-.61,2.29,2.29,0,0,1,2.37.14,3.22,3.22,0,0,0,3.67.28c1-.45,2.22-1,3.39-.38a6,6,0,0,0,4.45.3c1.23-.27,2.38-.64,3.59.11.54.33,1.2.09,1.82,0a7.44,7.44,0,0,1,3-.47,24.33,24.33,0,0,0,5,.2c2.47,0,3.73-1.18,4.21-3.67a7.51,7.51,0,0,1,2.27,0c3.47.19,4.86-1,5.18-4.42.38-4.06.39-8.16,1.29-12.17a47.43,47.43,0,0,0,.61-8.66c.12-3.4,1-6.72,1-10.12,0-3.88.31-7.78-.4-11.63a3,3,0,0,1,.37-2.58,2.76,2.76,0,0,0,.29-2.38c-.31-1.84-1.1-3.66-.87-5.5a19.9,19.9,0,0,0-.32-5.35c-.32-2.26-.59-4.53-.85-6.79a42.7,42.7,0,0,0-2.25-9.47,2.45,2.45,0,0,0-1.79-1.85,2.15,2.15,0,0,1-1.39-1.17,3.52,3.52,0,0,0-3.48-1.79c-1.45,0-3,.34-4.34-.17a5.6,5.6,0,0,0-4,0,1.74,1.74,0,0,1-1.78-.11c-1.38-1.11-2.79-.92-4.31-.35A5.46,5.46,0,0,1,91.17,51,3.23,3.23,0,0,0,88,51a3.3,3.3,0,0,1-3.71,0,1.66,1.66,0,0,0-2.13.11,2.94,2.94,0,0,1-3.46.45c-.7-.28-1.56-.55-2.13.18-1.23,1.6-3,1.45-4.57,1.22a6.54,6.54,0,0,0-4.85,1.37A45.62,45.62,0,0,0,63,57.66c-.33,0-.73.05-1-.1C60.33,56.5,58.72,55.4,57.1,54.31Z"/><path class="cls-3" d="M55.52,78.6c-1.14-.3-2.26-.67-3.41-.88-1.53-.28-1.84-.11-2.32,1.35a23.34,23.34,0,0,1-2.61,5.42,8.38,8.38,0,0,1-2.61,2.91,1.55,1.55,0,0,0-.73,2.12,6.44,6.44,0,0,1,0,4.07c-.44,1.81-.76,3.65-1,5.5a3.8,3.8,0,0,0,.06,2.25c.89,1.56.38,2.86-.26,4.29a7.89,7.89,0,0,0-.3,5.1,5.58,5.58,0,0,1,0,2.84,9.51,9.51,0,0,0-.16,5.13,2,2,0,0,1,.11.82c-.29,1.92.45,3,2.28,3.86a3.37,3.37,0,0,1,2.12,4.05,4.26,4.26,0,0,1-4.51,3.18c-1.62-.23-3.3,0-4.88-.69a5.68,5.68,0,0,1-2.79-2.35c-.93-1.52-2.17-2.82-2.56-4.66a52.86,52.86,0,0,1-1.31-9.19c-.06-2.22-.12-4.44-.14-6.66a9.64,9.64,0,0,0-.58-3.46c-.52-1.32-1.53-1.52-2.34-.43a8.22,8.22,0,0,0-1.67,4,42.44,42.44,0,0,1-1.69,9.3,6.68,6.68,0,0,0-.24,2.26,17.87,17.87,0,0,1-.63,6,2.36,2.36,0,0,0,.06,1.42,5.58,5.58,0,0,1,.42,1.81c-.25,2.07.92,2.92,2.61,3.57a6.16,6.16,0,0,1,2.51,2.14,3.32,3.32,0,0,1-1.82,5.4,11.31,11.31,0,0,1-14-7.79c-.76-2.77-1.81-5.49-2.76-8.22a21.38,21.38,0,0,1-1-6.92c0-2.83.37-5.67,0-8.51a8.66,8.66,0,0,1,.55-3.67,3.52,3.52,0,0,0-.69-3.31c-.63-.83-1.29-1.63-1.91-2.46a10.76,10.76,0,0,1-1.82-9.25,43.69,43.69,0,0,1,3.41-8.45,10,10,0,0,1,2.54-2.73,6.38,6.38,0,0,0,1.36-1.27,2.14,2.14,0,0,1,2.43-1.08,6.1,6.1,0,0,1,.48,2.22,4.65,4.65,0,0,0,2.34,3.49,8.42,8.42,0,0,0,2.79,1.31,6.24,6.24,0,0,1,3.78,2,4,4,0,0,0,1.57,1c1.7.81,3.52.51,5.29.68,1.31.12,2.73,0,3.75.94,1.25,1.15,2.45.7,3.65.12a10.37,10.37,0,0,1,2.06-.93c4-1,6.26-3.55,7.22-7.44a1.81,1.81,0,0,0-.81-2.16A17.65,17.65,0,0,0,44.28,75a36.81,36.81,0,0,1-6.65-3.81A4,4,0,0,1,36,68.84a.82.82,0,0,1,.27-.94.76.76,0,0,1,1,.09c.22.16.41.36.63.54a34.94,34.94,0,0,0,14.26,7.34c1.77.45,3.59.32,5.32.7a11.48,11.48,0,0,0,7.2-.91l1.3.33c.54,1,1.64,1.18,2.5,1.7a1.62,1.62,0,0,0,2-.29c1-.75,1.26-1.94,2-2.8s.71-.91-.59-1.69c-.84-.61-1.73-1.11-1.08-2.49.42-.9,0-1.25-1-1a5.13,5.13,0,0,0-2.07.91,1.41,1.41,0,0,1-1.34.31A6.4,6.4,0,0,0,63.32,69c-4.19-.87-7.94-3-12-4.26a2.89,2.89,0,0,1-.58-.22c-1.85-1.08-3.78-2-5-3.91-.53-.79-.56-1.37.29-1.88l.68.22c.86,1.3,1.76,2.51,3.62,2,.36-.09.65.15,1,.31,2.78,1.47,5.36,3.38,8.54,4,.31.06.58.37.86.57a4.3,4.3,0,0,0,3.08.94,11.17,11.17,0,0,1,2.24.29c.42.07.78.15,1,.64a.87.87,0,0,0,1,.61c1.36-.46,3-.47,4-1.59A3.39,3.39,0,0,1,75,65.51c.33,0,.75,0,.86-.38s-.27-.74-.63-.92A12.22,12.22,0,0,0,71,63.06c-.54-.07-1.13,0-1.41-.62,2.53-1.81,4.85-.85,7.11.57,1.59,1,1.7,1.95.51,3.39a2.48,2.48,0,0,1-2,1,1.56,1.56,0,0,0-1.61,1.29c-.74,2.17-.79,2.15,1,3.73a4.57,4.57,0,0,1,.45.43c1,1.05,1,1.6.14,2.73a5.39,5.39,0,0,0-1.11,2c-.24,1-.86,1.61-2,1.22a1.15,1.15,0,0,0-1.33.31c-1,1.19-2,.93-3.13.24A15.15,15.15,0,0,1,66,78.36c-1-.81-1.9-.48-2.87.06a3.09,3.09,0,0,0-1.44,2.16c-.59,2.22-.16,4.58-.93,6.76A5.62,5.62,0,0,0,60.66,90c.26,2.93-.25,5.9.14,8.84-1.17,1.88-.57,3.87-.4,5.86.13,1.64.9,3.25.41,4.93a9,9,0,0,0-.23,2.68c0,2.15.42,4.27.32,6.43a32.27,32.27,0,0,0,.81,9.89,6,6,0,0,1,.3,2.24,1.06,1.06,0,0,0,1.42,1.25,5.23,5.23,0,0,1,3.63.44,3.67,3.67,0,0,0,2,.18,3,3,0,0,1,1.64.11,8.1,8.1,0,0,0,4.5.1c1.09-.16,2.18-.4,3.27-.56a1.85,1.85,0,0,1,1.91.53c.94,1.19,2.09,1.14,3.37.64.58-.22,1.22-.28,1.79-.51a2,2,0,0,1,2.32.36,2.35,2.35,0,0,0,2.88.23,5,5,0,0,1,4-.35,7.6,7.6,0,0,0,4.67,0,3.38,3.38,0,0,1,2.63,0,2.75,2.75,0,0,0,2.57.09,6,6,0,0,1,2.88-.3,14.08,14.08,0,0,0,3.31-.08c2.17.51,3.87.17,4.48-1.08a6.09,6.09,0,0,0,.85-4,6.92,6.92,0,0,1,.31-3.65A46.16,46.16,0,0,0,118,112.67c0-2.26.23-4.54.08-6.81a3.91,3.91,0,0,1,.67-2.77,1.39,1.39,0,0,0-.12-2,3.1,3.1,0,0,1-.69-2.52c.11-3.52.34-7.06.67-10.55a37.19,37.19,0,0,0,0-9.66c-.48-3-1.28-6-.67-9-.82-2.39-.49-5-1.1-7.37-.5-2-.52-4.17-2.62-5.4-.35-.21-.48-.82-.67-1.27a2.55,2.55,0,0,0-2.75-1.73c-3.73.23-7.45-.47-11.18,0a7,7,0,0,1-2.28,0c-3-.62-6.08-.36-9.11-.33-5.74,0-11.39,1.29-17.11,1.71a4.88,4.88,0,0,0-3.09,1l-3.39,3C64,58.58,63,58.68,63,57.66a45.62,45.62,0,0,1,4.17-3.35A6.54,6.54,0,0,1,72,52.94c1.61.23,3.34.38,4.57-1.22.57-.73,1.43-.46,2.13-.18a2.94,2.94,0,0,0,3.46-.45A1.66,1.66,0,0,1,84.26,51,3.3,3.3,0,0,0,88,51a3.23,3.23,0,0,1,3.2,0,5.46,5.46,0,0,0,4.62.14c1.52-.57,2.93-.76,4.31.35a1.74,1.74,0,0,0,1.78.11,5.6,5.6,0,0,1,4,0c1.36.51,2.89.21,4.34.17a3.52,3.52,0,0,1,3.48,1.79,2.15,2.15,0,0,0,1.39,1.17,2.45,2.45,0,0,1,1.79,1.85A42.7,42.7,0,0,1,119.16,66c.26,2.26.53,4.53.85,6.79a19.9,19.9,0,0,1,.32,5.35c-.23,1.84.56,3.66.87,5.5a2.76,2.76,0,0,1-.29,2.38,3,3,0,0,0-.37,2.58c.71,3.85.41,7.75.4,11.63,0,3.4-.88,6.72-1,10.12a47.43,47.43,0,0,1-.61,8.66c-.9,4-.91,8.11-1.29,12.17-.32,3.41-1.71,4.61-5.18,4.42a7.51,7.51,0,0,0-2.27,0,17.22,17.22,0,0,0-4.54-.14,18.37,18.37,0,0,1-5.39.09c-4.08-.72-8.16-.15-12.19.26-3.49.35-6.87-.65-10.32-.28a2.59,2.59,0,0,1-1.35-.49,3.6,3.6,0,0,0-2.41-.34,28.08,28.08,0,0,1-8.44.07c-3.91-.61-6.26-3.13-6.56-7.4a99.17,99.17,0,0,1-.5-14.32c.22-3-.49-5.91-.45-8.9.05-3.58-.62-7.16,0-10.74a6.2,6.2,0,0,0-.07-1,26.19,26.19,0,0,1,.28-5.37,47,47,0,0,0,1.22-6.32c.08-1.44,0-1.67-1.46-1.87A10.74,10.74,0,0,0,55.52,78.6ZM42.27,92.25c0-.21,0-.42,0-.63-.13-2.15-.89-2.73-3.05-2.35a12.14,12.14,0,0,1-4.52.4,46.21,46.21,0,0,1-17.05-6.89,11.45,11.45,0,0,1-3.31-3.41c-.19-.29-.36-.59-.57-.87s-.75-.49-1-.08c-1.33,1.85-3.3,3.2-4.19,5.4a58.86,58.86,0,0,0-1.79,7,5.26,5.26,0,0,0,.32,2.67c.14.5.4,1,.9,1,2.05.39,3.86,1.5,5.92,1.91,5.16,1,10.43,1.36,15.58,2.47,2.68.58,5.54.2,8.1,1.54a3.41,3.41,0,0,0,1.64.13c1.65-.05,2-.49,2.15-2.61.12-1.61-.27-2.15-1.87-2.38a35.53,35.53,0,0,0-3.71-.35A32.65,32.65,0,0,1,27,93.66c-2.58-.81-5.1-1.75-7.75-2.36a21.38,21.38,0,0,1-8-3.37,5,5,0,0,1-1.72-1.77c-.11-.24-.35-.52-.06-.74s.49.06.68.24a15.94,15.94,0,0,0,7.38,3.64,61.56,61.56,0,0,1,7.57,2.25,58.85,58.85,0,0,0,8.67,2.09c2.4.52,4.87-.25,7.2.73.51.22.95-.12,1.08-.68S42.2,92.73,42.27,92.25ZM11.8,102.56c-.08,1.62-.07,1.6,1.41,1.91a11.73,11.73,0,0,0,1.86.19,41.33,41.33,0,0,1,8.22,1,1.5,1.5,0,0,0,2-.9,7.23,7.23,0,0,1,3-3.36c.27-.14.49-.35.43-.64s-.45-.47-.79-.54c-2.59-.46-5.16-1-7.77-1.25a46.83,46.83,0,0,1-8-1.37c-.58-.17-1.22-.65-1.75-.11s.11,1.27.26,1.9a1.79,1.79,0,0,0,.42.71A2.89,2.89,0,0,1,11.8,102.56Zm25.05,11.31h.72c2.54,0,2.71-.19,2.57-2.64,0-.42,0-.83,0-1.25,0-.79-.4-1.11-1.16-1.1a12,12,0,0,0-3.09.4c-.52.14-1.23.35-1.4-.38s.49-1.07,1.11-1.2c.94-.2,1.9-.37,2.86-.48a2.79,2.79,0,0,0,2.59-3.7c-.18-.77-.53-1.29-1.38-1.26a11.8,11.8,0,0,1-4.21-1,12.58,12.58,0,0,0-3.05-.53c-1.09-.08-1.57.61-1,1.57a6.34,6.34,0,0,1,.55,3c.06,1.86.14,3.73.25,5.6a2.86,2.86,0,0,0,2.32,2.78A10.43,10.43,0,0,0,36.85,113.87Zm-13-5.19c0-1.3-.32-1.64-1.88-1.81-2.53-.27-5.07-.53-7.61-.72-3-.24-3.21,0-2.61,3,0,.2.06.41.11.61.52,2.46.77,2.65,3.26,2.79,2.27.13,4.56-.09,6.77.62a1,1,0,0,0,1.43-1A17.38,17.38,0,0,1,23.87,108.68Zm-7.31,16.45v0c.9,0,1.79,0,2.69,0a.36.36,0,0,1,.38.4,1.13,1.13,0,0,1-.22.53,1.57,1.57,0,0,1-1.15.35c-1,0-1.94.09-2.9.15-.5,0-1,.17-1.16.71s.19.76.45,1.08a4.9,4.9,0,0,0,6.89.82,1,1,0,0,0,.37-1.27,15.21,15.21,0,0,1-.55-4.71c0-1.4-.42-1.86-1.9-1.81a42.44,42.44,0,0,1-4.52-.45c-.76-.06-1.49-.31-2.24-.39s-1.14.3-1,1.13a3.8,3.8,0,0,0,3.85,3.42Zm.31,6.43c-.59,0-1.31-.57-1.74.11s.18,1.41.58,2A2.61,2.61,0,0,0,16,134c3.15,3.39,7.06,4.07,11.38,3.14,1.1-.24,1.36-1.13.74-2.07a2.41,2.41,0,0,0-1.55-1,3.22,3.22,0,0,1-1.67-.75,6.26,6.26,0,0,0-6.57-1.92A6.27,6.27,0,0,1,16.87,131.56Zm-3.52-17.63c-2.17,0-2.36.25-1.68,2.17.18.52.34,1.06.47,1.59a1.94,1.94,0,0,0,1.59,1.47c2.24.42,4.49.75,6.73,1.13.64.11,1.14-.05,1.27-.71a20.2,20.2,0,0,0,.43-3.27,1.71,1.71,0,0,0-1.79-1.86C18,114.25,15.55,114.09,13.35,113.93Zm29.77,14.91a2.3,2.3,0,0,0,2.34-1.3,2,2,0,0,0-1.17-2.21c-1.84-1-3.68-2-5.73-.41a6.43,6.43,0,0,1-1.36.48c-.55.22-1.37.18-1.45,1s.66,1.15,1.28,1.44a5.68,5.68,0,0,0,1.94.67A21.72,21.72,0,0,1,43.12,128.84Zm-5.08-9a10,10,0,0,0-3.25.4,1.46,1.46,0,0,0-1.2,2c.32,1.42.95,2.13,2.09,2.2,1.41.09,2.87.11,3.54-1.48.25-.58.61-1.09.86-1.65.38-.84.13-1.33-.76-1.48A7.78,7.78,0,0,0,38,119.79Zm-.56-1.66.9.06c1.4.08,1.72-.16,1.74-1.3s-.3-1.45-1.81-1.37a7.72,7.72,0,0,1-2.67-.1,4.3,4.3,0,0,0-1.63-.13c-1.08.12-1.55.88-1.35,2.1s.71,1.46,1.86,1.24A10.84,10.84,0,0,1,37.48,118.13Z"/><path class="cls-4" d="M46,58.76c-.85.52-.82,1.1-.29,1.89,1.26,1.87,3.19,2.83,5,3.91a2.89,2.89,0,0,0,.58.22c4.06,1.25,7.81,3.39,12,4.26a6.4,6.4,0,0,1,3.05,1.64,5.1,5.1,0,0,1-.68,2.55,9,9,0,0,0-1.09,2.43,11.48,11.48,0,0,1-7.2.91c-1.73-.38-3.55-.25-5.32-.7a34.94,34.94,0,0,1-14.26-7.34c-.22-.18-.41-.38-.63-.54a.76.76,0,0,0-1-.09.82.82,0,0,0-.27.94,4,4,0,0,0,1.67,2.31A36.81,36.81,0,0,0,44.28,75a17.65,17.65,0,0,1,2.92,1.6A1.81,1.81,0,0,1,48,78.72c-1,3.89-3.26,6.49-7.22,7.44a10.37,10.37,0,0,0-2.06.93c-1.2.58-2.4,1-3.65-.12-1-1-2.44-.82-3.75-.94-1.77-.17-3.59.13-5.29-.68a4,4,0,0,1-1.57-1,6.24,6.24,0,0,0-3.78-2,8.42,8.42,0,0,1-2.79-1.31,4.65,4.65,0,0,1-2.34-3.49,6.1,6.1,0,0,0-.48-2.22,7.9,7.9,0,0,1,1.83-4.11c1.73-2.24,3.42-4.52,5.33-6.6a16.27,16.27,0,0,0,3-4.7,24.2,24.2,0,0,0,1.9-6.73,19.24,19.24,0,0,1,3,1.43c-.91,1.06.12,1.64.64,2.22,3.62,4.08,8.94,4.37,12.93.68.66-.61,1-.48,1.49.06C45.53,58,46,58.21,46,58.76Z"/><path class="cls-5" d="M20.2,34.36a33.67,33.67,0,0,1-1.42-7.69,16.77,16.77,0,0,1,3.47-10A20.8,20.8,0,0,1,31.6,9.41a4.3,4.3,0,0,1,.81-.16,4.19,4.19,0,0,1,.47.66c.68,1.44,1.07,1.6,2.52.94.23-.1.38-.38.62-.49,1.15-.57,1-1.83,1.43-2.75,8.67-1.26,16.37.72,22.65,7a16.47,16.47,0,0,1,5,10.46c-1.81.19-2.22.82-1.52,2.45a4.35,4.35,0,0,1,.68,2.29c-.9-.39-1.32-1.67-2.28-1.7-1.82-.05-3.69-.39-5.47.49a6.2,6.2,0,0,1-6.31-.14,1.17,1.17,0,0,0-1.51,0c-1.65,1.35-3.38.92-5.06.13a1.38,1.38,0,0,0-1.78.2,7,7,0,0,1-8.49.66,1.61,1.61,0,0,0-2,0,4.62,4.62,0,0,1-4.3.84,1.52,1.52,0,0,0-2.06.84c-.54,1-1.13,1.89-1.7,2.84C22.19,33.69,21.26,34.58,20.2,34.36Zm13.35-9c.55.07,1.2.19,1.31-.54s-.55-.89-1-1.08a2.24,2.24,0,0,0-2.83,1c-.23.34-.52.71-.2,1.11s.74.25,1.09,0C32.38,25.39,32.87,25,33.55,25.31Z"/><path class="cls-6" d="M55.52,78.6a10.74,10.74,0,0,1,2.88.26c1.45.2,1.54.43,1.46,1.87a47,47,0,0,1-1.22,6.32,26.19,26.19,0,0,0-.28,5.37,6.2,6.2,0,0,1,.07,1c-.61,3.58.06,7.16,0,10.74,0,3,.67,5.92.45,8.9a99.17,99.17,0,0,0,.5,14.32c.3,4.27,2.65,6.79,6.56,7.4a28.08,28.08,0,0,0,8.44-.07,3.6,3.6,0,0,1,2.41.34,2.59,2.59,0,0,0,1.35.49c3.45-.37,6.83.63,10.32.28,4-.41,8.11-1,12.19-.26a18.37,18.37,0,0,0,5.39-.09,17.22,17.22,0,0,1,4.54.14c-.48,2.49-1.74,3.71-4.21,3.67a24.33,24.33,0,0,1-5-.2,7.44,7.44,0,0,0-3,.47c-.62.14-1.28.38-1.82,0-1.21-.75-2.36-.38-3.59-.11a6,6,0,0,1-4.45-.3c-1.17-.66-2.36-.07-3.39.38a3.22,3.22,0,0,1-3.67-.28,2.29,2.29,0,0,0-2.37-.14,7.68,7.68,0,0,1-3,.61,2.21,2.21,0,0,1-1.71-.59,2.62,2.62,0,0,0-2.68-.67c-1.36.21-2.71.59-4.08.67a25.19,25.19,0,0,1-6.76-.7,12.36,12.36,0,0,0-3.26-.42c-1.85.09-2.33-.43-2.51-2.22a13.62,13.62,0,0,0-.53-3.26,15.09,15.09,0,0,1-.63-5.33c0-4.58,0-9.16,0-13.74a37,37,0,0,0-.66-4.92,7.15,7.15,0,0,1,.36-4.26c.62-1.24.29-2.6.09-3.88a4.59,4.59,0,0,1,0-2.24A3.31,3.31,0,0,0,53.84,96c-.63-1.56-.22-3,.18-4.45.5-1.81.09-3.76.73-5.54C55.61,83.59,55.43,81.08,55.52,78.6Z"/><path class="cls-3" d="M20.2,34.36c1.06.22,2-.67,3.07-.37a11.6,11.6,0,0,1,.14,1.65c-.08,1.43-.89,2-2.22,1.4a19.69,19.69,0,0,0-2.8-.77,2,2,0,0,0-2.17.84,1.77,1.77,0,0,0,.08,2.14c1.11,1.84,2.44,3.39,4.82,3.45.46,0,.91.17,1,.59.48,2.23,2.33,3.56,3.45,5.38a14.68,14.68,0,0,0,4.27,3.88,2.63,2.63,0,0,0,1.77.54,8.76,8.76,0,0,1,3.64.71A29.61,29.61,0,0,0,43,55.12c2.24.14,4.42-1.16,6.73-.5,3.15-.91,6.47-1.3,9-3.88a8.38,8.38,0,0,0,2.64-4.32c.24-1.22.47-2.45.79-3.65.23-.88.67-1.47,1.81-1.06,1.3.47,2.6-.12,3.89-.32A1.3,1.3,0,0,0,69,39.56c-.23-.82-.22-1.65-.38-2.46-.38-1.9-.89-2.48-2.84-2.72-.94-.11-1.17-.48-1.12-1.32a7,7,0,0,0-.23-2.88c0-.05.1-.12.09-.13a1.31,1.31,0,0,0-.21-.2v0a4.35,4.35,0,0,0-.68-2.29c-.7-1.63-.29-2.26,1.52-2.45,1,1.89.87,4,1.09,6.05a2.05,2.05,0,0,0,1.45,2c2.74,1.11,4,5.45,2.44,7.93a3.78,3.78,0,0,1-2.69,1.77c-.54.09-1.09.15-1.64.2a1.93,1.93,0,0,0-2,1.89c-.49,3.61-3.06,6.08-5.13,8.8-.28.37-1,.42-1.49.62-.83.23-1.52.89-2.45.87a14,14,0,0,0-6.29,1,4.65,4.65,0,0,1-3.4.3,3.14,3.14,0,0,0-1.23-.06,17.34,17.34,0,0,1-7.57-.7,1.53,1.53,0,0,0-.81-.12c-1.89.49-3.52-.38-5.2-.94a19.24,19.24,0,0,0-3-1.43c-.44-.16-1,0-1.31-.51-1.5-2.38-3.82-4.2-4.64-7a1.82,1.82,0,0,0-1.69-1.28,6.87,6.87,0,0,1-4.81-3.61,4.23,4.23,0,0,1,3.07-6.34A18.58,18.58,0,0,1,20.2,34.36Z"/><path class="cls-4" d="M54.65,55.18c.93,0,1.62-.64,2.45-.87,1.62,1.09,3.23,2.19,4.87,3.25.25.15.65.07,1,.1.07,1,1,.92,1.62,1.25a3.39,3.39,0,0,0,1.65.41,4,4,0,0,1,2.31,1.79,8.64,8.64,0,0,1-1,4.19c-.44.72-1.4.93-1.61,1.82a11.17,11.17,0,0,0-2.24-.29,4.3,4.3,0,0,1-3.08-.94c-.28-.2-.55-.51-.86-.57-3.18-.62-5.76-2.53-8.54-4-.31-.16-.6-.4-1-.31-1.86.49-2.76-.72-3.62-2,1.24,0,2.48,0,3.71-.06A4.69,4.69,0,0,0,54.65,55.18Z"/><path class="cls-3" d="M37.45,7.61c-.47.92-.28,2.18-1.43,2.75-.24.11-.39.39-.62.49-1.45.66-1.84.5-2.52-.94a4.19,4.19,0,0,0-.47-.66A28.56,28.56,0,0,1,31,4.93a.91.91,0,0,1,.23-1.12c.44-.32.78,0,1.13.17a3.64,3.64,0,0,1,1.14,1.17c1.62,2.14,1.78,2.11,3.12-.3a9.08,9.08,0,0,1,.75-1.24c.3-.38.71-.8,1.22-.52s.31.83.07,1.26A8.58,8.58,0,0,0,37.45,7.61Z"/><path class="cls-7" d="M68.53,61.11a4,4,0,0,0-2.31-1.79c.57-.57,1.3-.34,2-.38a30.5,30.5,0,0,0,3.92-.34,64.79,64.79,0,0,1,11.54-.93c5.09,0,10.19.24,15.28.35,2,0,4,0,6,0a3,3,0,0,1,3,1.85c.31.68.49,1.48,1.24,1.87a3,3,0,0,1,1.51,2.33c.22,1.15.49,2.3.78,3.43.52,2,.07,4,.8,6a3.5,3.5,0,0,1,.09,2.43,3.49,3.49,0,0,0-.1,1.44c.4,3,.75,6,1.32,9a8.39,8.39,0,0,1-.18,4.08,49.26,49.26,0,0,0-10.3.15c-1.28.14-2.57.54-3.73-.55-.61-.57-1.47-.26-2.19-.08a21.84,21.84,0,0,0-2.36.8,1.68,1.68,0,0,1-1.6.06c-2.11-1.39-4-.66-6,.43-1.46.8-3.2,1.19-4.72.09a3,3,0,0,0-3.65,0,5.15,5.15,0,0,1-5.31.29,2.73,2.73,0,0,0-2.79-.16c-1.45,1-3,.84-4.58.91-.65,0-1.75-.55-1.87.55-.11.92,1,1,1.67,1.22a2.66,2.66,0,0,0,1.22.13c4-.58,8-.23,12-.71,1.75-.2,3.58.16,5.38,0a139.64,139.64,0,0,1,14-.94c4.9,0,9.8-.51,14.71-.39-.35,4.06-.65,8.12-.74,12.19a2.29,2.29,0,0,0,.71,1.67,1.61,1.61,0,0,1,.17,2.26,5,5,0,0,0-.82,3.35c.09,6.5,0,13-1.77,19.31a5.31,5.31,0,0,0,0,2,14.08,14.08,0,0,1-3.31.08,6,6,0,0,0-2.88.3,2.75,2.75,0,0,1-2.57-.09,3.38,3.38,0,0,0-2.63,0,7.6,7.6,0,0,1-4.67,0,5,5,0,0,0-4,.35,2.35,2.35,0,0,1-2.88-.23,2,2,0,0,0-2.32-.36c-.57.23-1.21.29-1.79.51-1.28.5-2.43.55-3.37-.64a1.85,1.85,0,0,0-1.91-.53c-1.09.16-2.18.4-3.27.56a8.1,8.1,0,0,1-4.5-.1,3,3,0,0,0-1.64-.11,3.67,3.67,0,0,1-2-.18,5.23,5.23,0,0,0-3.63-.44A1.06,1.06,0,0,1,62,130.82a6,6,0,0,0-.3-2.24,32.27,32.27,0,0,1-.81-9.89c.1-2.16-.3-4.28-.32-6.43a9,9,0,0,1,.23-2.68c.49-1.68-.28-3.29-.41-4.93-.17-2-.77-4,.4-5.86-.39-2.94.12-5.91-.14-8.84a5.62,5.62,0,0,1,.12-2.61c.77-2.18.34-4.54.93-6.76a3.09,3.09,0,0,1,1.44-2.16c1-.54,1.86-.87,2.87-.06a15.15,15.15,0,0,0,1.63.91c1.11.69,2.14,1,3.13-.24a1.15,1.15,0,0,1,1.33-.31c1.14.39,1.76-.27,2-1.22a5.39,5.39,0,0,1,1.11-2c.88-1.13.82-1.68-.14-2.73a4.57,4.57,0,0,0-.45-.43c-1.77-1.58-1.72-1.56-1-3.73a1.56,1.56,0,0,1,1.61-1.29,2.48,2.48,0,0,0,2-1C78.43,65,78.32,64,76.73,63c-2.26-1.42-4.58-2.38-7.11-.57C69.05,62.17,69.46,61.1,68.53,61.11Z"/><path class="cls-8" d="M113.39,90.42a8.39,8.39,0,0,0,.18-4.08c-.57-3-.92-6-1.32-9a3.49,3.49,0,0,1,.1-1.44,3.5,3.5,0,0,0-.09-2.43c-.73-1.91-.28-4-.8-6-.29-1.13-.56-2.28-.78-3.43a3,3,0,0,0-1.51-2.33c-.75-.39-.93-1.19-1.24-1.87A3,3,0,0,0,105,58c-2,0-4,0-6,0-5.09-.11-10.19-.39-15.28-.35a64.79,64.79,0,0,0-11.54.93,30.5,30.5,0,0,1-3.92.34c-.67,0-1.4-.19-2,.38a3.39,3.39,0,0,1-1.65-.41l3.39-3a4.88,4.88,0,0,1,3.09-1c5.72-.42,11.37-1.66,17.11-1.71,3,0,6.09-.29,9.11.33a7,7,0,0,0,2.28,0c3.73-.42,7.45.28,11.18,0a2.55,2.55,0,0,1,2.75,1.73c.19.45.32,1.06.67,1.27,2.1,1.23,2.12,3.44,2.62,5.4.61,2.41.28,5,1.1,7.37-.61,3.07.19,6.06.67,9a37.19,37.19,0,0,1,0,9.66c-.33,3.49-.56,7-.67,10.55a3.1,3.1,0,0,0,.69,2.52,1.39,1.39,0,0,1,.12,2,3.91,3.91,0,0,0-.67,2.77c.15,2.27,0,4.55-.08,6.81a46.16,46.16,0,0,1-1.44,11.61,6.92,6.92,0,0,0-.31,3.65,6.09,6.09,0,0,1-.85,4c-.61,1.25-2.31,1.59-4.48,1.08a5.31,5.31,0,0,1,0-2c1.78-6.32,1.86-12.81,1.77-19.31a5,5,0,0,1,.82-3.35,1.61,1.61,0,0,0-.17-2.26,2.29,2.29,0,0,1-.71-1.67c.09-4.07.39-8.13.74-12.19A1.24,1.24,0,0,0,113.39,90.42Z"/><path class="cls-9" d="M42.27,92.25c-.07.48-.09,1-.2,1.44s-.57.9-1.08.68c-2.33-1-4.8-.21-7.2-.73a58.85,58.85,0,0,1-8.67-2.09,61.56,61.56,0,0,0-7.57-2.25,15.94,15.94,0,0,1-7.38-3.64c-.19-.18-.41-.45-.68-.24s-.05.5.06.74a5,5,0,0,0,1.72,1.77,21.38,21.38,0,0,0,8,3.37c2.65.61,5.17,1.55,7.75,2.36a32.65,32.65,0,0,0,8.75,1.62,35.53,35.53,0,0,1,3.71.35c1.6.23,2,.77,1.87,2.38-.16,2.12-.5,2.56-2.15,2.61a3.41,3.41,0,0,1-1.64-.13c-2.56-1.34-5.42-1-8.1-1.54-5.15-1.11-10.42-1.44-15.58-2.47C11.83,96.07,10,95,8,94.57c-.5-.09-.76-.55-.9-1a5.26,5.26,0,0,1-.32-2.67,58.86,58.86,0,0,1,1.79-7c.89-2.2,2.86-3.55,4.19-5.4.29-.41.73-.33,1,.08s.38.58.57.87a11.45,11.45,0,0,0,3.31,3.41A46.21,46.21,0,0,0,34.7,89.67a12.14,12.14,0,0,0,4.52-.4c2.16-.38,2.92.2,3.05,2.35C42.28,91.83,42.27,92,42.27,92.25Z"/><path class="cls-10" d="M11.8,102.56a2.89,2.89,0,0,0-.68-2.46,1.79,1.79,0,0,1-.42-.71c-.15-.63-.88-1.25-.26-1.9s1.17-.06,1.75.11a46.83,46.83,0,0,0,8,1.37c2.61.3,5.18.79,7.77,1.25.34.07.72.14.79.54s-.16.5-.43.64a7.23,7.23,0,0,0-3,3.36,1.5,1.5,0,0,1-2,.9,41.33,41.33,0,0,0-8.22-1,11.73,11.73,0,0,1-1.86-.19C11.73,104.16,11.72,104.18,11.8,102.56Z"/><path class="cls-11" d="M36.85,113.87a10.43,10.43,0,0,1-2.38-.17,2.86,2.86,0,0,1-2.32-2.78c-.11-1.87-.19-3.74-.25-5.6a6.34,6.34,0,0,0-.55-3c-.52-1,0-1.65,1-1.57a12.58,12.58,0,0,1,3.05.53,11.8,11.8,0,0,0,4.21,1c.85,0,1.2.49,1.38,1.26a2.79,2.79,0,0,1-2.59,3.7c-1,.11-1.92.28-2.86.48-.62.13-1.3.44-1.11,1.2s.88.52,1.4.38a12,12,0,0,1,3.09-.4c.76,0,1.17.31,1.16,1.1,0,.42,0,.83,0,1.25.14,2.45,0,2.63-2.57,2.64Z"/><path class="cls-10" d="M23.87,108.68a17.38,17.38,0,0,0-.53,3.5,1,1,0,0,1-1.43,1c-2.21-.71-4.5-.49-6.77-.62-2.49-.14-2.74-.33-3.26-2.79-.05-.2-.07-.41-.11-.61-.6-3-.43-3.27,2.61-3,2.54.19,5.08.45,7.61.72C23.55,107,23.9,107.38,23.87,108.68Z"/><path class="cls-11" d="M54.65,55.18a4.69,4.69,0,0,1-4.27,3.75c-1.23.07-2.47,0-3.71.06L46,58.77c0-.56-.46-.81-.78-1.17-.48-.54-.83-.67-1.49-.06-4,3.69-9.31,3.4-12.93-.68-.52-.58-1.55-1.16-.64-2.22,1.68.56,3.31,1.43,5.2.94a1.53,1.53,0,0,1,.81.12,17.34,17.34,0,0,0,7.57.7,3.14,3.14,0,0,1,1.23.06,4.65,4.65,0,0,0,3.4-.3A14,14,0,0,1,54.65,55.18Z"/><path class="cls-12" d="M16.56,125.13h-1a3.8,3.8,0,0,1-3.85-3.42c-.11-.83.25-1.21,1-1.13s1.48.33,2.24.39a42.44,42.44,0,0,0,4.52.45c1.48,0,1.91.41,1.9,1.81a15.21,15.21,0,0,0,.55,4.71,1,1,0,0,1-.37,1.27,4.9,4.9,0,0,1-6.89-.82c-.26-.32-.6-.62-.45-1.08s.66-.67,1.16-.71c1-.06,1.93-.1,2.9-.15a1.57,1.57,0,0,0,1.15-.35,1.13,1.13,0,0,0,.22-.53.36.36,0,0,0-.38-.4c-.9,0-1.79,0-2.69,0Z"/><path class="cls-11" d="M16.87,131.56a6.27,6.27,0,0,0,1.44-.09,6.26,6.26,0,0,1,6.57,1.92,3.22,3.22,0,0,0,1.67.75,2.41,2.41,0,0,1,1.55,1c.62.94.36,1.83-.74,2.07-4.32.93-8.23.25-11.38-3.14a2.61,2.61,0,0,1-.27-.31c-.4-.63-1.08-1.25-.58-2S16.28,131.52,16.87,131.56Z"/><path class="cls-11" d="M13.35,113.93c2.2.16,4.61.32,7,.52a1.71,1.71,0,0,1,1.79,1.86,20.2,20.2,0,0,1-.43,3.27c-.13.66-.63.82-1.27.71-2.24-.38-4.49-.71-6.73-1.13a1.94,1.94,0,0,1-1.59-1.47c-.13-.53-.29-1.07-.47-1.59C11,114.18,11.18,113.89,13.35,113.93Z"/><path class="cls-12" d="M43.12,128.84a21.72,21.72,0,0,0-4.15-.37A5.68,5.68,0,0,1,37,127.8c-.62-.29-1.37-.59-1.28-1.44s.9-.74,1.45-1a6.43,6.43,0,0,0,1.36-.48c2-1.54,3.89-.62,5.73.41a2,2,0,0,1,1.17,2.21A2.3,2.3,0,0,1,43.12,128.84Z"/><path class="cls-12" d="M68.53,61.11c.93,0,.52,1.06,1.09,1.33.28.64.87.55,1.41.62a12.22,12.22,0,0,1,4.18,1.15c.36.18.77.4.63.92s-.53.41-.86.38a3.39,3.39,0,0,0-3.09,1.27c-1,1.12-2.62,1.13-4,1.59a.87.87,0,0,1-1-.61c-.18-.49-.54-.57-1-.64.21-.89,1.17-1.1,1.61-1.82A8.64,8.64,0,0,0,68.53,61.11Z"/><path class="cls-9" d="M64.6,75.66a9,9,0,0,1,1.09-2.43,5.1,5.1,0,0,0,.68-2.55,1.41,1.41,0,0,0,1.34-.31,5.13,5.13,0,0,1,2.07-.91c1-.29,1.46.06,1,1-.65,1.38.24,1.88,1.08,2.49a2.34,2.34,0,0,1-1.59,2.19A9.85,9.85,0,0,1,65.9,76Z"/><path class="cls-12" d="M38,119.79a7.78,7.78,0,0,1,1.28,0c.89.15,1.14.64.76,1.48-.25.56-.61,1.07-.86,1.65-.67,1.59-2.13,1.57-3.54,1.48-1.14-.07-1.77-.78-2.09-2.2a1.46,1.46,0,0,1,1.2-2A10,10,0,0,1,38,119.79Z"/><path class="cls-12" d="M37.48,118.13a10.84,10.84,0,0,0-3,.5c-1.15.22-1.67-.13-1.86-1.24s.27-2,1.35-2.1a4.3,4.3,0,0,1,1.63.13,7.72,7.72,0,0,0,2.67.1c1.51-.08,1.83.14,1.81,1.37s-.34,1.38-1.74,1.3Z"/><path class="cls-6" d="M65.9,76a9.85,9.85,0,0,0,4.41-.89,2.34,2.34,0,0,0,1.59-2.19c1.3.78,1.36.84.59,1.69s-1.08,2.05-2,2.8a1.62,1.62,0,0,1-2,.29C67.54,77.17,66.44,77,65.9,76Z"/><path class="cls-13" d="M64.38,30.18a7,7,0,0,1,.23,2.88c0,.84.18,1.21,1.12,1.32,2,.24,2.46.82,2.84,2.72.16.81.15,1.64.38,2.46a1.3,1.3,0,0,1-1.1,1.83c-1.29.2-2.59.79-3.89.32-1.14-.41-1.58.18-1.81,1.06-.32,1.2-.55,2.43-.79,3.65a8.38,8.38,0,0,1-2.64,4.32c-2.52,2.58-5.84,3-9,3.88-2.31-.66-4.49.64-6.73.5a29.61,29.61,0,0,1-7.74-1.32,8.76,8.76,0,0,0-3.64-.71,2.63,2.63,0,0,1-1.77-.54,14.68,14.68,0,0,1-4.27-3.88c-1.12-1.82-3-3.15-3.45-5.38-.1-.42-.55-.58-1-.59-2.38-.06-3.71-1.61-4.82-3.45a1.77,1.77,0,0,1-.08-2.14,2,2,0,0,1,2.17-.84,19.69,19.69,0,0,1,2.8.77c1.33.56,2.14,0,2.22-1.4A11.6,11.6,0,0,0,23.27,34c.57-1,1.16-1.88,1.7-2.84A1.52,1.52,0,0,1,27,30.31a4.62,4.62,0,0,0,4.3-.84,1.61,1.61,0,0,1,2,0,7,7,0,0,0,8.49-.66,1.38,1.38,0,0,1,1.78-.2c1.68.79,3.41,1.22,5.06-.13a1.17,1.17,0,0,1,1.51,0,6.2,6.2,0,0,0,6.31.14c1.78-.88,3.65-.54,5.47-.49,1,0,1.38,1.31,2.28,1.7v0A.22.22,0,0,0,64.38,30.18ZM31.14,41.61c-2,1.09-2.63,2.3-2.32,4.36a3.54,3.54,0,0,0,3.89,3,3.49,3.49,0,0,0,3.62-3,4.3,4.3,0,0,0-2.25-4.52c.71-.73,1.61-1.34,1.25-2.62a3,3,0,0,0-2.52-2.41,4.22,4.22,0,0,0-3.46,1.93c-.45,1,0,1.94,1.45,3.09C30.9,41.46,31,41.53,31.14,41.61Zm22.49.14C52,42.82,51,44.16,51.3,46.23a3.84,3.84,0,0,0,7.53.09c.34-2.53-.77-4-3.57-4.62a9,9,0,0,0,1.41-.82,1.92,1.92,0,0,0,.71-2.19,2.83,2.83,0,0,0-2.76-2.34,4,4,0,0,0-3.27,2.17c-.33,1.1.26,2,1.94,3Zm-11.05,7a6.42,6.42,0,0,0,3.5-1.41,2.89,2.89,0,0,0,.5-.65.94.94,0,0,0-.22-1.29c-.43-.37-.75-.05-1.09.18-1.89,1.31-1.9,1.3-3.69,0a2.67,2.67,0,0,0-.5-.35c-.61-.24-.94.1-1,.64A2.83,2.83,0,0,0,42.58,48.8Zm2.89-10.09a3.37,3.37,0,0,0-1.93-2.55,2.72,2.72,0,0,0-2.77,1.34c-.29.46-.71,1-.23,1.49s.89-.16,1.26-.5c.88-.82,1.09-.81,1.73.11a3.51,3.51,0,0,1,.27.55c.2.38.44.76.93.62A1.05,1.05,0,0,0,45.47,38.71Z"/><path class="cls-14" d="M33.55,25.31c-.68-.27-1.17.08-1.68.46-.35.25-.77.4-1.09,0s0-.77.2-1.11a2.24,2.24,0,0,1,2.83-1c.5.19,1.14.43,1,1.08S34.1,25.38,33.55,25.31Z"/><path class="cls-15" d="M64.38,30.18a.22.22,0,0,1-.12-.33,1.31,1.31,0,0,1,.21.2S64.41,30.13,64.38,30.18Z"/><path class="cls-3" d="M113.39,90.42a1.24,1.24,0,0,1-.08,1.78c-4.91-.12-9.81.42-14.71.39a139.64,139.64,0,0,0-14,.94c-1.8.17-3.63-.19-5.38,0-4,.48-8,.13-12,.71A2.66,2.66,0,0,1,66,94.12c-.7-.24-1.78-.3-1.67-1.22.12-1.1,1.22-.53,1.87-.55,1.58-.07,3.13.07,4.58-.91a2.73,2.73,0,0,1,2.79.16,5.15,5.15,0,0,0,5.31-.29,3,3,0,0,1,3.65,0c1.52,1.1,3.26.71,4.72-.09,2-1.09,3.87-1.82,6-.43a1.68,1.68,0,0,0,1.6-.06,21.84,21.84,0,0,1,2.36-.8c.72-.18,1.58-.49,2.19.08,1.16,1.09,2.45.69,3.73.55A49.26,49.26,0,0,1,113.39,90.42Z"/><path class="cls-16" d="M55.26,41.7c2.8.66,3.91,2.09,3.57,4.62a3.84,3.84,0,0,1-7.53-.09c-.29-2.07.74-3.41,2.33-4.48Z"/><path class="cls-16" d="M34.08,41.39a4.3,4.3,0,0,1,2.25,4.52,3.49,3.49,0,0,1-3.62,3,3.54,3.54,0,0,1-3.89-3c-.31-2.06.33-3.27,2.32-4.36C32.16,42,33.11,41.55,34.08,41.39Z"/><path class="cls-3" d="M34.08,41.39c-1,.16-1.92.63-2.94.22-.11-.08-.24-.15-.34-.23-1.48-1.15-1.9-2.06-1.45-3.09a4.22,4.22,0,0,1,3.46-1.93,3,3,0,0,1,2.52,2.41C35.69,40.05,34.79,40.66,34.08,41.39Z"/><path class="cls-3" d="M55.26,41.7l-1.63,0-.34-.22c-1.68-1-2.27-1.91-1.94-3a4,4,0,0,1,3.27-2.17,2.83,2.83,0,0,1,2.76,2.34,1.92,1.92,0,0,1-.71,2.19A9,9,0,0,1,55.26,41.7Z"/><path class="cls-3" d="M42.58,48.8A2.83,2.83,0,0,1,40.05,46c.09-.54.42-.88,1-.64a2.67,2.67,0,0,1,.5.35c1.79,1.26,1.8,1.27,3.69,0,.34-.23.66-.55,1.09-.18a.94.94,0,0,1,.22,1.29,2.89,2.89,0,0,1-.5.65A6.42,6.42,0,0,1,42.58,48.8Z"/><path class="cls-3" d="M45.47,38.71a1.05,1.05,0,0,1-.74,1.06c-.49.14-.73-.24-.93-.62a3.51,3.51,0,0,0-.27-.55c-.64-.92-.85-.93-1.73-.11-.37.34-.64,1.1-1.26.5s-.06-1,.23-1.49a2.72,2.72,0,0,1,2.77-1.34A3.37,3.37,0,0,1,45.47,38.71Z"/></g></g></svg>