<svg xmlns="http://www.w3.org/2000/svg" viewBox="0 0 144.35 93.95"><defs><style>.cls-1{fill:#fff;}.cls-2{fill:#2f2f30;}.cls-3{fill:none;stroke:#565656;}.cls-4{fill:#fde67c;}</style></defs><g id="レイヤー_2" data-name="レイヤー 2"><g id="レイヤー_1-2" data-name="レイヤー 1"><path class="cls-1" d="M38.27,87.07H35.39a9,9,0,0,1-7.17-4.16L10.88,51.74c-.13-.25-.26-.32-.32-.32s-.19.13-.19.45l.77,32.19c.06,2.11-2.24,3.78-5.51,3.78S0,86.17,0,84.06V41.5a4.75,4.75,0,0,1,4.8-4.79H8.7a8.78,8.78,0,0,1,7.11,4.22L32.13,70.88c.12.25.25.32.32.32s.19-.13.19-.45l-.77-31c-.06-2.11,2.24-3.77,5.57-3.77s5.63,1.66,5.63,3.84V82.27A4.75,4.75,0,0,1,38.27,87.07Z"/><path class="cls-1" d="M73.21,87.84h-.83c-10,0-17-6.21-17-18.63V67.87c0-12.16,7.1-18.88,17-18.88h.83c9.73,0,17,6.4,17,18.88v1.34C90.17,81.76,83.13,87.84,73.21,87.84Zm6.53-19.78c0-7.74-2.94-9.79-6.65-9.79h-.58c-3.9,0-6.66,2-6.66,9.79v1c0,6.46,3.08,9,6.66,9h.58c3.64,0,6.65-2.31,6.65-9Z"/><path class="cls-1" d="M104.13,90c-3.33,0-5.57-1.28-5.57-3.39V80.67c0-2.11,2.24-3.39,5.57-3.39s5.56,1.28,5.56,3.39v5.89C109.69,88.67,107.45,90,104.13,90Z"/><path class="cls-1" d="M134.72,87.77c-3.4,0-5.63-1.66-5.63-3.84V54.69a1,1,0,0,0-1-1H115.58c-1.66,0-3-1.79-3-4.41s1.35-4.42,3-4.42H117c14.46,0,9.79-9.08,18-9.08,3.32,0,5.31,1.21,5.31,3.64V83.93C140.35,86.11,138.11,87.77,134.72,87.77Z"/><path class="cls-2" d="M42.27,91.07H39.39a9,9,0,0,1-7.17-4.16L14.88,55.74c-.13-.25-.26-.32-.32-.32s-.19.13-.19.45l.77,32.19c.06,2.11-2.24,3.78-5.51,3.78S4,90.17,4,88.06V45.5a4.75,4.75,0,0,1,4.8-4.79h3.9a8.78,8.78,0,0,1,7.11,4.22L36.13,74.88c.12.25.25.32.32.32s.19-.13.19-.45l-.77-31c-.06-2.11,2.24-3.77,5.57-3.77s5.63,1.66,5.63,3.84V86.27A4.75,4.75,0,0,1,42.27,91.07Z"/><path class="cls-2" d="M77.21,91.84h-.83c-10,0-17-6.21-17-18.63V71.87c0-12.16,7.1-18.88,17-18.88h.83c9.73,0,17,6.4,17,18.88v1.34C94.17,85.76,87.13,91.84,77.21,91.84Zm6.53-19.78c0-7.74-2.94-9.79-6.65-9.79h-.58c-3.9,0-6.66,2-6.66,9.79v1c0,6.46,3.08,9,6.66,9h.58c3.64,0,6.65-2.31,6.65-9Z"/><path class="cls-2" d="M108.13,94c-3.33,0-5.57-1.28-5.57-3.39V84.67c0-2.11,2.24-3.39,5.57-3.39s5.56,1.28,5.56,3.39v5.89C113.69,92.67,111.45,94,108.13,94Z"/><path class="cls-2" d="M138.72,91.77c-3.4,0-5.63-1.66-5.63-3.84V58.69a1,1,0,0,0-1-1H119.58c-1.66,0-3-1.79-3-4.41s1.35-4.42,3-4.42H121c14.46,0,9.79-9.08,18-9.08,3.32,0,5.31,1.21,5.31,3.64V87.93C144.35,90.11,142.11,91.77,138.72,91.77Z"/><path class="cls-2" d="M9.1,17.19a31.54,31.54,0,0,1-1.63,4.35.79.79,0,0,1,.66.88v8.1c0,.62-.32.93-1.29.93s-1.29-.31-1.29-.93V24.8a1,1,0,0,1-.85.6c-.88,0-1.28-1.23-1.28-2a1.57,1.57,0,0,1,.35-1,18.18,18.18,0,0,0,2.68-5.73,1.17,1.17,0,0,1,1.17-.77c.65,0,1.5.36,1.5,1.11A.44.44,0,0,1,9.1,17.19Zm9.49,8.53H16.51A18.42,18.42,0,0,0,19,28.51a1.11,1.11,0,0,1,.34.8,1.63,1.63,0,0,1-1.36,1.55c-.81,0-2.24-2.32-2.65-2.95v2.62c0,.63-.32.94-1.28.94s-1.27-.31-1.27-.94V27.78c-.41.64-1.9,3.08-2.72,3.08S8.66,30,8.66,29.29A1.07,1.07,0,0,1,9,28.51a17.38,17.38,0,0,0,2.45-2.79H9.58c-.58,0-.85-.29-.85-1.15s.27-1.18.85-1.18h3.16v-.86H10.8a1.26,1.26,0,0,1-1.27-1.28V17.38A1.26,1.26,0,0,1,10.8,16.1h6.39a1.26,1.26,0,0,1,1.28,1.28v3.87a1.26,1.26,0,0,1-1.28,1.28h-1.9v.86h3.3c.58,0,.86.31.86,1.18S19.17,25.72,18.59,25.72Zm-2.74-7a.27.27,0,0,0-.27-.27H12.43a.27.27,0,0,0-.27.27v1.23a.27.27,0,0,0,.27.27h3.15a.27.27,0,0,0,.27-.27Z"/><path class="cls-2" d="M38.66,18.75H37.25l1.47,1.5a.81.81,0,0,1,.28.54c0,.55-1.08,1.29-1.59,1.29a.85.85,0,0,1-.67-.35l-.3-.38a81.78,81.78,0,0,1-11.27.85h0c-.63,0-1.05-.8-1.05-1.36a.65.65,0,0,1,.61-.73l1.31,0,.88-1.33H24.44c-.55,0-.8-.27-.8-1.1s.25-1.11.8-1.11h5.73c0-.59.4-1,1.39-1s1.34.38,1.39,1h5.71c.55,0,.82.29.82,1.11S39.21,18.75,38.66,18.75ZM35.45,31.47H33.29c-.47,0-.71-.24-.71-1s.36-.88.66-.88h1.18a.41.41,0,0,0,.44-.47v-.53h-6.6v1.85c0,.68-.36,1-1.38,1s-1.36-.33-1.36-1V23.89a1.27,1.27,0,0,1,1.28-1.28h9.52a1.26,1.26,0,0,1,1.27,1.28V29.1C37.59,30.69,37,31.47,35.45,31.47Zm-.59-6.92a.27.27,0,0,0-.28-.27h-6a.27.27,0,0,0-.27.27v.58h6.6Zm0,1.9h-6.6v.84h6.6Zm-.68-7.7H29.72L28.91,20c2.17-.09,4.37-.22,6-.38Z"/><path class="cls-2" d="M58.47,22.93H53.2v5.29h4c.68,0,1,.36,1,1.41s-.36,1.41-1,1.41H46.06c-.68,0-1-.34-1-1.41s.34-1.41,1-1.41h4V22.93H44.75c-.71,0-1-.35-1-1.44S44,20,44.75,20h5.31V16.56c0-.6.62-1.07,1.58-1.07s1.56.47,1.56,1.07V20h5.27c.71,0,1.07.38,1.07,1.45S59.18,22.93,58.47,22.93Z"/><path class="cls-2" d="M78.61,23.73H75.88l-1.29,4.51c.68-.1,1.31-.21,1.9-.33A9.22,9.22,0,0,1,76,26.06c0-.64.8-.95,1.34-.95a.93.93,0,0,1,1,.59c.19.7,1.21,4.15,1.21,4.61,0,.66-.8,1-1.38,1-.78,0-.9-.49-1-1.09a49.23,49.23,0,0,1-4.86.89A1.26,1.26,0,0,1,71.08,30l0-.39-2.11,0v1c0,.61-.32.9-1.24.9s-1.24-.29-1.24-.9v-1H64.51c-.51,0-.75-.25-.75-1s.24-1,.75-1h1.95v-.85h-1a1.26,1.26,0,0,1-1.28-1.27V21.13a1.26,1.26,0,0,1,1.28-1.27h1V19H64.69c-.51,0-.76-.25-.76-1.05s.25-1.07.76-1.07h1.77v-.36c0-.61.31-.92,1.24-.92s1.24.31,1.24.92v.36h1.72c.51,0,.78.27.78,1.07S71.17,19,70.66,19H68.94v.84h1a1.26,1.26,0,0,1,1.27,1.27v4.29A1.26,1.26,0,0,1,70,26.69h-1v.85h1.87c.5,0,.75.26.75,1v.09l.49-.09,1.28-4.83h-.87c-.64,0-1-.32-1-1.32s.33-1.35,1-1.35h6.15c.65,0,1,.34,1,1.35S79.26,23.73,78.61,23.73ZM66.87,21.59h-.68a.27.27,0,0,0-.27.27v.77h1Zm0,2.35h-1v.73a.27.27,0,0,0,.27.27h.68Zm2.65-2.08a.27.27,0,0,0-.27-.27h-.7v1h1Zm0,2.08h-1v1h.7a.27.27,0,0,0,.27-.27Zm8.4-5H73.14c-.64,0-1-.32-1-1.33s.33-1.34,1-1.34h4.78c.64,0,1,.34,1,1.34S78.56,19,77.92,19Z"/><path class="cls-2" d="M89.31,18.29v12.5c0,.47-.26.69-1,.69s-1-.22-1-.69V29.67a20.13,20.13,0,0,1-2.6.76c-.65,0-1-.75-1-1.31a1,1,0,0,1,.56-.92V18.29c-.35-.1-.53-.4-.53-1.08,0-.84.28-1.13.82-1.13H89c.54,0,.83.29.83,1.13C89.87,17.9,89.68,18.21,89.31,18.29Zm-1.94,0H86.3v1.78h1.07Zm0,4H86.3v1.6h1.07Zm0,3.77H86.3v1.72c.37-.1.73-.21,1.07-.32Zm12.44,3.81c-.39.92-1,1.6-1.58,1.6-.83,0-1.34-1-1.61-1.69-.29.41-.89,1.42-1.45,1.42A1.27,1.27,0,0,1,94.07,30a.64.64,0,0,1,0-.2,1.21,1.21,0,0,1-.34.05H91.43a1.26,1.26,0,0,1-1.27-1.28v-4a1.26,1.26,0,0,1,1.27-1.28h2.33A1.26,1.26,0,0,1,95,24.62V28.7c.3-.39.61-.8.92-1.24a33,33,0,0,1-.55-4.76h-5c-.5,0-.73-.24-.73-1s.23-1,.73-1h.37l-.3-1.17a.54.54,0,0,1,.4-.48H90.7c-.51,0-.76-.25-.76-1s.25-1.06.76-1.06h.84v-.47c0-.53.27-.8,1.08-.8s1.09.27,1.09.8v.47h.68c.51,0,.78.28.78,1.06s-.27,1-.78,1h0a.57.57,0,0,1,.32.46l-.39,1.19h1.07V16.34c0-.48.23-.73,1-.73s1,.25,1,.73l0,4.33h1.6c.49,0,.75.26.75,1s-.26,1-.75,1H97.38c.05.78.1,1.49.16,2.12.2-.36.42-1.24.9-1.24a1.14,1.14,0,0,1,1,1,18.44,18.44,0,0,1-1.47,3c.17.66.38,1,.57,1s.27-.64.61-.64.71,1.13.71,1.47A1.12,1.12,0,0,1,99.81,29.87ZM91.64,19c.32.16.52,1.3.61,1.65h.56l.46-1.44a.45.45,0,0,1,.15-.21Zm1.61,6.16a.26.26,0,0,0-.27-.27h-.76a.27.27,0,0,0-.28.27v.64h1.31Zm0,2.21H91.94v.68a.27.27,0,0,0,.28.27H93a.27.27,0,0,0,.27-.27Zm5.44-7.16a.44.44,0,0,1-.44-.32l-.8-1.85a.79.79,0,0,1,0-.24c0-.38.68-.63,1-.63a.47.47,0,0,1,.46.34l.8,1.83a.79.79,0,0,1,0,.24C99.71,20,99,20.23,98.69,20.23Z"/><path class="cls-2" d="M115.23,28.17h-2.64a11,11,0,0,0,2.67,1.24.51.51,0,0,1,.35.5,1.28,1.28,0,0,1-1.17,1.14c-.7,0-3-1.67-3.57-2.18v1.49c0,.52-.28.76-1.07.76s-1-.24-1-.76V28.93c-.58.5-2.82,2.12-3.54,2.12A1.3,1.3,0,0,1,104,29.91a.51.51,0,0,1,.34-.5,11.78,11.78,0,0,0,2.69-1.24h-2.7c-.34,0-.5-.17-.5-.67s.16-.69.5-.69h4.38v-.57H105.3c-.31,0-.45-.16-.45-.63s.14-.62.45-.62h3.45v-.56h-3.9c-.34,0-.5-.17-.5-.68s.16-.67.5-.67h1.91a6.15,6.15,0,0,0-.29-.82h-2c-.38,0-.56-.18-.56-.77s.18-.77.56-.77h.7a1.8,1.8,0,0,1-.33-.7c0-.45.59-.71,1-.71.7,0,1,.87,1.19,1.41h.42v-1c0-.47.24-.71,1-.71s1,.24,1,.71v1h.93v-1c0-.47.23-.71,1-.71s1,.24,1,.71v1h.48l.52-1.13a.59.59,0,0,1,.58-.39c.36,0,1.15.26,1.15.69a.61.61,0,0,1-.09.33l-.29.5h.59c.38,0,.57.2.57.77s-.19.77-.57.77h-2l-.26.82h1.87c.34,0,.51.17.51.67s-.17.68-.51.68h-3.87V25h3.42c.31,0,.46.15.46.62s-.15.63-.46.63h-3.42v.57h4.36c.34,0,.51.18.51.69S115.57,28.17,115.23,28.17Zm-6.57-5.91c.09.26.15.53.22.82h1.82l.24-.82Z"/><path class="cls-2" d="M130.9,27.05a1.09,1.09,0,0,1-1,.68,6.15,6.15,0,0,1-1.61-.7V30.3c0,.52-.27.77-1.07.77s-1-.25-1-.77V26.89c0-.46.19-.72.78-.77A8.51,8.51,0,0,1,125.85,25h-1.44a8.76,8.76,0,0,1-1.17,1.09.83.83,0,0,1,.81.73,7.62,7.62,0,0,1-1.43,4,.9.9,0,0,1-.63.23c-.54,0-1.28-.42-1.28-1a.62.62,0,0,1,.15-.43A4.16,4.16,0,0,0,121.92,27a6.78,6.78,0,0,1-1.6.7,1.24,1.24,0,0,1-1.09-1.17.56.56,0,0,1,.37-.55,9,9,0,0,0,2.17-1h-.65a1,1,0,0,1-1-1V20.27a1,1,0,0,1,1-1h8a1,1,0,0,1,1,1v3.79a1,1,0,0,1-1,1h-.68a8.25,8.25,0,0,0,2.16,1,.59.59,0,0,1,.39.56A1.05,1.05,0,0,1,130.9,27.05Zm-6.75-6.46h-1.4a.21.21,0,0,0-.21.21v.68h1.61Zm0,2.21h-1.61v.7a.21.21,0,0,0,.21.21h1.4Zm3.6-2a.2.2,0,0,0-.2-.21h-1.38v.89h1.58Zm0,2h-1.58v.91h1.38a.2.2,0,0,0,.2-.21Z"/><path class="cls-3" d="M10.4,8.56a.29.29,0,0,1-.32-.23l-.08-1A2.66,2.66,0,0,1,7.51,8.69H7.16c-2,0-3.22-1.51-3.22-3.88V4.34C3.94,2,5.17.5,7.2.5h.28a2.85,2.85,0,0,1,3.1,2.38v0c0,.19-.19.35-.46.35a.47.47,0,0,1-.5-.39A2,2,0,0,0,7.43,1.33H7.22c-1.55,0-2.33,1.16-2.33,3v.43c0,1.86.79,3.09,2.29,3.09H7.5a2.15,2.15,0,0,0,2.34-2.4V5.36a.27.27,0,0,0-.28-.28H7.32c-.15,0-.28-.14-.28-.36a.31.31,0,0,1,.28-.35H10a.74.74,0,0,1,.75.75v3.2A.27.27,0,0,1,10.4,8.56Z"/><path class="cls-3" d="M16,8.66h-.1c-1.45,0-2.51-1-2.51-2.86V5.54c0-1.71.92-2.87,2.51-2.87H16c1.47,0,2.53,1,2.53,2.87V5.8C18.52,7.73,17.4,8.66,16,8.66Zm1.68-3.11c0-1.47-.74-2.1-1.69-2.1H15.9c-1,0-1.66.65-1.66,2.1v.24c0,1.38.71,2.07,1.66,2.07H16c.87,0,1.69-.63,1.69-2.07Z"/><path class="cls-3" d="M23.61,8.66h-.1c-1.45,0-2.51-1-2.51-2.86V5.54c0-1.71.92-2.87,2.51-2.87h.1c1.47,0,2.53,1,2.53,2.87V5.8C26.14,7.73,25,8.66,23.61,8.66Zm1.68-3.11c0-1.47-.74-2.1-1.69-2.1h-.08c-1,0-1.66.65-1.66,2.1v.24c0,1.38.71,2.07,1.66,2.07h.08c.87,0,1.69-.63,1.69-2.07Z"/><path class="cls-3" d="M34.24,3.11a2.43,2.43,0,0,0-.82.23,1,1,0,0,1,.34.76v.15c0,.85-.77,1.4-2.14,1.4h-.34a4,4,0,0,1-1.13-.15.48.48,0,0,0-.39.47c0,.25.07.51,1,.55l1.52.07c1.23.06,2.12.32,2.12,1.35v.12c0,.94-1,1.48-2.53,1.48h-.7c-1.57,0-2.45-.54-2.45-1.41V8a1.42,1.42,0,0,1,.8-1.16A.79.79,0,0,1,29,6a.81.81,0,0,1,.65-.74,1.19,1.19,0,0,1-.56-1V4.15c0-.7.69-1.34,2.17-1.34h.38A3.39,3.39,0,0,1,32.9,3a2.6,2.6,0,0,1,1.38-.65c.14,0,.26.15.26.35A.36.36,0,0,1,34.24,3.11ZM33.53,8c0-.53-.33-.7-1.37-.76l-1.75-.1c-.57.15-.82.46-.82.89v.13c0,.43.44.79,1.61.79h.62c1.2,0,1.71-.31,1.71-.85ZM33,4.13c0-.48-.51-.7-1.41-.7h-.22c-.88,0-1.4.23-1.4.7v.1c0,.49.51.8,1.4.8h.22c.93,0,1.41-.29,1.41-.8Z"/><path class="cls-3" d="M37.79,8.57c-.24,0-.4-.14-.4-.32V.94c0-.18.16-.32.4-.32s.4.14.4.32V8.25C38.19,8.43,38,8.57,37.79,8.57Z"/><path class="cls-3" d="M45.48,5.92h-3.6v.13a1.64,1.64,0,0,0,1.64,1.83h.27c1.57,0,1.19-1.07,2-1.07a.33.33,0,0,1,.36.3.22.22,0,0,1,0,.08A2.37,2.37,0,0,1,43.8,8.62h-.3A2.45,2.45,0,0,1,41,6V5.4A2.44,2.44,0,0,1,43.5,2.7h.25a2.41,2.41,0,0,1,2.46,2.47v.07A.71.71,0,0,1,45.48,5.92ZM45.35,5a1.58,1.58,0,0,0-1.62-1.62h-.21a1.68,1.68,0,0,0-1.64,1.9h3.21a.24.24,0,0,0,.26-.25Z"/><path class="cls-3" d="M56.73,8.68H50.61a.74.74,0,0,1-.75-.75V1.86a.74.74,0,0,1,.75-.75h6.12a.74.74,0,0,1,.75.75V7.93A.74.74,0,0,1,56.73,8.68ZM56.64,2.2a.27.27,0,0,0-.28-.28H51a.27.27,0,0,0-.28.28V7.59a.27.27,0,0,0,.28.28h5.37a.27.27,0,0,0,.28-.28Z"/><path class="cls-3" d="M66.61,8.52c-.25,0-.42-.14-.42-.32V7.88H61a.37.37,0,0,1-.33-.41A.37.37,0,0,1,61,7.06h5.18V3.14H61c-.16,0-.31-.15-.31-.41s.15-.41.31-.41h4.27a2.62,2.62,0,0,0,.87-.1.68.68,0,0,1,.53,0,.39.39,0,0,1,.34.36V8.2C67,8.38,66.85,8.52,66.61,8.52Z"/><path class="cls-3" d="M75.44,9.06l-4.1-2a.36.36,0,0,1-.12-.51.36.36,0,0,1,.47-.23l4.11,2a.36.36,0,0,1,.12.51A.38.38,0,0,1,75.44,9.06ZM75,5.92a12.5,12.5,0,0,0-2.82-1.47A.33.33,0,0,1,72,4a.37.37,0,0,1,.45-.27,14,14,0,0,1,3,1.48.39.39,0,0,1,.08.56A.37.37,0,0,1,75,5.92ZM75.71,3a12.08,12.08,0,0,0-2.82-1.46.33.33,0,0,1-.18-.47.38.38,0,0,1,.44-.27,13.35,13.35,0,0,1,3,1.47.38.38,0,0,1,.07.55A.38.38,0,0,1,75.71,3Z"/><path class="cls-4" d="M10.4,8.56a.29.29,0,0,1-.32-.23l-.08-1A2.66,2.66,0,0,1,7.51,8.69H7.16c-2,0-3.22-1.51-3.22-3.88V4.34C3.94,2,5.17.5,7.2.5h.28a2.85,2.85,0,0,1,3.1,2.38v0c0,.19-.19.35-.46.35a.47.47,0,0,1-.5-.39A2,2,0,0,0,7.43,1.33H7.22c-1.55,0-2.33,1.16-2.33,3v.43c0,1.86.79,3.09,2.29,3.09H7.5a2.15,2.15,0,0,0,2.34-2.4V5.36a.27.27,0,0,0-.28-.28H7.32c-.15,0-.28-.14-.28-.36a.31.31,0,0,1,.28-.35H10a.74.74,0,0,1,.75.75v3.2A.27.27,0,0,1,10.4,8.56Z"/><path class="cls-4" d="M16,8.66h-.1c-1.45,0-2.51-1-2.51-2.86V5.54c0-1.71.92-2.87,2.51-2.87H16c1.47,0,2.53,1,2.53,2.87V5.8C18.52,7.73,17.4,8.66,16,8.66Zm1.68-3.11c0-1.47-.74-2.1-1.69-2.1H15.9c-1,0-1.66.65-1.66,2.1v.24c0,1.38.71,2.07,1.66,2.07H16c.87,0,1.69-.63,1.69-2.07Z"/><path class="cls-4" d="M23.61,8.66h-.1c-1.45,0-2.51-1-2.51-2.86V5.54c0-1.71.92-2.87,2.51-2.87h.1c1.47,0,2.53,1,2.53,2.87V5.8C26.14,7.73,25,8.66,23.61,8.66Zm1.68-3.11c0-1.47-.74-2.1-1.69-2.1h-.08c-1,0-1.66.65-1.66,2.1v.24c0,1.38.71,2.07,1.66,2.07h.08c.87,0,1.69-.63,1.69-2.07Z"/><path class="cls-4" d="M34.24,3.11a2.43,2.43,0,0,0-.82.23,1,1,0,0,1,.34.76v.15c0,.85-.77,1.4-2.14,1.4h-.34a4,4,0,0,1-1.13-.15.48.48,0,0,0-.39.47c0,.25.07.51,1,.55l1.52.07c1.23.06,2.12.32,2.12,1.35v.12c0,.94-1,1.48-2.53,1.48h-.7c-1.57,0-2.45-.54-2.45-1.41V8a1.42,1.42,0,0,1,.8-1.16A.79.79,0,0,1,29,6a.81.81,0,0,1,.65-.74,1.19,1.19,0,0,1-.56-1V4.15c0-.7.69-1.34,2.17-1.34h.38A3.39,3.39,0,0,1,32.9,3a2.6,2.6,0,0,1,1.38-.65c.14,0,.26.15.26.35A.36.36,0,0,1,34.24,3.11ZM33.53,8c0-.53-.33-.7-1.37-.76l-1.75-.1c-.57.15-.82.46-.82.89v.13c0,.43.44.79,1.61.79h.62c1.2,0,1.71-.31,1.71-.85ZM33,4.13c0-.48-.51-.7-1.41-.7h-.22c-.88,0-1.4.23-1.4.7v.1c0,.49.51.8,1.4.8h.22c.93,0,1.41-.29,1.41-.8Z"/><path class="cls-4" d="M37.79,8.57c-.24,0-.4-.14-.4-.32V.94c0-.18.16-.32.4-.32s.4.14.4.32V8.25C38.19,8.43,38,8.57,37.79,8.57Z"/><path class="cls-4" d="M45.48,5.92h-3.6v.13a1.64,1.64,0,0,0,1.64,1.83h.27c1.57,0,1.19-1.07,2-1.07a.33.33,0,0,1,.36.3.22.22,0,0,1,0,.08A2.37,2.37,0,0,1,43.8,8.62h-.3A2.45,2.45,0,0,1,41,6V5.4A2.44,2.44,0,0,1,43.5,2.7h.25a2.41,2.41,0,0,1,2.46,2.47v.07A.71.71,0,0,1,45.48,5.92ZM45.35,5a1.58,1.58,0,0,0-1.62-1.62h-.21a1.68,1.68,0,0,0-1.64,1.9h3.21a.24.24,0,0,0,.26-.25Z"/><path class="cls-4" d="M56.73,8.68H50.61a.74.74,0,0,1-.75-.75V1.86a.74.74,0,0,1,.75-.75h6.12a.74.74,0,0,1,.75.75V7.93A.74.74,0,0,1,56.73,8.68ZM56.64,2.2a.27.27,0,0,0-.28-.28H51a.27.27,0,0,0-.28.28V7.59a.27.27,0,0,0,.28.28h5.37a.27.27,0,0,0,.28-.28Z"/><path class="cls-4" d="M66.61,8.52c-.25,0-.42-.14-.42-.32V7.88H61a.37.37,0,0,1-.33-.41A.37.37,0,0,1,61,7.06h5.18V3.14H61c-.16,0-.31-.15-.31-.41s.15-.41.31-.41h4.27a2.62,2.62,0,0,0,.87-.1.68.68,0,0,1,.53,0,.39.39,0,0,1,.34.36V8.2C67,8.38,66.85,8.52,66.61,8.52Z"/><path class="cls-4" d="M75.44,9.06l-4.1-2a.36.36,0,0,1-.12-.51.36.36,0,0,1,.47-.23l4.11,2a.36.36,0,0,1,.12.51A.38.38,0,0,1,75.44,9.06ZM75,5.92a12.5,12.5,0,0,0-2.82-1.47A.33.33,0,0,1,72,4a.37.37,0,0,1,.45-.27,14,14,0,0,1,3,1.48.39.39,0,0,1,.08.56A.37.37,0,0,1,75,5.92ZM75.71,3a12.08,12.08,0,0,0-2.82-1.46.33.33,0,0,1-.18-.47.38.38,0,0,1,.44-.27,13.35,13.35,0,0,1,3,1.47.38.38,0,0,1,.07.55A.38.38,0,0,1,75.71,3Z"/></g></g></svg>